<svg width="282" height="100" viewBox="0 0 282 100" fill="none" xmlns="http://www.w3.org/2000/svg">
<path d="M199.2 56.2001C198.1 56.2001 197 56.3001 195.9 56.4001C187.8 40.9001 174.7 30.9001 159.9 30.9001C141.6 30.9001 125.9 46.2001 119.1 68.0001C112.4 60.8001 102.8 56.2001 92.1 56.2001C72 56.2001 55.8 72.1001 55.6 91.9001H115.5H128.6H167.9H204.4H230.6C230.4 72.1001 216.4 56.2001 199.2 56.2001Z" fill="#F4F3F4"/>
<path d="M100.1 33.8C107.004 33.8 112.6 28.2036 112.6 21.3C112.6 14.3965 107.004 8.80005 100.1 8.80005C93.1964 8.80005 87.6 14.3965 87.6 21.3C87.6 28.2036 93.1964 33.8 100.1 33.8Z" fill="#F4F3F4"/>
<path d="M175.8 73.5999H110.6C108.5 73.5999 106.8 75.2999 106.8 77.4999V78.1999C106.8 80.2999 108.5 82.0999 110.6 82.0999H175.8C177.9 82.0999 179.6 80.3999 179.6 78.1999V77.4999C179.6 75.2999 177.9 73.5999 175.8 73.5999Z" fill="#FFE766"/>
<path d="M175.8 82.8H110.6C108.1 82.8 106 80.7 106 78.1V77.4C106 74.8 108 72.7 110.6 72.7H175.8C178.3 72.7 180.4 74.8 180.4 77.4V78.1C180.4 80.7 178.3 82.8 175.8 82.8ZM110.5 74.4C108.9 74.4 107.5 75.8 107.5 77.5V78.2C107.5 79.9 108.8 81.3 110.5 81.3H175.7C177.3 81.3 178.7 79.9 178.7 78.2V77.5C178.7 75.8 177.4 74.4 175.7 74.4H110.5Z" fill="#1F2220"/>
<path d="M121 84.5C121 88.2 118 91.3 114.2 91.3C110.4 91.3 107.4 88.2 107.4 84.5C107.4 80.8 110.4 77.7 114.2 77.7C118 77.7 121 80.8 121 84.5Z" fill="#1F2220"/>
<path d="M140 84.5C140 88.2 137 91.3 133.2 91.3C129.4 91.3 126.4 88.2 126.4 84.5C126.4 80.8 129.4 77.7 133.2 77.7C136.9 77.7 140 80.8 140 84.5Z" fill="#1F2220"/>
<path d="M158.9 84.5C158.9 88.2 155.9 91.3 152.1 91.3C148.3 91.3 145.3 88.2 145.3 84.5C145.3 80.8 148.3 77.7 152.1 77.7C155.9 77.7 158.9 80.8 158.9 84.5Z" fill="#1F2220"/>
<path d="M177.8 84.5C177.8 88.2 174.8 91.3 171 91.3C167.2 91.3 164.2 88.2 164.2 84.5C164.2 80.8 167.2 77.7 171 77.7C174.8 77.7 177.8 80.8 177.8 84.5Z" fill="#1F2220"/>
<path d="M153.5 64.8H133.7V73.5H153.5V64.8Z" fill="#1F2220"/>
<path d="M112.2 50.3C114.8 50.3 116.8 48.3 116.8 45.8C116.8 43.3 114.7 41.3 112.2 41.3C109.6 41.3 107.6 43.3 107.6 45.8C107.6 48.2 109.7 50.3 112.2 50.3Z" fill="#1F2220"/>
<path d="M112.855 45.3729L111.454 46.146L116.576 55.4263L117.977 54.6532L112.855 45.3729Z" fill="#1F2220"/>
<path d="M168.4 33.1001L158.9 55.1001C158.5 55.9001 157.8 56.6001 157 56.9001C156.2 57.2001 155.2 57.2001 154.4 56.9001L150.7 55.4001C150.3 55.2001 149.9 55.0001 149.6 54.7001C149.3 54.4001 149 54.0001 148.9 53.6001C148.7 53.2001 148.6 52.7001 148.6 52.3001C148.6 51.9001 148.7 51.4001 148.8 51.0001L158.3 29.0001C158.7 28.2001 159.4 27.5001 160.2 27.2001C161 26.9001 162 26.9001 162.8 27.2001L166.5 28.7001C166.9 28.9001 167.3 29.1001 167.6 29.4001C167.9 29.7001 168.2 30.1001 168.3 30.5001C168.5 30.9001 168.6 31.4001 168.6 31.8001C168.6 32.2001 168.5 32.7001 168.4 33.1001Z" fill="#1DB981"/>
<path d="M155.7 58C155.1 58 154.6 57.9 154 57.7L150.3 56.2C149.8 56 149.3 55.7 148.9 55.3C148.5 54.9 148.2 54.5 148 53.9C147.8 53.4 147.7 52.8 147.7 52.3C147.7 51.7 147.8 51.2 148 50.7L157.5 28.6C158 27.6 158.8 26.8 159.9 26.3C160.9 25.9 162.1 25.9 163.1 26.3L166.8 27.8C167.3 28 167.8 28.3 168.2 28.7C168.6 29.1 168.9 29.5 169.1 30.1C169.3 30.6 169.4 31.2 169.4 31.7C169.4 32.3 169.3 32.8 169.1 33.3L159.6 55.3C159.1 56.4 158.3 57.1 157.2 57.6C156.8 57.9 156.3 58 155.7 58ZM161.4 27.6C161.1 27.6 160.7 27.7 160.4 27.8C159.7 28.1 159.2 28.6 158.9 29.2L149.4 51.2C149.3 51.5 149.2 51.8 149.2 52.2C149.2 52.5 149.3 52.9 149.4 53.2C149.5 53.5 149.7 53.8 150 54C150.2 54.2 150.5 54.4 150.8 54.5L154.6 56C155.3 56.3 156 56.3 156.6 56C157.3 55.7 157.8 55.2 158.1 54.6L167.5 32.6C167.6 32.3 167.7 31.9 167.7 31.6C167.7 31.3 167.6 30.9 167.5 30.6C167.4 30.3 167.2 30 166.9 29.8C166.7 29.6 166.4 29.4 166.1 29.3L162.3 27.8C162.1 27.7 161.8 27.6 161.4 27.6Z" fill="#1F2220"/>
<path d="M164.4 48H125.9C122.9 48 120.5 50.5 120.5 53.6V61C120.5 64.1 122.9 66.6 125.9 66.6H164.4C167.4 66.6 169.8 64.1 169.8 61V53.6C169.7 50.5 167.3 48 164.4 48Z" fill="#1DB981"/>
<path d="M164.4 67.4H125.9C122.5 67.4 119.7 64.5 119.7 61V53.5999C119.7 50.0999 122.5 47.2 125.9 47.2H164.4C167.8 47.2 170.6 50.0999 170.6 53.5999V61C170.5 64.5 167.8 67.4 164.4 67.4ZM125.9 48.7999C123.4 48.7999 121.3 50.8999 121.3 53.5999V61C121.3 63.6 123.4 65.8 125.9 65.8H164.4C166.9 65.8 169 63.7 169 61V53.5999C169 50.9999 166.9 48.7999 164.4 48.7999H125.9Z" fill="#1F2220"/>
<path d="M171.1 54.8H114.7C110.2 54.8 106.5 58.1 106.5 62.1C106.5 66.1 110.2 69.4001 114.7 69.4001H171.1C175.6 69.4001 179.3 66.1 179.3 62.1C179.3 58 175.7 54.8 171.1 54.8Z" fill="#FFE766"/>
<path d="M171.1 70.2H114.7C109.7 70.2 105.7 66.6 105.7 62.1C105.7 57.6 109.7 54 114.7 54H171.1C176.1 54 180.1 57.6 180.1 62.1C180.1 66.6 176.1 70.2 171.1 70.2ZM114.7 55.6C110.6 55.6 107.3 58.5 107.3 62.1C107.3 65.7 110.6 68.6 114.7 68.6H171.1C175.2 68.6 178.5 65.7 178.5 62.1C178.5 58.5 175.2 55.6 171.1 55.6H114.7Z" fill="#1F2220"/>
<path d="M122.1 65.5C124 65.5 125.5 63.9999 125.5 62.0999C125.5 60.1999 124 58.7 122.1 58.7C120.2 58.7 118.7 60.1999 118.7 62.0999C118.7 63.9999 120.3 65.5 122.1 65.5Z" fill="white"/>
<path d="M122.1 66.2C119.8 66.2 118 64.4 118 62.1C118 59.8 119.8 58 122.1 58C124.4 58 126.2 59.8 126.2 62.1C126.2 64.4 124.4 66.2 122.1 66.2ZM122.1 59.4C120.6 59.4 119.4 60.6 119.4 62.1C119.4 63.6 120.6 64.8 122.1 64.8C123.6 64.8 124.8 63.6 124.8 62.1C124.8 60.6 123.6 59.4 122.1 59.4Z" fill="#1F2220"/>
<path d="M136 65.5C137.9 65.5 139.4 63.9999 139.4 62.0999C139.4 60.1999 137.9 58.7 136 58.7C134.1 58.7 132.6 60.1999 132.6 62.0999C132.6 63.9999 134.1 65.5 136 65.5Z" fill="white"/>
<path d="M136 66.2C133.7 66.2 131.9 64.4 131.9 62.1C131.9 59.8 133.7 58 136 58C138.3 58 140.1 59.8 140.1 62.1C140.1 64.4 138.3 66.2 136 66.2ZM136 59.4C134.5 59.4 133.3 60.6 133.3 62.1C133.3 63.6 134.5 64.8 136 64.8C137.5 64.8 138.7 63.6 138.7 62.1C138.7 60.6 137.5 59.4 136 59.4Z" fill="#1F2220"/>
<path d="M149.9 65.5C151.8 65.5 153.3 63.9999 153.3 62.0999C153.3 60.1999 151.8 58.7 149.9 58.7C148 58.7 146.5 60.1999 146.5 62.0999C146.5 63.9999 148 65.5 149.9 65.5Z" fill="white"/>
<path d="M149.9 66.2C147.6 66.2 145.8 64.4 145.8 62.1C145.8 59.8 147.6 58 149.9 58C152.2 58 154 59.8 154 62.1C154 64.4 152.1 66.2 149.9 66.2ZM149.9 59.4C148.4 59.4 147.2 60.6 147.2 62.1C147.2 63.6 148.4 64.8 149.9 64.8C151.4 64.8 152.6 63.6 152.6 62.1C152.6 60.6 151.4 59.4 149.9 59.4Z" fill="#1F2220"/>
<path d="M163.7 65.5C165.6 65.5 167.1 63.9999 167.1 62.0999C167.1 60.1999 165.6 58.7 163.7 58.7C161.8 58.7 160.3 60.1999 160.3 62.0999C160.3 63.9999 161.8 65.5 163.7 65.5Z" fill="white"/>
<path d="M163.7 66.2C161.4 66.2 159.6 64.4 159.6 62.1C159.6 59.8 161.4 58 163.7 58C166 58 167.8 59.8 167.8 62.1C167.8 64.4 166 66.2 163.7 66.2ZM163.7 59.4C162.2 59.4 161 60.6 161 62.1C161 63.6 162.2 64.8 163.7 64.8C165.2 64.8 166.4 63.6 166.4 62.1C166.4 60.6 165.2 59.4 163.7 59.4Z" fill="#1F2220"/>
<path d="M141.1 47.4001C148.169 47.4001 153.9 41.6693 153.9 34.6C153.9 27.5308 148.169 21.8 141.1 21.8C134.031 21.8 128.3 27.5308 128.3 34.6C128.3 41.6693 134.031 47.4001 141.1 47.4001Z" fill="#FFE766"/>
<path d="M141.1 48.3001C137.5 48.3001 134.1 46.9001 131.5 44.3001C128.9 41.7001 127.5 38.3001 127.5 34.7001C127.5 31.1001 128.9 27.6001 131.5 25.1001C134.1 22.5001 137.5 21.1001 141.1 21.1001C141.1 21.1001 141.1 21.1001 141.2 21.1001C144.8 21.1001 148.2 22.5001 150.8 25.1001C153.4 27.7001 154.8 31.1001 154.8 34.7001C154.8 38.3001 153.4 41.8001 150.8 44.3001C148.2 46.8001 144.8 48.2001 141.1 48.3001C141.1 48.3001 141.2 48.3001 141.1 48.3001ZM141.1 22.6001C137.8 22.6001 134.8 23.9001 132.6 26.2001C130.3 28.5001 129.1 31.5001 129.1 34.7001C129.1 37.9001 130.4 40.9001 132.7 43.2001C135 45.5001 138 46.7001 141.2 46.7001C144.4 46.7001 147.4 45.4001 149.7 43.1001C152 40.8001 153.2 37.8001 153.2 34.6001C153.2 31.4001 151.9 28.4001 149.6 26.1001C147.3 23.9001 144.3 22.6001 141.1 22.6001Z" fill="#1F2220"/>
<path fill-rule="evenodd" clip-rule="evenodd" d="M139 38.1001C139.7 38.4001 140.4 38.5001 141.1 38.4001C141.8 38.4001 142.5 38.2001 143.2 37.9001C143.9 37.6001 144.5 37.2001 145 36.6001C145.5 36.1001 145.9 35.4001 146.1 34.7001C146.4 34.0001 146.5 33.3001 146.4 32.6001C146.4 32.5001 146.3 32.4001 146.2 32.4001H145.8C145.7 32.4001 145.6 32.5001 145.6 32.6001C145.6 33.2001 145.5 33.8001 145.3 34.4001C145.1 35.0001 144.8 35.5001 144.3 36.0001C143.9 36.5001 143.4 36.8001 142.8 37.1001C142.2 37.4001 141.6 37.5001 141 37.5001C140.4 37.5001 139.8 37.4001 139.2 37.2001C138.6 37.0001 138.1 36.7001 137.6 36.2001C137.1 35.8001 136.8 35.3001 136.5 34.7001C136.2 34.1001 136.1 33.5001 136.1 32.9001C136.1 32.8001 136.1 32.8001 136 32.7001C136 32.7001 135.9 32.6001 135.8 32.6001H135.4C135.3 32.6001 135.2 32.7001 135.2 32.8001C135.2 33.5001 135.4 34.3001 135.7 34.9001C136 35.6001 136.4 36.2001 137 36.7001C137.7 37.5001 138.3 37.8001 139 38.1001Z" fill="#1F2220"/>
<path d="M138.8 31.4001C138.8 31.9001 138.5 32.2001 138 32.3001C137.5 32.3001 137.2 32.0001 137.1 31.5001C137.1 31.0001 137.4 30.7001 137.9 30.6001C138.4 30.6001 138.7 31.0001 138.8 31.4001Z" fill="#1F2220"/>
<path d="M144.7 31.3C144.7 31.8 144.4 32.1 143.9 32.2C143.4 32.2 143.1 31.9 143 31.4C143 30.9 143.3 30.6 143.8 30.5C144.3 30.5 144.7 30.9 144.7 31.3Z" fill="#1F2220"/>
<path d="M139 25.4001C139.9 25.1001 140.7 24.6001 141.2 24.0001C140.6 23.3001 140.2 22.6001 140.3 21.9001C138 22.0001 135.8 22.8001 133.9 24.1001V24.2001C134.5 25.6001 136.8 26.2001 139 25.4001Z" fill="#1F2220"/>
<path d="M141.2 24C141.8 24.6 142.5 25.1 143.4 25.4C145.6 26.2 147.8 25.6 148.4 24.1C146.6 22.8001 144.4 22 142.1 21.8C142.2 22.6 141.8 23.3 141.2 24Z" fill="#1F2220"/>
<path d="M141 21.8C140.8 21.8 140.5 21.8 140.3 21.8C140.3 22.5 140.6 23.3 141.2 23.9C141.8 23.2 142.1 22.5 142.1 21.8C141.8 21.8 141.4 21.8 141 21.8Z" fill="#1F2220"/>
<path d="M140 22H143V24H140V22Z" fill="#1F2220"/>
</svg>
