<svg width="282" height="100" viewBox="0 0 282 100" fill="none" xmlns="http://www.w3.org/2000/svg">
<path fill-rule="evenodd" clip-rule="evenodd" d="M141.7 92.8H74.7C74.7 52.2001 104.9 18.8 141.7 18.8C178.5 18.8 208.7 52.2001 208.7 92.8H141.7Z" fill="#F4F3F4"/>
<path d="M77.1 40.6C81.1869 40.6 84.5 37.287 84.5 33.2001C84.5 29.1131 81.1869 25.8 77.1 25.8C73.0131 25.8 69.7 29.1131 69.7 33.2001C69.7 37.287 73.0131 40.6 77.1 40.6Z" fill="#F4F3F4"/>
<path d="M74.9 54.6C76.7778 54.6 78.3 53.0778 78.3 51.2001C78.3 49.3223 76.7778 47.8 74.9 47.8C73.0222 47.8 71.5 49.3223 71.5 51.2001C71.5 53.0778 73.0222 54.6 74.9 54.6Z" fill="#F4F3F4"/>
<path d="M202.6 50.7C203.76 50.7 204.7 49.7598 204.7 48.6C204.7 47.4402 203.76 46.5 202.6 46.5C201.44 46.5 200.5 47.4402 200.5 48.6C200.5 49.7598 201.44 50.7 202.6 50.7Z" fill="#F4F3F4"/>
<path d="M211.4 58.6C214.106 58.6 216.3 56.4062 216.3 53.7001C216.3 50.9939 214.106 48.8 211.4 48.8C208.694 48.8 206.5 50.9939 206.5 53.7001C206.5 56.4062 208.694 58.6 211.4 58.6Z" fill="#F4F3F4"/>
<path d="M198.7 35.4001C202.566 35.4001 205.7 32.2661 205.7 28.4001C205.7 24.5342 202.566 21.4001 198.7 21.4001C194.834 21.4001 191.7 24.5342 191.7 28.4001C191.7 32.2661 194.834 35.4001 198.7 35.4001Z" fill="#F4F3F4"/>
<path d="M124.5 88.1001C133.392 88.1001 140.6 80.8919 140.6 72.0001C140.6 63.1084 133.392 55.9001 124.5 55.9001C115.608 55.9001 108.4 63.1084 108.4 72.0001C108.4 80.8919 115.608 88.1001 124.5 88.1001Z" fill="#FFE766"/>
<path d="M124.5 88.9001C115.2 88.9001 107.6 81.4001 107.6 72.1001C107.6 62.8001 115.1 55.2001 124.4 55.1001C124.4 55.1001 124.4 55.1001 124.5 55.1001C129 55.1001 133.2 56.8001 136.4 60.0001C139.6 63.2001 141.4 67.4001 141.4 71.9001C141.4 76.4001 139.7 80.7001 136.5 83.9001C133.3 87.1001 129.1 88.9001 124.5 88.9001ZM124.5 56.7001C116 56.7001 109.2 63.6001 109.2 72.1001C109.2 80.5001 116.1 87.3001 124.5 87.3001C124.5 87.3001 124.5 87.3001 124.6 87.3001C128.7 87.3001 132.5 85.7001 135.4 82.8001C138.3 79.9001 139.9 76.0001 139.8 72.0001C139.8 67.9001 138.2 64.1001 135.3 61.2001C132.4 58.3001 128.6 56.7001 124.5 56.7001Z" fill="#1F2220"/>
<path fill-rule="evenodd" clip-rule="evenodd" d="M121.8 76.3002C122.7 76.6002 123.6 76.8002 124.5 76.7002C125.4 76.7002 126.3 76.4002 127.2 76.1002C128 75.7002 128.8 75.2002 129.4 74.5002C130 73.8002 130.5 73.0002 130.8 72.2002C131.1 71.3002 131.3 70.4002 131.2 69.5002C131.2 69.3002 131.1 69.2002 130.9 69.2002H130.4C130.2 69.2002 130.1 69.3002 130.1 69.5002C130.1 70.3002 130 71.1002 129.7 71.8002C129.4 72.5002 129 73.2002 128.5 73.8002C128 74.4002 127.3 74.8002 126.6 75.2002C125.9 75.5002 125.1 75.7002 124.4 75.7002C123.6 75.7002 122.8 75.6002 122.1 75.3002C121.4 75.0002 120.7 74.6002 120.1 74.1002C119.5 73.6002 119.1 72.9002 118.7 72.2002C118.4 71.5002 118.2 70.7002 118.2 70.0002C118.2 69.9002 118.2 69.8002 118.1 69.8002C118 69.7002 118 69.7002 117.9 69.7002H117.4C117.2 69.7002 117.1 69.8002 117.1 70.0002C117.1 70.9002 117.4 71.8002 117.7 72.7002C118.1 73.5002 118.6 74.3002 119.3 74.9002C120.2 75.5002 121 76.0002 121.8 76.3002Z" fill="#1F2220"/>
<path d="M121.5 68.0001C121.5 68.6001 121.1 69.1001 120.5 69.1001C119.9 69.1001 119.4 68.7001 119.4 68.1001C119.4 67.5001 119.8 67.0001 120.4 67.0001C121 66.9001 121.5 67.4001 121.5 68.0001Z" fill="#1F2220"/>
<path d="M129 67.8C129 68.4 128.6 68.9 128 68.9C127.4 68.9 126.9 68.5 126.9 67.9C126.9 67.3 127.3 66.8 127.9 66.8C128.4 66.8 128.9 67.2 129 67.8Z" fill="#1F2220"/>
<path d="M121.8 60.4001C122.9 60.0001 123.9 59.3001 124.6 58.6001C123.8 57.8001 123.4 56.8001 123.4 55.9001C120.5 56.1001 117.7 57.1001 115.4 58.6001V58.7001C116.2 60.7001 119 61.4001 121.8 60.4001Z" fill="#1F2220"/>
<path d="M124.6 58.6001C125.3 59.3001 126.2 60.0001 127.4 60.4001C130.2 61.4001 133 60.7001 133.7 58.8001C131.4 57.2001 128.7 56.2001 125.8 55.9001C125.8 56.9001 125.4 57.8001 124.6 58.6001Z" fill="#1F2220"/>
<path d="M124.3 55.9001C124 55.9001 123.7 55.9001 123.4 55.9001C123.4 56.8001 123.8 57.8001 124.6 58.6001C125.4 57.8001 125.8 56.8001 125.8 55.9001C125.3 55.9001 124.8 55.9001 124.3 55.9001Z" fill="#1F2220"/>
<path d="M142.5 57.1001C151.392 57.1001 158.6 49.8919 158.6 41.0001C158.6 32.1084 151.392 24.9001 142.5 24.9001C133.608 24.9001 126.4 32.1084 126.4 41.0001C126.4 49.8919 133.608 57.1001 142.5 57.1001Z" fill="#FFE766"/>
<path d="M142.5 57.9001C133.2 57.9001 125.6 50.4001 125.6 41.1001C125.6 31.8001 133.1 24.2001 142.4 24.1001C142.4 24.1001 142.4 24.1001 142.5 24.1001C151.8 24.1001 159.4 31.6001 159.4 40.9001C159.5 50.3001 151.9 57.9001 142.5 57.9001C142.6 57.9001 142.6 57.9001 142.5 57.9001ZM142.5 25.7001C134 25.7001 127.2 32.6001 127.2 41.1001C127.2 49.5001 134.1 56.3001 142.5 56.3001C142.5 56.3001 142.5 56.3001 142.6 56.3001C151 56.3001 157.9 49.4001 157.8 40.9001C157.8 32.5001 151 25.7001 142.5 25.7001Z" fill="#1F2220"/>
<path fill-rule="evenodd" clip-rule="evenodd" d="M139.9 45.3002C140.8 45.6002 141.7 45.8002 142.6 45.7002C143.5 45.7002 144.4 45.4002 145.3 45.1002C146.1 44.7002 146.9 44.2002 147.5 43.5002C148.1 42.8002 148.6 42.0002 148.9 41.2002C149.2 40.3002 149.4 39.4002 149.3 38.5002C149.3 38.3002 149.2 38.2002 149 38.2002H148.5C148.3 38.2002 148.2 38.3002 148.2 38.5002C148.2 39.3002 148.1 40.1002 147.8 40.8002C147.5 41.5002 147.1 42.2002 146.6 42.8002C146.1 43.4002 145.4 43.8002 144.7 44.2002C144 44.5002 143.2 44.7002 142.5 44.7002C141.7 44.7002 140.9 44.6002 140.2 44.3002C139.5 44.0002 138.8 43.6002 138.2 43.1002C137.6 42.6002 137.2 41.9002 136.8 41.2002C136.5 40.5002 136.3 39.7002 136.3 39.0002C136.3 38.9002 136.3 38.8002 136.2 38.8002C136.1 38.7002 136.1 38.7002 136 38.7002H135.5C135.3 38.7002 135.2 38.8002 135.2 39.0002C135.2 39.9002 135.5 40.8002 135.8 41.7002C136.2 42.5002 136.7 43.3002 137.4 43.9002C138.2 44.5002 139 45.0002 139.9 45.3002Z" fill="#1F2220"/>
<path d="M139.6 37.0001C139.6 37.6001 139.2 38.1001 138.6 38.1001C138 38.1001 137.5 37.7001 137.5 37.1001C137.5 36.5001 137.9 36.0001 138.5 36.0001C139.1 35.9001 139.5 36.4001 139.6 37.0001Z" fill="#1F2220"/>
<path d="M147 36.8C147 37.4 146.6 37.9001 146 37.9001C145.4 37.9001 144.9 37.5001 144.9 36.9001C144.9 36.3001 145.3 35.8 145.9 35.8C146.5 35.8 147 36.2 147 36.8Z" fill="#1F2220"/>
<path fill-rule="evenodd" clip-rule="evenodd" d="M139.898 29.4001C140.973 29.0094 141.952 28.3325 142.649 27.649C143.342 28.3325 144.228 29.0094 145.4 29.4001C148.2 30.4001 151 29.7001 151.7 27.8001C149.426 26.2183 146.761 25.2229 143.898 24.9106C143.898 24.9071 143.898 24.9036 143.898 24.9001H143.8H142.398H141.498C138.598 25.1001 135.798 26.1001 133.498 27.6001V27.7001C134.198 29.7001 136.998 30.4001 139.898 29.4001Z" fill="#1F2220"/>
<path d="M160.6 88.1001C169.492 88.1001 176.7 80.8919 176.7 72.0001C176.7 63.1084 169.492 55.9001 160.6 55.9001C151.708 55.9001 144.5 63.1084 144.5 72.0001C144.5 80.8919 151.708 88.1001 160.6 88.1001Z" fill="#FFE766"/>
<path d="M160.6 88.9001C156.1 88.9001 151.9 87.2001 148.7 84.0001C145.5 80.8001 143.7 76.6001 143.7 72.1001C143.7 62.8001 151.2 55.2001 160.5 55.1001C160.5 55.1001 160.5 55.1001 160.6 55.1001C165.1 55.1001 169.3 56.8001 172.5 60.0001C175.7 63.2001 177.5 67.4001 177.5 71.9001C177.5 76.4001 175.8 80.7001 172.6 83.9001C169.4 87.1001 165.2 88.9001 160.6 88.9001ZM160.6 56.7001C160.6 56.7001 160.5 56.7001 160.6 56.7001C152.1 56.7001 145.3 63.6001 145.3 72.1001C145.3 76.2001 146.9 80.0001 149.8 82.9001C152.7 85.8001 156.6 87.4001 160.6 87.3001C164.7 87.3001 168.5 85.7001 171.4 82.8001C174.3 79.9001 175.9 76.0001 175.8 72.0001C175.9 63.5001 169 56.7001 160.6 56.7001Z" fill="#1F2220"/>
<path fill-rule="evenodd" clip-rule="evenodd" d="M157.9 76.3002C158.8 76.6002 159.7 76.8002 160.6 76.7002C161.5 76.7002 162.4 76.4002 163.3 76.1002C164.1 75.7002 164.9 75.2002 165.5 74.5002C166.1 73.8002 166.6 73.0002 166.9 72.2002C167.2 71.3002 167.4 70.4002 167.3 69.5002C167.3 69.3002 167.2 69.2002 167 69.2002H166.5C166.3 69.2002 166.2 69.3002 166.2 69.5002C166.2 70.3002 166.1 71.1002 165.8 71.8002C165.5 72.5002 165.1 73.2002 164.6 73.8002C164.1 74.4002 163.4 74.8002 162.7 75.2002C162 75.5002 161.2 75.7002 160.5 75.7002C159.7 75.7002 158.9 75.6002 158.2 75.3002C157.5 75.0002 156.8 74.6002 156.2 74.1002C155.6 73.6002 155.2 72.9002 154.8 72.2002C154.5 71.5002 154.3 70.7002 154.3 70.0002C154.3 69.9002 154.3 69.8002 154.2 69.8002C154.1 69.7002 154.1 69.7002 154 69.7002H153.5C153.3 69.7002 153.2 69.8002 153.2 70.0002C153.2 70.9002 153.5 71.8002 153.8 72.7002C154.2 73.5002 154.7 74.3002 155.4 74.9002C156.3 75.5002 157.1 76.0002 157.9 76.3002Z" fill="#1F2220"/>
<path d="M157.6 68.0001C157.6 68.6001 157.2 69.1001 156.6 69.1001C156 69.1001 155.5 68.7001 155.5 68.1001C155.5 67.5001 155.9 67.0001 156.5 67.0001C157.1 66.9001 157.6 67.4001 157.6 68.0001Z" fill="#1F2220"/>
<path d="M165.1 67.8C165.1 68.4 164.7 68.9 164.1 68.9C163.5 68.9 163 68.5 163 67.9C163 67.3 163.4 66.8 164 66.8C164.5 66.8 165 67.2 165.1 67.8Z" fill="#1F2220"/>
<path d="M157.9 60.4001C159 60.0001 160 59.3001 160.7 58.6001C159.9 57.8001 159.5 56.8001 159.5 55.9001C156.6 56.1001 153.8 57.1001 151.5 58.6001V58.7001C152.3 60.7001 155.1 61.4001 157.9 60.4001Z" fill="#1F2220"/>
<path d="M160.7 58.6001C161.4 59.3001 162.3 60.0001 163.5 60.4001C166.3 61.4001 169.1 60.7001 169.8 58.8001C167.5 57.2001 164.8 56.2001 161.9 55.9001C161.9 56.9001 161.5 57.8001 160.7 58.6001Z" fill="#1F2220"/>
<path d="M160.4 55.9001C160.1 55.9001 159.8 55.9001 159.5 55.9001C159.5 56.8001 159.9 57.8001 160.7 58.6001C161.5 57.8001 161.9 56.8001 161.9 55.9001C161.4 55.9001 160.9 55.9001 160.4 55.9001Z" fill="#1F2220"/>
<path d="M125 58.5H124.5L125.5 56.5H126L125 58.5Z" fill="#1F2220"/>
<path d="M161 58.5H160.5L161.5 56.5H162L161 58.5Z" fill="#1F2220"/>
<path d="M159.086 56.3208H162.229V58.6001H159.086V56.3208Z" fill="#1F2220"/>
<path d="M122.652 56.3208H125.795V58.6001H122.652V56.3208Z" fill="#1F2220"/>
<path d="M141.756 25.2964H144.898V27.5757H141.756V25.2964Z" fill="#1F2220"/>
</svg>
