<svg width="282" height="100" viewBox="0 0 282 100" fill="none" xmlns="http://www.w3.org/2000/svg">
<path d="M143 14.8999L80.5 39.9999V91.7999H205.5V39.9999L143 14.8999Z" fill="#F4F3F4"/>
<path d="M72.3 61.7999L62.3 41.0999L143 2.19995L223.5 41.0999L213.5 61.7999L143 27.7999L72.3 61.7999Z" fill="#F4F3F4"/>
<path d="M186.3 71.0001H101.2C98 71.0001 95.5 68.4001 95.5 65.3001C95.5 62.1001 98.1 59.6001 101.2 59.6001H186.3C189.5 59.6001 192 62.2001 192 65.3001C192.1 68.4001 189.5 71.0001 186.3 71.0001Z" fill="#1DB981"/>
<path d="M186.3 71.8001H101.2C97.6 71.8001 94.7 68.9001 94.7 65.3001C94.7 61.7001 97.6 58.8 101.2 58.8H186.3C189.9 58.8 192.8 61.7001 192.8 65.3001C192.8 68.9001 189.9 71.8001 186.3 71.8001ZM101.2 60.3C98.5 60.3 96.3 62.5 96.3 65.2C96.3 67.9 98.5 70.1 101.2 70.1H186.3C189 70.1 191.2 67.9 191.2 65.2C191.2 62.5 189 60.3 186.3 60.3H101.2Z" fill="#1F2220"/>
<path d="M153.3 90.2H134.2C132.6 90.2 131.3 88.9001 131.3 87.3001V64.7C131.3 57.8 136.9 52.3 143.7 52.3C150.6 52.3 156.1 57.9 156.1 64.7V87.4001C156.2 89 154.9 90.2 153.3 90.2Z" fill="#FF9D55"/>
<path d="M153.3 91H134.2C132.2 91 130.5 89.4 130.5 87.3V64.7C130.5 57.4 136.4 51.5 143.7 51.5C151 51.5 156.9 57.4 156.9 64.7V87.4C157 89.4 155.3 91 153.3 91ZM143.8 53C137.4 53 132.2 58.2 132.2 64.6V87.3C132.2 88.4 133.1 89.4 134.3 89.4H153.4C154.5 89.4 155.5 88.5 155.5 87.3V64.7C155.4 58.3 150.2 53 143.8 53Z" fill="#1F2220"/>
<path d="M143.8 70.3C146.506 70.3 148.7 68.1062 148.7 65.4C148.7 62.6938 146.506 60.5 143.8 60.5C141.094 60.5 138.9 62.6938 138.9 65.4C138.9 68.1062 141.094 70.3 143.8 70.3Z" fill="white"/>
<path d="M143.8 71C140.7 71 138.2 68.5001 138.2 65.4001C138.2 62.3001 140.7 59.8 143.8 59.8C146.9 59.8 149.4 62.3001 149.4 65.4001C149.3 68.4001 146.8 71 143.8 71ZM143.8 61.2001C141.5 61.2001 139.6 63.1001 139.6 65.4001C139.6 67.7001 141.5 69.6 143.8 69.6C146.1 69.6 148 67.7001 148 65.4001C148 63.1001 146.1 61.2001 143.8 61.2001Z" fill="#1F2220"/>
<path d="M120.3 70.8C120.2 73.5 117.9 75.7 115.1 75.7C112.3 75.7 110.1 73.5 109.9 70.8H104.9C105.2 76.2 109.6 80.5 115.1 80.5C120.6 80.5 125 76.2 125.3 70.8H120.3Z" fill="#1F2220"/>
<path d="M115.2 59C123.153 59 129.6 52.5528 129.6 44.5999C129.6 36.647 123.153 30.2 115.2 30.2C107.247 30.2 100.8 36.647 100.8 44.5999C100.8 52.5528 107.247 59 115.2 59Z" fill="#FFE766"/>
<path d="M115.2 59.8C111.2 59.8 107.4 58.2 104.5 55.4C101.6 52.5 100 48.7 100 44.7C100 36.3 106.7 29.5 115.1 29.5C115.1 29.5 115.1 29.5 115.2 29.5C119.2 29.5 123 31.1 125.9 33.9C128.8 36.8 130.4 40.6 130.4 44.6C130.4 48.7 128.9 52.5 126 55.3C123.1 58.2 119.3 59.8 115.2 59.8ZM115.2 31C107.7 31 101.6 37.1 101.6 44.6C101.6 48.2 103 51.6 105.6 54.2C108.2 56.7 111.6 58.1 115.2 58.1C115.2 58.1 115.2 58.1 115.3 58.1C122.8 58.1 128.9 52 128.8 44.5C128.7 37.1 122.7 31 115.2 31Z" fill="#1F2220"/>
<path fill-rule="evenodd" clip-rule="evenodd" d="M112.8 48.5001C113.6 48.8001 114.4 48.9001 115.2 48.9001C116 48.9001 116.8 48.7001 117.6 48.3001C118.3 48.0001 119 47.5001 119.6 46.9001C120.2 46.3001 120.6 45.6001 120.9 44.8001C121.2 44.0001 121.3 43.2001 121.3 42.4001C121.3 42.3001 121.2 42.1001 121 42.1001H120.6C120.5 42.1001 120.3 42.2001 120.3 42.4001C120.3 43.1001 120.2 43.8001 120 44.4001C119.8 45.0001 119.4 45.6001 118.9 46.2001C118.4 46.7001 117.9 47.1001 117.2 47.4001C116.6 47.7001 115.9 47.9001 115.2 47.9001C114.5 47.9001 113.8 47.8001 113.2 47.6001C112.5 47.4001 112 47.0001 111.4 46.5001C110.9 46.0001 110.5 45.5001 110.2 44.8001C109.9 44.2001 109.7 43.5001 109.7 42.8001C109.7 42.7001 109.7 42.7001 109.6 42.6001C109.5 42.6001 109.5 42.5001 109.4 42.5001H109C108.9 42.5001 108.7 42.6001 108.7 42.8001C108.7 43.6001 108.9 44.4001 109.3 45.2001C109.6 45.9001 110.1 46.6001 110.7 47.2001C111.4 47.8001 112.1 48.2001 112.8 48.5001Z" fill="#1F2220"/>
<path d="M112.6 41.0001C112.6 41.5001 112.2 42.0001 111.7 42.0001C111.2 42.0001 110.8 41.6001 110.7 41.1001C110.7 40.6001 111.1 40.1001 111.6 40.1001C112.1 40.1001 112.5 40.5001 112.6 41.0001Z" fill="#1F2220"/>
<path d="M119.2 40.9C119.2 41.4 118.8 41.9 118.3 41.9C117.8 41.9 117.3 41.5 117.3 41C117.3 40.5 117.7 40 118.2 40C118.7 40 119.1 40.4 119.2 40.9Z" fill="#1F2220"/>
<path d="M112.8 34.3C113.8 33.9 114.7 33.4001 115.3 32.7001C114.6 32.0001 114.2 31.1 114.2 30.3C111.6 30.5 109.1 31.3001 107.1 32.7001V32.8C107.8 34.5 110.3 35.2 112.8 34.3Z" fill="#1F2220"/>
<path d="M115.3 32.7001C115.9 33.4001 116.8 33.9 117.8 34.3C120.3 35.2 122.8 34.6001 123.4 32.9001C121.4 31.5001 119 30.5 116.3 30.3C116.4 31.1 116 31.9001 115.3 32.7001Z" fill="#1F2220"/>
<path d="M115.1 30.2C114.8 30.2 114.5 30.2 114.3 30.2C114.3 31 114.7 31.8999 115.4 32.5999C116.1 31.8999 116.5 31 116.5 30.2C115.9 30.3 115.5 30.2 115.1 30.2Z" fill="#1F2220"/>
<path d="M178.2 71C178.1 73.7 175.8 75.9 173 75.9C170.2 75.9 168 73.7 167.8 71H162.8C163.1 76.4 167.5 80.7 173 80.7C178.5 80.7 182.9 76.4 183.2 71H178.2Z" fill="#1F2220"/>
<path d="M173.1 59C181.053 59 187.5 52.5528 187.5 44.5999C187.5 36.647 181.053 30.2 173.1 30.2C165.147 30.2 158.7 36.647 158.7 44.5999C158.7 52.5528 165.147 59 173.1 59Z" fill="#FFE766"/>
<path d="M173.1 59.8C169.1 59.8 165.3 58.2 162.4 55.4C159.5 52.5 157.9 48.7 157.9 44.7C157.9 36.3 164.6 29.5 173 29.5C173 29.5 173 29.5 173.1 29.5C177.1 29.5 180.9 31.1 183.8 33.9C186.7 36.8 188.3 40.6 188.3 44.6C188.3 48.7 186.8 52.5 183.9 55.3C181 58.2 177.2 59.8 173.1 59.8ZM173.1 31C173.1 31 173 31 173.1 31C165.6 31 159.5 37.1 159.5 44.6C159.5 48.2 160.9 51.6 163.5 54.2C166.1 56.7 169.5 58.1 173.1 58.1C173.1 58.1 173.1 58.1 173.2 58.1C180.7 58.1 186.8 52 186.7 44.5C186.7 40.9 185.3 37.5 182.7 34.9C180.1 32.4 176.7 31 173.1 31Z" fill="#1F2220"/>
<path fill-rule="evenodd" clip-rule="evenodd" d="M170.7 48.5001C171.5 48.8001 172.3 48.9001 173.1 48.9001C173.9 48.9001 174.7 48.7001 175.5 48.3001C176.2 48.0001 176.9 47.5001 177.5 46.9001C178.1 46.3001 178.5 45.6001 178.8 44.8001C179.1 44.0001 179.2 43.2001 179.2 42.4001C179.2 42.3001 179.1 42.1001 178.9 42.1001H178.5C178.4 42.1001 178.2 42.2001 178.2 42.4001C178.2 43.1001 178.1 43.8001 177.9 44.4001C177.7 45.0001 177.3 45.6001 176.8 46.2001C176.3 46.7001 175.8 47.1001 175.1 47.4001C174.5 47.7001 173.8 47.9001 173.1 47.9001C172.4 47.9001 171.7 47.8001 171.1 47.6001C170.4 47.4001 169.9 47.0001 169.3 46.5001C168.8 46.0001 168.4 45.5001 168.1 44.8001C167.8 44.2001 167.6 43.5001 167.6 42.8001C167.6 42.7001 167.6 42.7001 167.5 42.6001C167.4 42.6001 167.4 42.5001 167.3 42.5001H166.9C166.8 42.5001 166.6 42.6001 166.6 42.8001C166.6 43.6001 166.8 44.4001 167.2 45.2001C167.5 45.9001 168 46.6001 168.6 47.2001C169.2 47.8001 169.9 48.2001 170.7 48.5001Z" fill="#1F2220"/>
<path d="M170.4 41.0001C170.4 41.5001 170 42.0001 169.5 42.0001C169 42.0001 168.6 41.6001 168.5 41.1001C168.5 40.6001 168.9 40.1001 169.4 40.1001C170 40.1001 170.4 40.5001 170.4 41.0001Z" fill="#1F2220"/>
<path d="M177.1 40.9C177.1 41.4 176.7 41.9 176.2 41.9C175.7 41.9 175.2 41.5 175.2 41C175.2 40.5 175.6 40 176.1 40C176.6 40 177 40.4 177.1 40.9Z" fill="#1F2220"/>
<path d="M170.7 34.3C171.7 33.9 172.6 33.4001 173.2 32.7001C172.5 32.0001 172.1 31.1 172.1 30.3C169.5 30.5 167 31.3001 165 32.7001V32.8C165.6 34.5 168.2 35.2 170.7 34.3Z" fill="#1F2220"/>
<path d="M173.2 32.7001C173.8 33.4001 174.7 33.9 175.7 34.3C178.2 35.2 180.7 34.6001 181.3 32.9001C179.3 31.5001 176.9 30.5 174.2 30.3C174.2 31.1 173.9 31.9001 173.2 32.7001Z" fill="#1F2220"/>
<path d="M172.9 30.2C172.6 30.2 172.3 30.2 172.1 30.2C172.1 31 172.5 31.8999 173.2 32.5999C173.9 31.8999 174.3 31 174.3 30.2C173.8 30.3 173.4 30.2 172.9 30.2Z" fill="#1F2220"/>
<path d="M230 82.6999C236.904 82.6999 242.5 77.1035 242.5 70.1999C242.5 63.2964 236.904 57.7 230 57.7C223.096 57.7 217.5 63.2964 217.5 70.1999C217.5 77.1035 223.096 82.6999 230 82.6999Z" fill="#F4F3F4"/>
<path d="M232.5 70.7H227.5V91.7H232.5V70.7Z" fill="#F4F3F4"/>
<path d="M56 82.8001C62.9036 82.8001 68.5 77.2036 68.5 70.3001C68.5 63.3965 62.9036 57.8 56 57.8C49.0964 57.8 43.5 63.3965 43.5 70.3001C43.5 77.2036 49.0964 82.8001 56 82.8001Z" fill="#F4F3F4"/>
<path d="M58.5 70.7H53.5V91.7H58.5V70.7Z" fill="#F4F3F4"/>
<path d="M113.738 30.6243H116.305V32.6953H113.738V30.6243Z" fill="#1F2220"/>
<path d="M171.814 30.6243H174.381V32.6953H171.814V30.6243Z" fill="#1F2220"/>
</svg>
