<svg width="38" height="38" viewBox="0 0 38 38" fill="none" xmlns="http://www.w3.org/2000/svg">
<path d="M6.3335 25.333L13.5947 18.0718C14.1885 17.4782 14.9938 17.1447 15.8335 17.1447C16.6732 17.1447 17.4785 17.4782 18.0723 18.0718L25.3335 25.333M22.1668 22.1663L24.678 19.6552C25.2718 19.0615 26.0771 18.728 26.9168 18.728C27.7565 18.728 28.5618 19.0615 29.1557 19.6552L31.6668 22.1663M22.1668 12.6663H22.1827M9.50016 31.6663H28.5002C29.34 31.6663 30.1455 31.3327 30.7393 30.7388C31.3332 30.145 31.6668 29.3395 31.6668 28.4997V9.49967C31.6668 8.65982 31.3332 7.85437 30.7393 7.2605C30.1455 6.66664 29.34 6.33301 28.5002 6.33301H9.50016C8.66031 6.33301 7.85486 6.66664 7.26099 7.2605C6.66713 7.85437 6.3335 8.65982 6.3335 9.49967V28.4997C6.3335 29.3395 6.66713 30.145 7.26099 30.7388C7.85486 31.3327 8.66031 31.6663 9.50016 31.6663Z" stroke="#D9D9D9" stroke-width="2" stroke-linecap="round" stroke-linejoin="round"/>
</svg>
