<svg width="20" height="20" viewBox="0 0 20 20" fill="none" xmlns="http://www.w3.org/2000/svg">
<path d="M0.970703 14.7062L6.14465 9.53758C6.56779 9.115 7.14161 8.87761 7.73993 8.87761C8.33825 8.87761 8.91208 9.115 9.33521 9.53758L14.5092 14.7062M12.2528 12.4521L14.0421 10.6646C14.4652 10.2421 15.039 10.0047 15.6374 10.0047C16.2357 10.0047 16.8095 10.2421 17.2327 10.6646L19.022 12.4521M12.2528 5.68984H12.264M3.22711 19.2144H16.7656C17.364 19.2144 17.9379 18.9769 18.3611 18.5542C18.7843 18.1315 19.022 17.5582 19.022 16.9603V3.43574C19.022 2.83791 18.7843 2.26458 18.3611 1.84185C17.9379 1.41913 17.364 1.18164 16.7656 1.18164H3.22711C2.62868 1.18164 2.05475 1.41913 1.63159 1.84185C1.20843 2.26458 0.970703 2.83791 0.970703 3.43574V16.9603C0.970703 17.5582 1.20843 18.1315 1.63159 18.5542C2.05475 18.9769 2.62868 19.2144 3.22711 19.2144Z" stroke="#D9D9D9" stroke-width="1.36909" stroke-linecap="round" stroke-linejoin="round"/>
</svg>
