<svg width="20" height="20" viewBox="0 0 20 20" fill="none" xmlns="http://www.w3.org/2000/svg">
<path d="M0.96875 14.2299L6.1427 9.05592C6.56584 8.63291 7.13966 8.39527 7.73798 8.39527C8.3363 8.39527 8.91012 8.63291 9.33326 9.05592L14.5072 14.2299M12.2508 11.9735L14.0401 10.1841C14.4633 9.76111 15.0371 9.52348 15.6354 9.52348C16.2337 9.52348 16.8076 9.76111 17.2307 10.1841L19.02 11.9735M12.2508 5.20423H12.2621M3.22516 18.7427H16.7636C17.3621 18.7427 17.936 18.505 18.3591 18.0818C18.7823 17.6586 19.02 17.0847 19.02 16.4863V2.94782C19.02 2.34938 18.7823 1.77545 18.3591 1.35229C17.936 0.929134 17.3621 0.691406 16.7636 0.691406H3.22516C2.62672 0.691406 2.0528 0.929134 1.62964 1.35229C1.20648 1.77545 0.96875 2.34938 0.96875 2.94782V16.4863C0.96875 17.0847 1.20648 17.6586 1.62964 18.0818C2.0528 18.505 2.62672 18.7427 3.22516 18.7427Z" stroke="#D9D9D9" stroke-width="1.36909" stroke-linecap="round" stroke-linejoin="round"/>
</svg>
