<svg width="15" height="14" viewBox="0 0 15 14" fill="none" xmlns="http://www.w3.org/2000/svg">
<circle cx="7.13379" cy="6.99988" r="7" fill="#787878"/>
<path d="M10.0387 4.94993C10.3121 4.67656 10.3121 4.23335 10.0387 3.95998C9.76533 3.68661 9.32211 3.68661 9.04875 3.95998L10.0387 4.94993ZM3.95913 9.0496C3.68576 9.32297 3.68576 9.76619 3.95913 10.0396C4.23249 10.3129 4.67571 10.3129 4.94908 10.0396L3.95913 9.0496ZM9.04875 3.95998L3.95913 9.0496L4.94908 10.0396L10.0387 4.94993L9.04875 3.95998Z" fill="white"/>
<path d="M3.95935 4.94993C3.68598 4.67656 3.68598 4.23335 3.95935 3.95998C4.23272 3.68661 4.67593 3.68661 4.9493 3.95998L3.95935 4.94993ZM10.0389 9.0496C10.3123 9.32297 10.3123 9.76619 10.0389 10.0396C9.76555 10.3129 9.32234 10.3129 9.04897 10.0396L10.0389 9.0496ZM4.9493 3.95998L10.0389 9.0496L9.04897 10.0396L3.95935 4.94993L4.9493 3.95998Z" fill="white"/>
</svg>
