<svg width="21" height="21" viewBox="0 0 21 21" fill="none" xmlns="http://www.w3.org/2000/svg">
<path d="M10.5 0C4.70006 0 0 4.70137 0 10.5C0 16.2986 4.70006 21 10.5 21C16.2999 21 21 16.2986 21 10.5C21 4.70137 16.2999 0 10.5 0ZM15.3654 13.5096C15.6115 13.7557 15.7498 14.0895 15.7498 14.4375C15.7498 14.7855 15.6115 15.1193 15.3654 15.3654C15.1193 15.6115 14.7855 15.7498 14.4375 15.7498C14.0895 15.7498 13.7557 15.6115 13.5096 15.3654L10.5 12.3559L7.49044 15.3654C7.36883 15.4877 7.22424 15.5848 7.06499 15.651C6.90574 15.7173 6.73497 15.7514 6.5625 15.7514C6.39003 15.7514 6.21926 15.7173 6.06001 15.651C5.90076 15.5848 5.75617 15.4877 5.63456 15.3654C5.51257 15.2437 5.41579 15.099 5.34976 14.9398C5.28372 14.7806 5.24974 14.6099 5.24974 14.4375C5.24974 14.2651 5.28372 14.0944 5.34976 13.9352C5.41579 13.776 5.51257 13.6313 5.63456 13.5096L8.64413 10.5L5.63456 7.49044C5.38846 7.24433 5.2502 6.91054 5.2502 6.5625C5.2502 6.21446 5.38846 5.88067 5.63456 5.63456C5.88067 5.38846 6.21446 5.2502 6.5625 5.2502C6.91054 5.2502 7.24433 5.38846 7.49044 5.63456L10.5 8.64413L13.5096 5.63456C13.7557 5.38846 14.0895 5.2502 14.4375 5.2502C14.7855 5.2502 15.1193 5.38846 15.3654 5.63456C15.6115 5.88067 15.7498 6.21446 15.7498 6.5625C15.7498 6.91054 15.6115 7.24433 15.3654 7.49044L12.3559 10.5L15.3654 13.5096Z" fill="#D9D9D9"/>
</svg>
