<svg width="20" height="20" viewBox="0 0 20 20" fill="none" xmlns="http://www.w3.org/2000/svg">
<path d="M10 0C4.47625 0 0 4.4775 0 10C0 15.5225 4.47625 20 10 20C15.5238 20 20 15.5225 20 10C20 4.4775 15.5238 0 10 0ZM14.6337 12.8663C14.8681 13.1006 14.9998 13.4185 14.9998 13.75C14.9998 14.0815 14.8681 14.3994 14.6337 14.6337C14.3994 14.8681 14.0815 14.9998 13.75 14.9998C13.4185 14.9998 13.1006 14.8681 12.8663 14.6337L10 11.7675L7.13375 14.6337C7.01793 14.7502 6.88023 14.8427 6.72857 14.9057C6.5769 14.9688 6.41426 15.0013 6.25 15.0013C6.08574 15.0013 5.9231 14.9688 5.77143 14.9057C5.61977 14.8427 5.48207 14.7502 5.36625 14.6337C5.25007 14.5178 5.1579 14.38 5.09501 14.2284C5.03212 14.0767 4.99975 13.9142 4.99975 13.75C4.99975 13.5858 5.03212 13.4233 5.09501 13.2716C5.1579 13.12 5.25007 12.9822 5.36625 12.8663L8.2325 10L5.36625 7.13375C5.13187 6.89936 5.00019 6.58147 5.00019 6.25C5.00019 5.91853 5.13187 5.60064 5.36625 5.36625C5.60064 5.13187 5.91853 5.00019 6.25 5.00019C6.58147 5.00019 6.89936 5.13187 7.13375 5.36625L10 8.2325L12.8663 5.36625C13.1006 5.13187 13.4185 5.00019 13.75 5.00019C14.0815 5.00019 14.3994 5.13187 14.6337 5.36625C14.8681 5.60064 14.9998 5.91853 14.9998 6.25C14.9998 6.58147 14.8681 6.89936 14.6337 7.13375L11.7675 10L14.6337 12.8663Z" fill="#D9D9D9"/>
</svg>
