<svg width="16" height="16" viewBox="0 0 16 16" fill="none" xmlns="http://www.w3.org/2000/svg">
<rect width="16" height="16" rx="2" fill="#1DB981"/>
<path fill-rule="evenodd" clip-rule="evenodd" d="M8.00001 6.25836C7.59734 6.25836 7.21117 6.4132 6.92645 6.68882C6.64173 6.96444 6.48178 7.33826 6.48178 7.72805H3.44531C3.44531 6.5587 3.92518 5.43722 4.77935 4.61036C5.63352 3.78349 6.79203 3.31897 8.00001 3.31897C9.20798 3.31897 10.3665 3.78349 11.2207 4.61036C12.0748 5.43722 12.5547 6.5587 12.5547 7.72805H9.51824C9.51824 7.33826 9.35828 6.96444 9.07356 6.68882C8.78884 6.4132 8.40267 6.25836 8.00001 6.25836Z" fill="#FFE766"/>
<path fill-rule="evenodd" clip-rule="evenodd" d="M9.42969 12.3986V8.76758H12.5529V12.3986H9.42969Z" fill="white"/>
<path fill-rule="evenodd" clip-rule="evenodd" d="M3.44531 12.3986V8.76758H6.56853V12.3986H3.44531Z" fill="white"/>
</svg>
