<svg width="26" height="23" viewBox="0 0 26 23" fill="none" xmlns="http://www.w3.org/2000/svg">
<path d="M23.1298 2.07674C22.5163 1.46324 21.7879 0.97665 20.9862 0.644777C20.1846 0.312903 19.3254 0.142253 18.4578 0.142579C17.5902 0.142904 16.7311 0.3142 15.9297 0.646675C15.1283 0.979151 14.4003 1.46629 13.7873 2.08025L12.987 2.89023L12.1935 2.082L12.1883 2.07685C11.5751 1.46363 10.8471 0.977205 10.0459 0.645336C9.2447 0.313468 8.38598 0.142657 7.51877 0.142657C6.65156 0.142657 5.79284 0.313468 4.99164 0.645336C4.19045 0.977205 3.46246 1.46363 2.84925 2.07685L2.49276 2.43334C1.25433 3.67177 0.558594 5.35144 0.558594 7.10284C0.558594 8.85424 1.25433 10.5339 2.49276 11.7723L11.9016 21.1811L12.9641 22.2943L12.9895 22.2689L13.017 22.2964L14.0125 21.2461L23.4863 11.7722C24.7228 10.5328 25.4173 8.85347 25.4173 7.10268C25.4173 5.3519 24.7228 3.6726 23.4863 2.43319L23.1298 2.07674ZM22.3186 10.6048L12.9895 19.9342L3.66006 10.6048C2.73125 9.676 2.20944 8.41625 2.20944 7.10271C2.20944 5.78916 2.73125 4.52941 3.66006 3.60059L4.01661 3.2441C4.94497 2.31574 6.20396 1.79397 7.51686 1.79348C8.82976 1.79299 10.0891 2.31381 11.0182 3.24147L12.9835 5.24253L14.9581 3.2441C15.418 2.78419 15.964 2.41937 16.5649 2.17047C17.1658 1.92156 17.8098 1.79346 18.4602 1.79346C19.1106 1.79346 19.7547 1.92156 20.3556 2.17047C20.9565 2.41937 21.5024 2.78419 21.9624 3.2441L22.3188 3.60054C23.2463 4.53013 23.7671 5.78963 23.767 7.10272C23.767 8.41582 23.2461 9.67529 22.3186 10.6048Z" fill="#A9A9A9"/>
</svg>
