<svg width="24" height="24" viewBox="0 0 24 24" fill="none" xmlns="http://www.w3.org/2000/svg">
<g clip-path="url(#clip0_1080_18509)">
<path d="M11.9605 20.6895C11.9212 20.6901 11.8821 20.6824 11.8459 20.6669C11.8098 20.6514 11.7772 20.6284 11.7505 20.5995L4.56055 13.4195L13.1505 4.82946C14.1318 3.84816 15.4628 3.29688 16.8505 3.29688C18.2383 3.29688 19.5692 3.84816 20.5505 4.82946C21.5318 5.81077 22.0831 7.1417 22.0831 8.52947C22.0831 9.91724 21.5318 11.2482 20.5505 12.2295L12.1705 20.5995C12.1443 20.6289 12.1118 20.6522 12.0755 20.6678C12.0392 20.6833 12 20.6907 11.9605 20.6895Z" fill="white"/>
<path d="M16.8906 4.20021C17.4596 4.19889 18.0232 4.30999 18.5491 4.52713C19.0751 4.74426 19.553 5.06316 19.9553 5.4655C20.3576 5.86784 20.6765 6.34569 20.8937 6.87163C21.1108 7.39756 21.2219 7.96122 21.2206 8.53021C21.2236 9.09829 21.1138 9.6613 20.8975 10.1866C20.6812 10.7119 20.3627 11.189 19.9606 11.5902L11.9606 19.5902L5.83057 13.4702L13.8306 5.47021C14.6466 4.66011 15.7507 4.20694 16.9006 4.21021M16.9006 2.41021C16.0949 2.40769 15.2966 2.56454 14.5518 2.87175C13.807 3.17895 13.1302 3.63043 12.5606 4.20021L3.34058 13.4302L11.1606 21.2502C11.3874 21.4732 11.6924 21.5988 12.0106 21.6002C12.1683 21.6006 12.3246 21.5699 12.4704 21.5098C12.6163 21.4498 12.7488 21.3615 12.8606 21.2502L21.2306 12.8802C21.8014 12.3108 22.2543 11.6343 22.5634 10.8896C22.8724 10.1449 23.0314 9.34651 23.0314 8.54021C23.0314 7.73391 22.8724 6.93553 22.5634 6.1908C22.2543 5.44608 21.8014 4.76963 21.2306 4.20021C20.6634 3.62984 19.9886 3.17787 19.2452 2.87058C18.5019 2.56329 17.7049 2.4068 16.9006 2.41021Z" fill="#787878"/>
<path d="M11.9606 20.6909C11.9212 20.6915 11.8822 20.6838 11.846 20.6683C11.8098 20.6527 11.7773 20.6298 11.7506 20.6009L3.37058 12.2309C2.63841 11.4994 2.13972 10.5672 1.93761 9.55219C1.73551 8.53718 1.83907 7.48503 2.23522 6.52893C2.63137 5.57282 3.30229 4.75574 4.16303 4.18111C5.02377 3.60647 6.03565 3.30013 7.07058 3.30086C7.75806 3.29707 8.43938 3.43043 9.0747 3.69314C9.71001 3.95585 10.2866 4.34264 10.7706 4.83086L19.3606 13.4209L12.1706 20.6009C12.1443 20.6303 12.1119 20.6536 12.0756 20.6692C12.0393 20.6847 12 20.6921 11.9606 20.6909Z" fill="white"/>
<path d="M7.11057 4.19964C8.26041 4.19637 9.36456 4.64954 10.1806 5.45964L18.1306 13.4596L11.9606 19.5396L4.01057 11.5396C3.60753 11.1374 3.28777 10.6597 3.0696 10.1338C2.85142 9.60783 2.73911 9.04404 2.73911 8.47464C2.73911 7.90525 2.85142 7.34144 3.0696 6.81551C3.28777 6.28957 3.60753 5.81184 4.01057 5.40964C4.82413 4.60199 5.92419 4.14902 7.07057 4.14964M7.07057 2.34964C6.26639 2.34734 5.46971 2.50433 4.72653 2.81156C3.98335 3.11879 3.30838 3.57017 2.74057 4.13964C2.16972 4.70906 1.71682 5.38551 1.40779 6.13024C1.09877 6.87497 0.939697 7.67334 0.939697 8.47964C0.939697 9.28594 1.09877 10.0843 1.40779 10.829C1.71682 11.5738 2.16972 12.2502 2.74057 12.8196L11.1106 21.1896C11.3374 21.4127 11.6424 21.5383 11.9606 21.5396C12.1183 21.54 12.2746 21.5093 12.4204 21.4493C12.5663 21.3892 12.6989 21.301 12.8106 21.1896L20.6306 13.3696L11.4106 4.13964C10.8409 3.56986 10.1642 3.11838 9.41936 2.81118C8.67452 2.50397 7.87627 2.34712 7.07057 2.34964Z" fill="#787878"/>
</g>
<defs>
<clipPath id="clip0_1080_18509">
<rect width="22.04" height="19.2" fill="white" transform="translate(0.980469 2.40039)"/>
</clipPath>
</defs>
</svg>
