<svg width="27" height="25" viewBox="0 0 27 25" fill="none" xmlns="http://www.w3.org/2000/svg">
<path d="M24.4031 2.68419C23.7556 2.03661 22.9867 1.52298 22.1405 1.17267C21.2944 0.822365 20.3874 0.642235 19.4716 0.642579C18.5558 0.642923 17.649 0.823733 16.8031 1.17468C15.9572 1.52562 15.1888 2.03982 14.5417 2.68789L13.697 3.54287L12.8593 2.68974L12.8539 2.6843C12.2066 2.03702 11.4382 1.52357 10.5925 1.17326C9.74675 0.822961 8.84033 0.642661 7.92495 0.642661C7.00956 0.642661 6.10314 0.822961 5.25744 1.17326C4.41173 1.52357 3.6433 2.03702 2.99603 2.6843L2.61973 3.0606C1.31251 4.36782 0.578125 6.14079 0.578125 7.98949C0.578125 9.83818 1.31251 11.6111 2.61973 12.9184L12.5512 22.8498L13.6728 24.0249L13.6995 23.9981L13.7286 24.0271L14.7794 22.9184L24.7794 12.9182C26.0847 11.6099 26.8177 9.83736 26.8177 7.98932C26.8177 6.14128 26.0847 4.36869 24.7794 3.06043L24.4031 2.68419ZM23.547 11.686L13.6995 21.5337L3.85188 11.686C2.87147 10.7056 2.32068 9.37586 2.32068 7.98935C2.32068 6.60283 2.87147 5.27311 3.85188 4.29269L4.22823 3.91639C5.20817 2.93646 6.5371 2.38571 7.92293 2.38519C9.30876 2.38467 10.6381 2.93442 11.6188 3.91361L13.6932 6.02584L15.7775 3.91639C16.263 3.43093 16.8393 3.04584 17.4736 2.78312C18.1078 2.52039 18.7877 2.38516 19.4742 2.38516C20.1607 2.38516 20.8405 2.52039 21.4748 2.78312C22.1091 3.04584 22.6854 3.43093 23.1709 3.91639L23.5472 4.29263C24.5261 5.27386 25.0759 6.60332 25.0758 7.98937C25.0758 9.37541 24.526 10.7048 23.547 11.686Z" fill="#CCCCCC"/>
</svg>
