<svg width="66" height="66" viewBox="0 0 66 66" fill="none" xmlns="http://www.w3.org/2000/svg">
<g filter="url(#filter0_d_1080_17803)">
<circle cx="33" cy="32" r="28" fill="white"/>
<circle cx="33" cy="32" r="27.5" stroke="#787878"/>
</g>
<g clip-path="url(#clip0_1080_17803)">
<path d="M32.9605 40.6895C32.9212 40.6901 32.8821 40.6824 32.8459 40.6669C32.8098 40.6514 32.7772 40.6284 32.7505 40.5995L25.5605 33.4195L34.1505 24.8295C35.1318 23.8482 36.4628 23.2969 37.8505 23.2969C39.2383 23.2969 40.5692 23.8482 41.5505 24.8295C42.5318 25.8108 43.0831 27.1417 43.0831 28.5295C43.0831 29.9172 42.5318 31.2482 41.5505 32.2295L33.1705 40.5995C33.1443 40.6289 33.1118 40.6522 33.0755 40.6678C33.0392 40.6833 33 40.6907 32.9605 40.6895Z" fill="white"/>
<path d="M37.8898 24.2002C38.4588 24.1989 39.0225 24.31 39.5484 24.5271C40.0744 24.7443 40.5522 25.0632 40.9546 25.4655C41.3569 25.8678 41.6758 26.3457 41.8929 26.8716C42.1101 27.3976 42.2212 27.9612 42.2198 28.5302C42.2229 29.0983 42.1131 29.6613 41.8968 30.1866C41.6805 30.7119 41.362 31.189 40.9598 31.5902L32.9598 39.5902L26.8298 33.4702L34.8298 25.4702C35.6458 24.6601 36.75 24.2069 37.8998 24.2102M37.8998 22.4102C37.0941 22.4077 36.2959 22.5645 35.5511 22.8717C34.8062 23.1789 34.1295 23.6304 33.5598 24.2002L24.3398 33.4302L32.1598 41.2502C32.3867 41.4732 32.6917 41.5988 33.0098 41.6002C33.1676 41.6006 33.3238 41.5699 33.4697 41.5098C33.6155 41.4498 33.7481 41.3615 33.8598 41.2502L42.2298 32.8802C42.8007 32.3108 43.2536 31.6343 43.5626 30.8896C43.8716 30.1449 44.0307 29.3465 44.0307 28.5402C44.0307 27.7339 43.8716 26.9355 43.5626 26.1908C43.2536 25.4461 42.8007 24.7696 42.2298 24.2002C41.6627 23.6298 40.9878 23.1779 40.2445 22.8706C39.5012 22.5633 38.7042 22.4068 37.8998 22.4102Z" fill="#787878"/>
<path d="M32.9596 40.6909C32.9202 40.6915 32.8812 40.6838 32.845 40.6683C32.8088 40.6527 32.7763 40.6298 32.7496 40.6009L24.3696 32.2309C23.6374 31.4994 23.1387 30.5672 22.9366 29.5522C22.7345 28.5372 22.8381 27.485 23.2342 26.5289C23.6304 25.5728 24.3013 24.7557 25.1621 24.1811C26.0228 23.6065 27.0347 23.3001 28.0696 23.3009C28.7571 23.2971 29.4384 23.4304 30.0737 23.6931C30.709 23.9559 31.2856 24.3426 31.7696 24.8309L40.3596 33.4209L33.1696 40.6009C33.1433 40.6303 33.1109 40.6536 33.0746 40.6692C33.0383 40.6847 32.9991 40.6921 32.9596 40.6909Z" fill="white"/>
<path d="M28.1103 24.1996C29.2602 24.1964 30.3643 24.6495 31.1803 25.4596L39.1303 33.4596L32.9603 39.5396L25.0103 31.5396C24.6073 31.1374 24.2875 30.6597 24.0694 30.1338C23.8512 29.6078 23.7389 29.044 23.7389 28.4746C23.7389 27.9053 23.8512 27.3414 24.0694 26.8155C24.2875 26.2896 24.6073 25.8118 25.0103 25.4096C25.8239 24.602 26.9239 24.149 28.0703 24.1496M28.0703 22.3496C27.2661 22.3473 26.4695 22.5043 25.7263 22.8116C24.9831 23.1188 24.3081 23.5702 23.7403 24.1396C23.1695 24.7091 22.7166 25.3855 22.4075 26.1302C22.0985 26.875 21.9395 27.6733 21.9395 28.4796C21.9395 29.2859 22.0985 30.0843 22.4075 30.829C22.7166 31.5738 23.1695 32.2502 23.7403 32.8196L32.1103 41.1896C32.3372 41.4127 32.6422 41.5383 32.9603 41.5396C33.1181 41.54 33.2743 41.5093 33.4202 41.4493C33.566 41.3892 33.6986 41.301 33.8103 41.1896L41.6303 33.3696L32.4103 24.1396C31.8407 23.5699 31.164 23.1184 30.4191 22.8112C29.6743 22.504 28.876 22.3471 28.0703 22.3496Z" fill="#787878"/>
</g>
<defs>
<filter id="filter0_d_1080_17803" x="0" y="0" width="66" height="66" filterUnits="userSpaceOnUse" color-interpolation-filters="sRGB">
<feFlood flood-opacity="0" result="BackgroundImageFix"/>
<feColorMatrix in="SourceAlpha" type="matrix" values="0 0 0 0 0 0 0 0 0 0 0 0 0 0 0 0 0 0 127 0" result="hardAlpha"/>
<feMorphology radius="1" operator="dilate" in="SourceAlpha" result="effect1_dropShadow_1080_17803"/>
<feOffset dy="1"/>
<feGaussianBlur stdDeviation="2"/>
<feComposite in2="hardAlpha" operator="out"/>
<feColorMatrix type="matrix" values="0 0 0 0 0 0 0 0 0 0 0 0 0 0 0 0 0 0 0.08 0"/>
<feBlend mode="normal" in2="BackgroundImageFix" result="effect1_dropShadow_1080_17803"/>
<feBlend mode="normal" in="SourceGraphic" in2="effect1_dropShadow_1080_17803" result="shape"/>
</filter>
<clipPath id="clip0_1080_17803">
<rect width="22.04" height="19.2" fill="white" transform="translate(21.9805 22.4004)"/>
</clipPath>
</defs>
</svg>
