<svg width="120" height="120" viewBox="0 0 120 120" fill="none" xmlns="http://www.w3.org/2000/svg">
<path d="M114 0H6C2.68629 0 0 2.68629 0 6V114C0 117.314 2.68629 120 6 120H114C117.314 120 120 117.314 120 114V6C120 2.68629 117.314 0 114 0Z" fill="#F5FFF0"/>
<path d="M77.6984 54.2C75.8984 54.2 74.3984 52.7 74.3984 50.9V36.8C74.3984 35 75.8984 33.5 77.6984 33.5C79.4984 33.5 80.9984 35 80.9984 36.8V51C80.9984 52.7 79.4984 54.2 77.6984 54.2Z" fill="#1F2220"/>
<path d="M77.6969 54.8C75.4969 54.8 73.7969 53.1 73.7969 50.9V36.7C73.7969 34.6 75.4969 32.8 77.6969 32.8C79.8969 32.8 81.5969 34.5 81.5969 36.7V50.9C81.5969 53.1 79.7969 54.8 77.6969 54.8ZM77.6969 34C76.1969 34 74.8969 35.2 74.8969 36.7V50.9C74.8969 52.4 76.0969 53.6 77.5969 53.6C79.0969 53.6 80.2969 52.4 80.2969 50.9V36.7C80.3969 35.2 79.1969 34 77.6969 34Z" fill="#1F2220"/>
<path d="M91.5 59.7L60 28.3L28.5 59.7H91.5Z" fill="#1DB981"/>
<path d="M60.0984 38.8L39.3984 59.4V89.3H80.6984V59.4L60.0984 38.8Z" fill="#FFE766"/>
<path d="M55.0977 67.8C57.3068 67.8 59.0977 66.0091 59.0977 63.8C59.0977 61.5908 57.3068 59.8 55.0977 59.8C52.8885 59.8 51.0977 61.5908 51.0977 63.8C51.0977 66.0091 52.8885 67.8 55.0977 67.8Z" fill="white"/>
<path d="M55.0969 68.6C52.4969 68.6 50.2969 66.5 50.2969 63.8C50.2969 61.1 52.3969 59 55.0969 59C57.7969 59 59.8969 61.1 59.8969 63.8C59.8969 66.5 57.6969 68.6 55.0969 68.6ZM55.0969 60.5C53.2969 60.5 51.7969 62 51.7969 63.8C51.7969 65.6 53.2969 67.1 55.0969 67.1C56.8969 67.1 58.3969 65.6 58.3969 63.8C58.2969 62 56.8969 60.5 55.0969 60.5Z" fill="#1F2220"/>
<path d="M65.5977 67.8C67.8068 67.8 69.5977 66.0091 69.5977 63.8C69.5977 61.5908 67.8068 59.8 65.5977 59.8C63.3885 59.8 61.5977 61.5908 61.5977 63.8C61.5977 66.0091 63.3885 67.8 65.5977 67.8Z" fill="white"/>
<path d="M65.5969 68.6C62.9969 68.6 60.7969 66.5 60.7969 63.8C60.7969 61.1 62.8969 59 65.5969 59C68.1969 59 70.3969 61.1 70.3969 63.8C70.3969 66.5 68.1969 68.6 65.5969 68.6ZM65.5969 60.5C63.7969 60.5 62.2969 62 62.2969 63.8C62.2969 65.6 63.7969 67.1 65.5969 67.1C67.3969 67.1 68.8969 65.6 68.8969 63.8C68.7969 62 67.3969 60.5 65.5969 60.5Z" fill="#1F2220"/>
<path d="M55.0977 78.3C57.3068 78.3 59.0977 76.5091 59.0977 74.3C59.0977 72.0908 57.3068 70.3 55.0977 70.3C52.8885 70.3 51.0977 72.0908 51.0977 74.3C51.0977 76.5091 52.8885 78.3 55.0977 78.3Z" fill="white"/>
<path d="M55.0969 79.1C52.4969 79.1 50.2969 77 50.2969 74.3C50.2969 71.7 52.3969 69.5 55.0969 69.5C57.7969 69.5 59.8969 71.6 59.8969 74.3C59.8969 77 57.6969 79.1 55.0969 79.1ZM55.0969 71C53.2969 71 51.7969 72.5 51.7969 74.3C51.7969 76.1 53.2969 77.6 55.0969 77.6C56.8969 77.6 58.3969 76.1 58.3969 74.3C58.2969 72.5 56.8969 71 55.0969 71Z" fill="#1F2220"/>
<path d="M65.5977 78.3C67.8068 78.3 69.5977 76.5091 69.5977 74.3C69.5977 72.0908 67.8068 70.3 65.5977 70.3C63.3885 70.3 61.5977 72.0908 61.5977 74.3C61.5977 76.5091 63.3885 78.3 65.5977 78.3Z" fill="white"/>
<path d="M65.5969 79.1C62.9969 79.1 60.7969 77 60.7969 74.3C60.7969 71.7 62.8969 69.5 65.5969 69.5C68.1969 69.5 70.3969 71.6 70.3969 74.3C70.2969 77 68.1969 79.1 65.5969 79.1ZM65.5969 71C63.7969 71 62.2969 72.5 62.2969 74.3C62.2969 76.1 63.7969 77.6 65.5969 77.6C67.3969 77.6 68.8969 76.1 68.8969 74.3C68.7969 72.5 67.3969 71 65.5969 71Z" fill="#1F2220"/>
<path d="M80.7981 90.5H39.3981C38.9981 90.5 38.5981 90.2 38.5981 89.7V60.9H28.4981C28.1981 60.9 27.8981 60.7 27.7981 60.4C27.6981 60.1 27.6981 59.8 27.9981 59.6L59.4981 28.2C59.7981 27.9 60.2981 27.9 60.5981 28.2L91.9981 59.7C92.1981 59.9 92.2981 60.2 92.1981 60.5C92.0981 60.8 91.7981 61 91.4981 61H81.4981V89.8C81.4981 90.2 81.1981 90.5 80.7981 90.5ZM40.1981 89H79.9981V60.2C79.9981 59.8 80.2981 59.4 80.7981 59.4H89.6981L59.9981 29.8L30.3981 59.4H39.4981C39.8981 59.4 40.2981 59.7 40.2981 60.2L40.1981 89Z" fill="#1F2220"/>
<path d="M39.6 60.7C39.4 60.7 39.2 60.6 39.1 60.5C38.8 60.2 38.8 59.7 39.1 59.4L59.7 38.7C60 38.4 60.5 38.4 60.8 38.7L81.4 59.4C81.7 59.7 81.7 60.2 81.4 60.5C81.1 60.8 80.6 60.8 80.3 60.5L60.2 40.3L40.1 60.4C40 60.6 39.8 60.7 39.6 60.7Z" fill="#1F2220"/>
</svg>
