<svg width="120" height="120" viewBox="0 0 120 120" fill="none" xmlns="http://www.w3.org/2000/svg">
<path d="M114 0H6C2.68629 0 0 2.68629 0 6V114C0 117.314 2.68629 120 6 120H114C117.314 120 120 117.314 120 114V6C120 2.68629 117.314 0 114 0Z" fill="#F5FFF0"/>
<path d="M60.1031 82.7C74.6834 82.7 86.5031 70.8803 86.5031 56.3C86.5031 41.7196 74.6834 29.9 60.1031 29.9C45.5228 29.9 33.7031 41.7196 33.7031 56.3C33.7031 70.8803 45.5228 82.7 60.1031 82.7Z" fill="#FFE766"/>
<path fill-rule="evenodd" clip-rule="evenodd" d="M55.8016 63.4C57.2016 63.9 58.7016 64.2 60.2016 64.1C61.7016 64 63.2016 63.7 64.6016 63.1C66.0016 62.5 67.2016 61.6 68.2016 60.5C69.2016 59.4 70.0016 58.1 70.5016 56.7C71.0016 55.3 71.3016 53.8 71.2016 52.3C71.2016 52 71.0016 51.8 70.7016 51.8H69.9016C69.6016 51.8 69.4016 52 69.4016 52.3C69.4016 53.6 69.2016 54.8 68.8016 56C68.4016 57.2 67.7016 58.3 66.8016 59.2C65.9016 60.1 64.9016 60.9 63.7016 61.4C62.5016 61.9 61.3016 62.2 60.0016 62.3C58.7016 62.4 57.5016 62.2 56.3016 61.7C55.1016 61.3 54.0016 60.6 53.1016 59.7C52.2016 58.8 51.4016 57.8 50.9016 56.6C50.4016 55.4 50.1016 54.2 50.0016 52.9C50.0016 52.8 49.9016 52.6 49.8016 52.6C49.7016 52.5 49.6016 52.5 49.4016 52.5H48.6016C48.3016 52.5 48.1016 52.7 48.1016 53C48.2016 54.5 48.5016 56 49.1016 57.4C49.7016 58.8 50.6016 60 51.7016 61C53.1016 62.1 54.4016 62.9 55.8016 63.4Z" fill="#1F2220"/>
<path d="M55.303 49.7C55.403 50.6 54.603 51.4 53.703 51.5C52.803 51.6 52.003 50.8 51.903 49.9C51.803 49 52.603 48.2 53.503 48.1C54.403 48 55.203 48.7 55.303 49.7Z" fill="#1F2220"/>
<path d="M67.5022 49.4C67.6022 50.3 66.8022 51.1 65.9022 51.2C65.0022 51.3 64.2022 50.5 64.1022 49.6C64.0022 48.7 64.8022 47.9 65.7022 47.8C66.6022 47.8 67.4022 48.5 67.5022 49.4Z" fill="#1F2220"/>
<path d="M44.8014 78.9C37.3014 73.9 32.8014 65.5 32.8014 56.4C32.7014 41.4 44.9014 29.2 59.9014 29.1H60.0014C67.2014 29.1 74.0014 31.9 79.2014 37C84.4014 42.1 87.2014 48.9 87.2014 56.2C87.2014 64.9 83.0014 73.2 75.9014 78.4L75.0014 77.1C81.7014 72.3 85.6014 64.5 85.6014 56.2C85.6014 49.4 82.9014 42.9 78.0014 38.1C73.2014 33.3 66.8014 30.7 60.0014 30.7H59.9014C45.8014 30.8 34.4014 42.3 34.4014 56.4C34.4014 64.9 38.7014 72.8 45.7014 77.5L44.8014 78.9Z" fill="#1F2220"/>
<path d="M52.5008 90.1C57.5818 90.1 61.7008 85.981 61.7008 80.9C61.7008 75.8189 57.5818 71.7 52.5008 71.7C47.4198 71.7 43.3008 75.8189 43.3008 80.9C43.3008 85.981 47.4198 90.1 52.5008 90.1Z" fill="#1DB981"/>
<path d="M68.3016 90.1C73.3826 90.1 77.5016 85.981 77.5016 80.9C77.5016 75.8189 73.3826 71.7 68.3016 71.7C63.2205 71.7 59.1016 75.8189 59.1016 80.9C59.1016 85.981 63.2205 90.1 68.3016 90.1Z" fill="#1DB981"/>
<path d="M52.1047 83.2C53.3749 83.2 54.4047 82.1702 54.4047 80.9C54.4047 79.6297 53.3749 78.6 52.1047 78.6C50.8344 78.6 49.8047 79.6297 49.8047 80.9C49.8047 82.1702 50.8344 83.2 52.1047 83.2Z" fill="#F5FFF0"/>
<path d="M52.1039 84C50.4039 84 49.0039 82.6 49.0039 80.9C49.0039 79.2 50.4039 77.8 52.1039 77.8C53.8039 77.8 55.2039 79.2 55.2039 80.9C55.2039 82.6 53.8039 84 52.1039 84ZM52.1039 79.5C51.3039 79.5 50.6039 80.2 50.6039 81C50.6039 81.8 51.3039 82.5 52.1039 82.5C52.9039 82.5 53.6039 81.8 53.6039 81C53.6039 80.2 52.9039 79.5 52.1039 79.5Z" fill="#1F2220"/>
<path d="M68.0031 90.9C64.9031 90.9 61.9031 89.4 60.1031 87C58.2031 89.5 55.3031 90.9 52.2031 90.9C46.7031 90.9 42.2031 86.4 42.2031 80.9C42.2031 75.4 46.7031 70.9 52.2031 70.9C55.3031 70.9 58.3031 72.4 60.1031 74.8C62.0031 72.3 64.9031 70.9 68.0031 70.9C73.5031 70.9 78.0031 75.4 78.0031 80.9C78.0031 86.4 73.4031 90.9 68.0031 90.9ZM60.0031 84.7C60.3031 84.7 60.5031 84.9 60.7031 85.1C62.2031 87.7 65.0031 89.3 67.9031 89.3C72.5031 89.3 76.3031 85.6 76.3031 80.9C76.3031 76.3 72.6031 72.5 67.9031 72.5C64.9031 72.5 62.2031 74.1 60.7031 76.7C60.4031 77.2 59.6031 77.2 59.3031 76.7C57.8031 74.1 55.0031 72.5 52.1031 72.5C47.5031 72.5 43.7031 76.2 43.7031 80.9C43.7031 85.5 47.4031 89.3 52.1031 89.3C55.1031 89.3 57.8031 87.7 59.3031 85.1C59.5031 84.9 59.7031 84.7 60.0031 84.7Z" fill="#1F2220"/>
<path d="M68.0031 83.2C69.2734 83.2 70.3031 82.1702 70.3031 80.9C70.3031 79.6297 69.2734 78.6 68.0031 78.6C66.7329 78.6 65.7031 79.6297 65.7031 80.9C65.7031 82.1702 66.7329 83.2 68.0031 83.2Z" fill="#F5FFF0"/>
<path d="M68.0023 84C66.3023 84 64.9023 82.6 64.9023 80.9C64.9023 79.2 66.3023 77.8 68.0023 77.8C69.7023 77.8 71.1023 79.2 71.1023 80.9C71.1023 82.6 69.7023 84 68.0023 84ZM68.0023 79.5C67.2023 79.5 66.5023 80.2 66.5023 81C66.5023 81.8 67.2023 82.5 68.0023 82.5C68.8023 82.5 69.5023 81.8 69.5023 81C69.5023 80.2 68.8023 79.5 68.0023 79.5Z" fill="#1F2220"/>
<path fill-rule="evenodd" clip-rule="evenodd" d="M59.9008 29.9C59.4008 29.9 58.9008 29.9 58.4008 30C58.4006 30 58.4004 30 58.4002 30H58V30.0281C53.3504 30.3899 48.9948 31.9697 45.3008 34.4C45.3008 34.5 45.3008 34.5 45.4008 34.5999L45.4008 34.6C46.5008 37.8 51.1008 39 55.7008 37.3C57.6008 36.6 59.1008 35.6 60.3008 34.4C61.4008 35.6 63.0008 36.7 64.9008 37.3C69.4008 38.9 74.0008 37.8 75.2008 34.7C71.7069 32.2448 67.4996 30.5921 63 30.0788V30H62.2012C62.2011 30 62.2009 30 62.2008 30C61.5008 29.9 60.7008 29.9 59.9008 29.9Z" fill="#1F2220"/>
</svg>
