<svg width="477" height="300" viewBox="0 0 477 300" fill="none" xmlns="http://www.w3.org/2000/svg">
<path d="M288.692 135.845C282.211 162.164 255.778 178.207 229.654 171.678C203.529 165.149 187.604 138.52 194.085 112.2C200.566 85.8814 226.999 69.8385 253.123 76.3677C279.248 82.8969 295.173 109.526 288.692 135.845Z" fill="#EFEFEF"/>
<path fill-rule="evenodd" clip-rule="evenodd" d="M211.086 122.919C212.333 123.883 213.757 124.591 215.275 125.001C216.794 125.41 218.378 125.515 219.937 125.308C221.495 125.102 222.999 124.588 224.36 123.796C225.722 123.004 226.915 121.949 227.872 120.693C228.829 119.436 229.531 118.002 229.938 116.472C230.031 116.124 229.826 115.767 229.481 115.674L228.672 115.455C228.327 115.362 227.973 115.569 227.88 115.916C227.546 117.174 226.969 118.353 226.182 119.386C225.395 120.419 224.414 121.286 223.295 121.937C222.176 122.588 220.94 123.01 219.659 123.18C218.377 123.35 217.075 123.264 215.827 122.927C214.578 122.59 213.408 122.009 212.383 121.216C211.357 120.423 210.497 119.435 209.851 118.307C209.205 117.18 208.785 115.935 208.617 114.644C208.448 113.353 208.533 112.042 208.868 110.784C208.912 110.617 208.889 110.439 208.803 110.289C208.717 110.14 208.576 110.031 208.41 109.986L207.602 109.768C207.257 109.674 206.902 109.881 206.81 110.228C206.403 111.758 206.299 113.354 206.504 114.924C206.709 116.495 207.22 118.009 208.006 119.381C208.792 120.753 209.838 121.955 211.086 122.919Z" fill="#9D9D9D"/>
<path d="M214.879 109.015C214.645 109.963 213.693 110.54 212.753 110.305C211.812 110.07 211.239 109.111 211.472 108.164C211.705 107.216 212.657 106.638 213.598 106.873C214.539 107.108 215.112 108.067 214.879 109.015Z" fill="#9D9D9D"/>
<path d="M226.914 112.552C226.68 113.5 225.729 114.077 224.788 113.842C223.847 113.607 223.274 112.648 223.507 111.7C223.74 110.753 224.692 110.175 225.633 110.41C226.574 110.645 227.147 111.604 226.914 112.552Z" fill="#9D9D9D"/>
<path fill-rule="evenodd" clip-rule="evenodd" d="M225.086 168.177C250.413 174.507 276.039 158.954 282.322 133.439C288.605 107.923 273.167 82.1069 247.839 75.777C222.512 69.4471 196.887 85.0002 190.604 110.516C184.32 136.032 199.759 161.848 225.086 168.177ZM224.728 169.632C250.853 176.162 277.285 160.119 283.766 133.799C290.247 107.48 274.322 80.8515 248.198 74.3222C222.073 67.793 195.641 83.8359 189.16 110.155C182.679 136.474 198.603 163.103 224.728 169.632Z" fill="white"/>
<path fill-rule="evenodd" clip-rule="evenodd" d="M264.83 110.707C265.023 110.709 265.206 110.798 265.327 110.95C268.972 115.504 269.647 119.446 268.566 122.275C267.585 124.843 265.213 126.323 262.738 126.382C262.711 128.326 261.84 130.208 260.373 131.371C258.798 132.621 256.605 132.99 254.195 131.848C253.326 132.97 251.922 133.551 250.33 133.363C248.521 133.149 246.523 131.956 244.701 129.582L245.724 128.785C247.407 130.976 249.12 131.907 250.481 132.068C251.827 132.228 252.878 131.652 253.411 130.686C253.585 130.372 253.979 130.259 254.291 130.434C256.493 131.668 258.327 131.335 259.573 130.347C260.857 129.329 261.594 127.552 261.42 125.772C261.401 125.579 261.469 125.388 261.605 125.25C261.74 125.112 261.93 125.042 262.122 125.06C264.314 125.258 266.503 124.046 267.358 121.807C268.169 119.685 267.842 116.453 264.803 112.391C258.472 119.817 251.804 124.256 245.443 126.701L244.982 125.483C251.296 123.056 257.976 118.579 264.328 110.94C264.452 110.791 264.636 110.705 264.83 110.707Z" fill="white"/>
<path fill-rule="evenodd" clip-rule="evenodd" d="M268.172 91.0181C269.08 91.1517 269.901 91.6438 270.455 92.386C271.008 93.1282 271.249 94.0599 271.124 94.9759C270.998 95.892 270.517 96.7175 269.786 97.2708C268.992 97.872 268.01 98.1536 267.057 98.0538C266.104 97.9541 265.258 97.481 264.704 96.7388C264.151 95.9965 263.935 95.0459 264.106 94.096C264.276 93.1461 264.817 92.2748 265.612 91.6737C266.343 91.1203 267.263 90.8845 268.172 91.0181ZM273.96 102.868C271.578 104.671 268.633 105.516 265.774 105.217C262.915 104.918 260.376 103.499 258.716 101.272C258.074 100.412 257.584 99.4581 257.253 98.4474C255.278 99.4436 253.073 99.8687 250.917 99.643C248.058 99.3436 245.519 97.9245 243.858 95.6978C242.197 93.4711 241.551 90.6193 242.062 87.7696C242.572 84.9199 244.197 82.3058 246.58 80.5024C248.773 78.8425 251.535 78.1351 254.26 78.5359C256.985 78.9367 259.449 80.4128 261.11 82.6394C261.728 83.4691 262.217 84.3776 262.567 85.3333C264.541 84.2133 266.843 83.7753 269.118 84.1099C271.843 84.5107 274.307 85.9868 275.967 88.2135C277.628 90.4402 278.349 93.2351 277.973 95.9833C277.597 98.7316 276.153 101.208 273.96 102.868ZM250.754 86.0996C249.96 86.7007 249.418 87.5721 249.248 88.522C249.078 89.4719 249.293 90.4225 249.847 91.1647C250.4 91.907 251.247 92.38 252.2 92.4798C253.153 92.5796 254.134 92.2979 254.928 91.6968C255.659 91.1435 256.14 90.318 256.266 89.4019C256.391 88.4858 256.151 87.5542 255.597 86.8119C255.044 86.0697 254.222 85.5777 253.314 85.4441C252.406 85.3105 251.485 85.5463 250.754 86.0996Z" fill="#D9D9D9"/>
<path d="M148.449 193.828H146.965V203.109H148.449V198.797H150.48V197.547H148.449V193.828ZM137.668 198.125C137.652 200.117 139.246 201.492 141.387 201.484C143.535 201.492 145.105 200.117 145.121 198.125C145.105 196.141 143.535 194.773 141.387 194.766C139.246 194.773 137.652 196.141 137.668 198.125ZM138.762 206.594L139.34 207.766C141.473 207.398 143.27 206.367 144.129 204.867C144.973 206.367 146.77 207.398 148.902 207.766L149.496 206.594C146.848 206.188 144.84 204.703 144.855 202.844V202.438H143.387V202.844C143.379 204.703 141.387 206.188 138.762 206.594ZM139.121 198.125C139.105 196.875 140.074 196.031 141.387 196.031C142.699 196.031 143.66 196.875 143.668 198.125C143.66 199.383 142.699 200.227 141.387 200.219C140.074 200.227 139.105 199.383 139.121 198.125ZM153.855 195.188H152.027L152.168 203.234H153.715L153.855 195.188ZM151.84 205.5C151.832 206.109 152.34 206.602 152.949 206.609C153.551 206.602 154.051 206.109 154.059 205.5C154.051 204.891 153.551 204.391 152.949 204.391C152.34 204.391 151.832 204.891 151.84 205.5ZM171.23 193.844H169.746V197.484H167.496V198.703H169.746V200.438H167.496V201.625H169.746V204.516H171.23V193.844ZM159.574 196.672H167.449V195.469H164.324V193.828H162.855V195.469H159.574V196.672ZM160.355 200.031C160.355 201.641 161.684 202.734 163.574 202.734C165.457 202.734 166.801 201.641 166.809 200.031C166.801 198.43 165.457 197.336 163.574 197.344C161.684 197.336 160.355 198.43 160.355 200.031ZM161.746 200.031C161.738 199.109 162.488 198.516 163.574 198.5C164.645 198.516 165.402 199.109 165.418 200.031C165.402 200.984 164.645 201.578 163.574 201.578C162.488 201.578 161.738 200.984 161.746 200.031ZM162.09 207.531H171.543V206.328H163.59V203.578H162.09V207.531ZM185.48 193.828H184.059V199.391H182.387V194.094H180.98V207.141H182.387V200.641H184.059V207.828H185.48V193.828ZM173.199 203.875L174.121 205C175.551 204.156 176.473 202.688 176.949 200.852C177.449 202.461 178.371 203.766 179.746 204.516L180.621 203.375C178.582 202.328 177.637 200.047 177.637 197.531V196.625H180.074V195.422H173.574V196.625H176.199V197.531C176.199 200.312 175.246 202.727 173.199 203.875ZM198.043 196.141H195.309V194.234H193.84V196.141H191.09V197.344H198.043V196.141ZM191.543 201.406C191.535 203.32 192.816 204.664 194.574 204.656C196.348 204.664 197.613 203.32 197.621 201.406C197.613 199.523 196.348 198.188 194.574 198.188C192.816 198.188 191.535 199.523 191.543 201.406ZM192.855 201.406C192.848 200.242 193.566 199.43 194.574 199.422C195.582 199.43 196.309 200.242 196.309 201.406C196.309 202.594 195.582 203.391 194.574 203.391C193.566 203.391 192.848 202.594 192.855 201.406ZM198.684 207.172H200.09V200.875H201.699V207.828H203.105V193.828H201.699V199.656H200.09V194.141H198.684V207.172ZM215.965 193.828H214.465V202.094H215.965V198.594H217.98V197.375H215.965V193.828ZM205.543 201.078H206.652C209.684 201.078 211.355 201.008 213.23 200.625L213.09 199.422C211.324 199.781 209.77 199.859 207.012 199.875V196.062H211.793V194.859H205.543V201.078ZM206.73 205.078C206.73 206.805 208.543 207.805 211.434 207.797C214.293 207.805 216.074 206.805 216.074 205.078C216.074 203.367 214.293 202.367 211.434 202.359C208.543 202.367 206.73 203.367 206.73 205.078ZM208.199 205.078C208.191 204.109 209.41 203.555 211.434 203.562C213.418 203.555 214.645 204.109 214.652 205.078C214.645 206.047 213.418 206.617 211.434 206.609C209.41 206.617 208.191 206.047 208.199 205.078ZM229.684 193.828H228.215V207.828H229.684V200.734H231.934V199.5H229.684V193.828ZM218.699 197.234H226.996V196.016H223.637V194.016H222.152V196.016H218.699V197.234ZM219.418 201.516C219.418 203.438 220.887 204.773 222.902 204.781C224.91 204.773 226.379 203.438 226.387 201.516C226.379 199.609 224.91 198.266 222.902 198.266C220.887 198.266 219.418 199.609 219.418 201.516ZM220.84 201.516C220.832 200.32 221.707 199.492 222.902 199.484C224.09 199.492 224.957 200.32 224.965 201.516C224.957 202.734 224.09 203.547 222.902 203.531C221.707 203.547 220.832 202.734 220.84 201.516ZM243.934 197.922H235.762V194.328H234.293V199.109H243.934V197.922ZM232.59 202.062H245.402V200.875H232.59V202.062ZM234.184 207.5H244.027V206.281H235.668V203.391H234.184V207.5ZM255.168 196.062V194.562H253.699V195.938C253.684 198.031 252.418 199.898 250.23 200.672L251.027 201.859C252.66 201.258 253.848 200.023 254.457 198.453C255.066 199.836 256.215 200.93 257.746 201.469L258.543 200.297C256.457 199.609 255.16 197.898 255.168 196.062ZM252.121 205.203C252.121 206.859 253.91 207.805 256.824 207.797C259.699 207.805 261.465 206.859 261.465 205.203C261.465 203.562 259.699 202.602 256.824 202.609C253.91 202.602 252.121 203.562 252.121 205.203ZM253.605 205.203C253.598 204.312 254.801 203.781 256.824 203.781C258.832 203.781 260.02 204.312 260.012 205.203C260.02 206.125 258.832 206.625 256.824 206.641C254.801 206.625 253.598 206.125 253.605 205.203ZM259.855 202.281H261.34V198.594H263.371V197.344H261.34V193.828H259.855V202.281ZM276.934 200.531H264.168V201.719H269.809V203.219H265.699V207.656H275.371V203.219H271.277V201.719H276.934V200.531ZM265.34 195.469H267.387V198.141H265.402V199.344H275.668V198.141H273.699V195.469H275.73V194.266H265.34V195.469ZM267.168 206.453V204.391H273.934V206.453H267.168ZM268.855 198.141V195.469H272.215V198.141H268.855ZM289.59 193.828H288.105V207.859H289.59V193.828ZM278.48 199.781C278.48 202.805 279.988 204.711 282.105 204.703C284.184 204.711 285.715 202.805 285.715 199.781C285.715 196.789 284.184 194.883 282.105 194.875C279.988 194.883 278.48 196.789 278.48 199.781ZM279.918 199.781C279.91 197.586 280.801 196.211 282.105 196.203C283.387 196.211 284.277 197.586 284.277 199.781C284.277 202.008 283.387 203.375 282.105 203.375C280.801 203.375 279.91 202.008 279.918 199.781ZM298.715 202.031H297.324V207.656H302.277V202.031H300.902V203.656H298.715V202.031ZM295.934 197.656C295.926 199.586 297.465 200.914 299.605 200.906C301.465 200.914 302.902 199.852 303.191 198.25H305.918V201.25H307.402V193.828H305.918V197.031H303.184C302.879 195.461 301.449 194.422 299.605 194.422C297.465 194.422 295.926 195.742 295.934 197.656ZM297.355 197.656C297.348 196.461 298.285 195.648 299.605 195.656C300.902 195.648 301.824 196.461 301.824 197.656C301.824 198.867 300.902 199.695 299.605 199.703C298.285 199.695 297.348 198.867 297.355 197.656ZM298.715 206.5V204.781H300.902V206.5H298.715ZM302.355 206.641L303.105 207.766C304.309 207.266 305.129 206.336 305.59 205.258C306.035 206.367 306.855 207.281 308.121 207.766L308.887 206.641C307.16 206.031 306.332 204.547 306.34 203.078V201.938H304.871V203.078C304.871 204.477 304.043 205.945 302.355 206.641ZM313.355 194.875C311.27 194.883 309.793 196.789 309.809 199.781C309.793 202.805 311.27 204.711 313.355 204.703C315.309 204.711 316.723 203.016 316.887 200.281H319.762V207.859H321.23V193.828H319.762V199.078H316.871C316.645 196.492 315.262 194.883 313.355 194.875ZM311.215 199.781C311.223 197.586 312.09 196.211 313.355 196.203C314.621 196.211 315.488 197.586 315.496 199.781C315.488 202.008 314.621 203.375 313.355 203.375C312.09 203.375 311.223 202.008 311.215 199.781ZM336.199 204.844H333.137V201.156C334.262 200.523 334.934 199.531 334.934 198.297C334.934 196.094 332.77 194.648 329.762 194.641C326.762 194.648 324.598 196.094 324.605 198.297C324.598 199.555 325.301 200.555 326.449 201.188V204.844H323.387V206.078H336.199V204.844ZM326.043 198.297C326.043 196.789 327.566 195.828 329.762 195.828C331.941 195.828 333.488 196.789 333.496 198.297C333.488 199.797 331.941 200.773 329.762 200.781C327.566 200.773 326.043 199.797 326.043 198.297ZM327.918 204.844V201.734C328.48 201.867 329.105 201.938 329.762 201.938C330.434 201.938 331.066 201.867 331.637 201.734V204.844H327.918ZM338.809 206.609C339.41 206.602 339.91 206.109 339.918 205.5C339.91 204.891 339.41 204.391 338.809 204.391C338.199 204.391 337.691 204.891 337.699 205.5C337.691 206.109 338.199 206.602 338.809 206.609Z" fill="#787878"/>
</svg>
