<svg width="114" height="111" viewBox="0 0 114 111" fill="none" xmlns="http://www.w3.org/2000/svg">
<path d="M102.83 67.2834C96.8406 91.4274 72.4124 106.144 48.2684 100.155C24.1244 94.1652 9.40738 69.7371 15.397 45.5931C21.3866 21.4491 45.8148 6.73202 69.9588 12.7216C94.1028 18.7113 108.82 43.1394 102.83 67.2834Z" fill="#FFE766"/>
<path fill-rule="evenodd" clip-rule="evenodd" d="M31.1086 55.4257C32.2613 56.3103 33.577 56.9591 34.9805 57.3352C36.384 57.7112 37.8479 57.8072 39.2885 57.6175C40.7291 57.4279 42.1182 56.9563 43.3766 56.2298C44.6349 55.5033 45.7378 54.536 46.6224 53.3833C47.5069 52.2305 48.1558 50.9148 48.5318 49.5113C48.6173 49.1924 48.428 48.8646 48.1091 48.7791L47.3619 48.5789C47.043 48.4935 46.7152 48.6827 46.6297 49.0016C46.3206 50.1554 45.7872 51.2369 45.0601 52.1845C44.333 53.1321 43.4264 53.9272 42.392 54.5244C41.3576 55.1216 40.2157 55.5093 39.0314 55.6652C37.8472 55.8211 36.6439 55.7422 35.4902 55.4331C34.3365 55.1239 33.2549 54.5906 32.3073 53.8634C31.3597 53.1363 30.5646 52.2297 29.9674 51.1953C29.3702 50.1609 28.9826 49.019 28.8267 47.8348C28.6708 46.6506 28.7497 45.4473 29.0588 44.2935C29.0998 44.1404 29.0784 43.9772 28.9991 43.8399C28.9198 43.7026 28.7892 43.6024 28.6361 43.5613L27.8889 43.3611C27.57 43.2757 27.2421 43.4649 27.1567 43.7839C26.7806 45.1874 26.6847 46.6512 26.8743 48.0918C27.064 49.5324 27.5355 50.9215 28.2621 52.1799C28.9886 53.4382 29.9558 54.5412 31.1086 55.4257Z" fill="#1F2220"/>
<path d="M34.6133 42.6708C34.3977 43.5402 33.518 44.0702 32.6486 43.8545C31.7792 43.6388 31.2493 42.7592 31.4649 41.8897C31.6806 41.0203 32.5603 40.4904 33.4297 40.7061C34.2991 40.9218 34.829 41.8014 34.6133 42.6708Z" fill="#1F2220"/>
<path d="M45.7344 45.9154C45.5187 46.7848 44.6391 47.3148 43.7697 47.0991C42.9003 46.8834 42.3704 46.0038 42.586 45.1344C42.8017 44.265 43.6814 43.735 44.5508 43.9507C45.4202 44.1664 45.9501 45.046 45.7344 45.9154Z" fill="#1F2220"/>
<path fill-rule="evenodd" clip-rule="evenodd" d="M44.0487 96.9438C67.4557 102.751 91.1381 88.4828 96.9449 65.0759C102.752 41.6689 88.4839 17.9865 65.0769 12.1797C41.67 6.37296 17.9876 20.6407 12.1808 44.0477C6.374 67.4546 20.6418 91.137 44.0487 96.9438ZM43.7176 98.2784C67.8616 104.268 92.2898 89.551 98.2794 65.407C104.269 41.263 89.552 16.8348 65.408 10.8452C41.264 4.85555 16.8359 19.5726 10.8462 43.7166C4.85659 67.8606 19.5736 92.2887 43.7176 98.2784Z" fill="white"/>
<path fill-rule="evenodd" clip-rule="evenodd" d="M80.7768 44.223C80.9556 44.2247 81.1243 44.3064 81.2366 44.4456C84.6048 48.6232 85.2285 52.24 84.2297 54.8352C83.3231 57.1908 81.1307 58.5486 78.8441 58.6025C78.8192 60.3854 78.014 62.1119 76.6583 63.1794C75.2029 64.3256 73.1754 64.6647 70.9483 63.6169C70.1454 64.6458 68.8478 65.1794 67.3769 65.0064C65.7048 64.8098 63.8582 63.7155 62.1744 61.5381L63.1202 60.8066C64.6748 62.8169 66.2583 63.671 67.5165 63.8189C68.76 63.9651 69.7314 63.4369 70.2241 62.5511C70.3846 62.2626 70.7487 62.1588 71.0372 62.3193C73.0724 63.4514 74.7676 63.1465 75.9186 62.2401C77.105 61.3058 77.7863 59.6762 77.6259 58.0432C77.6085 57.866 77.671 57.6903 77.7964 57.5639C77.9217 57.4374 78.0969 57.3735 78.2743 57.3894C80.3007 57.5711 82.3235 56.4591 83.1138 54.4058C83.8631 52.459 83.5603 49.4942 80.7518 45.7679C74.9014 52.5803 68.7388 56.652 62.8604 58.8948L62.4342 57.7777C68.2692 55.5514 74.4426 51.4439 80.3129 44.4369C80.4278 44.2998 80.598 44.2214 80.7768 44.223Z" fill="white"/>
<path fill-rule="evenodd" clip-rule="evenodd" d="M83.8637 26.1612C84.7032 26.2838 85.4622 26.7352 85.9737 27.416C86.4853 28.0969 86.7076 28.9516 86.5917 29.792C86.4757 30.6323 86.0311 31.3896 85.3555 31.8972C84.6215 32.4486 83.7144 32.707 82.8337 32.6155C81.953 32.5239 81.1708 32.09 80.6592 31.4091C80.1476 30.7282 79.9486 29.8561 80.1058 28.9848C80.263 28.1134 80.7637 27.314 81.4976 26.7626C82.1732 26.255 83.0243 26.0387 83.8637 26.1612ZM89.2134 37.0318C87.0116 38.6861 84.2902 39.4612 81.6481 39.1867C79.0059 38.9121 76.6593 37.6102 75.1246 35.5676C74.5317 34.7784 74.0787 33.9037 73.7732 32.9765C71.9473 33.8904 69.9096 34.2804 67.917 34.0733C65.2748 33.7987 62.9282 32.4968 61.3935 30.4542C59.8587 28.4115 59.2615 25.7953 59.7332 23.1811C60.2049 20.567 61.7068 18.1689 63.9086 16.5146C65.9353 14.9919 68.4887 14.3429 71.007 14.7106C73.5253 15.0782 75.8023 16.4323 77.337 18.475C77.9089 19.2361 78.3602 20.0696 78.6835 20.9462C80.5081 19.9188 82.6353 19.517 84.7381 19.824C87.2564 20.1916 89.5334 21.5457 91.0681 23.5884C92.6029 25.631 93.2697 28.195 92.9219 30.7161C92.574 33.2372 91.24 35.509 89.2134 37.0318ZM67.7665 21.6492C67.0326 22.2006 66.5319 23 66.3747 23.8714C66.2175 24.7428 66.4165 25.6148 66.9281 26.2957C67.4397 26.9766 68.2219 27.4106 69.1026 27.5021C69.9833 27.5936 70.8905 27.3352 71.6244 26.7838C72.3 26.2762 72.7446 25.5189 72.8606 24.6786C72.9765 23.8382 72.7542 22.9836 72.2427 22.3027C71.7311 21.6218 70.9721 21.1704 70.1326 21.0479C69.2932 20.9253 68.4421 21.1416 67.7665 21.6492Z" fill="#FF9D55"/>
</svg>
