<svg width="120" height="120" viewBox="0 0 120 120" fill="none" xmlns="http://www.w3.org/2000/svg">
<path d="M120 0H0V120H120V0Z" fill="#F5FFF0"/>
<path d="M31.7359 60.9214C32.2359 60.1214 32.5359 59.2214 32.6359 58.2214C32.7359 57.2214 32.6359 56.3214 32.4359 55.4214C29.7359 57.3214 27.7359 60.0214 26.8359 63.2214C28.7359 62.9214 30.3359 62.6214 31.7359 60.9214Z" fill="white"/>
<path d="M25.7812 64.1323L26.0372 62.9214C26.737 59.496 28.7502 56.4748 32.1218 54.5922L33.1372 54.1201V55.0214C33.4372 56.0214 33.5372 57.1214 33.4372 58.2214C33.3372 59.3214 32.9372 60.3214 32.3372 61.2214L32.2372 61.3214C30.6372 63.3214 28.9372 63.6214 26.8372 63.9214L25.7812 64.1323ZM31.8372 56.8214C30.1372 58.2214 28.7372 60.1214 27.9372 62.2214C29.1372 62.0214 30.0372 61.5214 30.9372 60.4214C31.3372 59.7214 31.6372 58.9214 31.7372 58.1214C31.9372 57.6214 31.9372 57.2214 31.8372 56.8214Z" fill="#1F2220"/>
<path d="M90.7 58.5L94.9 55.7C93.7 50.1 90.7 45.1 86.2 41.6C81.8 38 76.2 36.1 70.5 36.2H68C62.2 36.2 56.6 37.7 51.6 40.7C46.6 43.7 42.6 47.9 39.9 53C37.1 53.1 34.4 54 32.1 55.5C32.4 56.4 32.5 57.4 32.3 58.3C32.2 59.2 31.9 60.2 31.4 61C30 62.8 28.5 63.1 26.5 63.3C26.2 64.4 26 65.6 26 66.8C26 67.6 26.3 68.3 26.9 68.9C27.5 69.4 28.2 69.8 29 69.8H92.1C92.5 69.8 93 69.7 93.4 69.5C93.8 69.3 94.1 69 94.4 68.7C94.5 68.6 94.5 68.6 94.6 68.5C94.9 68.1 95.1 67.5 95.2 67V64.1H91.7L90.7 58.5Z" fill="#FFE766"/>
<path d="M29.2 70.5C28.2 70.5 27.3 70.1 26.6 69.4C25.9 68.7 25.5 67.8 25.5 66.8C25.5 65.5 25.7 64.3 26 63.1L26.1 62.6L26.6 62.5C28.5 62.3 29.7 62 30.9 60.5C31.3 59.9 31.6 59.1 31.7 58.2C31.8 57.4 31.7 56.5 31.5 55.7L31.3 55.1L31.8 54.8C34.1 53.2 36.8 52.3 39.5 52.2C42.3 47.2 46.4 42.9 51.3 40C56.4 37 62.1 35.4 68.1 35.4H70.6C76.5 35.3 82.2 37.3 86.8 41C91.4 44.7 94.6 49.9 95.8 55.6L95.9 56.1L91.7 58.9L92.6 63.1H96.2V66.8C96.2 67.6 95.9 68.3 95.4 68.8C95.4 68.9 95.3 69 95.2 69C94.9 69.4 94.4 69.8 93.9 70C93.4 70.2 92.8 70.4 92.3 70.4L29.2 70.5ZM27.3 64C27.1 64.9 27 65.8 27 66.7C27 67.3 27.3 67.8 27.7 68.2C28.1 68.6 28.7 68.8 29.2 68.8H92.3C92.6 68.8 92.9 68.7 93.2 68.6C93.5 68.5 93.8 68.2 94 68L94.1 67.9C94.1 67.9 94.1 67.9 94.2 67.8C94.5 67.5 94.6 67.1 94.6 66.7V64.7H91.3L89.9 58.1L94.1 55.3C92.9 50.1 90 45.5 85.8 42.2C81.6 38.8 76.3 37 70.9 37C70.8 37 70.7 37 70.6 37H68.1C62.5 37 56.9 38.5 52.1 41.4C47.3 44.3 43.3 48.4 40.7 53.4L40.5 53.8H40C37.6 53.9 35.2 54.6 33.1 55.9C33.3 56.7 33.3 57.6 33.2 58.5C33.1 59.6 32.7 60.6 32.1 61.5C30.7 63.3 29.2 63.7 27.3 64Z" fill="#1F2220"/>
<path d="M95.4977 60.2C95.4977 58.7 95.2904 57.2 95.0832 55.8L90.7305 58.6L91.9741 64H95.6013L95.4977 60.2Z" fill="white"/>
<path d="M96.1992 64.6758L91.2517 64.7L89.8008 58.1L95.4464 54.2262L95.8116 55.5C96.1568 57.1 96.2262 58.6 96.3298 60.1L96.1992 64.6758ZM92.5989 63.1H94.6716V60.2C94.6716 59.2 94.568 58.1 94.4644 57.1L91.6662 58.9L92.5989 63.1Z" fill="#1F2220"/>
<path d="M86.1016 53.5C85.0016 48.4 78.0016 41.9 70.0016 41.9H67.7016C59.6016 41.9 52.7016 47 48.1016 53.4L86.1016 53.5Z" fill="white"/>
<path d="M86.1016 54.3H48.1016C47.8016 54.3 47.5016 54.1 47.4016 53.9C47.3016 53.6 47.3016 53.3 47.5016 53.1C52.9016 45.5 60.3016 41.2 67.8016 41.2H70.0016C78.1016 41.2 85.6016 47.6 86.9016 53.4C87.0016 53.6 86.9016 53.9 86.7016 54.1C86.6016 54.2 86.4016 54.3 86.1016 54.3ZM49.7016 52.7H85.0016C83.4016 48.3 77.4016 42.8 69.9016 42.8H67.6016C61.2016 42.7 54.7016 46.3 49.7016 52.7Z" fill="#1F2220"/>
<path d="M94.8008 66.2H26.7008C25.1008 66.2 23.8008 67.5 23.8008 69.1C23.8008 70.7 25.1008 72 26.7008 72H94.8008C96.4008 72 97.7008 70.7 97.7008 69.1C97.6008 67.5 96.4008 66.2 94.8008 66.2Z" fill="#1F2220"/>
<path d="M45.2023 81.2C50.6023 81.2 55.0023 76.8 55.0023 71.4C55.0023 66 50.6023 61.6 45.2023 61.6C39.8023 61.6 35.4023 66 35.4023 71.4C35.4023 76.8 39.8023 81.2 45.2023 81.2Z" fill="#1DB981"/>
<path d="M45.2016 82C39.4016 82 34.6016 77.2 34.6016 71.4C34.6016 65.6 39.4016 60.8 45.2016 60.8C51.0016 60.8 55.8016 65.6 55.8016 71.4C55.8016 77.2 51.0016 82 45.2016 82ZM45.2016 62.4C40.2016 62.4 36.2016 66.4 36.2016 71.4C36.2016 76.4 40.2016 80.4 45.2016 80.4C50.2016 80.4 54.2016 76.4 54.2016 71.4C54.2016 66.4 50.1016 62.4 45.2016 62.4Z" fill="#1F2220"/>
<path d="M45.1992 75.4C47.3992 75.4 49.1992 73.6 49.1992 71.4C49.1992 69.2 47.3992 67.4 45.1992 67.4C42.9992 67.4 41.1992 69.2 41.1992 71.4C41.1992 73.6 42.8992 75.4 45.1992 75.4Z" fill="white"/>
<path d="M45.1984 76.2C42.4984 76.2 40.3984 74 40.3984 71.4C40.3984 68.8 42.5984 66.6 45.1984 66.6C47.7984 66.6 49.9984 68.8 49.9984 71.4C49.9984 74 47.7984 76.2 45.1984 76.2ZM45.1984 68.1C43.3984 68.1 41.9984 69.6 41.9984 71.3C41.9984 73 43.4984 74.5 45.1984 74.5C46.8984 74.5 48.3984 73 48.3984 71.3C48.3984 69.6 46.9984 68.1 45.1984 68.1Z" fill="#1F2220"/>
<path d="M80.9016 81.2C86.3016 81.2 90.7016 76.8 90.7016 71.4C90.7016 66 86.3016 61.6 80.9016 61.6C75.5016 61.6 71.1016 66 71.1016 71.4C71.1016 76.8 75.5016 81.2 80.9016 81.2Z" fill="#1DB981"/>
<path d="M80.9008 82C75.1008 82 70.3008 77.2 70.3008 71.4C70.3008 65.6 75.1008 60.8 80.9008 60.8C86.7008 60.8 91.5008 65.6 91.5008 71.4C91.5008 77.2 86.8008 82 80.9008 82ZM80.9008 62.4C75.9008 62.4 71.9008 66.4 71.9008 71.4C71.9008 76.4 75.9008 80.4 80.9008 80.4C85.9008 80.4 89.9008 76.4 89.9008 71.4C89.9008 66.4 85.9008 62.4 80.9008 62.4Z" fill="#1F2220"/>
<path d="M80.9023 75.4C83.1023 75.4 84.9023 73.6 84.9023 71.4C84.9023 69.2 83.1023 67.4 80.9023 67.4C78.7023 67.4 76.9023 69.2 76.9023 71.4C76.9023 73.6 78.7023 75.4 80.9023 75.4Z" fill="white"/>
<path d="M80.9016 76.2C78.2016 76.2 76.1016 74 76.1016 71.4C76.1016 68.8 78.3016 66.6 80.9016 66.6C83.5016 66.6 85.7016 68.8 85.7016 71.4C85.7016 74 83.6016 76.2 80.9016 76.2ZM80.9016 68.1C79.1016 68.1 77.7016 69.6 77.7016 71.3C77.7016 73 79.2016 74.5 80.9016 74.5C82.6016 74.5 84.1016 73 84.1016 71.3C84.1016 69.6 82.7016 68.1 80.9016 68.1Z" fill="#1F2220"/>
<path d="M68.8 53.9C68.4 53.9 68 53.5 68 53.1V42.7C68 42.3 68.4 41.9 68.8 41.9C69.2 41.9 69.6 42.3 69.6 42.7V53.1C69.6 53.6 69.3 53.9 68.8 53.9Z" fill="#1F2220"/>
</svg>
