<svg width="120" height="120" viewBox="0 0 120 120" fill="none" xmlns="http://www.w3.org/2000/svg">
<path d="M114 0H6C2.68629 0 0 2.68629 0 6V114C0 117.314 2.68629 120 6 120H114C117.314 120 120 117.314 120 114V6C120 2.68629 117.314 0 114 0Z" fill="#F5FFF0"/>
<path d="M38.6977 92.2C38.2977 92.2 37.8977 92.1 37.3977 91.9C35.8977 91.2 35.1977 89.4 35.8977 87.9L40.1977 78.6C40.8977 77.1 42.6977 76.4 44.1977 77.1C45.6977 77.8 46.3977 79.6 45.6977 81.1L41.3977 90.4C40.8977 91.6 39.7977 92.2 38.6977 92.2Z" fill="#1F2220"/>
<path d="M81.2962 92.2C80.1962 92.2 79.0962 91.6 78.5962 90.5L74.2962 81.2C73.5962 79.7 74.2962 77.9 75.7962 77.2C77.2962 76.5 79.0962 77.2 79.7962 78.7L84.0962 88C84.7962 89.5 84.0962 91.3 82.5962 92C82.1962 92.1 81.6962 92.2 81.2962 92.2Z" fill="#1F2220"/>
<path d="M60 83.6C76.2924 83.6 89.5 78.4065 89.5 72C89.5 65.5935 76.2924 60.4 60 60.4C43.7076 60.4 30.5 65.5935 30.5 72C30.5 78.4065 43.7076 83.6 60 83.6Z" fill="#1DB981"/>
<path d="M59.9992 84.4C42.9992 84.4 29.6992 79 29.6992 72C29.6992 65 42.9992 59.6 59.9992 59.6C76.9992 59.6 90.2992 65 90.2992 72C90.2992 79 76.9992 84.4 59.9992 84.4ZM59.9992 61.2C44.3992 61.2 31.2992 66.1 31.2992 72C31.2992 77.9 44.3992 82.8 59.9992 82.8C75.5992 82.8 88.6992 77.9 88.6992 72C88.6992 66.1 75.5992 61.2 59.9992 61.2Z" fill="#1F2220"/>
<path d="M75.2979 29.2L75.0979 29.1C73.3979 28.4 71.2979 29 70.3979 30.6L61.6979 47H58.8979L49.9979 30.6C49.1979 29.1 47.0979 28.4 45.2979 29.1L45.0979 29.2C43.3979 29.9 42.5979 31.7 43.3979 33.3L51.0979 47.7V64.3H69.0979V47.6L76.9979 33.2C77.7979 31.7 77.0979 29.9 75.2979 29.2Z" fill="#FFE766"/>
<path d="M69.8977 65.1H50.2977V47.9L42.6977 33.7C42.1977 32.8 42.1977 31.7 42.4977 30.8C42.8977 29.8 43.674 28.9648 44.774 28.4648L44.957 28.375C47.157 27.475 49.6977 28.4 50.6977 30.2L59.3977 46.2H61.1977L69.6977 30.2C70.7977 28.3 73.2977 27.5 75.3977 28.3L75.6133 28.3906C76.7133 28.7906 77.4977 29.6 77.8977 30.6C78.1977 31.5 78.1977 32.6 77.6977 33.5L69.8977 47.7V65.1ZM51.8977 63.5H68.2977V47.4L76.2977 32.8C76.5977 32.3 76.5977 31.8 76.3977 31.3C76.1977 30.7 75.418 30.1758 74.9977 30L74.6914 29.8789C73.3914 29.3789 71.6977 29.9 71.0977 31.1L62.1977 47.9H58.3977L49.2977 31C48.6977 29.8 46.9977 29.3 45.5977 29.9L45.4492 29.98C44.8977 30.2353 44.2977 30.8 44.0977 31.4C43.8977 31.9 43.8977 32.5 44.1977 33L51.9977 47.6L51.8977 63.5Z" fill="#1F2220"/>
<path d="M62.2992 50.6C66.2204 50.6 69.3992 47.466 69.3992 43.6C69.3992 39.734 66.2204 36.6 62.2992 36.6C58.378 36.6 55.1992 39.734 55.1992 43.6C55.1992 47.466 58.378 50.6 62.2992 50.6Z" fill="#FFE766"/>
<path d="M62.2984 51.4C57.8984 51.4 54.3984 47.9 54.3984 43.6C54.3984 39.3 57.8984 35.8 62.2984 35.8C66.6984 35.8 70.1984 39.3 70.1984 43.6C70.1984 47.9 66.6984 51.4 62.2984 51.4ZM62.2984 37.4C58.7984 37.4 55.9984 40.2 55.9984 43.6C55.9984 47 58.7984 49.8 62.2984 49.8C65.7984 49.8 68.5984 47 68.5984 43.6C68.5984 40.2 65.7984 37.4 62.2984 37.4Z" fill="#1F2220"/>
<path d="M63.6193 57.9442C64.0323 55.2139 66.5806 53.3353 69.3109 53.7484C72.0413 54.1615 73.9198 56.7097 73.5068 59.4401L71.263 74.2713C70.85 77.0017 68.3017 78.8802 65.5714 78.4671C62.841 78.0541 60.9625 75.5058 61.3755 72.7755L63.6193 57.9442Z" fill="#FFE766"/>
<path fill-rule="evenodd" clip-rule="evenodd" d="M69.681 74.032L71.9248 59.2007C72.2056 57.3441 70.9282 55.6113 69.0716 55.3304C67.215 55.0495 65.4822 56.3269 65.2013 58.1836L62.9575 73.0148C62.6767 74.8714 63.9541 76.6043 65.8107 76.8851C67.6673 77.166 69.4001 75.8886 69.681 74.032ZM69.3109 53.7484C66.5806 53.3353 64.0323 55.2139 63.6193 57.9442L61.3755 72.7755C60.9625 75.5058 62.841 78.0541 65.5714 78.4671C68.3017 78.8802 70.85 77.0017 71.263 74.2713L73.5068 59.4401C73.9198 56.7097 72.0413 54.1615 69.3109 53.7484Z" fill="#1F2220"/>
<path d="M49.9904 74.2716C50.4034 77.0019 52.9517 78.8805 55.682 78.4674C58.4124 78.0544 60.2909 75.5061 59.8779 72.7758L57.6341 57.9445C57.2211 55.2142 54.6728 53.3356 51.9425 53.7487C49.2121 54.1617 47.3336 56.71 47.7466 59.4403L49.9904 74.2716Z" fill="#FFE766"/>
<path fill-rule="evenodd" clip-rule="evenodd" d="M56.0521 58.1839L58.2959 73.0151C58.5767 74.8717 57.2993 76.6045 55.4427 76.8854C53.5861 77.1663 51.8532 75.8889 51.5724 74.0323L49.3286 59.201C49.0477 57.3444 50.3252 55.6116 52.1818 55.3307C54.0384 55.0498 55.7712 56.3272 56.0521 58.1839ZM55.682 78.4674C52.9517 78.8805 50.4034 77.0019 49.9904 74.2716L47.7466 59.4403C47.3336 56.71 49.2121 54.1617 51.9425 53.7487C54.6728 53.3356 57.2211 55.2142 57.6341 57.9445L59.8779 72.7758C60.2909 75.5061 58.4124 78.0544 55.682 78.4674Z" fill="#1F2220"/>
<path d="M43.3008 68.6997C43.3008 68.6997 50.1008 70.1712 60.0008 77.7553C60.0008 77.7553 71.4008 68.6997 77.3008 68.6997V79.0005H43.3008V68.6997Z" fill="#1DB981"/>
<path d="M59.6991 77.7003L59.1991 77.4003C49.5991 70.9003 42.8991 69.5003 42.7991 69.5003C42.3991 69.4003 42.0991 69.0003 42.1991 68.6003C42.2991 68.2003 42.6991 67.9003 43.0991 68.0003C43.3991 68.1003 49.9991 69.4003 59.5991 75.8003C61.7991 74.3003 71.3991 68.0003 76.8991 68.0003C77.2991 68.0003 77.6991 68.4003 77.6991 68.8003C77.6991 69.2003 77.2991 69.6003 76.8991 69.6003C71.2991 69.6003 60.1991 77.4003 60.0991 77.5003L59.6991 77.7003Z" fill="#1F2220"/>
</svg>
