<svg width="120" height="120" viewBox="0 0 120 120" fill="none" xmlns="http://www.w3.org/2000/svg">
<path d="M114 0H6C2.68629 0 0 2.68629 0 6V114C0 117.314 2.68629 120 6 120H114C117.314 120 120 117.314 120 114V6C120 2.68629 117.314 0 114 0Z" fill="#F5FFF0"/>
<path d="M57.9962 83.5984H27.4962V50.8984C27.4896 48.9793 27.8627 47.0778 28.5941 45.3034C29.3255 43.5291 30.4006 41.917 31.7577 40.5599C33.1147 39.2029 34.7269 38.1277 36.5012 37.3963C38.2755 36.665 40.177 36.2918 42.0962 36.2984H43.3962C45.3153 36.2918 47.2168 36.665 48.9912 37.3963C50.7655 38.1277 52.3776 39.2029 53.7347 40.5599C55.0917 41.917 56.1669 43.5291 56.8983 45.3034C57.6297 47.0778 58.0028 48.9793 57.9962 50.8984V83.5984Z" fill="#FFE766"/>
<path fill-rule="evenodd" clip-rule="evenodd" d="M42.0926 37.0984C40.279 37.0922 38.4821 37.4448 36.8053 38.136C35.1285 38.8271 33.605 39.8432 32.3226 41.1256C31.0402 42.4081 30.0241 43.9316 29.3329 45.6083C28.6418 47.2851 28.2892 49.0821 28.2954 50.8957L28.2954 50.8984L28.2954 82.7984H57.1954V50.8984L57.1954 50.8957C57.2016 49.0821 56.849 47.2851 56.1579 45.6083C55.4667 43.9316 54.4506 42.4081 53.1682 41.1256C51.8858 39.8432 50.3623 38.8271 48.6855 38.136C47.0087 37.4448 45.2118 37.0922 43.3982 37.0984L43.3954 37.0984H42.0954L42.0926 37.0984ZM42.0967 35.4984C40.0726 35.4917 38.067 35.8853 36.1955 36.6567C34.3236 37.4283 32.6229 38.5626 31.1912 39.9943C29.7596 41.4259 28.6253 43.1267 27.8537 44.9986C27.0823 46.87 26.6886 48.8756 26.6954 50.8998V83.5984C26.6954 84.0403 27.0536 84.3984 27.4954 84.3984H57.9954C58.4372 84.3984 58.7954 84.0403 58.7954 83.5984V50.9001C58.8022 48.8758 58.4086 46.8701 57.6371 44.9986C56.8655 43.1267 55.7312 41.4259 54.2996 39.9943C52.8679 38.5626 51.1672 37.4283 49.2953 36.6567C47.4238 35.8853 45.4182 35.4917 43.394 35.4984H42.0967Z" fill="#1F2220"/>
<path d="M51.2938 83.3984H34.0938V58.4984C34.1043 56.3269 34.9716 54.2473 36.5071 52.7117C38.0426 51.1762 40.1222 50.3089 42.2938 50.2984H43.0938C45.2653 50.3089 47.3449 51.1762 48.8804 52.7117C50.4159 54.2473 51.2832 56.3269 51.2938 58.4984V83.3984Z" fill="white"/>
<path fill-rule="evenodd" clip-rule="evenodd" d="M42.293 49.4984L42.2969 49.4984L43.1007 49.4984C45.4831 49.51 47.7646 50.4615 49.4492 52.1461C51.1338 53.8307 52.0853 56.1122 52.0969 58.4945L52.0969 58.4984L52.0969 83.3984C52.0969 83.8403 51.7387 84.1984 51.2969 84.1984H34.0969C33.655 84.1984 33.2969 83.8403 33.2969 83.3984V58.4945C33.3084 56.1122 34.2599 53.8307 35.9445 52.1461C37.6291 50.4615 39.9106 49.51 42.293 49.4984ZM43.0949 51.0984H42.2989C40.3388 51.1084 38.4619 51.8915 37.0759 53.2775C35.6899 54.6635 34.9069 56.5404 34.8969 58.5004V82.5984H50.4969V58.5004C50.4869 56.5404 49.7038 54.6634 48.3178 53.2775C46.9318 51.8915 45.0549 51.1084 43.0949 51.0984Z" fill="#1F2220"/>
<path d="M38.1953 46.7984C39.2999 46.7984 40.1953 45.903 40.1953 44.7984C40.1953 43.6938 39.2999 42.7984 38.1953 42.7984C37.0907 42.7984 36.1953 43.6938 36.1953 44.7984C36.1953 45.903 37.0907 46.7984 38.1953 46.7984Z" fill="#1F2220"/>
<path fill-rule="evenodd" clip-rule="evenodd" d="M38.1945 43.5984C37.5318 43.5984 36.9945 44.1357 36.9945 44.7984C36.9945 45.4612 37.5318 45.9984 38.1945 45.9984C38.8573 45.9984 39.3945 45.4612 39.3945 44.7984C39.3945 44.1357 38.8573 43.5984 38.1945 43.5984ZM35.3945 44.7984C35.3945 43.252 36.6481 41.9984 38.1945 41.9984C39.7409 41.9984 40.9945 43.252 40.9945 44.7984C40.9945 46.3448 39.7409 47.5984 38.1945 47.5984C36.6481 47.5984 35.3945 46.3448 35.3945 44.7984Z" fill="#1F2220"/>
<path d="M47.1953 46.7984C48.2999 46.7984 49.1953 45.903 49.1953 44.7984C49.1953 43.6938 48.2999 42.7984 47.1953 42.7984C46.0907 42.7984 45.1953 43.6938 45.1953 44.7984C45.1953 45.903 46.0907 46.7984 47.1953 46.7984Z" fill="#1F2220"/>
<path fill-rule="evenodd" clip-rule="evenodd" d="M47.1945 43.5984C46.5318 43.5984 45.9945 44.1357 45.9945 44.7984C45.9945 45.4612 46.5318 45.9984 47.1945 45.9984C47.8573 45.9984 48.3945 45.4612 48.3945 44.7984C48.3945 44.1357 47.8573 43.5984 47.1945 43.5984ZM44.3945 44.7984C44.3945 43.252 45.6481 41.9984 47.1945 41.9984C48.7409 41.9984 49.9945 43.252 49.9945 44.7984C49.9945 46.3448 48.7409 47.5984 47.1945 47.5984C45.6481 47.5984 44.3945 46.3448 44.3945 44.7984Z" fill="#1F2220"/>
<path d="M53.7955 56.5984C53.7955 56.5984 44.7955 61.4984 44.9955 69.2984C44.9955 69.2984 52.6955 70.8984 55.3955 61.2984" fill="#FFE766"/>
<path fill-rule="evenodd" clip-rule="evenodd" d="M54.1777 57.3008C54.1776 57.3008 54.1776 57.3008 54.1776 57.3008L54.1775 57.3009L54.1772 57.301L54.1745 57.3026L54.159 57.3111C54.1446 57.3192 54.122 57.3319 54.0918 57.3493C54.0314 57.3839 53.9405 57.437 53.8236 57.508C53.5898 57.65 53.2524 57.8633 52.8466 58.1439C52.0334 58.7062 50.9532 59.5333 49.8822 60.5923C47.863 62.5888 45.9667 65.3172 45.8029 68.5861C45.9326 68.5936 46.0791 68.5984 46.24 68.5984C46.9369 68.5984 47.8897 68.5069 48.9155 68.1442C50.9217 67.4348 53.3418 65.643 54.6246 61.0818C54.7442 60.6565 55.186 60.4087 55.6113 60.5283C56.0366 60.6479 56.2844 61.0897 56.1648 61.515C54.7477 66.5539 51.9677 68.762 49.4489 69.6527C48.2122 70.09 47.0712 70.1984 46.24 70.1984C45.8234 70.1984 45.4811 70.1712 45.2388 70.1431C45.1175 70.1291 45.0209 70.1148 44.9521 70.1035C44.9177 70.0978 44.8903 70.0929 44.8701 70.0892L44.8454 70.0844L44.8373 70.0828L44.8342 70.0822L44.833 70.0819C44.8325 70.0818 44.8319 70.0817 44.9947 69.2984L44.8319 70.0817C44.4683 70.0061 44.2045 69.6902 44.195 69.3189C44.0867 65.0956 46.4673 61.7188 48.7572 59.4546C49.9112 58.3136 51.0685 57.4281 51.9366 56.8279C52.3714 56.5273 52.7355 56.2969 52.9931 56.1404C53.1219 56.0622 53.2242 56.0024 53.2955 55.9615C53.3312 55.941 53.3591 55.9253 53.3787 55.9143L53.4019 55.9015L53.4087 55.8977L53.4108 55.8965L53.4116 55.8961C53.4119 55.896 53.4122 55.8958 53.7947 56.5984L53.4122 55.8958C53.8002 55.6845 54.286 55.8279 54.4973 56.2159C54.7085 56.6038 54.5654 57.0894 54.1777 57.3008Z" fill="#1F2220"/>
<path d="M31.5961 56.5984C31.5961 56.5984 40.5961 61.4984 40.3961 69.2984C40.3961 69.2984 32.6961 70.8984 29.9961 61.2984" fill="#FFE766"/>
<path fill-rule="evenodd" clip-rule="evenodd" d="M30.8929 56.2159C31.1042 55.8279 31.59 55.6845 31.9781 55.8958L31.5955 56.5984C31.9781 55.8958 31.9778 55.8957 31.9781 55.8958L31.9816 55.8977L31.9883 55.9015L32.0115 55.9143C32.0311 55.9253 32.059 55.941 32.0947 55.9615C32.166 56.0024 32.2683 56.0622 32.3971 56.1404C32.6547 56.2969 33.0188 56.5273 33.4536 56.8279C34.3217 57.4281 35.4791 58.3136 36.633 59.4546C38.923 61.7188 41.3035 65.0956 41.1953 69.3189C41.1857 69.6902 40.9219 70.0061 40.5583 70.0817L40.3955 69.2984C40.5583 70.0817 40.5578 70.0818 40.5572 70.0819L40.556 70.0822L40.553 70.0828L40.5448 70.0844L40.5201 70.0892C40.5 70.0929 40.4725 70.0978 40.4381 70.1035C40.3693 70.1148 40.2727 70.1291 40.1514 70.1431C39.9091 70.1712 39.5668 70.1984 39.1502 70.1984C38.319 70.1984 37.178 70.09 35.9413 69.6527C33.4225 68.762 30.6426 66.5539 29.2254 61.515C29.1058 61.0897 29.3536 60.6479 29.7789 60.5283C30.2042 60.4087 30.646 60.6565 30.7656 61.0818C32.0485 65.643 34.4685 67.4348 36.4747 68.1442C37.5005 68.5069 38.4533 68.5984 39.1502 68.5984C39.3111 68.5984 39.4576 68.5936 39.5873 68.5861C39.4236 65.3172 37.5272 62.5888 35.508 60.5923C34.437 59.5333 33.3569 58.7062 32.5437 58.1439C32.1378 57.8633 31.8004 57.65 31.5666 57.508C31.4497 57.437 31.3588 57.3839 31.2984 57.3493C31.2682 57.3319 31.2456 57.3192 31.2312 57.3111L31.2157 57.3026L31.213 57.301C30.8252 57.0897 30.6817 56.6038 30.8929 56.2159Z" fill="#1F2220"/>
<path d="M94.4962 83.5984H63.9962V52.5984C63.9896 50.6793 64.3627 48.7778 65.0941 47.0035C65.8255 45.2291 66.9006 43.617 68.2577 42.2599C69.6147 40.9029 71.2269 39.8277 73.0012 39.0963C74.7755 38.365 76.677 37.9918 78.5962 37.9984H79.8962C81.8153 37.9918 83.7168 38.365 85.4912 39.0963C87.2655 39.8277 88.8776 40.9029 90.2347 42.2599C91.5917 43.617 92.6669 45.2291 93.3983 47.0035C94.1297 48.7778 94.5028 50.6793 94.4962 52.5984V83.5984Z" fill="#1DB981"/>
<path fill-rule="evenodd" clip-rule="evenodd" d="M78.5926 38.7984C76.779 38.7921 74.9821 39.1448 73.3053 39.8359C71.6285 40.5271 70.105 41.5431 68.8226 42.8256C67.5402 44.108 66.5241 45.6315 65.8329 47.3083C65.1418 48.9851 64.7892 50.782 64.7954 52.5956L64.7954 52.5984L64.7954 82.7984H93.6954V52.5984L93.6954 52.5956C93.7016 50.782 93.349 48.9851 92.6579 47.3083C91.9667 45.6315 90.9506 44.108 89.6682 42.8256C88.3858 41.5431 86.8623 40.5271 85.1855 39.8359C83.5087 39.1448 81.7118 38.7921 79.8982 38.7984L79.8954 38.7984H78.5954L78.5926 38.7984ZM78.5967 37.1984C76.5726 37.1916 74.567 37.5853 72.6955 38.3567C70.8236 39.1283 69.1229 40.2625 67.6912 41.6942C66.2596 43.1259 65.1253 44.8266 64.3537 46.6985C63.5823 48.57 63.1886 50.5755 63.1954 52.5997V83.5984C63.1954 84.0402 63.5536 84.3984 63.9954 84.3984H94.4954C94.9372 84.3984 95.2954 84.0402 95.2954 83.5984V52.6C95.3022 50.5757 94.9086 48.5701 94.1371 46.6985C93.3655 44.8266 92.2312 43.1259 90.7996 41.6942C89.3679 40.2625 87.6672 39.1283 85.7953 38.3567C83.9238 37.5853 81.9182 37.1916 79.894 37.1984H78.5967Z" fill="#1F2220"/>
<path d="M87.8953 83.3984H70.6953V58.4984C70.7058 56.3269 71.5731 54.2473 73.1087 52.7117C74.6442 51.1762 76.7238 50.3089 78.8953 50.2984H79.6953C81.8668 50.3089 83.9464 51.1762 85.482 52.7117C87.0175 54.2473 87.8848 56.3269 87.8953 58.4984V83.3984Z" fill="white"/>
<path fill-rule="evenodd" clip-rule="evenodd" d="M78.8907 49.4984L78.8945 49.4984L79.6984 49.4984C82.0808 49.51 84.3623 50.4615 86.0469 52.1461C87.7315 53.8307 88.683 56.1122 88.6945 58.4945L88.6945 58.4984L88.6945 83.3984C88.6945 83.8403 88.3364 84.1984 87.8945 84.1984H70.6945C70.2527 84.1984 69.8945 83.8403 69.8945 83.3984V58.4945C69.9061 56.1122 70.8576 53.8307 72.5422 52.1461C74.2268 50.4615 76.5083 49.51 78.8907 49.4984ZM79.6925 51.0984H78.8965C76.9365 51.1084 75.0596 51.8915 73.6736 53.2775C72.2876 54.6635 71.5045 56.5404 71.4945 58.5004V82.5984H87.0945V58.5004C87.0845 56.5404 86.3015 54.6634 84.9155 53.2775C83.5295 51.8915 81.6526 51.1084 79.6925 51.0984Z" fill="#1F2220"/>
<path d="M75.5938 51.4984C76.0425 52.0291 76.6015 52.4555 77.2319 52.748C77.8622 53.0405 78.5488 53.192 79.2438 53.192C79.9387 53.192 80.6253 53.0405 81.2556 52.748C81.886 52.4555 82.445 52.0291 82.8938 51.4984C82.8938 51.4984 79.8938 49.1984 75.5938 51.4984Z" fill="#1F2220"/>
<path fill-rule="evenodd" clip-rule="evenodd" d="M83.3829 50.863C83.3833 50.8633 83.3836 50.8635 82.8969 51.4984L83.3836 50.8635C83.5573 50.9967 83.6688 51.1951 83.6923 51.4127C83.7157 51.6302 83.649 51.8479 83.5078 52.015C82.984 52.6344 82.3314 53.1322 81.5955 53.4737C80.8596 53.8151 80.0581 53.992 79.2469 53.992C78.4356 53.992 77.6342 53.8151 76.8983 53.4737C76.1624 53.1322 75.5098 52.6344 74.986 52.015C74.83 51.8305 74.7658 51.5855 74.8111 51.3482C74.8565 51.111 75.0066 50.9069 75.2196 50.793C77.5529 49.5449 79.5758 49.5296 81.0337 49.8552C81.7555 50.0163 82.3294 50.2586 82.7276 50.464C82.927 50.5668 83.0834 50.6609 83.1936 50.7321C83.2487 50.7676 83.2923 50.7976 83.3241 50.82C83.34 50.8313 83.3529 50.8407 83.3629 50.848L83.3755 50.8574L83.3801 50.8609L83.382 50.8623L83.3829 50.863ZM81.5266 51.6744C81.2881 51.5802 81.006 51.4884 80.685 51.4167C79.776 51.2137 78.5292 51.1658 77.0365 51.7218C77.2065 51.8353 77.3853 51.9358 77.5717 52.0223C78.0966 52.2659 78.6683 52.392 79.2469 52.392C79.8255 52.392 80.3972 52.2659 80.9221 52.0223C81.134 51.924 81.3362 51.8075 81.5266 51.6744Z" fill="#1F2220"/>
<path d="M42.6953 54.3984L38.1953 50.7984L42.6953 47.2984L47.2953 50.7984L42.6953 54.3984Z" fill="#1F2220"/>
<path d="M71.1953 47.2984C74.7852 47.2984 77.6953 44.3883 77.6953 40.7984C77.6953 37.2085 74.7852 34.2984 71.1953 34.2984C67.6055 34.2984 64.6953 37.2085 64.6953 40.7984C64.6953 44.3883 67.6055 47.2984 71.1953 47.2984Z" fill="white"/>
<path fill-rule="evenodd" clip-rule="evenodd" d="M71.1945 35.0984C68.0465 35.0984 65.4945 37.6504 65.4945 40.7984C65.4945 43.9464 68.0465 46.4984 71.1945 46.4984C74.3426 46.4984 76.8945 43.9464 76.8945 40.7984C76.8945 37.6504 74.3426 35.0984 71.1945 35.0984ZM63.8945 40.7984C63.8945 36.7667 67.1629 33.4984 71.1945 33.4984C75.2262 33.4984 78.4945 36.7667 78.4945 40.7984C78.4945 44.8301 75.2262 48.0984 71.1945 48.0984C67.1629 48.0984 63.8945 44.8301 63.8945 40.7984Z" fill="#1F2220"/>
<path d="M71.1953 40.7984H64.6953C64.6953 39.0745 65.3801 37.4212 66.5991 36.2022C67.8181 34.9832 69.4714 34.2984 71.1953 34.2984C72.9192 34.2984 74.5725 34.9832 75.7915 36.2022C77.0105 37.4212 77.6953 39.0745 77.6953 40.7984H71.1953Z" fill="#1DB981"/>
<path fill-rule="evenodd" clip-rule="evenodd" d="M71.1945 35.0984C69.6828 35.0984 68.233 35.6989 67.164 36.7679C66.2854 37.6465 65.7233 38.7824 65.5509 39.9984H76.8381C76.6658 38.7823 76.1036 37.6465 75.225 36.7679C74.1561 35.6989 72.7063 35.0984 71.1945 35.0984ZM66.0327 35.6365C67.4017 34.2675 69.2585 33.4984 71.1945 33.4984C73.1306 33.4984 74.9874 34.2675 76.3564 35.6365C77.7254 37.0055 78.4945 38.8623 78.4945 40.7984V41.5984H63.8945V40.7984C63.8945 38.8623 64.6636 37.0055 66.0327 35.6365Z" fill="#1F2220"/>
<path d="M71.1937 40.7984H73.1937V40.9984C73.1271 41.5312 72.8653 42.0203 72.4589 42.3712C72.0526 42.7221 71.5305 42.91 70.9938 42.8984C70.492 42.8427 70.0262 42.6114 69.6785 42.2454C69.3308 41.8794 69.1237 41.4023 69.0938 40.8984H71.1937V40.7984Z" fill="#1F2220"/>
<path fill-rule="evenodd" clip-rule="evenodd" d="M70.395 40.0984H68.2461L68.2964 40.9459C68.3376 41.6382 68.6221 42.2936 69.0998 42.7964C69.5774 43.2992 70.2175 43.617 70.9067 43.6935L70.9421 43.6975L70.9778 43.6982C71.7125 43.7141 72.4269 43.457 72.9831 42.9767C73.5392 42.4964 73.8976 41.8269 73.9888 41.0978L73.995 41.0483V39.9984H70.395V40.0984ZM71.995 41.5984V41.6984H70.2636C70.4727 41.9167 70.7492 42.0577 71.048 42.0989C71.3743 42.0974 71.6898 41.9795 71.9373 41.7658C71.9968 41.7144 72.0513 41.6584 72.1006 41.5984H71.995Z" fill="#1F2220"/>
<path d="M87.1953 47.2984C90.7852 47.2984 93.6953 44.3883 93.6953 40.7984C93.6953 37.2085 90.7852 34.2984 87.1953 34.2984C83.6055 34.2984 80.6953 37.2085 80.6953 40.7984C80.6953 44.3883 83.6055 47.2984 87.1953 47.2984Z" fill="white"/>
<path fill-rule="evenodd" clip-rule="evenodd" d="M87.1945 35.0984C84.0465 35.0984 81.4945 37.6504 81.4945 40.7984C81.4945 43.9464 84.0465 46.4984 87.1945 46.4984C90.3426 46.4984 92.8945 43.9464 92.8945 40.7984C92.8945 37.6504 90.3426 35.0984 87.1945 35.0984ZM79.8945 40.7984C79.8945 36.7667 83.1629 33.4984 87.1945 33.4984C91.2262 33.4984 94.4945 36.7667 94.4945 40.7984C94.4945 44.8301 91.2262 48.0984 87.1945 48.0984C83.1629 48.0984 79.8945 44.8301 79.8945 40.7984Z" fill="#1F2220"/>
<path d="M87.1953 40.7984H80.6953C80.6953 39.0745 81.3801 37.4212 82.5991 36.2022C83.8181 34.9832 85.4714 34.2984 87.1953 34.2984C88.9192 34.2984 90.5725 34.9832 91.7915 36.2022C93.0105 37.4212 93.6953 39.0745 93.6953 40.7984H87.1953Z" fill="#1DB981"/>
<path fill-rule="evenodd" clip-rule="evenodd" d="M87.1945 35.0984C85.6828 35.0984 84.233 35.6989 83.164 36.7679C82.2854 37.6465 81.7233 38.7824 81.5509 39.9984H92.8381C92.6658 38.7823 92.1036 37.6465 91.225 36.7679C90.1561 35.6989 88.7063 35.0984 87.1945 35.0984ZM82.0327 35.6365C83.4017 34.2675 85.2585 33.4984 87.1945 33.4984C89.1306 33.4984 90.9874 34.2675 92.3564 35.6365C93.7254 37.0055 94.4945 38.8623 94.4945 40.7984V41.5984H79.8945V40.7984C79.8945 38.8623 80.6636 37.0055 82.0327 35.6365Z" fill="#1F2220"/>
<path d="M87.1938 40.7984H89.1938C89.2199 40.9716 89.1845 41.1485 89.0938 41.2984C89.0247 41.5564 88.9046 41.7979 88.7407 42.0087C88.5767 42.2195 88.3722 42.3953 88.1392 42.5258C87.9062 42.6563 87.6494 42.7388 87.384 42.7684C87.1186 42.7981 86.8499 42.7743 86.5938 42.6984C86.1646 42.6003 85.7818 42.3584 85.5089 42.0128C85.2361 41.6672 85.0896 41.2387 85.0938 40.7984H87.1938Z" fill="#1F2220"/>
<path fill-rule="evenodd" clip-rule="evenodd" d="M84.3046 39.9984H89.8855L89.988 40.6793C90.0358 40.9962 89.984 41.319 89.8414 41.6038C89.7417 41.928 89.5839 42.2317 89.3753 42.4998C89.1457 42.795 88.8594 43.0411 88.5332 43.2238C88.207 43.4065 87.8475 43.522 87.4759 43.5635C87.1127 43.6041 86.7452 43.5731 86.394 43.4725C85.7969 43.3302 85.2648 42.9907 84.8841 42.5085C84.4982 42.0197 84.291 41.4136 84.297 40.7907L84.3046 39.9984ZM88.0435 41.5984H86.2107C86.363 41.7574 86.559 41.8691 86.7752 41.9185L86.7999 41.9242L86.8242 41.9314C86.9779 41.9769 87.1391 41.9912 87.2983 41.9734C87.4575 41.9556 87.6116 41.9061 87.7514 41.8278C87.8603 41.7669 87.9588 41.6894 88.0435 41.5984Z" fill="#1F2220"/>
</svg>
