<svg width="120" height="120" viewBox="0 0 120 120" fill="none" xmlns="http://www.w3.org/2000/svg">
<path d="M114 0H6C2.68629 0 0 2.68629 0 6V114C0 117.314 2.68629 120 6 120H114C117.314 120 120 117.314 120 114V6C120 2.68629 117.314 0 114 0Z" fill="#F5FFF0"/>
<path fill-rule="evenodd" clip-rule="evenodd" d="M33.4961 62.3V86.7H57.8961V62.3H33.4961Z" fill="#1DB981"/>
<path d="M41.7977 57.8001L29.5977 36.2001L37.7977 31.5001L45.3977 44.8001L57.8977 37.7001L62.5977 46.0001L41.7977 57.8001Z" fill="#FFE766"/>
<path fill-rule="evenodd" clip-rule="evenodd" d="M38.5135 30.8293C38.7182 30.8861 38.8919 31.0221 38.9962 31.2071L46.1044 43.8123L57.9085 37.202C58.2913 36.9877 58.7753 37.1216 58.9934 37.5022L63.6934 45.7022C63.7992 45.8868 63.8272 46.106 63.771 46.3112C63.7148 46.5165 63.5792 46.6909 63.3941 46.7959L42.5941 58.5959C42.4093 58.7007 42.1905 58.7277 41.9857 58.671C41.781 58.6143 41.6073 58.4785 41.5028 58.2935L29.3028 36.6935C29.0857 36.3091 29.221 35.8215 29.6052 35.6039L37.9052 30.9039C38.09 30.7992 38.3089 30.7724 38.5135 30.8293ZM31.0889 36.6024L42.5018 56.8087L61.9057 45.8007L57.9992 38.9851L46.1902 45.5981C45.8056 45.8135 45.3191 45.6771 45.1025 45.293L37.9962 32.6911L31.0889 36.6024Z" fill="#1F2220"/>
<path d="M49.3961 70.7H41.4961V78.6H49.3961V70.7Z" fill="#F5FFF0"/>
<path fill-rule="evenodd" clip-rule="evenodd" d="M32.5 62.4C32.5 61.9582 32.8582 61.6 33.3 61.6H57.7C58.1418 61.6 58.5 61.9582 58.5 62.4V86.8C58.5 87.2419 58.1418 87.6 57.7 87.6H33.3C32.8582 87.6 32.5 87.2419 32.5 86.8V62.4ZM34.1 63.2V86H56.9V63.2H34.1ZM40.7 70.7C40.7 70.2582 41.0582 69.9 41.5 69.9H49.4C49.8418 69.9 50.2 70.2582 50.2 70.7V78.6C50.2 79.0419 49.8418 79.4 49.4 79.4H41.5C41.0582 79.4 40.7 79.0419 40.7 78.6V70.7ZM42.3 71.5V77.8H48.6V71.5H42.3Z" fill="#1F2220"/>
<path d="M77.3008 88.6C84.4805 88.6 90.3008 82.7797 90.3008 75.6C90.3008 68.4203 84.4805 62.6 77.3008 62.6C70.1211 62.6 64.3008 68.4203 64.3008 75.6C64.3008 82.7797 70.1211 88.6 77.3008 88.6Z" fill="#FFE766"/>
<path fill-rule="evenodd" clip-rule="evenodd" d="M77.4992 63.6C70.7613 63.6 65.2992 69.0621 65.2992 75.8C65.2992 82.5379 70.7613 88 77.4992 88C84.2371 88 89.6992 82.5379 89.6992 75.8C89.6992 69.0621 84.2371 63.6 77.4992 63.6ZM63.6992 75.8C63.6992 68.1785 69.8777 62 77.4992 62C85.1208 62 91.2992 68.1785 91.2992 75.8C91.2992 83.4215 85.1208 89.6 77.4992 89.6C69.8777 89.6 63.6992 83.4215 63.6992 75.8Z" fill="#1F2220"/>
<path fill-rule="evenodd" clip-rule="evenodd" d="M77.5008 72.4C75.623 72.4 74.1008 73.9223 74.1008 75.8C74.1008 77.6778 75.623 79.2 77.5008 79.2C79.3786 79.2 80.9008 77.6778 80.9008 75.8C80.9008 73.9223 79.3786 72.4 77.5008 72.4ZM72.3008 75.8C72.3008 72.9282 74.6289 70.6 77.5008 70.6C80.3727 70.6 82.7008 72.9282 82.7008 75.8C82.7008 78.6719 80.3727 81 77.5008 81C74.6289 81 72.3008 78.6719 72.3008 75.8Z" fill="#1F2220"/>
<path fill-rule="evenodd" clip-rule="evenodd" d="M76.3008 32L61.3008 57.9H71.2008L76.5008 48.7L81.8008 57.9H91.3008L76.3008 32Z" fill="#1DB981"/>
<path fill-rule="evenodd" clip-rule="evenodd" d="M76.3977 30.4C76.6836 30.4 76.9477 30.5526 77.0906 30.8002L92.0906 56.8002C92.2334 57.0478 92.2333 57.3527 92.0904 57.6001C91.9475 57.8476 91.6834 58 91.3977 58H81.8977C81.6116 58 81.3473 57.8473 81.2045 57.5994L76.5977 49.6027L71.9909 57.5994C71.8481 57.8473 71.5837 58 71.2977 58H61.3977C61.1119 58 60.8478 57.8476 60.7049 57.6001C60.562 57.3527 60.5619 57.0478 60.7047 56.8002L75.7047 30.8002C75.8476 30.5526 76.1118 30.4 76.3977 30.4ZM62.7828 56.4H70.8353L75.9045 47.6007C76.0473 47.3528 76.3116 47.2 76.5977 47.2C76.8837 47.2 77.148 47.3528 77.2909 47.6007L82.36 56.4H90.0125L76.3977 32.8009L62.7828 56.4Z" fill="#1F2220"/>
<path d="M77.5003 79.5582C79.5759 79.5582 81.2585 77.8756 81.2585 75.8C81.2585 73.7245 79.5759 72.0419 77.5003 72.0419C75.4248 72.0419 73.7422 73.7245 73.7422 75.8C73.7422 77.8756 75.4248 79.5582 77.5003 79.5582Z" fill="#F5FFF0"/>
</svg>
