<svg width="32" height="32" viewBox="0 0 32 32" fill="none" xmlns="http://www.w3.org/2000/svg">
<path d="M19.719 13.1291C20.0267 13.5194 20.5926 13.5863 20.9829 13.2785C21.3733 12.9707 21.4402 12.4048 21.1324 12.0145L19.719 13.1291ZM17.0462 10.4222L17.2536 9.54642L17.0462 10.4222ZM13.0461 10.8239L13.424 11.6407L13.0461 10.8239ZM10.1747 13.6012L10.9796 14.0038L10.1747 13.6012ZM9.68756 17.5397L10.5662 17.3447L9.68756 17.5397ZM11.7977 20.917L12.36 20.2143L12.36 20.2143L11.7977 20.917ZM15.5825 22.2563L15.589 21.3563H15.589L15.5825 22.2563ZM19.3867 20.9719L19.9386 21.6828H19.9386L19.3867 20.9719ZM22.4225 17.8335C22.5374 17.3499 22.2384 16.8647 21.7548 16.7499C21.2712 16.635 20.7861 16.934 20.6712 17.4176L22.4225 17.8335ZM21.1324 12.0145C20.1588 10.7798 18.7905 9.91045 17.2536 9.54642L16.8387 11.298C17.9837 11.5691 18.9988 12.2158 19.719 13.1291L21.1324 12.0145ZM17.2536 9.54642C15.7168 9.18241 14.1002 9.34458 12.6682 10.0071L13.424 11.6407C14.4893 11.1479 15.6937 11.0267 16.8387 11.298L17.2536 9.54642ZM12.6682 10.0071C11.2361 10.6696 10.0721 11.7942 9.36973 13.1986L10.9796 14.0038C11.4978 12.9676 12.3589 12.1334 13.424 11.6407L12.6682 10.0071ZM9.36973 13.1986C8.66724 14.6034 8.46915 16.2031 8.80892 17.7346L10.5662 17.3447C10.3161 16.2175 10.4616 15.0397 10.9796 14.0038L9.36973 13.1986ZM8.80892 17.7346C9.14866 19.266 10.0053 20.6355 11.2355 21.6197L12.36 20.2143C11.4478 19.4844 10.8163 18.4721 10.5662 17.3447L8.80892 17.7346ZM11.2355 21.6197C12.4654 22.6038 13.996 23.1448 15.576 23.1563L15.589 21.3563C14.411 21.3478 13.2724 20.9443 12.36 20.2143L11.2355 21.6197ZM15.576 23.1563C17.1559 23.1677 18.6943 22.6489 19.9386 21.6828L18.8348 20.261C17.9115 20.9779 16.767 21.3649 15.589 21.3563L15.576 23.1563ZM19.9386 21.6828C21.1832 20.7166 22.0601 19.3597 22.4225 17.8335L20.6712 17.4176C20.4044 18.5412 19.7578 19.5444 18.8348 20.261L19.9386 21.6828Z" fill="#9D9D9D"/>
<path d="M21.8493 14.8963H17.8978C17.3633 14.8963 17.0956 14.25 17.4736 13.8721L21.425 9.92059C21.803 9.54261 22.4493 9.81031 22.4493 10.3449V14.2963C22.4493 14.6277 22.1807 14.8963 21.8493 14.8963Z" fill="#9D9D9D"/>
</svg>
