<svg width="120" height="120" viewBox="0 0 120 120" fill="none" xmlns="http://www.w3.org/2000/svg">
<path d="M114 0H6C2.68629 0 0 2.68629 0 6V114C0 117.314 2.68629 120 6 120H114C117.314 120 120 117.314 120 114V6C120 2.68629 117.314 0 114 0Z" fill="#F5FFF0"/>
<path fill-rule="evenodd" clip-rule="evenodd" d="M77.1016 77.9H64.6016L56.1016 31.4H77.1016V77.9Z" fill="#FFE766"/>
<path fill-rule="evenodd" clip-rule="evenodd" d="M53.7 78.1H30.5C30.5 65.7 41 55.5 53.7 55.5C66.4 55.5 76.9 65.7 76.9 78.1H53.7Z" fill="#1DB981"/>
<path d="M30.4 79C30.2 79 29.9 78.9 29.8 78.7C29.6 78.5 29.5 78.3 29.5 78.1C29.5 65.1 40.3 54.6 53.6 54.6C66.9 54.6 77.7 65.1 77.7 78.1C77.7 78.6 77.3 79 76.8 79H30.4ZM31.3 77.2H76C75.5 65.6 65.7 56.4 53.7 56.4C41.7 56.4 31.8 65.7 31.3 77.2Z" fill="#1F2220"/>
<path d="M77.4002 79.5C76.9002 79.5 76.5002 79.1 76.5002 78.6V32.8H57.0002L62.1002 56C62.2002 56.5 61.9002 57 61.4002 57.1C60.9002 57.2 60.4002 56.9 60.3002 56.4L55.0002 32.1C54.9002 31.8 55.0002 31.6 55.2002 31.3C55.4002 31.1 55.6002 31 55.9002 31H77.4002C77.9002 31 78.3002 31.4 78.3002 31.9V78.6C78.3002 79.1 77.9002 79.5 77.4002 79.5Z" fill="#1F2220"/>
<path d="M50.2016 62.8C50.0016 62.8 49.8016 62.7 49.6016 62.6L44.9016 58.2C44.5016 57.9 44.5016 57.3 44.9016 56.9C45.2016 56.5 45.8016 56.5 46.2016 56.9L50.9016 61.3C51.3016 61.6 51.3016 62.2 50.9016 62.6C50.7016 62.7 50.5016 62.8 50.2016 62.8Z" fill="#1F2220"/>
<path d="M55.6 61.5C55.4 61.5 55.2 61.4 55 61.3L50.3 56.9C49.9 56.6 49.9 56 50.3 55.6C50.6 55.2 51.2 55.2 51.6 55.6L56.3 60C56.7 60.3 56.7 60.9 56.3 61.3C56 61.4 55.8 61.5 55.6 61.5Z" fill="#1F2220"/>
<path fill-rule="evenodd" clip-rule="evenodd" d="M87.6 86.3H75.1L66.5 39.9H87.6V86.3Z" fill="#FFE766"/>
<path fill-rule="evenodd" clip-rule="evenodd" d="M64.2007 86.6H41.0007C40.9007 74.2 51.4007 64 64.2007 64C77.0007 64 87.4007 74.2 87.4007 86.6H64.2007Z" fill="#1DB981"/>
<path d="M40.9 87.5C40.7 87.5 40.4 87.4 40.3 87.2C40.2 87 40 86.8 40 86.6C40 73.6 50.8 63.1 64.1 63.1C77.4 63.1 88.2 73.6 88.2 86.6C88.2 87.1 87.8 87.5 87.3 87.5H40.9ZM41.8 85.7H86.5C86 74.1 76.2 64.9 64.2 64.9C52.2 64.9 42.3 74.1 41.8 85.7Z" fill="#1F2220"/>
<path d="M87.6017 87.5C87.1017 87.5 86.7017 87.1 86.7017 86.6V40.8H67.2017L72.2017 64.4C72.3017 64.9 72.0017 65.4 71.5017 65.5C71.0017 65.6 70.5017 65.3 70.4017 64.8L65.1017 40.1C65.0017 39.8 65.1017 39.6 65.3017 39.3C65.5017 39.1 65.7017 39 66.0017 39H87.5017C88.0017 39 88.4017 39.4 88.4017 39.9V86.6C88.5017 87 88.1017 87.5 87.6017 87.5Z" fill="#1F2220"/>
<path d="M60.7016 71.2C60.5016 71.2 60.3016 71.1 60.1016 71L55.4016 66.6C55.0016 66.3 55.0016 65.7 55.4016 65.3C55.7016 64.9 56.3016 64.9 56.7016 65.3L61.4016 69.7C61.8016 70 61.8016 70.6 61.4016 71C61.2016 71.1 60.9016 71.2 60.7016 71.2Z" fill="#1F2220"/>
<path d="M65.9984 70C65.7984 70 65.5984 69.9 65.3984 69.8L60.6984 65.4C60.2984 65.1 60.2984 64.5 60.6984 64.1C60.9984 63.7 61.5984 63.7 61.9984 64.1L66.6984 68.5C67.0984 68.8 67.0984 69.4 66.6984 69.8C66.4984 69.9 66.2984 70 65.9984 70Z" fill="#1F2220"/>
</svg>
