<svg width="1920" height="234" viewBox="0 0 1920 234" fill="none" xmlns="http://www.w3.org/2000/svg">
<mask id="mask0_1502_58504" style="mask-type:alpha" maskUnits="userSpaceOnUse" x="0" y="0" width="1920" height="234">
<path d="M0 0H1920V234H0V0Z" fill="#F5FFF0"/>
</mask>
<g mask="url(#mask0_1502_58504)">
<path d="M0 0H1920V234H0V0Z" fill="#F5FFF0"/>
<path d="M585.549 112.2H560.256V96.4775H553.859V117.229H566.457V127.435H549.318V132.415H589.992V127.435H572.756V117.229H585.549V112.2ZM630.787 93.0596H624.586V137.591H630.787V93.0596ZM595.875 101.8H610.67V108.978H595.924V127.19H599.928C608.033 127.19 614.649 126.922 621.949 125.628L621.412 120.599C614.894 121.673 609.156 122.015 602.369 122.063V113.909H617.018V96.7705H595.875V101.8ZM652.148 96.0381C645.142 96.0137 639.771 100.555 639.795 106.927C639.771 113.323 645.142 117.84 652.148 117.864C659.204 117.84 664.429 113.323 664.453 106.927C664.429 100.555 659.204 96.0137 652.148 96.0381ZM637.939 123.431L638.672 128.509C646.436 128.509 656.982 128.436 666.846 126.507L666.357 122.015C656.86 123.357 645.874 123.455 637.939 123.431ZM645.996 106.927C645.972 103.46 648.633 101.409 652.148 101.409C655.688 101.409 658.374 103.46 658.398 106.927C658.374 110.442 655.688 112.469 652.148 112.444C648.633 112.469 645.972 110.442 645.996 106.927ZM668.896 137.591H675.098V93.0596H668.896V137.591ZM731.688 93.0596H725.389V137.591H731.688V93.0596ZM695.799 112.005C695.774 121.771 700.73 127.874 707.566 127.874C714.256 127.874 719.236 121.771 719.236 112.005C719.236 102.312 714.256 96.1846 707.566 96.1846C700.73 96.1846 695.774 102.312 695.799 112.005ZM701.805 112.005C701.78 105.413 704.1 101.8 707.566 101.8C710.936 101.8 713.206 105.413 713.23 112.005C713.206 118.621 710.936 122.234 707.566 122.21C704.1 122.234 701.78 118.621 701.805 112.005ZM750.656 96.1846C743.845 96.1846 738.913 102.312 738.938 112.005C738.913 121.771 743.845 127.874 750.656 127.874C757.443 127.874 762.351 121.771 762.375 112.005C762.351 102.312 757.443 96.1846 750.656 96.1846ZM744.943 112.005C744.943 105.413 747.263 101.8 750.656 101.8C754.123 101.8 756.394 105.413 756.418 112.005C756.394 118.621 754.123 122.234 750.656 122.21C747.263 122.234 744.943 118.621 744.943 112.005ZM767.502 137.493H773.752V121.575H780.051V116.497H773.752V108.587H780.051V103.362H773.752V93.0596H767.502V137.493ZM820.26 93.0596H813.961V137.493H820.26V93.0596ZM783.053 124.896L786.324 129.876C802.193 122.381 806.905 111.175 806.93 97.6982H785.445V102.581H800.582C799.581 112.444 794.527 119.476 783.053 124.896Z" fill="#1F2220"/>
<path d="M567.286 55.1045H552.32V56.96H564.991C564.991 58.5835 564.967 60.3901 564.442 62.8438H549.806V64.6992H558.619V67.8853C554.518 68.1172 552.076 69.5576 552.076 71.9258C552.076 74.5747 554.969 76.0396 559.767 76.0273C564.527 76.0396 567.42 74.5747 567.433 71.9258C567.42 69.5698 564.991 68.1172 560.914 67.8853V64.6992H569.825V62.8438H566.773C567.298 60.3291 567.298 58.3394 567.286 56.6914V55.1045ZM554.42 71.9258C554.396 70.5098 556.373 69.7285 559.767 69.7285C563.111 69.7285 565.089 70.5098 565.113 71.9258C565.089 73.3906 563.111 74.1841 559.767 74.1719C556.373 74.1841 554.396 73.3906 554.42 71.9258ZM588.893 55.2998H573.927V57.2041H586.598C586.598 58.8643 586.573 60.7319 585.987 63.2832H571.412V65.1875H591.432V63.2832H588.331C588.905 60.6465 588.905 58.6689 588.893 56.96V55.2998ZM573.854 75.8076H588.917V67.9707H573.854V75.8076ZM576.124 73.9277V69.8018H586.622V73.9277H576.124ZM610.06 54.2012H607.765V76.0762H610.06V64.9922H613.575V63.0635H610.06V54.2012ZM592.896 59.5234H605.86V57.6191H600.611V54.4941H598.292V57.6191H592.896V59.5234ZM594.02 66.2129C594.02 69.2158 596.314 71.3032 599.464 71.3154C602.601 71.3032 604.896 69.2158 604.908 66.2129C604.896 63.2344 602.601 61.1348 599.464 61.1348C596.314 61.1348 594.02 63.2344 594.02 66.2129ZM596.241 66.2129C596.229 64.3452 597.596 63.0513 599.464 63.0391C601.319 63.0513 602.674 64.3452 602.687 66.2129C602.674 68.1172 601.319 69.3867 599.464 69.3623C597.596 69.3867 596.229 68.1172 596.241 66.2129ZM632.765 54.2256H630.445V70.2412H632.765V54.2256ZM614.747 65.3096L615.992 67.1406C618.556 66.1519 620.448 64.1255 621.412 61.5864C622.389 63.9546 624.256 65.8101 626.783 66.75L627.979 64.8945C624.598 63.7227 622.572 60.793 622.584 57.5947V55.4219H620.216V57.5947C620.204 60.8906 618.177 64.04 614.747 65.3096ZM618.458 75.6123H633.424V73.7324H620.802V68.7275H618.458V75.6123ZM653.272 54.2012H650.953V76.0518H653.272V64.8457H656.666V62.917H653.272V54.2012ZM636.256 70.2168L637.55 72.0234C644.752 68.4712 647.535 62.8193 647.56 56.4961H637.354V58.4248H645.191C644.715 63.5273 641.737 67.4824 636.256 70.2168ZM677.857 71.4131H673.072V65.6514C674.83 64.6626 675.88 63.1123 675.88 61.1836C675.88 57.7412 672.499 55.4829 667.799 55.4707C663.111 55.4829 659.73 57.7412 659.742 61.1836C659.73 63.1489 660.829 64.7114 662.623 65.7002V71.4131H657.838V73.3418H677.857V71.4131ZM661.988 61.1836C661.988 58.8276 664.369 57.3262 667.799 57.3262C671.205 57.3262 673.622 58.8276 673.634 61.1836C673.622 63.5273 671.205 65.0532 667.799 65.0654C664.369 65.0532 661.988 63.5273 661.988 61.1836ZM664.918 71.4131V66.5547C665.797 66.7622 666.773 66.8721 667.799 66.8721C668.849 66.8721 669.837 66.7622 670.729 66.5547V71.4131H664.918ZM683.033 68.752V68.8984H685.523V68.752C685.56 66.7622 686.134 65.8833 687.599 64.9922C689.149 64.04 690.089 62.7339 690.089 60.7686C690.089 57.9854 687.965 56.0811 684.791 56.0811C681.886 56.0811 679.542 57.7778 679.444 60.8906H682.081C682.191 59.084 683.473 58.2783 684.791 58.2783C686.256 58.2783 687.428 59.2427 687.428 60.7686C687.428 62.0503 686.646 62.9536 685.621 63.5762C684.01 64.5771 683.07 65.5537 683.033 68.752ZM682.643 72.4385C682.63 73.3906 683.424 74.1597 684.376 74.1719C685.316 74.1597 686.097 73.3906 686.109 72.4385C686.097 71.4863 685.316 70.7051 684.376 70.7051C683.424 70.7051 682.63 71.4863 682.643 72.4385Z" fill="#636363"/>
<rect x="548" y="159.001" width="200" height="38" rx="3" fill="#1DB981"/>
<path d="M580.139 185.001L581.203 181.739H586.32L587.385 185.001H590.529L585.646 170.86H581.877L576.975 185.001H580.139ZM581.945 179.454L583.713 174.044H583.811L585.578 179.454H581.945ZM592.131 185.001H598.127C601.32 185.001 603 183.341 603.01 181.095C603 179.005 601.496 177.735 599.904 177.657V177.521C601.359 177.198 602.453 176.153 602.443 174.493C602.453 172.364 600.871 170.86 597.756 170.86H592.131V185.001ZM595.061 182.579V178.79H597.619C599.064 178.79 599.973 179.63 599.963 180.821C599.973 181.886 599.24 182.589 597.541 182.579H595.061ZM595.061 176.778V173.243H597.385C598.723 173.243 599.484 173.937 599.475 174.962C599.484 176.095 598.557 176.788 597.326 176.778H595.061ZM617.814 177.931C617.814 173.312 614.953 170.665 611.213 170.665C607.443 170.665 604.592 173.312 604.592 177.931C604.592 182.53 607.443 185.196 611.213 185.196C614.953 185.196 617.814 182.55 617.814 177.931ZM607.58 177.931C607.58 174.903 609.016 173.272 611.213 173.263C613.391 173.272 614.836 174.903 614.826 177.931C614.836 180.948 613.391 182.589 611.213 182.599C609.016 182.589 607.58 180.948 607.58 177.931ZM628.674 170.86V179.806C628.684 181.437 627.531 182.608 625.764 182.618C624.016 182.608 622.863 181.437 622.854 179.806V170.86H619.924V180.04C619.924 183.136 622.248 185.206 625.764 185.196C629.27 185.206 631.623 183.136 631.623 180.04V170.86H628.674ZM633.459 173.282H637.795V185.001H640.705V173.282H645.041V170.86H633.459V173.282ZM664.826 169.024H662.326V186.798H664.826V177.755H667.443V175.665H664.826V169.024ZM651.369 182.677H660.021V170.431H657.541V174.767H653.85V170.431H651.369V182.677ZM653.85 180.665V176.7H657.541V180.665H653.85ZM684.357 182.774H677.424V180.099H682.893V178.067H672.463V176.075H682.482V170.177H669.943V172.169H680.021V174.122H669.963V180.099H674.943V182.774H668.088V184.825H684.357V182.774ZM699.396 169.024H696.896V186.759H699.396V177.892H701.916V175.841H699.396V169.024ZM685.178 181.778L686.584 183.692C692.561 180.753 694.631 176.153 694.65 170.841H686.193V172.872H692.121C691.652 176.837 689.387 179.669 685.178 181.778ZM717.6 169.024H715.08V186.798H717.6V169.024ZM702.717 181.759L704.025 183.751C710.373 180.753 712.258 176.271 712.268 170.88H703.674V172.833H709.729C709.328 176.778 707.307 179.591 702.717 181.759Z" fill="white"/>
<path opacity="0.1" d="M643 234.001C645.761 234.001 648.015 231.76 647.858 229.003C646.635 207.486 637.547 187.097 622.225 171.776C605.722 155.272 583.339 146.001 560 146.001C536.661 146.001 514.278 155.272 497.775 171.776C482.453 187.097 473.365 207.486 472.142 229.003C471.985 231.76 474.239 234.001 477 234.001L506.793 234.001C509.555 234.001 511.767 231.756 512.052 229.01C513.192 218.059 518.057 207.77 525.913 199.914C534.953 190.873 547.215 185.794 560 185.794C572.785 185.794 585.047 190.873 594.087 199.914C601.943 207.77 606.808 218.059 607.948 229.01C608.233 231.756 610.445 234.001 613.207 234.001H643Z" fill="#1DB981"/>
<path d="M763.948 184.203C764.729 183.421 764.735 182.146 763.878 181.449C762.415 180.259 760.785 179.286 759.036 178.561C756.67 177.581 754.135 177.077 751.574 177.077C749.013 177.077 746.477 177.581 744.112 178.561C741.746 179.541 739.596 180.978 737.785 182.788C735.975 184.599 734.538 186.749 733.558 189.115C732.578 191.48 732.074 194.016 732.074 196.577C732.074 199.138 732.578 201.673 733.558 204.039C734.283 205.788 735.256 207.418 736.446 208.881C737.143 209.738 738.419 209.732 739.2 208.951L751.574 196.577L763.948 184.203Z" fill="#B4EACF"/>
<path opacity="0.6" d="M998 -1.49998C995.239 -1.49998 992.994 0.739693 993.055 3.50045C994.34 62.026 1018.15 117.882 1059.63 159.367C1102.3 202.031 1160.16 226 1220.5 226C1280.84 226 1338.7 202.031 1381.37 159.367C1422.85 117.882 1446.66 62.026 1447.95 3.50044C1448.01 0.739678 1445.76 -1.49998 1443 -1.49998L1363.06 -1.49999C1360.3 -1.49999 1358.07 0.740403 1357.97 3.50001C1356.71 38.1663 1342.38 71.1512 1317.77 95.7671C1291.97 121.564 1256.98 136.056 1220.5 136.056C1184.02 136.056 1149.03 121.564 1123.23 95.7671C1098.62 71.1512 1084.29 38.1663 1083.03 3.5C1082.93 0.740403 1080.7 -1.49998 1077.94 -1.49998L998 -1.49998Z" fill="white"/>
<g opacity="0.1">
<path fill-rule="evenodd" clip-rule="evenodd" d="M1036.61 86.8638C1035.99 96.9834 1027.59 105 1017.32 105C1010.43 105 1004.39 101.4 1000.96 95.9792C997.913 97.9927 994.258 99.1647 990.329 99.1647C979.654 99.1647 971 90.5106 971 79.8353C971 70.0224 978.312 61.9175 987.785 60.6719C988.083 50.8615 996.129 43 1006.01 43C1012.71 43 1018.57 46.6142 1021.74 51.9995C1024.23 50.0187 1027.38 48.8353 1030.81 48.8353C1038.87 48.8353 1045.4 55.3667 1045.4 63.4235C1045.4 64.9584 1045.16 66.438 1044.72 67.8275C1050.4 68.2286 1054.88 72.9616 1054.88 78.7412C1054.88 84.7838 1049.98 89.6824 1043.94 89.6824C1041.12 89.6824 1038.55 88.6157 1036.61 86.8638Z" fill="#1DB981"/>
</g>
<g opacity="0.04">
<path fill-rule="evenodd" clip-rule="evenodd" d="M900.553 125.627C898.027 107.225 881.13 93.001 860.661 93.001C842.014 93.001 826.331 104.806 821.778 120.821C814.693 115.02 805.397 111.502 795.218 111.502C773.006 111.502 755 128.252 755 148.914C755 169.576 773.006 186.326 795.218 186.326C795.925 186.326 796.628 186.309 797.326 186.275C801.606 201.627 817.125 213.001 835.613 213.001C850.162 213.001 862.871 205.958 869.713 195.477C874.917 199.374 881.533 201.707 888.734 201.707C905.498 201.707 919.087 189.066 919.087 173.472C919.087 170.332 918.536 167.312 917.519 164.49C927.416 162.19 934.747 153.864 934.747 143.945C934.747 132.249 924.555 122.768 911.982 122.768C907.816 122.768 903.912 123.809 900.553 125.627Z" fill="#1DB981"/>
</g>
<path d="M1216.41 114.721L1119.36 153.695V234.128H1313.45V153.695L1216.41 114.721Z" fill="#B4EACF"/>
<path d="M1122.69 179.82C1113.81 184.088 1103.15 180.364 1098.87 171.495V171.495C1094.58 162.61 1098.3 151.927 1107.19 147.642L1194.66 105.478C1208.4 98.8581 1224.4 98.8659 1238.13 105.499L1325.32 147.635C1334.2 151.925 1337.92 162.599 1333.63 171.478V171.478C1329.35 180.353 1318.68 184.075 1309.8 179.794L1238.09 145.211C1224.38 138.601 1208.41 138.592 1194.7 145.187L1122.69 179.82Z" fill="#B4EACF"/>
<path d="M1085.2 201.364H1077.44V233.972H1085.2V201.364Z" fill="#B4EACF"/>
<path d="M1355.11 201.364H1347.34V233.972H1355.11V201.364Z" fill="#B4EACF"/>
<path d="M1078.4 189.499C1079.56 187.499 1082.44 187.499 1083.6 189.499L1095.72 210.499C1096.88 212.499 1095.43 214.999 1093.12 214.999H1068.88C1066.57 214.999 1065.12 212.499 1066.28 210.499L1078.4 189.499Z" fill="#B4EACF"/>
<path d="M1349.4 190.499C1350.56 188.499 1353.44 188.499 1354.6 190.499L1366.72 211.499C1367.88 213.499 1366.43 215.999 1364.12 215.999H1339.88C1337.57 215.999 1336.12 213.499 1337.28 211.499L1349.4 190.499Z" fill="#B4EACF"/>
</g>
</svg>
