<svg width="1920" height="384" viewBox="0 0 1920 384" fill="none" xmlns="http://www.w3.org/2000/svg">
<mask id="mask0_1502_59348" style="mask-type:alpha" maskUnits="userSpaceOnUse" x="0" y="0" width="1921" height="384">
<rect width="1921" height="384" fill="#D9D9D9"/>
</mask>
<g mask="url(#mask0_1502_59348)">
<path d="M0 0H1921V384H0V0Z" fill="#1DB981"/>
<path fill-rule="evenodd" clip-rule="evenodd" d="M887.95 70.8641C887.105 56.9905 875.586 46 861.5 46C851.188 46 842.252 51.8895 837.872 60.4882C833.221 56.4466 827.146 54 820.5 54C805.864 54 794 65.8645 794 80.5C794 95.1355 805.864 107 820.5 107C821.539 107 822.565 106.94 823.573 106.824C826.079 117.21 836.511 125 849 125C856.103 125 862.541 122.48 867.234 118.396C870.697 121.271 875.147 123 880 123C891.046 123 900 114.046 900 103C900 100.896 899.675 98.8673 899.072 96.9622C906.856 96.4124 913 89.9237 913 82C913 73.7157 906.284 67 898 67C894.134 67 890.61 68.4624 887.95 70.8641Z" fill="url(#paint0_linear_1502_59348)" fill-opacity="0.37"/>
<path d="M486.31 114.904H450.538V117.805H466.622V131.56H470.006V117.805H486.31V114.904ZM454.581 102.688C454.603 107.895 460.118 111.191 468.336 111.169C476.532 111.191 482.091 107.895 482.091 102.688C482.091 97.3921 476.532 94.0962 468.336 94.0742C460.118 94.0962 454.603 97.3921 454.581 102.688ZM458.141 102.688C458.097 99.1499 462.25 96.8867 468.336 96.8867C474.422 96.8867 478.553 99.1499 478.575 102.688C478.553 106.159 474.422 108.4 468.336 108.4C462.25 108.4 458.097 106.159 458.141 102.688ZM521.729 92.4922H518.302V131.647H521.729V92.4922ZM491.671 98.9961H506.393V107.214H491.759V122.155H495.011C501.756 122.155 507.689 121.87 514.874 120.749L514.522 117.849C507.535 118.969 501.756 119.277 495.274 119.255V110.026H509.864V96.1396H491.671V98.9961ZM538.824 95.5244C533.023 95.5464 528.958 100.842 528.98 109.147C528.958 117.475 533.023 122.749 538.824 122.727C544.581 122.749 548.668 117.475 548.712 109.147C548.668 100.842 544.581 95.5464 538.824 95.5244ZM532.232 109.147C532.254 102.797 534.957 98.6226 538.824 98.6006C542.735 98.6226 545.372 102.797 545.372 109.147C545.372 115.498 542.735 119.672 538.824 119.65C534.957 119.672 532.254 115.498 532.232 109.147ZM555.172 131.56H558.6V111.081H565.147V108.093H558.6V92.4922H555.172V131.56ZM599.469 92.4922H595.997V131.647H599.469V92.4922ZM568.707 109.147C568.729 117.475 572.86 122.749 578.683 122.727C584.483 122.749 588.68 117.475 588.658 109.147C588.68 100.842 584.483 95.5464 578.683 95.5244C572.86 95.5464 568.729 100.842 568.707 109.147ZM572.047 109.147C572.047 102.797 574.771 98.6226 578.683 98.6006C582.616 98.6226 585.318 102.797 585.318 109.147C585.318 115.498 582.616 119.672 578.683 119.65C574.771 119.672 572.047 115.498 572.047 109.147ZM630.67 99.9189V98.249H639.459V95.3926H618.365V98.249H627.286V99.9189C627.242 105.566 623.155 110.598 617.311 112.575L619.068 115.344C623.749 113.652 627.352 110.158 629.022 105.676C630.714 109.609 634.12 112.707 638.624 114.201L640.25 111.477C634.515 109.609 630.692 105.039 630.67 99.9189ZM622.496 124.265C622.518 128.835 627.418 131.472 635.46 131.472C643.48 131.472 648.336 128.835 648.336 124.265C648.336 119.76 643.48 117.146 635.46 117.146C627.418 117.146 622.518 119.76 622.496 124.265ZM625.968 124.265C625.924 121.54 629.571 119.914 635.46 119.914C641.371 119.914 644.974 121.54 644.996 124.265C644.974 127.077 641.371 128.725 635.46 128.703C629.571 128.725 625.924 127.077 625.968 124.265ZM644.557 116.091H647.984V105.368H653.873V102.468H647.984V92.4922H644.557V116.091ZM661.695 95.3486H658.224V113.674H661.344C667.254 113.674 673.187 113.3 679.801 111.916L679.405 109.06C673.033 110.378 667.276 110.729 661.695 110.729V95.3486ZM662.574 130.725H688.282V127.824H666.002V117.98H662.574V130.725ZM683.448 120.749H686.876V107.126H692.765V104.138H686.876V92.5361H683.448V120.749ZM725.768 92.4922H722.34V114.685H725.768V104.929H731.656V102.072H725.768V92.4922ZM695.182 112.312L696.588 115.08C708.167 111.938 715.045 104.885 715.089 95.041H696.939V97.8975H711.375C710.65 104.511 704.784 109.719 695.182 112.312ZM701.026 131.032H725.768V116.486H701.026V131.032ZM704.454 128.22V119.343H722.34V128.22H704.454ZM740.533 125.056H736.271L733.854 137.009H737.105L740.533 125.056ZM482.794 167.279H460.03V153.129H454.273V171.806H465.611V180.99H450.187V185.473H486.793V180.99H471.28V171.806H482.794V167.279ZM522.608 150.053H517.027V190.131H522.608V150.053ZM491.188 157.919H504.503V164.379H491.231V180.771H494.835C502.13 180.771 508.084 180.529 514.654 179.364L514.171 174.838C508.304 175.805 503.141 176.112 497.032 176.156V168.817H510.216V153.393H491.188V157.919ZM562.643 150.053H557.281V190.043H562.643V150.053ZM528.321 167.367C528.321 176.354 531.727 181.913 537.022 181.913C541.944 181.913 545.306 177.145 545.79 169.301H549.02V188.197H554.293V150.624H549.02V164.862H545.746C545.13 157.392 541.834 152.887 537.022 152.909C531.727 152.887 528.321 158.424 528.321 167.367ZM533.507 167.367C533.463 161.237 534.781 158.183 537.022 158.183C539.33 158.183 540.692 161.237 540.67 167.367C540.692 173.52 539.33 176.552 537.022 176.508C534.781 176.552 533.463 173.52 533.507 167.367ZM581.979 159.105V153.129H576.31V159.105C576.266 166.62 573.146 174.333 566.29 177.431L569.806 182.001C574.376 179.76 577.452 175.453 579.166 170.202C580.836 175.146 583.824 179.145 588.263 181.298L591.69 176.815C585.033 173.937 582 166.62 581.979 159.105ZM587.208 167.147H595.074V190.131H600.611V150.053H595.074V162.621H587.208V167.147ZM649.61 150.053H643.941V190.131H649.61V150.053ZM618.102 180.771H637.877V153.217H632.34V162.973H623.727V153.217H618.102V180.771ZM623.727 176.244V167.323H632.34V176.244H623.727ZM688.194 153.524H658.619V157.963H682.569C682.547 162.599 682.503 168.026 681.207 175.365L686.7 175.849C688.172 167.785 688.172 162.313 688.194 157.436V153.524ZM655.016 185.165H691.49V180.595H678.307V168.026H672.77V180.595H668.375V168.026H662.794V180.595H655.016V185.165ZM725.46 150.053H719.923V190.043H725.46V170.312H731.349V165.697H725.46V150.053ZM693.688 160.512H717.198V156.029H708.365V150.668H702.74V156.029H693.688V160.512ZM695.313 172.289C695.292 177.87 699.642 181.803 705.553 181.825C711.375 181.803 715.748 177.87 715.748 172.289C715.748 166.708 711.375 162.731 705.553 162.753C699.642 162.731 695.292 166.708 695.313 172.289ZM700.675 172.289C700.675 169.213 702.718 167.323 705.553 167.279C708.343 167.323 710.387 169.213 710.387 172.289C710.387 175.387 708.343 177.233 705.553 177.211C702.718 177.233 700.675 175.387 700.675 172.289ZM765.758 153.524H736.578V157.963H760.133C760.111 162.665 760.045 168.29 758.507 175.849L764.132 176.42C765.736 167.938 765.736 162.313 765.758 157.304V153.524ZM732.799 185.165H769.273V180.595H751.432V166.84H745.851V180.595H732.799V185.165ZM797.047 156.908V152.514H791.378V156.864C791.356 162.599 788.478 168.07 781.798 170.268L784.83 174.662C789.466 172.992 792.586 169.718 794.3 165.521C795.992 169.235 798.915 172.179 803.155 173.739L806.188 169.345C799.815 167.213 797.047 162.072 797.047 156.908ZM789.137 189.34H816.603V184.857H794.806V176.508H789.137V189.34ZM802.672 163.104H810.187V179.628H815.768V150.097H810.187V158.578H802.672V163.104ZM838.18 152.733H822.359V172.904H825.084C831.126 172.926 835.038 172.772 839.718 171.938L839.146 167.455C835.433 168.092 832.159 168.268 827.721 168.312V164.774H837.784V160.512H827.721V157.216H838.18V152.733ZM827.677 180.639H849.737V190.043H855.318V176.156H827.677V180.639ZM841.3 174.179H846.529V164.335H850.001V174.486H855.318V150.097H850.001V159.853H846.529V150.8H841.3V174.179ZM879.752 157.26H871.71V151.679H868.282V157.26H860.152V160.072H879.752V157.26ZM861.559 171.586C861.559 176.837 865.096 180.529 869.952 180.551C874.874 180.529 878.39 176.837 878.434 171.586C878.39 166.4 874.874 162.731 869.952 162.709C865.096 162.731 861.559 166.4 861.559 171.586ZM864.635 171.586C864.635 168.158 866.854 165.653 869.952 165.609C873.072 165.653 875.357 168.158 875.357 171.586C875.357 175.058 873.072 177.541 869.952 177.519C866.854 177.541 864.635 175.058 864.635 171.586ZM881.773 187.626H885.025V169.828H890.211V189.56H893.507V150.492H890.211V166.972H885.025V151.459H881.773V187.626ZM934.903 181.649H926.026V171.015C929.256 169.279 931.212 166.51 931.212 163.017C931.212 156.974 925.279 152.997 916.93 152.953C908.58 152.997 902.647 156.974 902.647 163.017C902.647 166.576 904.669 169.389 908.009 171.125V181.649H899.132V184.55H934.903V181.649ZM905.987 163.017C905.965 158.644 910.514 155.766 916.93 155.81C923.28 155.766 927.872 158.644 927.872 163.017C927.872 167.389 923.28 170.312 916.93 170.312C910.514 170.312 905.965 167.389 905.987 163.017ZM911.393 181.649V172.377C913.062 172.816 914.93 173.036 916.93 173.036C918.973 173.036 920.863 172.794 922.555 172.355V181.649H911.393Z" fill="white"/>
<path d="M461.461 231.336V230.68H466.738V228.574H453.477V230.68H458.863V231.363C458.85 234.768 456.539 237.926 452.711 239.184L454.051 241.262C456.99 240.236 459.137 238.117 460.203 235.438C461.283 237.762 463.32 239.607 466.109 240.496L467.34 238.473C463.621 237.297 461.447 234.453 461.461 231.336ZM456.02 246.676C456.02 249.588 459.15 251.283 464.25 251.27C469.295 251.283 472.371 249.588 472.371 246.676C472.371 243.805 469.295 242.123 464.25 242.137C459.15 242.123 456.02 243.805 456.02 246.676ZM458.617 246.676C458.604 245.076 460.709 244.174 464.25 244.188C467.764 244.174 469.842 245.076 469.828 246.676C469.842 248.316 467.764 249.232 464.25 249.219C460.709 249.232 458.604 248.316 458.617 246.676ZM469.555 241.535H472.152V235.027H475.707V232.895H472.152V226.824H469.555V241.535ZM480.82 228.574H478.223V240.195H480.219C483.869 240.209 487.629 239.977 491.73 239.129L491.43 236.996C487.629 237.789 484.143 238.008 480.82 238.008V228.574ZM480.875 250.805H497.199V248.699H483.5V242.793H480.875V250.805ZM493.754 244.516H496.352V236.203H499.906V233.988H496.352V226.852H493.754V244.516ZM520.551 226.824H517.953V240.66H520.551V234.754H524.105V232.594H520.551V226.824ZM501.191 238.938L502.23 241.016C509.531 239.047 513.783 234.631 513.797 228.355H502.34V230.488H510.98C510.502 234.316 507.057 237.393 501.191 238.938ZM504.855 250.996H520.551V241.699H504.855V250.996ZM507.453 248.918V243.859H517.98V248.918H507.453ZM536.656 227.234C531.133 227.221 527.893 228.711 527.906 231.445C527.893 234.193 531.133 235.684 536.656 235.684C542.18 235.684 545.393 234.193 545.406 231.445C545.393 228.711 542.18 227.221 536.656 227.234ZM525.5 239.266H547.84V237.188H525.5V239.266ZM528.18 243.094H542.453V245.008H528.207V251.078H545.707V249.082H530.75V246.895H545.023V241.152H528.18V243.094ZM530.613 231.445C530.6 229.996 532.76 229.148 536.656 229.148C540.58 229.148 542.74 229.996 542.727 231.445C542.74 232.963 540.58 233.742 536.656 233.742C532.76 233.742 530.6 232.963 530.613 231.445ZM575.785 226.852H573.188V245.172H575.785V236.887H579.34V234.727H575.785V226.852ZM556.562 231.801H571.164V229.695H565.176V226.824H562.578V229.695H556.562V231.801ZM557.902 237.598C557.889 240.373 560.309 242.178 563.863 242.191C567.377 242.178 569.797 240.373 569.797 237.598C569.797 234.795 567.377 232.963 563.863 232.977C560.309 232.963 557.889 234.795 557.902 237.598ZM560.254 250.805H576.824V248.699H562.852V243.723H560.254V250.805ZM560.418 237.598C560.391 235.984 561.785 234.986 563.863 234.973C565.941 234.986 567.336 235.984 567.363 237.598C567.336 239.197 565.941 240.182 563.863 240.168C561.785 240.182 560.391 239.197 560.418 237.598ZM600.559 234.016H586.34V227.672H583.742V236.094H600.559V234.016ZM580.734 240.824H590.824V245.664H593.395V240.824H603.102V238.746H580.734V240.824ZM583.523 250.805H600.75V248.699H586.094V243.586H583.523V250.805ZM626.016 226.824H623.527V251.324H626.016V226.824ZM605.207 237.406C605.207 242.725 607.285 246.061 610.484 246.047C613.52 246.061 615.557 243.094 615.789 238.309H618.551V250.121H621.039V227.289H618.551V236.203H615.775C615.475 231.609 613.465 228.779 610.484 228.793C607.285 228.779 605.207 232.102 605.207 237.406ZM607.613 237.406C607.613 233.496 608.721 231.213 610.484 231.227C612.289 231.213 613.41 233.496 613.41 237.406C613.41 241.303 612.289 243.6 610.484 243.586C608.721 243.6 607.613 241.303 607.613 237.406ZM658.391 246.102H648.41V240.441H655.711V228.793H638.539V240.441H645.84V246.102H635.969V248.262H658.391V246.102ZM641.055 238.391V230.871H653.168V238.391H641.055ZM666.73 228.656C663.066 228.67 660.455 232.006 660.469 237.242C660.455 242.533 663.066 245.869 666.73 245.855C670.395 245.869 673.006 242.533 673.02 237.242C673.006 232.006 670.395 228.67 666.73 228.656ZM662.957 237.242C662.943 233.4 664.502 230.994 666.73 230.98C669 230.994 670.531 233.4 670.531 237.242C670.531 241.139 669 243.531 666.73 243.531C664.502 243.531 662.943 241.139 662.957 237.242ZM676.656 251.324H679.254V238.609H683.191V236.422H679.254V226.824H676.656V251.324ZM706.789 246.129H696.809V241.098H704.137V228.492H701.566V232.703H689.535V228.492H686.938V241.098H694.238V246.129H684.367V248.289H706.789V246.129ZM689.535 238.992V234.809H701.566V238.992H689.535ZM728.391 229.176H710.918V231.281H725.793V231.582C725.779 234.521 725.779 237.994 724.836 242.738L727.461 243.012C728.377 237.994 728.377 234.604 728.391 231.582V229.176ZM708.566 248.016H730.906V245.855H719.641V237.215H717.07V245.855H708.566V248.016ZM760.629 226.824H758.141V236.531H754.969V227.316H752.59V250.066H754.969V238.664H758.141V251.324H760.629V226.824ZM740.422 245.445H742.062C745.631 245.418 748.174 245.322 751.113 244.707L750.922 242.574C748.297 243.08 746.027 243.217 743.02 243.23V231.883H749.609V229.777H740.422V245.445ZM770.445 228.656C766.795 228.67 764.211 232.006 764.238 237.242C764.211 242.533 766.795 245.869 770.445 245.855C772.811 245.869 774.725 244.434 775.777 241.973H781.656V251.379H784.227V226.824H781.656V232.156H775.6C774.52 229.941 772.688 228.67 770.445 228.656ZM766.699 237.242C766.713 233.4 768.23 230.994 770.445 230.98C772.66 230.994 774.178 233.4 774.191 237.242C774.178 241.139 772.66 243.531 770.445 243.531C768.23 243.531 766.713 241.139 766.699 237.242ZM776.338 234.289H781.656V239.84H776.406C776.57 239.033 776.652 238.172 776.652 237.242C776.652 236.176 776.529 235.191 776.338 234.289ZM807.086 226.824H804.516V251.324H807.086V238.91H811.023V236.75H807.086V226.824ZM787.863 232.785H802.383V230.652H796.504V227.152H793.906V230.652H787.863V232.785ZM789.121 240.277C789.121 243.641 791.691 245.979 795.219 245.992C798.732 245.979 801.303 243.641 801.316 240.277C801.303 236.941 798.732 234.59 795.219 234.59C791.691 234.59 789.121 236.941 789.121 240.277ZM791.609 240.277C791.596 238.186 793.127 236.736 795.219 236.723C797.297 236.736 798.814 238.186 798.828 240.277C798.814 242.41 797.297 243.832 795.219 243.805C793.127 243.832 791.596 242.41 791.609 240.277ZM819.664 233.523V229.066H817.148V233.633C817.162 237.803 815.33 242.137 811.871 244.215L813.484 246.156C815.863 244.707 817.559 242.055 818.447 238.951C819.295 241.781 820.84 244.229 823.137 245.609L824.586 243.613C821.305 241.604 819.664 237.434 819.664 233.523ZM821.934 237.598H825.734V250.121H828.195V227.289H825.734V235.438H821.934V237.598ZM830.793 251.324H833.281V226.824H830.793V251.324ZM858.82 246.102H853.461V239.648C855.43 238.541 856.605 236.805 856.605 234.645C856.605 230.789 852.818 228.26 847.555 228.246C842.305 228.26 838.518 230.789 838.531 234.645C838.518 236.846 839.748 238.596 841.758 239.703V246.102H836.398V248.262H858.82V246.102ZM841.047 234.645C841.047 232.006 843.713 230.324 847.555 230.324C851.369 230.324 854.076 232.006 854.09 234.645C854.076 237.27 851.369 238.979 847.555 238.992C843.713 238.979 841.047 237.27 841.047 234.645ZM844.328 246.102V240.66C845.312 240.893 846.406 241.016 847.555 241.016C848.73 241.016 849.838 240.893 850.836 240.66V246.102H844.328Z" fill="white"/>
<mask id="mask1_1502_59348" style="mask-type:alpha" maskUnits="userSpaceOnUse" x="0" y="0" width="1918" height="384">
<path d="M0 0H1918V384H0V0Z" fill="#D9D9D9"/>
</mask>
<g mask="url(#mask1_1502_59348)">
<path fill-rule="evenodd" clip-rule="evenodd" d="M1352.71 121.738C1344.84 109.844 1331.33 102 1316 102C1291.7 102 1272 121.699 1272 146C1272 146.166 1272 146.331 1272 146.497C1269.72 146.169 1267.38 146 1265 146C1237.94 146 1216 167.938 1216 195C1216 222.062 1237.94 244 1265 244C1273.59 244 1281.66 241.789 1288.68 237.906C1297.95 250.687 1313.01 259 1330 259C1347.48 259 1362.91 250.204 1372.1 236.797C1380.54 241.39 1390.21 244 1400.5 244C1433.36 244 1460 217.361 1460 184.5C1460 151.639 1433.36 125 1400.5 125C1393.61 125 1387 126.17 1380.85 128.322C1379.79 120.793 1373.32 115 1365.5 115C1360.19 115 1355.51 117.669 1352.71 121.738Z" fill="url(#paint1_linear_1502_59348)" fill-opacity="0.35"/>
<path fill-rule="evenodd" clip-rule="evenodd" d="M551.768 136.216C611.699 120.157 673.301 155.723 689.36 215.654C705.418 275.585 669.852 337.187 609.921 353.246C576.631 362.166 542.825 355.157 516.596 336.891C502.151 354.988 482.003 368.794 457.921 375.246C408.599 388.462 358.144 366.713 332.877 325.192C323.757 331.395 313.457 336.198 302.202 339.214C248.333 353.648 192.963 321.68 178.529 267.812C164.095 213.943 196.063 158.573 249.931 144.139C270.37 138.662 291.025 139.866 309.578 146.411C324.137 108.661 355.917 78.149 397.99 66.8756C459.898 50.2873 523.334 80.916 550.063 136.687C550.629 136.525 551.198 136.368 551.768 136.216Z" fill="url(#paint2_linear_1502_59348)" fill-opacity="0.12"/>
<path fill-rule="evenodd" clip-rule="evenodd" d="M1752.47 219.87C1835.81 197.538 1921.48 246.999 1943.81 330.343C1966.14 413.688 1916.68 499.356 1833.34 521.688C1787.04 534.093 1740.03 524.346 1703.55 498.944C1683.47 524.111 1655.45 543.311 1621.96 552.285C1553.36 570.664 1483.2 540.417 1448.06 482.675C1435.38 491.302 1421.05 497.981 1405.4 502.175C1330.49 522.248 1253.49 477.791 1233.41 402.877C1213.34 327.964 1257.8 250.962 1332.71 230.889C1361.13 223.273 1389.86 224.946 1415.66 234.047C1435.9 181.55 1480.1 139.118 1538.61 123.44C1624.7 100.371 1712.92 142.966 1750.09 220.526C1750.88 220.302 1751.67 220.083 1752.47 219.87Z" fill="url(#paint3_linear_1502_59348)" fill-opacity="0.05"/>
<circle cx="1059" cy="55" r="8" fill="white" fill-opacity="0.6"/>
<path d="M771.48 330.071C768.098 331.909 763.995 329.396 764.094 325.549L765.542 269.403C765.641 265.555 769.868 263.257 773.151 265.267L821.051 294.594C824.334 296.604 824.21 301.413 820.828 303.251L771.48 330.071Z" fill="url(#paint4_linear_1502_59348)" fill-opacity="0.2"/>
<path d="M1445.59 27.4219C1444.08 27.0969 1443.5 25.2647 1444.53 24.1239L1457.04 10.3167C1458.08 9.17585 1459.96 9.58206 1460.43 11.0478L1466.13 28.7881C1466.6 30.2539 1465.31 31.6799 1463.8 31.3549L1445.59 27.4219Z" fill="url(#paint5_linear_1502_59348)" fill-opacity="0.2"/>
<path d="M474.016 95.8259C474.953 97.937 473.253 100.27 470.956 100.026L418.542 94.4437C416.246 94.1991 415.075 91.5603 416.435 89.6938L447.476 47.0929C448.836 45.2264 451.707 45.5321 452.643 47.6431L474.016 95.8259Z" fill="url(#paint6_linear_1502_59348)" fill-opacity="0.2"/>
<circle cx="1457" cy="305" r="18" fill="white" fill-opacity="0.4"/>
<path fill-rule="evenodd" clip-rule="evenodd" d="M852.706 300.54L819.541 424.312L943.313 457.477L976.478 333.705L852.706 300.54ZM840.325 257.882C832.323 255.738 824.098 260.487 821.954 268.489L776.883 436.693C774.739 444.695 779.488 452.92 787.49 455.064L955.694 500.135C963.696 502.279 971.921 497.53 974.065 489.528L1019.14 321.324C1021.28 313.322 1016.53 305.097 1008.53 302.952L840.325 257.882Z" fill="#1D8669" fill-opacity="0.25"/>
<path fill-rule="evenodd" clip-rule="evenodd" d="M1410.27 71.9232L1416.79 94.2333L1439.1 87.7157L1432.58 65.4056L1410.27 71.9232ZM1404.47 66.3257C1402.88 66.7904 1401.96 68.4562 1402.43 70.0466L1411.19 100.036C1411.65 101.626 1413.32 102.539 1414.91 102.074L1444.9 93.3132C1446.49 92.8486 1447.4 91.1827 1446.94 89.5923L1438.18 59.6032C1437.71 58.0128 1436.05 57.1002 1434.45 57.5648L1404.47 66.3257Z" fill="#1D8669" fill-opacity="0.3"/>
</g>
<path fill-rule="evenodd" clip-rule="evenodd" d="M395.869 286.333C398.56 283.957 402.305 284.484 404.234 287.512L428.138 325.032L452.043 287.512C453.254 285.611 455.182 284.695 457.115 284.866C459.048 284.695 460.975 285.611 462.187 287.512L486.091 325.032L509.996 287.512C511.207 285.612 513.132 284.696 515.064 284.866C516.996 284.696 518.922 285.612 520.132 287.512L548.246 331.639C550.175 334.667 549.558 339.047 546.867 341.424C544.177 343.801 540.432 343.273 538.503 340.245L515.064 303.456L491.625 340.245C490.317 342.298 488.174 343.202 486.091 342.83C484.008 343.202 481.866 342.298 480.558 340.245L457.115 303.45L433.672 340.245C432.364 342.298 430.221 343.202 428.138 342.83C426.055 343.202 423.912 342.298 422.605 340.245L394.49 296.118C392.561 293.091 393.179 288.71 395.869 286.333Z" fill="white" fill-opacity="0.1"/>
<rect x="948.523" y="235" width="11.6336" height="85.3134" rx="3" transform="rotate(38.235 948.523 235)" fill="#C6FFD6" fill-opacity="0.2"/>
<path d="M1345.59 128.545C1335.57 168.931 1294.71 193.548 1254.32 183.529C1213.93 173.51 1189.32 132.649 1199.34 92.263C1209.36 51.877 1250.22 27.2596 1290.6 37.2786C1330.99 47.2975 1355.61 88.1587 1345.59 128.545Z" fill="#FFE766"/>
<path fill-rule="evenodd" clip-rule="evenodd" d="M1225.61 108.71C1227.54 110.19 1229.74 111.275 1232.09 111.904C1234.43 112.534 1236.88 112.694 1239.29 112.377C1241.7 112.06 1244.03 111.271 1246.13 110.056C1248.24 108.84 1250.08 107.222 1251.56 105.294C1253.04 103.366 1254.13 101.165 1254.75 98.8174C1254.9 98.2839 1254.58 97.7356 1254.05 97.5927L1252.8 97.2578C1252.26 97.1148 1251.72 97.4314 1251.57 97.9649C1251.06 99.8947 1250.16 101.704 1248.95 103.289C1247.73 104.874 1246.21 106.204 1244.48 107.203C1242.75 108.202 1240.84 108.85 1238.86 109.111C1236.88 109.372 1234.87 109.24 1232.94 108.723C1231.01 108.206 1229.2 107.314 1227.62 106.097C1226.03 104.881 1224.7 103.364 1223.7 101.634C1222.7 99.9039 1222.05 97.9939 1221.79 96.013C1221.53 94.0322 1221.66 92.0194 1222.18 90.0896C1222.25 89.8334 1222.21 89.5604 1222.08 89.3307C1221.95 89.1011 1221.73 88.9335 1221.47 88.8648L1220.22 88.5299C1219.69 88.387 1219.14 88.7036 1219 89.237C1218.37 91.5847 1218.21 94.0333 1218.53 96.443C1218.84 98.8527 1219.63 101.176 1220.85 103.281C1222.06 105.386 1223.68 107.231 1225.61 108.71Z" fill="#1F2220"/>
<path d="M1231.48 87.3762C1231.12 88.8304 1229.65 89.7169 1228.19 89.3561C1226.74 88.9953 1225.85 87.524 1226.21 86.0697C1226.58 84.6154 1228.05 83.729 1229.5 84.0898C1230.96 84.4505 1231.84 85.9219 1231.48 87.3762Z" fill="#1F2220"/>
<path d="M1250.08 92.8029C1249.72 94.2572 1248.25 95.1436 1246.8 94.7829C1245.34 94.4221 1244.46 92.9507 1244.82 91.4965C1245.18 90.0422 1246.65 89.1557 1248.1 89.5165C1249.56 89.8773 1250.44 91.3487 1250.08 92.8029Z" fill="#1F2220"/>
<path fill-rule="evenodd" clip-rule="evenodd" d="M1247.26 178.159C1286.41 187.872 1326.02 164.006 1335.74 124.853C1345.45 85.7001 1321.58 46.0863 1282.43 36.3732C1243.28 26.6601 1203.66 50.526 1193.95 89.6791C1184.24 128.832 1208.1 168.446 1247.26 178.159ZM1246.7 180.391C1287.09 190.41 1327.95 165.793 1337.97 125.407C1347.99 85.021 1323.37 44.1598 1282.99 34.1409C1242.6 24.1219 1201.74 48.7393 1191.72 89.1253C1181.7 129.511 1206.32 170.372 1246.7 180.391Z" fill="white"/>
<path fill-rule="evenodd" clip-rule="evenodd" d="M1308.69 89.9729C1308.99 89.9757 1309.28 90.1123 1309.46 90.3452C1315.1 97.3332 1316.14 103.383 1314.47 107.724C1312.95 111.664 1309.29 113.935 1305.46 114.026C1305.42 117.008 1304.07 119.896 1301.81 121.681C1299.37 123.599 1295.98 124.166 1292.25 122.413C1290.91 124.134 1288.74 125.027 1286.28 124.737C1283.48 124.409 1280.39 122.578 1277.58 118.936L1279.16 117.712C1281.76 121.075 1284.41 122.504 1286.51 122.751C1288.59 122.996 1290.22 122.112 1291.04 120.63C1291.31 120.148 1291.92 119.974 1292.4 120.243C1295.81 122.136 1298.64 121.626 1300.57 120.11C1302.55 118.547 1303.69 115.822 1303.42 113.09C1303.39 112.794 1303.5 112.5 1303.71 112.288C1303.92 112.077 1304.21 111.97 1304.51 111.996C1307.9 112.3 1311.28 110.44 1312.6 107.006C1313.86 103.749 1313.35 98.79 1308.65 92.557C1298.87 103.952 1288.56 110.763 1278.73 114.515L1278.01 112.646C1287.77 108.922 1298.1 102.051 1307.92 90.3307C1308.11 90.1013 1308.4 89.9701 1308.69 89.9729Z" fill="white"/>
<path fill-rule="evenodd" clip-rule="evenodd" d="M1313.86 59.7601C1315.26 59.9651 1316.53 60.7201 1317.39 61.859C1318.25 62.998 1318.62 64.4275 1318.42 65.8332C1318.23 67.2389 1317.49 68.5056 1316.36 69.3547C1315.13 70.2771 1313.61 70.7093 1312.14 70.5562C1310.66 70.4031 1309.36 69.6772 1308.5 68.5383C1307.64 67.3993 1307.31 65.9406 1307.57 64.483C1307.84 63.0255 1308.67 61.6884 1309.9 60.766C1311.03 59.9169 1312.46 59.5551 1313.86 59.7601ZM1322.81 77.9434C1319.13 80.7106 1314.57 82.0072 1310.15 81.5479C1305.73 81.0885 1301.81 78.9109 1299.24 75.4942C1298.25 74.1741 1297.49 72.7109 1296.98 71.1601C1293.93 72.6887 1290.52 73.341 1287.19 72.9946C1282.77 72.5353 1278.84 70.3577 1276.27 66.9409C1273.71 63.5241 1272.71 59.148 1273.5 54.7752C1274.29 50.4025 1276.8 46.3913 1280.48 43.624C1283.87 41.077 1288.14 39.9915 1292.35 40.6064C1296.57 41.2214 1300.38 43.4864 1302.94 46.9032C1303.9 48.1763 1304.65 49.5705 1305.2 51.0368C1308.25 49.3182 1311.81 48.6462 1315.32 49.1597C1319.54 49.7746 1323.34 52.0397 1325.91 55.4564C1328.48 58.8732 1329.59 63.1619 1329.01 67.3791C1328.43 71.5962 1326.2 75.3963 1322.81 77.9434ZM1286.93 52.2128C1285.71 53.1352 1284.87 54.4722 1284.61 55.9298C1284.34 57.3874 1284.68 58.8461 1285.53 59.985C1286.39 61.124 1287.7 61.8499 1289.17 62.003C1290.64 62.1561 1292.16 61.7239 1293.39 60.8015C1294.52 59.9524 1295.26 58.6857 1295.46 57.28C1295.65 55.8743 1295.28 54.4448 1294.42 53.3058C1293.57 52.1669 1292.3 51.4119 1290.89 51.2069C1289.49 51.0019 1288.06 51.3637 1286.93 52.2128Z" fill="#FF9D55"/>
<path d="M1361.9 284.985C1364.23 286.99 1363.52 290.773 1360.62 291.795L1252.69 329.761C1249.78 330.782 1246.86 328.277 1247.43 325.25L1268.52 212.795C1269.08 209.768 1272.71 208.491 1275.05 210.496L1361.9 284.985Z" fill="#FF9D55"/>
<path fill-rule="evenodd" clip-rule="evenodd" d="M1256.35 331.892L1371.69 291.323C1372.92 290.888 1373.23 289.281 1372.23 288.429L1279.43 208.83C1278.44 207.978 1276.89 208.521 1276.65 209.807L1254.12 329.975C1253.88 331.262 1255.12 332.327 1256.35 331.892ZM1372.45 293.492C1375.36 292.471 1376.07 288.687 1373.73 286.683L1280.93 207.084C1278.59 205.079 1274.96 206.357 1274.39 209.383L1251.86 329.551C1251.29 332.578 1254.21 335.084 1257.12 334.062L1372.45 293.492Z" fill="white"/>
<path d="M1277.8 258.375C1278.33 259.677 1277.71 261.168 1276.41 261.705C1275.11 262.241 1273.62 261.62 1273.08 260.318C1272.54 259.016 1273.17 257.525 1274.47 256.988C1275.77 256.452 1277.26 257.072 1277.8 258.375Z" fill="#1F2220"/>
<path d="M1295.72 251.984C1296.26 253.287 1295.64 254.777 1294.34 255.314C1293.03 255.851 1291.54 255.23 1291.01 253.927C1290.47 252.625 1291.09 251.134 1292.39 250.598C1293.7 250.061 1295.19 250.682 1295.72 251.984Z" fill="#1F2220"/>
<path fill-rule="evenodd" clip-rule="evenodd" d="M1270.59 267.756C1270.84 266.968 1271.69 266.534 1272.48 266.788L1289.69 272.33L1302.5 256.473C1303.03 255.828 1303.97 255.728 1304.61 256.249C1305.26 256.77 1305.36 257.714 1304.84 258.359L1291.37 275.016L1289.75 275.501L1271.56 269.644C1270.77 269.39 1270.33 268.545 1270.59 267.756Z" fill="#1F2220"/>
<path fill-rule="evenodd" clip-rule="evenodd" d="M1335.59 267.736C1335.74 267.926 1335.79 268.172 1335.74 268.405C1334.53 273.477 1332.11 276.176 1329.44 276.979C1327.09 277.685 1324.75 276.858 1323.29 275.192C1321.89 276.171 1320.11 276.546 1318.5 276.143C1316.72 275.701 1315.24 274.344 1314.67 272.057C1313.4 271.993 1312.23 271.282 1311.49 270.054C1310.61 268.598 1310.36 266.48 1311.04 263.874L1312.58 264.275C1311.98 266.607 1312.27 268.25 1312.86 269.228C1313.44 270.189 1314.33 270.568 1315.2 270.435C1315.64 270.368 1316.04 270.668 1316.11 271.105C1316.44 273.241 1317.61 274.273 1318.89 274.591C1320.22 274.923 1321.78 274.505 1322.88 273.468C1323.05 273.304 1323.29 273.226 1323.53 273.255C1323.76 273.284 1323.97 273.417 1324.1 273.617C1325.11 275.189 1327.05 276.026 1328.98 275.447C1330.76 274.91 1332.76 273.078 1333.93 268.973C1325.39 268.504 1318.71 266.222 1313.55 263.084L1314.38 261.717C1319.49 264.824 1326.22 267.089 1334.99 267.421C1335.23 267.43 1335.45 267.545 1335.59 267.736Z" fill="white"/>
<path d="M1344.42 284.973C1343.32 285.028 1342.37 284.176 1342.42 283.073C1342.65 278.238 1344.54 273.606 1347.82 269.988C1351.54 265.873 1356.75 263.407 1362.29 263.132C1367.84 262.857 1373.26 264.796 1377.38 268.522C1381 271.798 1383.34 276.22 1384.04 281.009C1384.2 282.102 1383.34 283.043 1382.24 283.098L1375.35 283.439C1374.24 283.494 1373.32 282.634 1373.05 281.564C1372.57 279.665 1371.54 277.934 1370.06 276.599C1368.09 274.814 1365.49 273.885 1362.83 274.016C1360.18 274.148 1357.68 275.33 1355.89 277.302C1354.56 278.776 1353.7 280.601 1353.41 282.538C1353.25 283.63 1352.42 284.577 1351.31 284.632L1344.42 284.973Z" fill="white"/>
<path d="M1160.66 178.149C1161.54 176.122 1163.9 175.182 1165.88 176.158C1177.74 181.999 1188.03 190.638 1195.84 201.351C1204.44 213.144 1209.73 227.022 1211.17 241.548C1212.6 256.074 1210.12 270.719 1203.99 283.965C1197.86 297.211 1188.3 308.577 1176.3 316.885C1164.3 325.193 1150.29 330.14 1135.74 331.215C1121.18 332.289 1106.6 329.452 1093.51 322.996C1080.42 316.54 1069.29 306.701 1061.28 294.498C1054.01 283.412 1049.54 270.741 1048.25 257.583C1048.04 255.385 1049.75 253.506 1051.95 253.398L1127.23 249.707C1128.75 249.633 1130.1 248.7 1130.7 247.302L1160.66 178.149Z" fill="#4484FF"/>
<path fill-rule="evenodd" clip-rule="evenodd" d="M1188.91 196.911C1181.32 186.498 1171.32 178.103 1159.79 172.425C1159.05 172.063 1158.08 172.377 1157.7 173.267L1127.74 242.421C1126.79 244.622 1124.67 246.091 1122.27 246.209L1047 249.9C1046.03 249.947 1045.39 250.746 1045.47 251.562C1046.73 264.351 1051.06 276.665 1058.14 287.44C1065.92 299.3 1076.73 308.863 1089.46 315.137C1102.18 321.411 1116.35 324.169 1130.5 323.125C1144.64 322.081 1158.26 317.273 1169.92 309.198C1181.58 301.124 1190.88 290.077 1196.84 277.203C1202.79 264.329 1205.2 250.096 1203.81 235.978C1202.42 221.86 1197.27 208.372 1188.91 196.911ZM1160.81 170.362C1158.83 169.386 1156.47 170.326 1155.59 172.353L1125.63 241.506C1125.02 242.904 1123.68 243.837 1122.16 243.912L1046.88 247.602C1044.68 247.711 1042.97 249.589 1043.18 251.787C1044.47 264.945 1048.94 277.616 1056.21 288.702C1064.22 300.905 1075.35 310.744 1088.44 317.2C1101.53 323.656 1116.11 326.493 1130.67 325.419C1145.22 324.345 1159.23 319.397 1171.23 311.089C1183.23 302.781 1192.79 291.415 1198.92 278.169C1205.05 264.923 1207.53 250.278 1206.1 235.752C1204.66 221.226 1199.37 207.348 1190.77 195.555C1182.96 184.842 1172.67 176.204 1160.81 170.362Z" fill="white"/>
<path d="M1163.53 237.938C1164.39 239.166 1164.09 240.857 1162.86 241.716C1161.64 242.575 1159.94 242.276 1159.09 241.049C1158.23 239.821 1158.53 238.129 1159.75 237.27C1160.98 236.411 1162.67 236.71 1163.53 237.938Z" fill="#1F2220"/>
<path d="M1179.84 227.482C1180.7 228.71 1180.4 230.401 1179.18 231.26C1177.95 232.119 1176.26 231.82 1175.4 230.593C1174.54 229.365 1174.84 227.673 1176.07 226.814C1177.29 225.955 1178.98 226.254 1179.84 227.482Z" fill="#1F2220"/>
<path fill-rule="evenodd" clip-rule="evenodd" d="M1163.3 254.266C1163.04 255.251 1163.17 255.838 1163.39 256.184C1163.62 256.529 1164.11 256.885 1165.11 257.046C1166.12 257.206 1167.47 257.138 1169.13 256.782C1172.43 256.074 1176.58 254.294 1180.77 251.568C1184.95 248.841 1188.26 245.757 1190.24 243.026C1191.23 241.656 1191.85 240.441 1192.1 239.456C1192.36 238.472 1192.23 237.884 1192.01 237.539C1191.78 237.193 1191.3 236.837 1190.29 236.677C1189.29 236.516 1187.93 236.585 1186.27 236.94C1182.98 237.649 1178.82 239.428 1174.64 242.155C1170.45 244.881 1167.14 247.965 1165.16 250.696C1164.17 252.066 1163.56 253.282 1163.3 254.266ZM1162.73 248.935C1164.98 245.838 1168.59 242.516 1173 239.641C1177.41 236.767 1181.9 234.811 1185.64 234.007C1187.51 233.606 1189.27 233.475 1190.77 233.714C1192.27 233.954 1193.67 234.6 1194.52 235.901C1195.37 237.202 1195.39 238.751 1195.01 240.219C1194.62 241.688 1193.79 243.243 1192.67 244.787C1190.42 247.885 1186.82 251.207 1182.41 254.081C1178 256.955 1173.5 258.912 1169.76 259.715C1167.89 260.116 1166.14 260.248 1164.64 260.008C1163.14 259.768 1161.73 259.123 1160.88 257.821C1160.03 256.52 1160.01 254.972 1160.4 253.503C1160.78 252.034 1161.61 250.479 1162.73 248.935Z" fill="#1F2220"/>
<path d="M1107.73 263.406C1108.85 266.275 1106.44 269.279 1103.4 268.812L1070.53 263.777C1067.48 263.31 1066.08 259.724 1068.01 257.321L1088.81 231.373C1090.73 228.97 1094.54 229.553 1095.65 232.422L1107.73 263.406Z" fill="#1F2220"/>
<path fill-rule="evenodd" clip-rule="evenodd" d="M1120.07 254.464C1119.77 254.467 1119.49 254.603 1119.3 254.836C1114.03 261.376 1113.04 267.054 1114.61 271.141C1116.03 274.828 1119.45 276.962 1123.03 277.07C1123.09 279.853 1124.35 282.543 1126.47 284.212C1128.75 286.012 1131.93 286.546 1135.42 284.925C1136.69 286.526 1138.72 287.352 1141.03 287.081C1143.66 286.771 1146.56 285.047 1149.2 281.635L1147.62 280.411C1145.2 283.544 1142.74 284.866 1140.79 285.095C1138.87 285.32 1137.38 284.506 1136.62 283.146C1136.36 282.664 1135.75 282.49 1135.26 282.758C1132.1 284.516 1129.48 284.039 1127.71 282.64C1125.87 281.195 1124.81 278.67 1125.06 276.138C1125.09 275.842 1124.99 275.548 1124.78 275.336C1124.57 275.125 1124.27 275.018 1123.98 275.044C1120.84 275.326 1117.7 273.603 1116.48 270.423C1115.32 267.419 1115.78 262.832 1120.11 257.049C1129.25 267.668 1138.87 274.021 1148.05 277.524L1148.77 275.656C1139.66 272.18 1130.02 265.766 1120.85 254.822C1120.66 254.592 1120.37 254.461 1120.07 254.464Z" fill="white"/>
</g>
<defs>
<linearGradient id="paint0_linear_1502_59348" x1="853.5" y1="46" x2="845.5" y2="179.5" gradientUnits="userSpaceOnUse">
<stop stop-color="white"/>
<stop offset="1" stop-color="white" stop-opacity="0"/>
</linearGradient>
<linearGradient id="paint1_linear_1502_59348" x1="1330" y1="107.514" x2="1330" y2="258" gradientUnits="userSpaceOnUse">
<stop stop-color="white"/>
<stop offset="1" stop-color="white" stop-opacity="0"/>
</linearGradient>
<linearGradient id="paint2_linear_1502_59348" x1="430.997" y1="374.499" x2="529.496" y2="72.499" gradientUnits="userSpaceOnUse">
<stop stop-color="white" stop-opacity="0"/>
<stop offset="0.638583" stop-color="white"/>
</linearGradient>
<linearGradient id="paint3_linear_1502_59348" x1="1584.51" y1="551.245" x2="1721.49" y2="131.26" gradientUnits="userSpaceOnUse">
<stop stop-color="white" stop-opacity="0"/>
<stop offset="0.638583" stop-color="white"/>
</linearGradient>
<linearGradient id="paint4_linear_1502_59348" x1="763.871" y1="334.206" x2="808.178" y2="261.839" gradientUnits="userSpaceOnUse">
<stop offset="0.203125" stop-color="#1D8669" stop-opacity="0.4"/>
<stop offset="0.734375" stop-color="#1D8669"/>
</linearGradient>
<linearGradient id="paint5_linear_1502_59348" x1="1442.2" y1="26.6907" x2="1470.3" y2="17.6604" gradientUnits="userSpaceOnUse">
<stop offset="0.203125" stop-color="#1D8669" stop-opacity="0.4"/>
<stop offset="0.734375" stop-color="#1D8669"/>
</linearGradient>
<linearGradient id="paint6_linear_1502_59348" x1="476.123" y1="100.576" x2="417.233" y2="57.6659" gradientUnits="userSpaceOnUse">
<stop offset="0.203125" stop-color="#1D8669" stop-opacity="0.3"/>
<stop offset="0.734375" stop-color="#1D8669"/>
</linearGradient>
</defs>
</svg>
