<svg width="1176" height="159" viewBox="0 0 1176 159" fill="none" xmlns="http://www.w3.org/2000/svg">
<mask id="mask0_1464_59882" style="mask-type:alpha" maskUnits="userSpaceOnUse" x="0" y="0" width="1176" height="159">
<rect y="0.99707" width="1176" height="158" fill="#1DB981"/>
</mask>
<g mask="url(#mask0_1464_59882)">
<rect y="0.99707" width="1176" height="158" fill="#1DB981"/>
<path fill-rule="evenodd" clip-rule="evenodd" d="M325.251 29.7888C334.672 23.7968 345.154 19.1187 356.51 16.0758C416.441 0.0173187 478.043 35.5831 494.101 95.5143C510.16 155.445 474.594 217.047 414.663 233.106C367.321 245.791 318.937 226.263 292.783 187.957C278.426 200.186 261.193 209.494 241.764 214.7C203.161 225.044 163.964 217.029 133.443 196.007C120.329 213.917 101.249 227.645 78.1386 233.837C24.2701 248.271 -31.1001 216.303 -45.5342 162.435C-59.9682 108.566 -28.0002 53.1959 25.8683 38.7618C46.3045 33.286 66.9568 34.4884 85.5081 41.0313C100.067 3.28276 131.847 -27.2283 173.919 -38.5015C235.262 -54.9383 298.106 -25.0162 325.251 29.7888Z" fill="white" fill-opacity="0.1"/>
<path fill-rule="evenodd" clip-rule="evenodd" d="M1046.88 77.2179C1038.98 57.1139 1019.73 42.5863 996.769 41.824C968.171 40.8744 943.885 61.6192 939.743 89.2463C937.227 88.7846 934.645 88.5029 932.011 88.4155C903.278 87.4614 879.212 109.981 878.257 138.714C877.303 167.447 899.823 191.513 928.556 192.467C937.68 192.77 946.334 190.706 953.927 186.828C963.316 200.728 979.007 210.087 997.054 210.686C1015.62 211.303 1032.3 202.508 1042.53 188.597C1051.33 193.771 1061.51 196.883 1072.43 197.245C1107.32 198.404 1136.55 171.059 1137.71 136.169C1138.86 101.278 1111.52 72.0551 1076.63 70.8967C1065.97 70.5428 1055.84 72.849 1046.88 77.2179Z" fill="white" fill-opacity="0.1"/>
<path d="M476.389 51.3828V50.9141H480.158V49.4102H470.686V50.9141H474.533V51.4023C474.523 53.834 472.873 56.0898 470.139 56.9883L471.096 58.4727C473.195 57.7402 474.729 56.2266 475.49 54.3125C476.262 55.9727 477.717 57.291 479.709 57.9258L480.588 56.4805C477.932 55.6406 476.379 53.6094 476.389 51.3828ZM472.502 62.3398C472.502 64.4199 474.738 65.6309 478.381 65.6211C481.984 65.6309 484.182 64.4199 484.182 62.3398C484.182 60.2891 481.984 59.0879 478.381 59.0977C474.738 59.0879 472.502 60.2891 472.502 62.3398ZM474.357 62.3398C474.348 61.1973 475.852 60.5527 478.381 60.5625C480.891 60.5527 482.375 61.1973 482.365 62.3398C482.375 63.5117 480.891 64.166 478.381 64.1562C475.852 64.166 474.348 63.5117 474.357 62.3398ZM482.17 58.668H484.025V54.0195H486.564V52.4961H484.025V48.1602H482.17V58.668ZM490.217 49.4102H488.361V57.7109H489.787C492.395 57.7207 495.08 57.5547 498.01 56.9492L497.795 55.4258C495.08 55.9922 492.59 56.1484 490.217 56.1484V49.4102ZM490.256 65.2891H501.916V63.7852H492.131V59.5664H490.256V65.2891ZM499.455 60.7969H501.311V54.8594H503.85V53.2773H501.311V48.1797H499.455V60.7969ZM518.596 48.1602H516.74V58.043H518.596V53.8242H521.135V52.2812H518.596V48.1602ZM504.768 56.8125L505.51 58.2969C510.725 56.8906 513.762 53.7363 513.771 49.2539H505.588V50.7773H511.76C511.418 53.5117 508.957 55.709 504.768 56.8125ZM507.385 65.4258H518.596V58.7852H507.385V65.4258ZM509.24 63.9414V60.3281H516.76V63.9414H509.24ZM533.088 52.6133V49.625H531.232V52.6133C531.223 55.8164 529.406 59.1758 526.721 60.4648L527.873 61.9688C529.865 60.9336 531.398 58.834 532.18 56.3535C532.951 58.6875 534.426 60.6406 536.33 61.6367L537.482 60.1523C534.875 58.8828 533.068 55.709 533.088 52.6133ZM538.791 65.6602H540.646V56.7148H543.459V55.1328H540.646V48.1602H538.791V65.6602ZM560.256 56.6953H556.389V54.3516C557.746 53.7949 558.508 52.916 558.518 51.7539C558.508 49.6738 556.105 48.4629 552.268 48.4727C548.42 48.4629 546.008 49.6738 546.018 51.7539C546.008 52.916 546.77 53.7949 548.127 54.3418V56.6953H544.299V58.1992H560.256V56.6953ZM546.193 62.4961C546.193 64.5176 548.459 65.6211 552.268 65.6211C556.027 65.6211 558.293 64.5176 558.303 62.4961C558.293 60.4941 556.027 59.3906 552.268 59.3906C548.459 59.3906 546.193 60.4941 546.193 62.4961ZM547.932 51.7539C547.922 50.582 549.543 49.9082 552.268 49.8984C554.973 49.9082 556.613 50.582 556.604 51.7539C556.613 52.9258 554.973 53.5801 552.268 53.5898C549.543 53.5801 547.922 52.9258 547.932 51.7539ZM548.068 62.4961C548.059 61.4219 549.592 60.8164 552.268 60.8164C554.904 60.8164 556.447 61.4219 556.447 62.4961C556.447 63.5898 554.904 64.2148 552.268 64.1953C549.592 64.2148 548.059 63.5898 548.068 62.4961ZM550.002 56.6953V54.8398C550.686 54.9375 551.447 54.9961 552.268 54.9961C553.098 54.9961 553.869 54.9375 554.553 54.8301V56.6953H550.002ZM576.643 50.0938H570.471V48.082H568.635V50.0938H562.404V51.6172H576.643V50.0938ZM561.584 61.0117H568.635V65.6797H570.471V61.0117H577.6V59.4883H561.584V61.0117ZM563.732 55.4648C563.723 57.3301 565.91 58.3848 569.553 58.3945C573.186 58.3848 575.373 57.3301 575.373 55.4648C575.373 53.5508 573.186 52.5059 569.553 52.5156C565.91 52.5059 563.723 53.5508 563.732 55.4648ZM565.646 55.4648C565.646 54.459 567.043 53.9023 569.553 53.9023C572.053 53.9023 573.449 54.459 573.459 55.4648C573.449 56.4414 572.053 56.998 569.553 56.9883C567.043 56.998 565.646 56.4414 565.646 55.4648ZM593.42 48.1602H591.545V65.6602H593.42V48.1602ZM579.045 60.9727L580.021 62.4766C586.027 59.5957 588.205 55.1621 588.205 50.0352H579.885V51.5195H586.33C585.969 55.6016 583.693 58.7559 579.045 60.9727ZM610.334 56.2266H600.002V51.0117H610.178V49.5078H598.146V57.7109H603.205V61.9883H596.154V63.5117H612.17V61.9883H605.041V57.7109H610.334V56.2266ZM632.307 48.8828H620.334V50.3672H630.471C630.471 51.666 630.451 53.1113 630.031 55.0742H618.322V56.5586H625.373V59.1074C622.092 59.293 620.139 60.4453 620.139 62.3398C620.139 64.459 622.453 65.6309 626.291 65.6211C630.1 65.6309 632.414 64.459 632.424 62.3398C632.414 60.4551 630.471 59.293 627.209 59.1074V56.5586H634.338V55.0742H631.896C632.316 53.0625 632.316 51.4707 632.307 50.1523V48.8828ZM622.014 62.3398C621.994 61.207 623.576 60.582 626.291 60.582C628.967 60.582 630.549 61.207 630.568 62.3398C630.549 63.5117 628.967 64.1465 626.291 64.1367C623.576 64.1465 621.994 63.5117 622.014 62.3398ZM649.592 49.0391H637.619V50.5625H647.756C647.756 51.8906 647.736 53.3848 647.268 55.4258H635.607V56.9492H651.623V55.4258H649.143C649.602 53.3164 649.602 51.7344 649.592 50.3672V49.0391ZM637.561 65.4453H649.611V59.1758H637.561V65.4453ZM639.377 63.9414V60.6406H647.775V63.9414H639.377ZM666.525 48.1602H664.689V65.6602H666.525V56.793H669.338V55.25H666.525V48.1602ZM652.795 52.418H663.166V50.8945H658.967V48.3945H657.111V50.8945H652.795V52.418ZM653.693 57.7695C653.693 60.1719 655.529 61.8418 658.049 61.8516C660.559 61.8418 662.395 60.1719 662.404 57.7695C662.395 55.3867 660.559 53.707 658.049 53.707C655.529 53.707 653.693 55.3867 653.693 57.7695ZM655.471 57.7695C655.461 56.2754 656.555 55.2402 658.049 55.2305C659.533 55.2402 660.617 56.2754 660.627 57.7695C660.617 59.293 659.533 60.3086 658.049 60.2891C656.555 60.3086 655.461 59.293 655.471 57.7695ZM684.689 48.1797H682.834V60.9922H684.689V48.1797ZM670.275 57.0469L671.271 58.5117C673.322 57.7207 674.836 56.0996 675.607 54.0684C676.389 55.9629 677.883 57.4473 679.904 58.1992L680.861 56.7148C678.156 55.7773 676.535 53.4336 676.545 50.875V49.1367H674.65V50.875C674.641 53.5117 673.02 56.0312 670.275 57.0469ZM673.244 65.2891H685.217V63.7852H675.119V59.7812H673.244V65.2891ZM701.096 48.1602H699.24V65.6406H701.096V56.6758H703.811V55.1328H701.096V48.1602ZM687.482 60.9727L688.518 62.418C694.279 59.5762 696.506 55.0547 696.525 49.9961H688.361V51.5391H694.631C694.25 55.6211 691.867 58.7852 687.482 60.9727ZM720.764 61.9297H716.936V57.3203C718.342 56.5293 719.182 55.2891 719.182 53.7461C719.182 50.9922 716.477 49.1855 712.717 49.1758C708.967 49.1855 706.262 50.9922 706.271 53.7461C706.262 55.3184 707.141 56.5684 708.576 57.3594V61.9297H704.748V63.4727H720.764V61.9297ZM708.068 53.7461C708.068 51.8613 709.973 50.6602 712.717 50.6602C715.441 50.6602 717.375 51.8613 717.385 53.7461C717.375 55.6211 715.441 56.8418 712.717 56.8516C709.973 56.8418 708.068 55.6211 708.068 53.7461ZM710.412 61.9297V58.043C711.115 58.209 711.896 58.2969 712.717 58.2969C713.557 58.2969 714.348 58.209 715.061 58.043V61.9297H710.412ZM724.904 59.8008V59.918H726.896V59.8008C726.926 58.209 727.385 57.5059 728.557 56.793C729.797 56.0312 730.549 54.9863 730.549 53.4141C730.549 51.1875 728.85 49.6641 726.311 49.6641C723.986 49.6641 722.111 51.0215 722.033 53.5117H724.143C724.23 52.0664 725.256 51.4219 726.311 51.4219C727.482 51.4219 728.42 52.1934 728.42 53.4141C728.42 54.4395 727.795 55.1621 726.975 55.6602C725.686 56.4609 724.934 57.2422 724.904 59.8008ZM724.592 62.75C724.582 63.5117 725.217 64.127 725.979 64.1367C726.73 64.127 727.355 63.5117 727.365 62.75C727.355 61.9883 726.73 61.3633 725.979 61.3633C725.217 61.3633 724.582 61.9883 724.592 62.75Z" fill="white"/>
<path d="M370.591 84.584H358.286V87.5723H366.855C366.753 88.8467 366.562 90.0479 366.255 91.1758L356.851 91.7324L357.349 94.8965L365.098 94.1934C363.56 97.1523 360.923 99.6279 356.704 101.84L358.755 104.652C368.364 99.6572 370.576 92.7871 370.591 84.584ZM370.532 95.3359H375.659V108.695H379.38V82.0352H375.659V92.2891H370.532V95.3359ZM407.212 96.918H382.808V99.9062H388.462V108.754H392.212V99.9062H397.954V108.754H401.704V99.9062H407.212V96.918ZM385.679 94.0469H404.282V83.2949H385.679V94.0469ZM389.37 91.0586V86.2539H400.562V91.0586H389.37ZM431.177 82.0352H427.456V108.695H431.177V82.0352ZM410.2 102.104H412.544C416.66 102.118 421.084 101.825 425.757 100.844L425.288 97.7676C421.362 98.5293 417.495 98.8662 413.892 98.9248V84.584H410.2V102.104ZM449.722 84.2324H436.157V102.631H438.442C443.262 102.631 447.085 102.514 451.274 101.898L450.923 98.8809C447.188 99.4521 443.936 99.6133 439.849 99.6426V94.6035H448.608V91.6738H439.849V87.2793H449.722V84.2324ZM453.325 108.695H457.104V82.0352H453.325V108.695ZM483.735 82.0352H480.161V108.695H483.735V82.0352ZM460.854 93.5781C460.854 99.5693 463.125 103.275 466.655 103.275C469.937 103.275 472.178 100.097 472.5 94.8672H474.653V107.465H478.169V82.416H474.653V91.9082H472.471C472.061 86.9277 469.863 83.9248 466.655 83.9395C463.125 83.9248 460.854 87.6162 460.854 93.5781ZM464.312 93.5781C464.282 89.4912 465.161 87.4551 466.655 87.4551C468.193 87.4551 469.102 89.4912 469.087 93.5781C469.102 97.6797 468.193 99.7012 466.655 99.6719C465.161 99.7012 464.282 97.6797 464.312 93.5781ZM496.626 88.0703V84.0859H492.847V88.0703C492.817 93.0801 490.737 98.2217 486.167 100.287L488.511 103.334C491.558 101.84 493.608 98.9688 494.751 95.4678C495.864 98.7637 497.856 101.43 500.815 102.865L503.101 99.877C498.662 97.958 496.641 93.0801 496.626 88.0703ZM500.112 93.4316H505.356V108.754H509.048V82.0352H505.356V90.4141H500.112V93.4316ZM540.425 82.0352H536.675V108.754H540.425V94.9844H544.351V91.9375H540.425V82.0352ZM520.444 102.279H522.7C527.402 102.294 531.035 102.191 535.181 101.488L534.771 98.3535C531.226 98.9688 528.032 99.1738 524.165 99.2031V87.5137H532.954V84.4961H520.444V102.279ZM569.927 85.3457H566.47V82.0352H562.72V97.6211H566.47V94.2227H569.927V91.1465H566.47V88.3926H569.927V85.3457ZM545.493 89.9453C545.479 93.71 548.643 96.4053 552.817 96.3906C556.948 96.4053 560.083 93.71 560.083 89.9453C560.083 86.1514 556.948 83.4854 552.817 83.5C548.643 83.4854 545.479 86.1514 545.493 89.9453ZM548.599 103.451C548.584 106.732 552.158 108.71 557.739 108.695C563.218 108.71 566.719 106.732 566.733 103.451C566.719 100.126 563.218 98.1631 557.739 98.1484C552.158 98.1631 548.584 100.126 548.599 103.451ZM549.185 89.9453C549.155 87.8945 550.723 86.6201 552.817 86.6348C554.868 86.6201 556.436 87.8945 556.45 89.9453C556.436 92.0254 554.868 93.2412 552.817 93.2559C550.723 93.2412 549.155 92.0254 549.185 89.9453ZM552.349 103.451C552.319 101.898 554.238 101.122 557.739 101.107C561.196 101.122 563.042 101.898 563.042 103.451C563.042 105.019 561.196 105.736 557.739 105.736C554.238 105.736 552.319 105.019 552.349 103.451ZM592.397 82.0645H588.647V101.957H592.397V93.2852H596.001V90.2383H592.397V82.0645ZM571.245 87.8066H587.065V84.8477H581.03V82.0059H577.31V84.8477H571.245V87.8066ZM572.534 93.9004C572.534 96.9766 575.273 98.998 579.155 98.998C583.022 98.998 585.718 96.9766 585.718 93.9004C585.718 90.8096 583.022 88.7441 579.155 88.7441C575.273 88.7441 572.534 90.8096 572.534 93.9004ZM575.112 108.227H593.364V105.238H578.833V100.434H575.112V108.227ZM576.196 93.9004C576.182 92.4209 577.368 91.6006 579.155 91.5859C580.957 91.6006 582.173 92.4209 582.173 93.9004C582.173 95.3652 580.957 96.1562 579.155 96.1562C577.368 96.1562 576.182 95.3652 576.196 93.9004ZM626.411 82.0352H622.632V108.754H626.411V82.0352ZM604.878 93.4023C604.863 99.2617 607.837 102.924 611.938 102.924C615.952 102.924 618.94 99.2617 618.94 93.4023C618.94 87.5869 615.952 83.9102 611.938 83.9102C607.837 83.9102 604.863 87.5869 604.878 93.4023ZM608.481 93.4023C608.467 89.4473 609.858 87.2793 611.938 87.2793C613.96 87.2793 615.322 89.4473 615.337 93.4023C615.322 97.3721 613.96 99.54 611.938 99.5254C609.858 99.54 608.467 97.3721 608.481 93.4023ZM637.192 83.9102C633.105 83.9102 630.146 87.5869 630.161 93.4023C630.146 99.2617 633.105 102.924 637.192 102.924C641.265 102.924 644.209 99.2617 644.224 93.4023C644.209 87.5869 641.265 83.9102 637.192 83.9102ZM633.765 93.4023C633.765 89.4473 635.156 87.2793 637.192 87.2793C639.272 87.2793 640.635 89.4473 640.649 93.4023C640.635 97.3721 639.272 99.54 637.192 99.5254C635.156 99.54 633.765 97.3721 633.765 93.4023ZM647.3 108.695H651.05V99.1445H654.829V96.0977H651.05V91.3516H654.829V88.2168H651.05V82.0352H647.3V108.695ZM678.354 82.0352H674.575V108.695H678.354V82.0352ZM656.03 101.137L657.993 104.125C667.515 99.6279 670.342 92.9043 670.356 84.8184H657.466V87.748H666.548C665.947 93.666 662.915 97.8848 656.03 101.137ZM705.835 94.5742H682.192V96.0684H705.835V94.5742ZM685.093 99.8477H701.001V102.338H685.151V107.904H703.726V106.498H686.968V103.715H702.847V98.4121H685.093V99.8477ZM685.21 84.7012H700.913V87.1035H685.298V92.377H703.198V90.9707H687.114V88.4219H702.759V83.3242H685.21V84.7012ZM738.94 93.5195H715.386V95.0723H738.94V93.5195ZM718.286 99.1152H734.048V101.928H718.374V107.934H736.655V106.41H720.161V103.393H735.835V97.6211H718.286V99.1152ZM718.608 91.2051H736.128V89.6523H720.454V84.9648H735.835V83.4414H718.608V91.2051ZM748.198 84.4961C744.419 84.5107 741.782 87.9971 741.812 93.4316C741.782 98.8809 744.419 102.367 748.198 102.367C751.816 102.367 754.38 99.1299 754.57 94.0176H760.796V108.314H762.612V82.4453H760.796V92.4941H754.556C754.263 87.6016 751.729 84.5107 748.198 84.4961ZM743.569 93.4316C743.555 89.1104 745.459 86.1514 748.198 86.1367C750.923 86.1514 752.842 89.1104 752.827 93.4316C752.842 97.7529 750.923 100.727 748.198 100.727C745.459 100.727 743.555 97.7529 743.569 93.4316ZM790.913 103.305H779.927V97.4746H787.925V84.3203H786.108V89.1836H771.987V84.3203H770.112V97.4746H778.081V103.305H767.241V104.887H790.913V103.305ZM771.987 95.9219V90.7363H786.108V95.9219H771.987ZM800.64 90.0625V84.9355H798.882V90.1211C798.867 94.5596 796.436 99.1592 792.935 101.166L794.165 102.543C796.787 100.946 798.853 97.8555 799.79 94.2959C800.713 97.5625 802.661 100.478 805.21 102.016L806.323 100.58C802.939 98.6172 800.64 94.1348 800.64 90.0625ZM803.423 93.4902H808.14V106.938H809.897V83.0312H808.14V91.8789H803.423V93.4902ZM813.442 108.285H815.229V82.4453H813.442V108.285ZM842.769 103.275H836.675V96.0391C838.887 94.9111 840.22 93.0801 840.22 90.7656C840.22 86.7959 836.353 84.2031 830.845 84.1738C825.381 84.2031 821.499 86.7959 821.499 90.7656C821.499 93.1094 822.876 94.9697 825.132 96.083V103.275H819.097V104.857H842.769V103.275ZM823.257 90.7656C823.257 87.748 826.436 85.7119 830.845 85.7266C835.239 85.7119 838.462 87.748 838.462 90.7656C838.462 93.7246 835.239 95.79 830.845 95.7754C826.436 95.79 823.257 93.7246 823.257 90.7656ZM826.948 103.275V96.7715C828.12 97.0938 829.424 97.2695 830.845 97.2695C832.295 97.2695 833.643 97.0938 834.829 96.7568V103.275H826.948Z" fill="white"/>
<path fill-rule="evenodd" clip-rule="evenodd" d="M111.502 61.6056C114.193 59.2291 117.938 59.7569 119.866 62.7844L143.771 100.304L167.676 62.7844C168.887 60.8831 170.815 59.9676 172.748 60.1383C174.681 59.9676 176.608 60.8831 177.82 62.7844L201.724 100.304L225.629 62.7844C226.839 60.8843 228.765 59.9688 230.697 60.138C232.628 59.9688 234.554 60.8843 235.765 62.7844L263.879 106.911C265.808 109.939 265.191 114.32 262.5 116.696C259.81 119.073 256.065 118.545 254.136 115.518L230.697 78.7288L207.258 115.518C205.95 117.571 203.807 118.474 201.724 118.102C199.641 118.474 197.498 117.571 196.19 115.518L172.748 78.7227L149.305 115.518C147.997 117.571 145.854 118.474 143.771 118.102C141.688 118.474 139.545 117.571 138.237 115.518L110.123 71.3906C108.194 68.363 108.812 63.9822 111.502 61.6056Z" fill="white" fill-opacity="0.2"/>
<path d="M294.168 48.2711C294.567 47.3502 295.639 46.923 296.539 47.3665C301.928 50.0204 306.601 53.9447 310.152 58.8119C314.059 64.1693 316.463 70.4741 317.114 77.0731C317.765 83.6721 316.64 90.3252 313.855 96.343C311.07 102.361 306.726 107.524 301.274 111.298C295.822 115.073 289.459 117.32 282.846 117.808C276.233 118.297 269.61 117.007 263.663 114.074C257.716 111.142 252.661 106.672 249.022 101.128C245.717 96.0917 243.689 90.3354 243.102 84.3578C243.004 83.359 243.782 82.5058 244.784 82.4566L278.98 80.7799C279.671 80.746 280.283 80.3223 280.559 79.6872L294.168 48.2711Z" fill="#4484FF"/>
<path fill-rule="evenodd" clip-rule="evenodd" d="M307.011 56.7948C303.56 52.0644 299.018 48.2503 293.781 45.671C293.446 45.5063 293.005 45.6492 292.83 46.0537L279.221 77.4697C278.787 78.47 277.823 79.1373 276.734 79.1907L242.538 80.8674C242.098 80.889 241.809 81.2519 241.845 81.6229C242.416 87.4325 244.386 93.0271 247.599 97.922C251.135 103.31 256.048 107.654 261.828 110.505C267.608 113.355 274.045 114.608 280.473 114.134C286.9 113.659 293.083 111.475 298.382 107.807C303.681 104.138 307.903 99.12 310.61 93.2713C313.317 87.4226 314.41 80.9565 313.778 74.5429C313.145 68.1293 310.808 62.0016 307.011 56.7948ZM294.242 44.7337C293.342 44.2902 292.27 44.7174 291.871 45.6383L278.262 77.0544C277.987 77.6895 277.375 78.1132 276.683 78.1471L242.487 79.8238C241.485 79.873 240.707 80.7261 240.806 81.725C241.392 87.7026 243.42 93.4589 246.725 98.4953C250.364 104.039 255.419 108.509 261.366 111.442C267.313 114.375 273.936 115.664 280.549 115.176C287.163 114.687 293.525 112.44 298.977 108.666C304.429 104.891 308.773 99.7279 311.558 93.7102C314.343 87.6924 315.469 81.0393 314.817 74.4403C314.166 67.8413 311.762 61.5364 307.855 56.1791C304.305 51.3119 299.631 47.3876 294.242 44.7337Z" fill="white"/>
<path d="M295.476 75.4326C295.867 75.9903 295.731 76.7588 295.173 77.1491C294.615 77.5393 293.847 77.4035 293.457 76.8458C293.066 76.2881 293.202 75.5196 293.76 75.1294C294.318 74.7391 295.086 74.8749 295.476 75.4326Z" fill="#1F2220"/>
<path d="M302.89 70.6826C303.281 71.2403 303.145 72.0088 302.587 72.3991C302.029 72.7893 301.261 72.6535 300.871 72.0958C300.48 71.5381 300.616 70.7696 301.174 70.3794C301.732 69.9891 302.5 70.1249 302.89 70.6826Z" fill="#1F2220"/>
<path fill-rule="evenodd" clip-rule="evenodd" d="M295.376 82.8503C295.259 83.2976 295.317 83.5645 295.42 83.7215C295.522 83.8785 295.742 84.04 296.199 84.113C296.656 84.186 297.273 84.1549 298.025 83.9934C299.523 83.6715 301.412 82.8631 303.313 81.6244C305.214 80.3857 306.716 78.9849 307.616 77.744C308.067 77.1216 308.345 76.5695 308.462 76.1222C308.58 75.675 308.521 75.4081 308.419 75.2511C308.317 75.0941 308.096 74.9326 307.64 74.8596C307.183 74.7865 306.566 74.8177 305.814 74.9792C304.315 75.3011 302.427 76.1095 300.526 77.3482C298.625 78.5868 297.123 79.9877 296.223 81.2285C295.772 81.851 295.494 82.403 295.376 82.8503ZM295.12 80.4285C296.14 79.0213 297.778 77.5121 299.782 76.2063C301.786 74.9005 303.828 74.0117 305.528 73.6467C306.375 73.4647 307.174 73.4048 307.855 73.5138C308.536 73.6227 309.176 73.916 309.561 74.5071C309.946 75.0982 309.956 75.8017 309.78 76.469C309.605 77.1362 309.228 77.8426 308.719 78.5441C307.699 79.9512 306.061 81.4604 304.057 82.7663C302.053 84.0721 300.01 84.9608 298.311 85.3259C297.464 85.5079 296.665 85.5677 295.984 85.4588C295.303 85.3499 294.663 85.0566 294.278 84.4655C293.893 83.8744 293.883 83.1709 294.058 82.5036C294.234 81.8364 294.611 81.13 295.12 80.4285Z" fill="#1F2220"/>
<path d="M270.132 87.0033C270.64 88.3067 269.546 89.6712 268.164 89.4594L253.231 87.1717C251.848 86.9599 251.213 85.3306 252.088 84.2391L261.536 72.4509C262.411 71.3593 264.139 71.6241 264.647 72.9275L270.132 87.0033Z" fill="#1F2220"/>
<path fill-rule="evenodd" clip-rule="evenodd" d="M275.739 82.9401C275.603 82.9414 275.475 83.0034 275.39 83.1092C272.994 86.0804 272.545 88.6598 273.26 90.5164C273.905 92.1914 275.458 93.1607 277.083 93.2099C277.109 94.4743 277.683 95.6962 278.646 96.4544C279.684 97.2722 281.128 97.5149 282.71 96.7787C283.288 97.5057 284.213 97.8809 285.259 97.758C286.456 97.6171 287.774 96.8341 288.973 95.2837L288.254 94.7279C287.154 96.1512 286.036 96.7517 285.152 96.8556C284.28 96.9581 283.603 96.5881 283.259 95.9704C283.137 95.7511 282.861 95.6723 282.641 95.7942C281.206 96.5928 280.015 96.3762 279.208 95.7406C278.374 95.0838 277.894 93.9368 278.007 92.7867C278.02 92.652 277.972 92.5185 277.877 92.4224C277.782 92.3263 277.649 92.2777 277.514 92.2898C276.087 92.4177 274.664 91.6349 274.108 90.1901C273.583 88.8258 273.789 86.7416 275.759 84.1144C279.909 88.9386 284.28 91.8248 288.452 93.4163L288.776 92.5674C284.637 90.9884 280.257 88.0748 276.092 83.1026C276.005 82.9985 275.875 82.9388 275.739 82.9401Z" fill="white"/>
</g>
</svg>
