<svg width="1918" height="384" viewBox="0 0 1918 384" fill="none" xmlns="http://www.w3.org/2000/svg">
<path d="M0 0H1921V384H0V0Z" fill="#1DB981"/>
<mask id="mask0_1786_19552" style="mask-type:alpha" maskUnits="userSpaceOnUse" x="3" y="5" width="1918" height="378">
<path d="M3 5H1921V383H3V5Z" fill="#D9D9D9"/>
</mask>
<g mask="url(#mask0_1786_19552)">
<path fill-rule="evenodd" clip-rule="evenodd" d="M551.768 141.216C611.699 125.157 673.301 160.723 689.36 220.654C705.418 280.585 669.852 342.187 609.921 358.246C576.631 367.166 542.825 360.157 516.596 341.891C502.151 359.988 482.003 373.794 457.921 380.246C408.599 393.462 358.144 371.713 332.877 330.192C323.757 336.395 313.457 341.198 302.202 344.214C248.333 358.648 192.963 326.68 178.529 272.812C164.095 218.943 196.063 163.573 249.931 149.139C270.37 143.662 291.025 144.866 309.578 151.411C324.137 113.661 355.917 83.149 397.99 71.8756C459.898 55.2873 523.334 85.916 550.063 141.687C550.629 141.525 551.198 141.368 551.768 141.216Z" fill="url(#paint0_linear_1786_19552)" fill-opacity="0.12"/>
<path fill-rule="evenodd" clip-rule="evenodd" d="M1752.47 224.87C1835.81 202.538 1921.48 251.999 1943.81 335.343C1966.14 418.688 1916.68 504.356 1833.34 526.688C1787.04 539.093 1740.03 529.346 1703.55 503.944C1683.47 529.111 1655.45 548.311 1621.96 557.285C1553.36 575.664 1483.2 545.417 1448.06 487.675C1435.38 496.302 1421.05 502.981 1405.4 507.175C1330.49 527.248 1253.49 482.791 1233.41 407.877C1213.34 332.964 1257.8 255.962 1332.71 235.889C1361.13 228.273 1389.86 229.946 1415.66 239.047C1435.9 186.55 1480.1 144.118 1538.61 128.44C1624.7 105.371 1712.92 147.966 1750.09 225.526C1750.88 225.302 1751.67 225.083 1752.47 224.87Z" fill="url(#paint1_linear_1786_19552)" fill-opacity="0.05"/>
<path fill-rule="evenodd" clip-rule="evenodd" d="M1352.71 126.738C1344.84 114.844 1331.33 107 1316 107C1291.7 107 1272 126.699 1272 151C1272 151.166 1272 151.331 1272 151.497C1269.72 151.169 1267.38 151 1265 151C1237.94 151 1216 172.938 1216 200C1216 227.062 1237.94 249 1265 249C1273.59 249 1281.66 246.789 1288.68 242.906C1297.95 255.687 1313.01 264 1330 264C1347.48 264 1362.91 255.204 1372.1 241.797C1380.54 246.39 1390.21 249 1400.5 249C1433.36 249 1460 222.361 1460 189.5C1460 156.639 1433.36 130 1400.5 130C1393.61 130 1387 131.17 1380.85 133.322C1379.79 125.793 1373.32 120 1365.5 120C1360.19 120 1355.51 122.669 1352.71 126.738Z" fill="url(#paint2_linear_1786_19552)" fill-opacity="0.35"/>
<circle cx="1059" cy="60" r="8" fill="white" fill-opacity="0.6"/>
<path d="M771.48 335.071C768.098 336.909 763.995 334.396 764.094 330.549L765.542 274.403C765.641 270.555 769.868 268.257 773.151 270.267L821.051 299.594C824.334 301.604 824.21 306.413 820.828 308.251L771.48 335.071Z" fill="url(#paint3_linear_1786_19552)" fill-opacity="0.2"/>
<path d="M1445.59 32.4219C1444.08 32.0969 1443.5 30.2647 1444.53 29.1239L1457.04 15.3167C1458.08 14.1759 1459.96 14.5821 1460.43 16.0478L1466.13 33.7881C1466.6 35.2539 1465.31 36.6799 1463.8 36.3549L1445.59 32.4219Z" fill="url(#paint4_linear_1786_19552)" fill-opacity="0.2"/>
<path d="M474.016 100.826C474.953 102.937 473.253 105.27 470.956 105.026L418.542 99.4437C416.246 99.1991 415.075 96.5603 416.435 94.6938L447.476 52.0929C448.836 50.2264 451.707 50.5321 452.643 52.6431L474.016 100.826Z" fill="url(#paint5_linear_1786_19552)" fill-opacity="0.2"/>
<circle cx="1457" cy="310" r="18" fill="white" fill-opacity="0.4"/>
<mask id="path-11-inside-1_1786_19552" fill="white">
<rect x="825.836" y="259" width="204.138" height="204.138" rx="15" transform="rotate(15 825.836 259)"/>
</mask>
<rect x="825.836" y="259" width="204.138" height="204.138" rx="15" transform="rotate(15 825.836 259)" stroke="#1D8669" stroke-opacity="0.25" stroke-width="76" mask="url(#path-11-inside-1_1786_19552)"/>
<mask id="path-12-inside-2_1786_19552" fill="white">
<rect x="1401.59" y="72.167" width="37.2426" height="37.2426" rx="3" transform="rotate(-16.285 1401.59 72.167)"/>
</mask>
<rect x="1401.59" y="72.167" width="37.2426" height="37.2426" rx="3" transform="rotate(-16.285 1401.59 72.167)" stroke="#1D8669" stroke-opacity="0.3" stroke-width="14" mask="url(#path-12-inside-2_1786_19552)"/>
</g>
<path fill-rule="evenodd" clip-rule="evenodd" d="M887.95 70.8641C887.105 56.9905 875.586 46 861.5 46C851.188 46 842.252 51.8895 837.872 60.4882C833.221 56.4466 827.146 54 820.5 54C805.864 54 794 65.8645 794 80.5C794 95.1355 805.864 107 820.5 107C821.539 107 822.565 106.94 823.573 106.824C826.079 117.21 836.511 125 849 125C856.103 125 862.541 122.48 867.234 118.396C870.697 121.271 875.147 123 880 123C891.046 123 900 114.046 900 103C900 100.896 899.675 98.8673 899.072 96.9622C906.856 96.4124 913 89.9237 913 82C913 73.7157 906.284 67 898 67C894.134 67 890.61 68.4624 887.95 70.8641Z" fill="url(#paint6_linear_1786_19552)" fill-opacity="0.37"/>
<path d="M486.31 114.904H450.538V117.805H466.622V131.56H470.006V117.805H486.31V114.904ZM454.581 102.688C454.603 107.895 460.118 111.191 468.336 111.169C476.532 111.191 482.091 107.895 482.091 102.688C482.091 97.3921 476.532 94.0962 468.336 94.0742C460.118 94.0962 454.603 97.3921 454.581 102.688ZM458.141 102.688C458.097 99.1499 462.25 96.8867 468.336 96.8867C474.422 96.8867 478.553 99.1499 478.575 102.688C478.553 106.159 474.422 108.4 468.336 108.4C462.25 108.4 458.097 106.159 458.141 102.688ZM521.729 92.4922H518.302V131.647H521.729V92.4922ZM491.671 98.9961H506.393V107.214H491.759V122.155H495.011C501.756 122.155 507.689 121.87 514.874 120.749L514.522 117.849C507.535 118.969 501.756 119.277 495.274 119.255V110.026H509.864V96.1396H491.671V98.9961ZM538.824 95.5244C533.023 95.5464 528.958 100.842 528.98 109.147C528.958 117.475 533.023 122.749 538.824 122.727C544.581 122.749 548.668 117.475 548.712 109.147C548.668 100.842 544.581 95.5464 538.824 95.5244ZM532.232 109.147C532.254 102.797 534.957 98.6226 538.824 98.6006C542.735 98.6226 545.372 102.797 545.372 109.147C545.372 115.498 542.735 119.672 538.824 119.65C534.957 119.672 532.254 115.498 532.232 109.147ZM555.172 131.56H558.6V111.081H565.147V108.093H558.6V92.4922H555.172V131.56ZM599.469 92.4922H595.997V131.647H599.469V92.4922ZM568.707 109.147C568.729 117.475 572.86 122.749 578.683 122.727C584.483 122.749 588.68 117.475 588.658 109.147C588.68 100.842 584.483 95.5464 578.683 95.5244C572.86 95.5464 568.729 100.842 568.707 109.147ZM572.047 109.147C572.047 102.797 574.771 98.6226 578.683 98.6006C582.616 98.6226 585.318 102.797 585.318 109.147C585.318 115.498 582.616 119.672 578.683 119.65C574.771 119.672 572.047 115.498 572.047 109.147ZM630.67 99.9189V98.249H639.459V95.3926H618.365V98.249H627.286V99.9189C627.242 105.566 623.155 110.598 617.311 112.575L619.068 115.344C623.749 113.652 627.352 110.158 629.022 105.676C630.714 109.609 634.12 112.707 638.624 114.201L640.25 111.477C634.515 109.609 630.692 105.039 630.67 99.9189ZM622.496 124.265C622.518 128.835 627.418 131.472 635.46 131.472C643.48 131.472 648.336 128.835 648.336 124.265C648.336 119.76 643.48 117.146 635.46 117.146C627.418 117.146 622.518 119.76 622.496 124.265ZM625.968 124.265C625.924 121.54 629.571 119.914 635.46 119.914C641.371 119.914 644.974 121.54 644.996 124.265C644.974 127.077 641.371 128.725 635.46 128.703C629.571 128.725 625.924 127.077 625.968 124.265ZM644.557 116.091H647.984V105.368H653.873V102.468H647.984V92.4922H644.557V116.091ZM661.695 95.3486H658.224V113.674H661.344C667.254 113.674 673.187 113.3 679.801 111.916L679.405 109.06C673.033 110.378 667.276 110.729 661.695 110.729V95.3486ZM662.574 130.725H688.282V127.824H666.002V117.98H662.574V130.725ZM683.448 120.749H686.876V107.126H692.765V104.138H686.876V92.5361H683.448V120.749ZM725.768 92.4922H722.34V114.685H725.768V104.929H731.656V102.072H725.768V92.4922ZM695.182 112.312L696.588 115.08C708.167 111.938 715.045 104.885 715.089 95.041H696.939V97.8975H711.375C710.65 104.511 704.784 109.719 695.182 112.312ZM701.026 131.032H725.768V116.486H701.026V131.032ZM704.454 128.22V119.343H722.34V128.22H704.454ZM740.533 125.056H736.271L733.854 137.009H737.105L740.533 125.056ZM482.794 167.279H460.03V153.129H454.273V171.806H465.611V180.99H450.187V185.473H486.793V180.99H471.28V171.806H482.794V167.279ZM522.608 150.053H517.027V190.131H522.608V150.053ZM491.188 157.919H504.503V164.379H491.231V180.771H494.835C502.13 180.771 508.084 180.529 514.654 179.364L514.171 174.838C508.304 175.805 503.141 176.112 497.032 176.156V168.817H510.216V153.393H491.188V157.919ZM562.643 150.053H557.281V190.043H562.643V150.053ZM528.321 167.367C528.321 176.354 531.727 181.913 537.022 181.913C541.944 181.913 545.306 177.145 545.79 169.301H549.02V188.197H554.293V150.624H549.02V164.862H545.746C545.13 157.392 541.834 152.887 537.022 152.909C531.727 152.887 528.321 158.424 528.321 167.367ZM533.507 167.367C533.463 161.237 534.781 158.183 537.022 158.183C539.33 158.183 540.692 161.237 540.67 167.367C540.692 173.52 539.33 176.552 537.022 176.508C534.781 176.552 533.463 173.52 533.507 167.367ZM581.979 159.105V153.129H576.31V159.105C576.266 166.62 573.146 174.333 566.29 177.431L569.806 182.001C574.376 179.76 577.452 175.453 579.166 170.202C580.836 175.146 583.824 179.145 588.263 181.298L591.69 176.815C585.033 173.937 582 166.62 581.979 159.105ZM587.208 167.147H595.074V190.131H600.611V150.053H595.074V162.621H587.208V167.147ZM649.61 150.053H643.941V190.131H649.61V150.053ZM618.102 180.771H637.877V153.217H632.34V162.973H623.727V153.217H618.102V180.771ZM623.727 176.244V167.323H632.34V176.244H623.727ZM688.194 153.524H658.619V157.963H682.569C682.547 162.599 682.503 168.026 681.207 175.365L686.7 175.849C688.172 167.785 688.172 162.313 688.194 157.436V153.524ZM655.016 185.165H691.49V180.595H678.307V168.026H672.77V180.595H668.375V168.026H662.794V180.595H655.016V185.165ZM725.46 150.053H719.923V190.043H725.46V170.312H731.349V165.697H725.46V150.053ZM693.688 160.512H717.198V156.029H708.365V150.668H702.74V156.029H693.688V160.512ZM695.313 172.289C695.292 177.87 699.642 181.803 705.553 181.825C711.375 181.803 715.748 177.87 715.748 172.289C715.748 166.708 711.375 162.731 705.553 162.753C699.642 162.731 695.292 166.708 695.313 172.289ZM700.675 172.289C700.675 169.213 702.718 167.323 705.553 167.279C708.343 167.323 710.387 169.213 710.387 172.289C710.387 175.387 708.343 177.233 705.553 177.211C702.718 177.233 700.675 175.387 700.675 172.289ZM765.758 153.524H736.578V157.963H760.133C760.111 162.665 760.045 168.29 758.507 175.849L764.132 176.42C765.736 167.938 765.736 162.313 765.758 157.304V153.524ZM732.799 185.165H769.273V180.595H751.432V166.84H745.851V180.595H732.799V185.165ZM797.047 156.908V152.514H791.378V156.864C791.356 162.599 788.478 168.07 781.798 170.268L784.83 174.662C789.466 172.992 792.586 169.718 794.3 165.521C795.992 169.235 798.915 172.179 803.155 173.739L806.188 169.345C799.815 167.213 797.047 162.072 797.047 156.908ZM789.137 189.34H816.603V184.857H794.806V176.508H789.137V189.34ZM802.672 163.104H810.187V179.628H815.768V150.097H810.187V158.578H802.672V163.104ZM838.18 152.733H822.359V172.904H825.084C831.126 172.926 835.038 172.772 839.718 171.938L839.146 167.455C835.433 168.092 832.159 168.268 827.721 168.312V164.774H837.784V160.512H827.721V157.216H838.18V152.733ZM827.677 180.639H849.737V190.043H855.318V176.156H827.677V180.639ZM841.3 174.179H846.529V164.335H850.001V174.486H855.318V150.097H850.001V159.853H846.529V150.8H841.3V174.179ZM879.752 157.26H871.71V151.679H868.282V157.26H860.152V160.072H879.752V157.26ZM861.559 171.586C861.559 176.837 865.096 180.529 869.952 180.551C874.874 180.529 878.39 176.837 878.434 171.586C878.39 166.4 874.874 162.731 869.952 162.709C865.096 162.731 861.559 166.4 861.559 171.586ZM864.635 171.586C864.635 168.158 866.854 165.653 869.952 165.609C873.072 165.653 875.357 168.158 875.357 171.586C875.357 175.058 873.072 177.541 869.952 177.519C866.854 177.541 864.635 175.058 864.635 171.586ZM881.773 187.626H885.025V169.828H890.211V189.56H893.507V150.492H890.211V166.972H885.025V151.459H881.773V187.626ZM934.903 181.649H926.026V171.015C929.256 169.279 931.212 166.51 931.212 163.017C931.212 156.974 925.279 152.997 916.93 152.953C908.58 152.997 902.647 156.974 902.647 163.017C902.647 166.576 904.669 169.389 908.009 171.125V181.649H899.132V184.55H934.903V181.649ZM905.987 163.017C905.965 158.644 910.514 155.766 916.93 155.81C923.28 155.766 927.872 158.644 927.872 163.017C927.872 167.389 923.28 170.312 916.93 170.312C910.514 170.312 905.965 167.389 905.987 163.017ZM911.393 181.649V172.377C913.062 172.816 914.93 173.036 916.93 173.036C918.973 173.036 920.863 172.794 922.555 172.355V181.649H911.393Z" fill="white"/>
<path d="M461.461 231.336V230.68H466.738V228.574H453.477V230.68H458.863V231.363C458.85 234.768 456.539 237.926 452.711 239.184L454.051 241.262C456.99 240.236 459.137 238.117 460.203 235.438C461.283 237.762 463.32 239.607 466.109 240.496L467.34 238.473C463.621 237.297 461.447 234.453 461.461 231.336ZM456.02 246.676C456.02 249.588 459.15 251.283 464.25 251.27C469.295 251.283 472.371 249.588 472.371 246.676C472.371 243.805 469.295 242.123 464.25 242.137C459.15 242.123 456.02 243.805 456.02 246.676ZM458.617 246.676C458.604 245.076 460.709 244.174 464.25 244.188C467.764 244.174 469.842 245.076 469.828 246.676C469.842 248.316 467.764 249.232 464.25 249.219C460.709 249.232 458.604 248.316 458.617 246.676ZM469.555 241.535H472.152V235.027H475.707V232.895H472.152V226.824H469.555V241.535ZM480.82 228.574H478.223V240.195H480.219C483.869 240.209 487.629 239.977 491.73 239.129L491.43 236.996C487.629 237.789 484.143 238.008 480.82 238.008V228.574ZM480.875 250.805H497.199V248.699H483.5V242.793H480.875V250.805ZM493.754 244.516H496.352V236.203H499.906V233.988H496.352V226.852H493.754V244.516ZM520.551 226.824H517.953V240.66H520.551V234.754H524.105V232.594H520.551V226.824ZM501.191 238.938L502.23 241.016C509.531 239.047 513.783 234.631 513.797 228.355H502.34V230.488H510.98C510.502 234.316 507.057 237.393 501.191 238.938ZM504.855 250.996H520.551V241.699H504.855V250.996ZM507.453 248.918V243.859H517.98V248.918H507.453ZM536.656 227.234C531.133 227.221 527.893 228.711 527.906 231.445C527.893 234.193 531.133 235.684 536.656 235.684C542.18 235.684 545.393 234.193 545.406 231.445C545.393 228.711 542.18 227.221 536.656 227.234ZM525.5 239.266H547.84V237.188H525.5V239.266ZM528.18 243.094H542.453V245.008H528.207V251.078H545.707V249.082H530.75V246.895H545.023V241.152H528.18V243.094ZM530.613 231.445C530.6 229.996 532.76 229.148 536.656 229.148C540.58 229.148 542.74 229.996 542.727 231.445C542.74 232.963 540.58 233.742 536.656 233.742C532.76 233.742 530.6 232.963 530.613 231.445ZM575.785 226.852H573.188V245.172H575.785V236.887H579.34V234.727H575.785V226.852ZM556.562 231.801H571.164V229.695H565.176V226.824H562.578V229.695H556.562V231.801ZM557.902 237.598C557.889 240.373 560.309 242.178 563.863 242.191C567.377 242.178 569.797 240.373 569.797 237.598C569.797 234.795 567.377 232.963 563.863 232.977C560.309 232.963 557.889 234.795 557.902 237.598ZM560.254 250.805H576.824V248.699H562.852V243.723H560.254V250.805ZM560.418 237.598C560.391 235.984 561.785 234.986 563.863 234.973C565.941 234.986 567.336 235.984 567.363 237.598C567.336 239.197 565.941 240.182 563.863 240.168C561.785 240.182 560.391 239.197 560.418 237.598ZM600.559 234.016H586.34V227.672H583.742V236.094H600.559V234.016ZM580.734 240.824H590.824V245.664H593.395V240.824H603.102V238.746H580.734V240.824ZM583.523 250.805H600.75V248.699H586.094V243.586H583.523V250.805ZM626.016 226.824H623.527V251.324H626.016V226.824ZM605.207 237.406C605.207 242.725 607.285 246.061 610.484 246.047C613.52 246.061 615.557 243.094 615.789 238.309H618.551V250.121H621.039V227.289H618.551V236.203H615.775C615.475 231.609 613.465 228.779 610.484 228.793C607.285 228.779 605.207 232.102 605.207 237.406ZM607.613 237.406C607.613 233.496 608.721 231.213 610.484 231.227C612.289 231.213 613.41 233.496 613.41 237.406C613.41 241.303 612.289 243.6 610.484 243.586C608.721 243.6 607.613 241.303 607.613 237.406ZM658.391 246.102H648.41V240.441H655.711V228.793H638.539V240.441H645.84V246.102H635.969V248.262H658.391V246.102ZM641.055 238.391V230.871H653.168V238.391H641.055ZM666.73 228.656C663.066 228.67 660.455 232.006 660.469 237.242C660.455 242.533 663.066 245.869 666.73 245.855C670.395 245.869 673.006 242.533 673.02 237.242C673.006 232.006 670.395 228.67 666.73 228.656ZM662.957 237.242C662.943 233.4 664.502 230.994 666.73 230.98C669 230.994 670.531 233.4 670.531 237.242C670.531 241.139 669 243.531 666.73 243.531C664.502 243.531 662.943 241.139 662.957 237.242ZM676.656 251.324H679.254V238.609H683.191V236.422H679.254V226.824H676.656V251.324ZM706.789 246.129H696.809V241.098H704.137V228.492H701.566V232.703H689.535V228.492H686.938V241.098H694.238V246.129H684.367V248.289H706.789V246.129ZM689.535 238.992V234.809H701.566V238.992H689.535ZM728.391 229.176H710.918V231.281H725.793V231.582C725.779 234.521 725.779 237.994 724.836 242.738L727.461 243.012C728.377 237.994 728.377 234.604 728.391 231.582V229.176ZM708.566 248.016H730.906V245.855H719.641V237.215H717.07V245.855H708.566V248.016ZM760.629 226.824H758.141V236.531H754.969V227.316H752.59V250.066H754.969V238.664H758.141V251.324H760.629V226.824ZM740.422 245.445H742.062C745.631 245.418 748.174 245.322 751.113 244.707L750.922 242.574C748.297 243.08 746.027 243.217 743.02 243.23V231.883H749.609V229.777H740.422V245.445ZM770.445 228.656C766.795 228.67 764.211 232.006 764.238 237.242C764.211 242.533 766.795 245.869 770.445 245.855C772.811 245.869 774.725 244.434 775.777 241.973H781.656V251.379H784.227V226.824H781.656V232.156H775.6C774.52 229.941 772.688 228.67 770.445 228.656ZM766.699 237.242C766.713 233.4 768.23 230.994 770.445 230.98C772.66 230.994 774.178 233.4 774.191 237.242C774.178 241.139 772.66 243.531 770.445 243.531C768.23 243.531 766.713 241.139 766.699 237.242ZM776.338 234.289H781.656V239.84H776.406C776.57 239.033 776.652 238.172 776.652 237.242C776.652 236.176 776.529 235.191 776.338 234.289ZM807.086 226.824H804.516V251.324H807.086V238.91H811.023V236.75H807.086V226.824ZM787.863 232.785H802.383V230.652H796.504V227.152H793.906V230.652H787.863V232.785ZM789.121 240.277C789.121 243.641 791.691 245.979 795.219 245.992C798.732 245.979 801.303 243.641 801.316 240.277C801.303 236.941 798.732 234.59 795.219 234.59C791.691 234.59 789.121 236.941 789.121 240.277ZM791.609 240.277C791.596 238.186 793.127 236.736 795.219 236.723C797.297 236.736 798.814 238.186 798.828 240.277C798.814 242.41 797.297 243.832 795.219 243.805C793.127 243.832 791.596 242.41 791.609 240.277ZM819.664 233.523V229.066H817.148V233.633C817.162 237.803 815.33 242.137 811.871 244.215L813.484 246.156C815.863 244.707 817.559 242.055 818.447 238.951C819.295 241.781 820.84 244.229 823.137 245.609L824.586 243.613C821.305 241.604 819.664 237.434 819.664 233.523ZM821.934 237.598H825.734V250.121H828.195V227.289H825.734V235.438H821.934V237.598ZM830.793 251.324H833.281V226.824H830.793V251.324ZM858.82 246.102H853.461V239.648C855.43 238.541 856.605 236.805 856.605 234.645C856.605 230.789 852.818 228.26 847.555 228.246C842.305 228.26 838.518 230.789 838.531 234.645C838.518 236.846 839.748 238.596 841.758 239.703V246.102H836.398V248.262H858.82V246.102ZM841.047 234.645C841.047 232.006 843.713 230.324 847.555 230.324C851.369 230.324 854.076 232.006 854.09 234.645C854.076 237.27 851.369 238.979 847.555 238.992C843.713 238.979 841.047 237.27 841.047 234.645ZM844.328 246.102V240.66C845.312 240.893 846.406 241.016 847.555 241.016C848.73 241.016 849.838 240.893 850.836 240.66V246.102H844.328Z" fill="white"/>
<defs>
<linearGradient id="paint0_linear_1786_19552" x1="430.997" y1="379.499" x2="529.496" y2="77.499" gradientUnits="userSpaceOnUse">
<stop stop-color="white" stop-opacity="0"/>
<stop offset="0.638583" stop-color="white"/>
</linearGradient>
<linearGradient id="paint1_linear_1786_19552" x1="1584.51" y1="556.245" x2="1721.49" y2="136.26" gradientUnits="userSpaceOnUse">
<stop stop-color="white" stop-opacity="0"/>
<stop offset="0.638583" stop-color="white"/>
</linearGradient>
<linearGradient id="paint2_linear_1786_19552" x1="1330" y1="112.514" x2="1330" y2="263" gradientUnits="userSpaceOnUse">
<stop stop-color="white"/>
<stop offset="1" stop-color="white" stop-opacity="0"/>
</linearGradient>
<linearGradient id="paint3_linear_1786_19552" x1="763.871" y1="339.206" x2="808.178" y2="266.839" gradientUnits="userSpaceOnUse">
<stop offset="0.203125" stop-color="#1D8669" stop-opacity="0.4"/>
<stop offset="0.734375" stop-color="#1D8669"/>
</linearGradient>
<linearGradient id="paint4_linear_1786_19552" x1="1442.2" y1="31.6907" x2="1470.3" y2="22.6604" gradientUnits="userSpaceOnUse">
<stop offset="0.203125" stop-color="#1D8669" stop-opacity="0.4"/>
<stop offset="0.734375" stop-color="#1D8669"/>
</linearGradient>
<linearGradient id="paint5_linear_1786_19552" x1="476.123" y1="105.576" x2="417.233" y2="62.6659" gradientUnits="userSpaceOnUse">
<stop offset="0.203125" stop-color="#1D8669" stop-opacity="0.3"/>
<stop offset="0.734375" stop-color="#1D8669"/>
</linearGradient>
<linearGradient id="paint6_linear_1786_19552" x1="853.5" y1="46" x2="845.5" y2="179.5" gradientUnits="userSpaceOnUse">
<stop stop-color="white"/>
<stop offset="1" stop-color="white" stop-opacity="0"/>
</linearGradient>
</defs>
</svg>
