<svg width="140" height="140" viewBox="0 0 140 140" fill="none" xmlns="http://www.w3.org/2000/svg">
<path fill-rule="evenodd" clip-rule="evenodd" d="M64.6082 68.3818C65.5179 67.483 66.7516 66.978 68.0381 66.978C69.3246 66.978 70.5583 67.483 71.468 68.3818C72.3777 69.2806 72.8887 70.4996 72.8887 71.7708H82.5899C82.5899 67.9574 81.0568 64.3003 78.3278 61.6038C75.5988 58.9074 71.8975 57.3926 68.0381 57.3926C64.1787 57.3926 60.4774 58.9074 57.7484 61.6038C55.0194 64.3003 53.4863 67.9574 53.4863 71.7708H63.1875C63.1875 70.4996 63.6986 69.2806 64.6082 68.3818ZM53.4863 71.7751C53.4863 75.8128 55.0194 79.685 57.7484 82.5401C60.4774 85.3952 64.1787 86.9991 68.0381 86.9991C71.8975 86.9991 75.5988 85.3952 78.3278 82.5401C81.0568 79.685 82.5899 75.8128 82.5899 71.7751H72.8887C72.8887 73.121 72.3777 74.4118 71.468 75.3635C70.5583 76.3151 69.3246 76.8498 68.0381 76.8498C66.7516 76.8498 65.5179 76.3151 64.6082 75.3635C63.6986 74.4118 63.1875 73.121 63.1875 71.7751H53.4863Z" fill="#1DB981"/>
<path fill-rule="evenodd" clip-rule="evenodd" d="M32.9798 66.4543C31.6555 66.4543 30.3854 66.9724 29.449 67.8946C28.5126 68.8169 27.9865 70.0677 27.9865 71.3719H18C18 67.4592 19.5782 63.7068 22.3875 60.9401C25.1967 58.1734 29.0069 56.6191 32.9798 56.6191C36.9526 56.6191 40.7628 58.1734 43.5721 60.9401C46.3813 63.7068 47.9595 67.4592 47.9595 71.3719H37.973C37.973 70.0677 37.447 68.8169 36.5105 67.8946C35.5741 66.9724 34.3041 66.4543 32.9798 66.4543Z" fill="#1DB981"/>
<path fill-rule="evenodd" clip-rule="evenodd" d="M37.6855 86.999V74.8496H47.9574V86.999H37.6855Z" fill="#1DB981"/>
<path fill-rule="evenodd" clip-rule="evenodd" d="M18 86.999V74.8496H28.2718V86.999H18Z" fill="#1DB981"/>
<path fill-rule="evenodd" clip-rule="evenodd" d="M102.642 56.6214C102.693 56.6199 102.743 56.6191 102.794 56.6191H105.239V65.9725H102.882C101.526 66.0286 100.246 66.5887 99.3148 67.5349C98.3691 68.4959 97.8608 69.7765 97.9016 71.0956L88.1257 71.3719C88.0084 67.5757 89.4712 63.8901 92.1929 61.1245C94.9146 58.3589 98.6728 56.7393 102.642 56.6214Z" fill="#1DB981"/>
<path fill-rule="evenodd" clip-rule="evenodd" d="M88.1191 86.999V74.8496H98.391V86.999H88.1191Z" fill="#1DB981"/>
<path fill-rule="evenodd" clip-rule="evenodd" d="M111.053 86.9925V56.6191H121.325V86.9925H111.053Z" fill="#1DB981"/>
<path d="M116.192 53.2658C119.521 53.2658 122.22 50.52 122.22 47.1329C122.22 43.7458 119.521 41 116.192 41C112.863 41 110.164 43.7458 110.164 47.1329C110.164 50.52 112.863 53.2658 116.192 53.2658Z" fill="#1DB981"/>
</svg>
