<svg width="90" height="66" viewBox="0 0 90 66" fill="none" xmlns="http://www.w3.org/2000/svg">
<rect width="6.50363" height="15.563" rx="3.25182" transform="matrix(0.926823 -0.375499 0.326042 0.945355 0 25.5312)" fill="black"/>
<rect width="6.45695" height="15.6613" rx="3.22847" transform="matrix(-0.977001 0.213235 0.182668 0.983175 82.4691 0)" fill="black"/>
<rect width="90.9933" height="8.54629" transform="matrix(0.955272 -0.295727 0.254831 0.966986 0.898926 38.334)" fill="#1DB981"/>
<path d="M28.2402 38.8075C28.9334 41.4377 28.6341 44.2585 27.4083 46.6495C26.1825 49.0405 24.1305 50.8058 21.7038 51.5571C19.2771 52.3083 16.6745 51.9839 14.4685 50.6554C12.2624 49.3268 10.6337 47.1028 9.94058 44.4726L13.0842 43.4994C13.5392 45.2259 14.6084 46.6858 16.0565 47.5579C17.5046 48.4301 19.213 48.643 20.8059 48.1498C22.3989 47.6567 23.7458 46.4979 24.5505 44.9284C25.3551 43.3589 25.5516 41.5072 25.0966 39.7807L28.2402 38.8075Z" fill="#D9D9D9"/>
<path d="M83.1392 21.8124C83.8323 24.4426 83.533 27.2634 82.3072 29.6544C81.0814 32.0454 79.0294 33.8107 76.6028 34.5619C74.1761 35.3132 71.5734 34.9888 69.3674 33.6602C67.1614 32.3317 65.5326 30.1077 64.8395 27.4775L67.9832 26.5043C68.4381 28.2308 69.5073 29.6907 70.9554 30.5628C72.4035 31.4349 74.1119 31.6479 75.7049 31.1547C77.2978 30.6616 78.6447 29.5028 79.4494 27.9333C80.2541 26.3638 80.4505 24.5121 79.9955 22.7856L83.1392 21.8124Z" fill="#D9D9D9"/>
<path d="M32.9207 36.5739C32.9207 29.5667 38.6012 23.8862 45.6084 23.8862C52.6156 23.8862 58.2961 29.5667 58.2961 36.5739V60.4045C58.2961 63.4948 55.7909 66 52.7006 66H38.5162C35.4259 66 32.9207 63.4948 32.9207 60.4045V36.5739Z" fill="#FF9F46"/>
<ellipse rx="7.14874" ry="7.72415" transform="matrix(0.988723 -0.149754 0.127877 0.99179 45.7349 37.1981)" fill="#D9D9D9"/>
<ellipse rx="4.76583" ry="5.14943" transform="matrix(0.988723 -0.149754 0.127877 0.99179 45.4269 37.1962)" fill="black"/>
</svg>
