<svg width="1920" height="1080" viewBox="0 0 1920 1080" fill="none" xmlns="http://www.w3.org/2000/svg">
<g clip-path="url(#clip0_1499_59567)">
<rect width="1920" height="1080" fill="white"/>
<path d="M0 0H1920V1080H0V0Z" fill="#1DB981"/>
<mask id="path-2-inside-1_1499_59567" fill="white">
<rect x="713.164" y="400" width="176.108" height="176.108" rx="15" transform="rotate(22.4203 713.164 400)"/>
</mask>
<rect x="713.164" y="400" width="176.108" height="176.108" rx="15" transform="rotate(22.4203 713.164 400)" stroke="#1D8669" stroke-opacity="0.15" stroke-width="60" mask="url(#path-2-inside-1_1499_59567)"/>
<rect x="14.6306" width="69.8042" height="69.8042" rx="10.2298" transform="matrix(0.715093 -0.699029 0.715093 0.699029 1617.17 422.324)" stroke="#75E7C7" stroke-opacity="0.1" stroke-width="20.4597"/>
<path d="M1827.42 471.003C1830.08 469.533 1833.46 470.496 1834.73 473.263C1838.1 480.607 1840.29 488.455 1841.19 496.512C1842.29 506.398 1841.43 516.405 1838.67 525.96C1835.9 535.516 1831.28 544.433 1825.07 552.203C1818.86 559.973 1811.18 566.443 1802.47 571.244C1793.75 576.046 1784.18 579.084 1774.29 580.186C1764.41 581.288 1754.4 580.432 1744.85 577.667C1735.29 574.902 1726.37 570.281 1718.6 564.07C1712.27 559.008 1706.8 552.97 1702.4 546.194C1700.74 543.64 1701.72 540.274 1704.39 538.804L1765.9 504.903L1827.42 471.003Z" fill="#75E7C7" fill-opacity="0.2"/>
<path d="M502.233 413.014C504.251 415.296 504.048 418.797 501.633 420.653C494.811 425.892 487.177 430 479.021 432.807C469.125 436.213 458.654 437.636 448.207 436.995C437.761 436.355 427.543 433.663 418.136 429.073C408.73 424.483 400.32 418.086 393.386 410.246C386.452 402.406 381.13 393.277 377.724 383.381C374.318 373.484 372.895 363.014 373.535 352.567C374.176 342.12 376.868 331.902 381.458 322.496C385.24 314.744 390.25 307.669 396.283 301.539C398.42 299.368 401.92 299.595 403.938 301.876L453.086 357.445L502.233 413.014Z" fill="#75E7C7" fill-opacity="0.1"/>
<circle cx="90.9221" cy="568.922" r="26.0638" transform="rotate(15 90.9221 568.922)" fill="#75E7C7" fill-opacity="0.12"/>
<circle cx="34.167" cy="661.167" r="98.9328" transform="rotate(15 34.167 661.167)" fill="#75E7C7" fill-opacity="0.2"/>
<rect x="108" y="317.864" width="16.4419" height="117.156" transform="rotate(-24.6769 108 317.864)" fill="#75E7C7" fill-opacity="0.1"/>
<rect x="1787.45" y="331.55" width="9.68329" height="49.549" transform="rotate(25.4694 1787.45 331.55)" fill="#75E7C7" fill-opacity="0.1"/>
<rect x="1546" y="487.518" width="12.4367" height="63.6383" rx="1" transform="rotate(-16.4312 1546 487.518)" fill="#75E7C7" fill-opacity="0.5"/>
<rect opacity="0.4" x="357.625" y="509.685" width="20.7137" height="31.5503" transform="rotate(-27.4198 357.625 509.685)" fill="#75E7C7" fill-opacity="0.25"/>
<rect opacity="0.4" x="232.047" y="445.321" width="20.7137" height="58.1347" rx="2" transform="rotate(15 232.047 445.321)" fill="#75E7C7"/>
<circle cx="1276" cy="466" r="18" fill="white" fill-opacity="0.4"/>
<circle cx="1473" cy="306" r="9" fill="white" fill-opacity="0.4"/>
<circle cx="368.5" cy="348.5" r="11.5" fill="#1D8669" fill-opacity="0.3"/>
<ellipse cx="579" cy="442.5" rx="6" ry="5.5" fill="white" fill-opacity="0.4"/>
<path d="M1634.79 634.385C1631.41 636.223 1627.31 633.711 1627.41 629.863L1628.85 573.717C1628.95 569.869 1633.18 567.572 1636.46 569.582L1684.36 598.908C1687.65 600.918 1687.52 605.728 1684.14 607.566L1634.79 634.385Z" fill="url(#paint0_linear_1499_59567)" fill-opacity="0.2"/>
<path fill-rule="evenodd" clip-rule="evenodd" d="M1973.09 556.355C2002.57 585.829 2002.57 633.616 1973.09 663.091C1943.62 692.565 1895.83 692.565 1866.35 663.091C1836.88 633.616 1836.88 585.829 1866.35 556.355C1895.83 526.88 1943.62 526.88 1973.09 556.355ZM2012.08 517.361C2063.09 568.371 2063.09 651.074 2012.08 702.084C1961.07 753.094 1878.37 753.094 1827.36 702.084C1776.35 651.074 1776.35 568.371 1827.36 517.361C1878.37 466.351 1961.07 466.351 2012.08 517.361Z" fill="#75E7C7" fill-opacity="0.15"/>
</g>
<defs>
<linearGradient id="paint0_linear_1499_59567" x1="1627.18" y1="638.521" x2="1671.49" y2="566.153" gradientUnits="userSpaceOnUse">
<stop offset="0.203125" stop-color="#1D8669" stop-opacity="0.4"/>
<stop offset="0.734375" stop-color="#1D8669"/>
</linearGradient>
<clipPath id="clip0_1499_59567">
<rect width="1920" height="1080" fill="white"/>
</clipPath>
</defs>
</svg>
