<svg width="1778" height="375" viewBox="0 0 1778 375" fill="none" xmlns="http://www.w3.org/2000/svg">
<path fill-rule="evenodd" clip-rule="evenodd" d="M408.77 138.217C468.702 122.158 530.303 157.724 546.362 217.655C562.42 277.586 526.855 339.188 466.923 355.246C433.633 364.167 399.827 357.158 373.598 338.892C359.153 356.989 339.005 370.795 314.923 377.248C265.601 390.464 215.147 368.714 189.879 327.194C180.759 333.396 170.461 338.199 159.206 341.215C105.337 355.649 49.9669 323.681 35.5329 269.812C21.0988 215.944 53.0668 160.574 106.935 146.14C127.373 140.663 148.027 141.866 166.579 148.411C181.138 110.661 212.918 80.1498 254.991 68.8765C316.899 52.2882 380.335 82.917 407.064 138.688C407.631 138.527 408.199 138.369 408.77 138.217Z" fill="url(#paint0_linear_8_1214)" fill-opacity="0.12"/>
<path fill-rule="evenodd" clip-rule="evenodd" d="M1609.47 221.871C1692.81 199.539 1778.48 248.999 1800.81 332.344C1823.14 415.689 1773.68 501.357 1690.34 523.689C1644.04 536.094 1597.03 526.347 1560.55 500.945C1540.46 526.112 1512.45 545.312 1478.96 554.286C1410.36 572.665 1340.2 542.418 1305.06 484.677C1292.38 493.303 1278.06 499.982 1262.4 504.176C1187.49 524.249 1110.49 479.792 1090.41 404.878C1070.34 329.965 1114.8 252.963 1189.71 232.89C1218.13 225.274 1246.86 226.947 1272.66 236.048C1292.9 183.551 1337.1 141.119 1395.61 125.442C1481.7 102.373 1569.92 144.967 1607.09 222.526C1607.88 222.302 1608.67 222.084 1609.47 221.871Z" fill="url(#paint1_linear_8_1214)" fill-opacity="0.05"/>
<path fill-rule="evenodd" clip-rule="evenodd" d="M1201.71 122.738C1193.84 110.844 1180.33 103 1165 103C1140.7 103 1121 122.699 1121 147C1121 147.166 1121 147.331 1121 147.497C1118.72 147.169 1116.38 147 1114 147C1086.94 147 1065 168.938 1065 196C1065 223.062 1086.94 245 1114 245C1122.59 245 1130.66 242.789 1137.68 238.906C1146.95 251.687 1162.01 260 1179 260C1196.48 260 1211.91 251.204 1221.1 237.797C1229.54 242.39 1239.21 245 1249.5 245C1282.36 245 1309 218.361 1309 185.5C1309 152.639 1282.36 126 1249.5 126C1242.61 126 1236 127.17 1229.85 129.322C1228.79 121.793 1222.32 116 1214.5 116C1209.19 116 1204.51 118.669 1201.71 122.738Z" fill="url(#paint2_linear_8_1214)" fill-opacity="0.35"/>
<path d="M413.398 143.641H399.336V155.477H395.039V143.641H381.133V140.047H413.398V143.641ZM384.531 129.344C384.531 127.755 385.059 126.362 386.113 125.164C387.168 123.966 388.652 123.042 390.566 122.391C392.48 121.74 394.688 121.414 397.188 121.414C399.688 121.414 401.895 121.74 403.809 122.391C405.736 123.042 407.233 123.966 408.301 125.164C409.382 126.362 409.922 127.755 409.922 129.344C409.922 130.919 409.382 132.299 408.301 133.484C407.233 134.656 405.736 135.561 403.809 136.199C401.882 136.837 399.674 137.156 397.188 137.156C394.701 137.156 392.493 136.837 390.566 136.199C388.652 135.561 387.168 134.656 386.113 133.484C385.059 132.299 384.531 130.919 384.531 129.344ZM388.984 129.344C388.984 130.255 389.316 131.043 389.98 131.707C390.658 132.358 391.615 132.859 392.852 133.211C394.089 133.549 395.534 133.719 397.188 133.719C398.854 133.719 400.306 133.549 401.543 133.211C402.78 132.859 403.737 132.358 404.414 131.707C405.091 131.043 405.43 130.255 405.43 129.344C405.43 128.432 405.091 127.645 404.414 126.98C403.737 126.316 402.78 125.809 401.543 125.457C400.306 125.105 398.854 124.93 397.188 124.93C395.534 124.93 394.089 125.105 392.852 125.457C391.615 125.809 390.658 126.316 389.98 126.98C389.316 127.645 388.984 128.432 388.984 129.344ZM443.956 155.516H439.659V120.164H443.956V155.516ZM416.456 123.25H433.097V136.492H420.948V143.602C423.891 143.576 426.612 143.471 429.112 143.289C431.612 143.107 434.178 142.794 436.808 142.352L437.198 145.906C434.464 146.375 431.769 146.701 429.112 146.883C426.469 147.065 423.527 147.156 420.284 147.156H419.581H416.495V133.055H428.683V126.766H416.456V123.25ZM457.405 122.742C459.176 122.742 460.751 123.257 462.131 124.285C463.511 125.301 464.592 126.753 465.373 128.641C466.168 130.516 466.571 132.703 466.584 135.203C466.571 137.716 466.168 139.917 465.373 141.805C464.592 143.693 463.511 145.151 462.131 146.18C460.751 147.195 459.176 147.703 457.405 147.703C455.621 147.703 454.032 147.195 452.639 146.18C451.246 145.151 450.159 143.693 449.377 141.805C448.609 139.917 448.225 137.716 448.225 135.203C448.225 132.703 448.609 130.516 449.377 128.641C450.159 126.753 451.246 125.301 452.639 124.285C454.032 123.257 455.621 122.742 457.405 122.742ZM452.405 135.203C452.405 136.974 452.613 138.51 453.03 139.812C453.446 141.102 454.032 142.085 454.787 142.762C455.543 143.439 456.415 143.784 457.405 143.797C458.407 143.784 459.28 143.439 460.022 142.762C460.777 142.085 461.363 141.102 461.78 139.812C462.196 138.523 462.405 136.987 462.405 135.203C462.405 133.432 462.196 131.902 461.78 130.613C461.363 129.324 460.777 128.341 460.022 127.664C459.267 126.987 458.394 126.648 457.405 126.648C456.415 126.648 455.543 126.993 454.787 127.684C454.032 128.361 453.446 129.344 453.03 130.633C452.613 131.909 452.405 133.432 452.405 135.203ZM471.233 120.164H475.569V133.719H480.998V137.391H475.569V155.477H471.233V120.164ZM510.658 155.516H506.283V120.164H510.658V155.516ZM482.416 135.203C482.416 132.716 482.806 130.529 483.588 128.641C484.369 126.753 485.456 125.301 486.849 124.285C488.255 123.257 489.851 122.742 491.634 122.742C493.392 122.742 494.968 123.257 496.361 124.285C497.767 125.301 498.867 126.753 499.662 128.641C500.456 130.529 500.853 132.716 500.853 135.203C500.853 137.716 500.456 139.917 499.662 141.805C498.867 143.693 497.767 145.151 496.361 146.18C494.968 147.195 493.392 147.703 491.634 147.703C489.851 147.703 488.255 147.195 486.849 146.18C485.456 145.151 484.369 143.693 483.588 141.805C482.806 139.917 482.416 137.716 482.416 135.203ZM486.595 135.203C486.595 136.987 486.804 138.523 487.22 139.812C487.65 141.102 488.242 142.085 488.998 142.762C489.753 143.439 490.632 143.784 491.634 143.797C492.624 143.784 493.496 143.439 494.252 142.762C495.007 142.085 495.593 141.102 496.009 139.812C496.426 138.523 496.634 136.987 496.634 135.203C496.634 133.432 496.426 131.909 496.009 130.633C495.593 129.344 495.007 128.361 494.252 127.684C493.496 126.993 492.624 126.648 491.634 126.648C490.632 126.648 489.753 126.993 488.998 127.684C488.242 128.361 487.65 129.344 487.22 130.633C486.804 131.909 486.595 133.432 486.595 135.203ZM535.602 126.531C535.602 127.99 535.914 129.383 536.539 130.711C537.177 132.039 538.115 133.217 539.352 134.246C540.602 135.275 542.125 136.062 543.922 136.609L541.852 140.008C539.911 139.396 538.238 138.491 536.832 137.293C535.426 136.095 534.326 134.682 533.531 133.055C532.737 134.956 531.591 136.603 530.094 137.996C528.609 139.389 526.826 140.438 524.742 141.141L522.555 137.703C524.391 137.104 525.96 136.232 527.262 135.086C528.577 133.94 529.566 132.632 530.23 131.16C530.895 129.689 531.227 128.159 531.227 126.57V126.141H523.766V122.625H542.945V126.141H535.602V126.531ZM527.359 148.68C527.359 147.286 527.841 146.089 528.805 145.086C529.768 144.083 531.148 143.322 532.945 142.801C534.742 142.267 536.865 142 539.312 142C541.747 142 543.85 142.267 545.621 142.801C547.392 143.322 548.753 144.083 549.703 145.086C550.667 146.089 551.148 147.286 551.148 148.68C551.148 150.086 550.667 151.297 549.703 152.312C548.753 153.328 547.392 154.103 545.621 154.637C543.85 155.171 541.747 155.438 539.312 155.438C536.865 155.438 534.742 155.171 532.945 154.637C531.148 154.103 529.768 153.328 528.805 152.312C527.841 151.297 527.359 150.086 527.359 148.68ZM531.695 148.68C531.695 149.76 532.353 150.587 533.668 151.16C534.983 151.733 536.865 152.026 539.312 152.039C541.734 152.026 543.596 151.733 544.898 151.16C546.201 150.587 546.852 149.76 546.852 148.68C546.852 147.612 546.201 146.798 544.898 146.238C543.596 145.678 541.734 145.398 539.312 145.398C536.878 145.398 534.996 145.678 533.668 146.238C532.353 146.798 531.695 147.612 531.695 148.68ZM546.461 120.164H550.797V128.641H555.719V132.195H550.797V141.219H546.461V120.164ZM562.214 135.984C564.701 135.958 567.136 135.841 569.519 135.633C571.915 135.411 574.323 135.047 576.745 134.539L577.214 138.094C574.506 138.654 571.81 139.044 569.128 139.266C566.446 139.487 563.659 139.604 560.769 139.617H557.839V122.625H562.214V135.984ZM561.589 143.172H565.964V151.258H585.339V154.773H561.589V143.172ZM579.831 120.203H584.167V130.32H589.089V133.953H584.167V145.594H579.831V120.203ZM617.538 128.211H622.459V131.766H617.538V140.008H613.202V120.164H617.538V128.211ZM589.413 137.195C592.108 136.505 594.426 135.6 596.366 134.48C598.306 133.348 599.829 132.052 600.936 130.594C602.056 129.122 602.746 127.534 603.006 125.828H591.092V122.312H607.733C607.733 125.346 607.082 128.074 605.78 130.496C604.491 132.918 602.609 134.982 600.135 136.688C597.661 138.393 594.66 139.721 591.131 140.672L589.413 137.195ZM594.686 141.414H617.538V155.008H594.686V141.414ZM613.241 151.57V144.969H599.022V151.57H613.241ZM409.883 190.188H399.453V198.742H413.438V202.258H381.172V198.742H395.078V190.188H384.883V173.977H389.336V186.672H409.883V190.188ZM443.956 206.516H439.659V171.164H443.956V206.516ZM416.456 174.25H433.097V187.492H420.948V194.602C423.891 194.576 426.612 194.471 429.112 194.289C431.612 194.107 434.178 193.794 436.808 193.352L437.198 196.906C434.464 197.375 431.769 197.701 429.112 197.883C426.469 198.065 423.527 198.156 420.284 198.156H419.581H416.495V184.055H428.683V177.766H416.456V174.25ZM478.381 206.477H474.202V171.164H478.381V206.477ZM448.264 186.438C448.264 183.872 448.577 181.646 449.202 179.758C449.827 177.857 450.712 176.398 451.858 175.383C453.017 174.367 454.358 173.859 455.881 173.859C457.301 173.859 458.557 174.283 459.651 175.129C460.758 175.975 461.643 177.193 462.307 178.781C462.984 180.37 463.407 182.258 463.577 184.445H466.975V171.789H471.116V204.758H466.975V187.961H463.616C463.485 190.24 463.082 192.219 462.405 193.898C461.741 195.565 460.849 196.841 459.729 197.727C458.609 198.612 457.327 199.055 455.881 199.055C454.358 199.055 453.017 198.547 451.858 197.531C450.712 196.516 449.827 195.057 449.202 193.156C448.577 191.242 448.264 189.003 448.264 186.438ZM452.287 186.555C452.287 189.25 452.6 191.32 453.225 192.766C453.863 194.211 454.748 194.927 455.881 194.914C457.066 194.927 457.984 194.204 458.635 192.746C459.286 191.288 459.618 189.185 459.631 186.438C459.618 183.703 459.286 181.607 458.635 180.148C457.984 178.677 457.066 177.948 455.881 177.961C454.735 177.948 453.85 178.684 453.225 180.168C452.6 181.652 452.287 183.781 452.287 186.555ZM494.33 179.641C494.317 181.854 494.655 183.99 495.345 186.047C496.035 188.104 497.038 189.934 498.353 191.535C499.681 193.124 501.257 194.315 503.08 195.109L500.463 198.586C498.509 197.635 496.83 196.268 495.423 194.484C494.017 192.701 492.93 190.624 492.162 188.254C491.367 190.767 490.248 192.98 488.802 194.895C487.357 196.796 485.645 198.247 483.666 199.25L480.931 195.734C482.793 194.862 484.401 193.586 485.755 191.906C487.11 190.227 488.138 188.319 488.841 186.184C489.545 184.048 489.903 181.867 489.916 179.641V174.016H494.33V179.641ZM499.173 182.57H506.595V171.164H510.892V206.516H506.595V186.086H499.173V182.57ZM552.32 206.516H547.945V171.164H552.32V206.516ZM524.82 174.055H529.156V182.883H537.711V174.055H542.008V198.195H524.82V174.055ZM537.711 194.641V186.281H529.156V194.641H537.711ZM585.261 178C585.261 179.979 585.235 181.685 585.183 183.117C585.144 184.549 585.033 186.197 584.851 188.059C584.668 189.908 584.376 191.906 583.972 194.055L579.714 193.625C580.248 190.734 580.58 188.143 580.71 185.852C580.853 183.56 580.925 180.943 580.925 178V177.883H559.558V174.406H585.261V178ZM556.316 198.352H563.542V187.102H567.878V198.352H572.37V187.102H576.628V198.352H588.503V201.906H556.316V198.352ZM617.342 185.227H622.772V188.82H617.342V206.477H613.045V171.164H617.342V185.227ZM589.491 176.594H597.85V171.672H602.186V176.594H610.311V180.07H589.491V176.594ZM591.131 190.695C591.118 189.094 591.496 187.661 592.264 186.398C593.032 185.122 594.093 184.133 595.448 183.43C596.802 182.727 598.332 182.375 600.038 182.375C601.717 182.375 603.228 182.727 604.569 183.43C605.91 184.133 606.965 185.122 607.733 186.398C608.514 187.661 608.905 189.094 608.905 190.695C608.905 192.297 608.514 193.729 607.733 194.992C606.965 196.242 605.91 197.219 604.569 197.922C603.228 198.625 601.717 198.977 600.038 198.977C598.332 198.977 596.802 198.625 595.448 197.922C594.093 197.219 593.032 196.242 592.264 194.992C591.496 193.729 591.118 192.297 591.131 190.695ZM595.272 190.695C595.272 191.633 595.474 192.46 595.877 193.176C596.281 193.879 596.841 194.426 597.557 194.816C598.286 195.194 599.113 195.383 600.038 195.383C600.936 195.383 601.743 195.194 602.459 194.816C603.176 194.439 603.735 193.892 604.139 193.176C604.543 192.46 604.751 191.633 604.764 190.695C604.751 189.758 604.536 188.931 604.12 188.215C603.716 187.486 603.156 186.926 602.44 186.535C601.737 186.132 600.936 185.93 600.038 185.93C599.113 185.93 598.286 186.132 597.557 186.535C596.841 186.926 596.281 187.486 595.877 188.215C595.474 188.931 595.272 189.758 595.272 190.695ZM651.884 177.805V178.215C651.871 180.181 651.832 181.887 651.767 183.332C651.715 184.764 651.591 186.431 651.396 188.332C651.201 190.22 650.895 192.271 650.478 194.484L646.103 194.016C646.533 191.893 646.845 189.895 647.041 188.02C647.249 186.132 647.373 184.471 647.412 183.039C647.464 181.607 647.496 179.888 647.509 177.883H626.416V174.406H651.884V177.805ZM623.056 198.352H634.931V186.086H639.228V198.352H655.244V201.906H623.056V198.352ZM695.109 206.477H690.969V188.469H686.984V204.68H683V171.828H686.984V184.992H690.969V171.164H695.109V206.477ZM665.812 175.344H679.016V178.859H670.188V194.562C672.232 194.536 674.081 194.458 675.734 194.328C677.388 194.198 679.068 193.977 680.773 193.664L681.086 197.219C679.12 197.609 677.186 197.87 675.285 198C673.397 198.13 671.034 198.208 668.195 198.234H665.812V175.344ZM707.737 173.742C709.326 173.742 710.758 174.165 712.034 175.012C713.31 175.858 714.346 177.062 715.14 178.625H723.402V171.164H727.698V206.516H723.402V193.156H715.452C714.684 194.927 713.629 196.294 712.288 197.258C710.947 198.221 709.43 198.703 707.737 198.703C705.967 198.703 704.391 198.195 703.011 197.18C701.644 196.151 700.576 194.693 699.808 192.805C699.053 190.917 698.675 188.716 698.675 186.203C698.675 183.703 699.053 181.516 699.808 179.641C700.576 177.753 701.65 176.301 703.03 175.285C704.411 174.257 705.98 173.742 707.737 173.742ZM702.855 186.203C702.855 187.987 703.056 189.523 703.46 190.812C703.864 192.102 704.43 193.085 705.159 193.762C705.902 194.439 706.761 194.784 707.737 194.797C708.714 194.784 709.573 194.439 710.316 193.762C711.058 193.085 711.631 192.102 712.034 190.812C712.451 189.523 712.659 187.987 712.659 186.203C712.659 184.432 712.451 182.902 712.034 181.613C711.631 180.324 711.058 179.341 710.316 178.664C709.573 177.987 708.714 177.648 707.737 177.648C706.761 177.648 705.902 177.993 705.159 178.684C704.43 179.361 703.864 180.344 703.46 181.633C703.056 182.909 702.855 184.432 702.855 186.203ZM716.37 182.18C716.631 183.443 716.761 184.784 716.761 186.203C716.761 187.414 716.663 188.56 716.468 189.641H723.402V182.18H716.37ZM748.686 180.266H731.381V176.789H737.944V172.18H742.241V176.789H748.686V180.266ZM732.397 190.344C732.384 188.768 732.703 187.355 733.354 186.105C734.018 184.855 734.936 183.885 736.108 183.195C737.293 182.492 738.621 182.141 740.092 182.141C741.577 182.141 742.898 182.492 744.057 183.195C745.229 183.885 746.14 184.855 746.791 186.105C747.455 187.355 747.788 188.768 747.788 190.344C747.788 191.958 747.455 193.397 746.791 194.66C746.14 195.923 745.229 196.906 744.057 197.609C742.898 198.312 741.577 198.664 740.092 198.664C738.621 198.664 737.293 198.312 736.108 197.609C734.936 196.906 734.018 195.923 733.354 194.66C732.703 193.397 732.384 191.958 732.397 190.344ZM736.225 190.344C736.225 191.281 736.381 192.102 736.694 192.805C737.019 193.495 737.475 194.029 738.061 194.406C738.66 194.771 739.337 194.953 740.092 194.953C740.847 194.953 741.518 194.771 742.104 194.406C742.69 194.029 743.146 193.495 743.471 192.805C743.797 192.102 743.959 191.281 743.959 190.344C743.959 189.432 743.797 188.632 743.471 187.941C743.146 187.238 742.69 186.698 742.104 186.32C741.518 185.93 740.847 185.734 740.092 185.734C739.337 185.734 738.666 185.93 738.08 186.32C737.495 186.698 737.039 187.238 736.713 187.941C736.388 188.632 736.225 189.432 736.225 190.344ZM750.17 171.906H754.233V185.695H757.67V171.164H761.811V206.477H757.67V189.211H754.233V204.875H750.17V171.906ZM770.923 178.742H780.103V174.016H784.439V190.148H777.72V195.812C780.858 195.669 783.697 195.422 786.236 195.07L786.548 198.273C783.293 198.833 779.979 199.198 776.607 199.367C773.235 199.523 769.374 199.615 765.025 199.641L764.4 196.047C765.194 196.047 765.8 196.04 766.216 196.027C768.755 196.027 771.145 196.001 773.384 195.949V190.148H766.627V174.016H770.923V178.742ZM780.103 186.672V182.062H770.923V186.672H780.103ZM788.267 171.164H792.603V185.5H797.72V189.133H792.603V206.477H788.267V171.164ZM830.466 202.18H798.2V198.625H805.661V189.699C804.229 188.879 803.115 187.844 802.321 186.594C801.54 185.344 801.156 183.951 801.169 182.414C801.169 180.565 801.722 178.938 802.829 177.531C803.949 176.112 805.505 175.018 807.497 174.25C809.489 173.469 811.742 173.078 814.255 173.078C816.781 173.078 819.04 173.469 821.032 174.25C823.037 175.018 824.6 176.112 825.72 177.531C826.852 178.938 827.419 180.565 827.419 182.414C827.432 183.924 827.054 185.292 826.286 186.516C825.518 187.74 824.437 188.768 823.044 189.602V198.625H830.466V202.18ZM805.427 182.414C805.427 183.599 805.791 184.641 806.52 185.539C807.263 186.424 808.298 187.108 809.626 187.59C810.967 188.072 812.51 188.312 814.255 188.312C815.999 188.312 817.542 188.072 818.884 187.59C820.238 187.108 821.286 186.424 822.028 185.539C822.783 184.641 823.161 183.599 823.161 182.414C823.161 181.216 822.783 180.168 822.028 179.27C821.286 178.371 820.238 177.688 818.884 177.219C817.542 176.75 815.999 176.516 814.255 176.516C812.497 176.516 810.947 176.75 809.606 177.219C808.278 177.688 807.249 178.371 806.52 179.27C805.791 180.155 805.427 181.203 805.427 182.414ZM818.63 198.625V191.262C817.249 191.561 815.791 191.711 814.255 191.711C812.783 191.711 811.351 191.568 809.958 191.281V198.625H818.63Z" fill="white"/>
<ellipse cx="915.5" cy="57" rx="7.5" ry="8" fill="#B0FFFA" fill-opacity="0.6"/>
<circle cx="286.5" cy="215.5" r="13.5" fill="#B0FFFA" fill-opacity="0.5"/>
<path fill-rule="evenodd" clip-rule="evenodd" d="M1411 184.276L1379.5 152.276L1348 184.276L1316.5 152.276L1285 184.276L1253.5 152.276L1224.14 182.104L1219.86 177.895L1253.5 143.723L1285 175.723L1316.5 143.724L1348 175.723L1379.5 143.724L1411 175.723L1442.5 143.724L1476.14 177.895L1471.86 182.104L1442.5 152.276L1411 184.276Z" fill="#FFE766" fill-opacity="0.4"/>
<path fill-rule="evenodd" clip-rule="evenodd" d="M1411 199.209L1379.5 168.209L1348 199.209L1316.5 168.209L1285 199.209L1253.5 168.209L1224.11 197.138L1219.9 192.862L1253.5 159.791L1285 190.791L1316.5 159.791L1348 190.791L1379.5 159.791L1411 190.791L1442.5 159.791L1476.11 192.862L1471.9 197.138L1442.5 168.209L1411 199.209Z" fill="#FFE766" fill-opacity="0.4"/>
<path fill-rule="evenodd" clip-rule="evenodd" d="M1411 215.276L1379.5 183.276L1348 215.276L1316.5 183.276L1285 215.276L1253.5 183.276L1224.14 213.104L1219.86 208.895L1253.5 174.723L1285 206.723L1316.5 174.724L1348 206.723L1379.5 174.724L1411 206.723L1442.5 174.724L1476.14 208.895L1471.86 213.104L1442.5 183.276L1411 215.276Z" fill="#FFE766" fill-opacity="0.4"/>
<path fill-rule="evenodd" clip-rule="evenodd" d="M362.85 302.221L326.948 265.749L291.046 302.221L255.143 265.749L219.241 302.221L183.339 265.749L149.873 299.745L145 294.948L183.339 256L219.241 292.472L255.143 256L291.046 292.472L326.948 256L362.85 292.472L398.753 256L437.092 294.948L432.218 299.745L398.753 265.749L362.85 302.221Z" fill="#FFE766" fill-opacity="0.4"/>
<path fill-rule="evenodd" clip-rule="evenodd" d="M362.852 319.24L326.949 283.908L291.047 319.24L255.145 283.908L219.242 319.24L183.34 283.908L149.836 316.88L145.039 312.006L183.34 274.313L219.242 309.646L255.145 274.313L291.047 309.646L326.949 274.313L362.852 309.646L398.754 274.313L437.055 312.006L432.258 316.88L398.754 283.908L362.852 319.24Z" fill="#FFE766" fill-opacity="0.4"/>
<path fill-rule="evenodd" clip-rule="evenodd" d="M362.85 337.553L326.948 301.081L291.046 337.553L255.143 301.081L219.241 337.553L183.339 301.081L149.873 335.077L145 330.28L183.339 291.332L219.241 327.805L255.143 291.332L291.046 327.805L326.948 291.332L362.85 327.805L398.753 291.332L437.092 330.28L432.218 335.077L398.753 301.081L362.85 337.553Z" fill="#FFE766" fill-opacity="0.4"/>
<path d="M1191.91 118.916C1181.86 159.435 1140.86 184.134 1100.35 174.082C1059.83 164.03 1035.13 123.034 1045.18 82.5147C1055.23 41.9956 1096.23 17.2971 1136.75 27.3491C1177.27 37.401 1201.96 78.3969 1191.91 118.916Z" fill="#FFE244"/>
<path fill-rule="evenodd" clip-rule="evenodd" d="M1071.68 98.8379C1073.59 100.304 1075.77 101.38 1078.1 102.003C1080.42 102.627 1082.85 102.786 1085.24 102.472C1087.63 102.157 1089.93 101.375 1092.02 100.171C1094.1 98.9665 1095.93 97.363 1097.4 95.4519C1098.86 93.5408 1099.94 91.3596 1100.56 89.0328C1100.67 88.6179 1100.43 88.1915 1100.01 88.0803L1098.76 87.7443C1098.34 87.6332 1097.92 87.8794 1097.81 88.2942C1097.28 90.2591 1096.37 92.101 1095.13 93.7147C1093.9 95.3285 1092.35 96.6826 1090.59 97.6997C1088.83 98.7168 1086.88 99.3769 1084.87 99.6424C1082.85 99.9079 1080.8 99.7736 1078.84 99.2471C1076.87 98.7206 1075.03 97.8123 1073.42 96.574C1071.8 95.3357 1070.45 93.7917 1069.43 92.0301C1068.41 90.2684 1067.75 88.3238 1067.49 86.307C1067.22 84.2903 1067.36 82.241 1067.88 80.2762C1067.94 80.077 1067.91 79.8647 1067.81 79.6861C1067.7 79.5074 1067.53 79.3771 1067.33 79.3237L1066.08 78.9877C1065.66 78.8766 1065.24 79.1228 1065.13 79.5376C1064.5 81.8644 1064.34 84.2912 1064.66 86.6795C1064.97 89.0678 1065.75 91.3707 1066.96 93.4568C1068.16 95.543 1069.77 97.3715 1071.68 98.8379Z" fill="black"/>
<path d="M1077.43 77.6128C1077.07 79.0718 1075.59 79.9612 1074.13 79.5993C1072.67 79.2373 1071.79 77.7611 1072.15 76.302C1072.51 74.843 1073.99 73.9536 1075.44 74.3155C1076.9 74.6775 1077.79 76.1537 1077.43 77.6128Z" fill="black"/>
<path d="M1096.1 83.0561C1095.74 84.5152 1094.26 85.4046 1092.8 85.0426C1091.34 84.6807 1090.45 83.2044 1090.81 81.7454C1091.18 80.2863 1092.65 79.3969 1094.11 79.7589C1095.57 80.1209 1096.46 81.5971 1096.1 83.0561Z" fill="black"/>
<g filter="url(#filter0_d_8_1214)">
<path fill-rule="evenodd" clip-rule="evenodd" d="M1093.08 169.424C1132.76 179.269 1172.91 155.078 1182.76 115.393C1192.6 75.7077 1168.41 35.5554 1128.73 25.7103C1089.04 15.8652 1048.89 40.0555 1039.05 79.7408C1029.2 119.426 1053.39 159.578 1093.08 169.424ZM1092.7 170.933C1133.22 180.985 1174.22 156.287 1184.27 115.768C1194.32 75.2485 1169.62 34.2526 1129.1 24.2007C1088.58 14.1487 1047.59 38.8472 1037.54 79.3663C1027.48 119.885 1052.18 160.881 1092.7 170.933Z" fill="white"/>
</g>
<path fill-rule="evenodd" clip-rule="evenodd" d="M1154.89 80.443C1155.13 80.4452 1155.35 80.5514 1155.49 80.7325C1161.12 87.7091 1162.12 93.6943 1160.48 97.946C1158.97 101.883 1155.26 104.122 1151.43 104.127C1151.45 107.132 1150.12 110.063 1147.85 111.853C1145.44 113.748 1142.07 114.302 1138.33 112.482C1137.05 114.237 1134.9 115.162 1132.43 114.873C1129.71 114.552 1126.66 112.761 1123.86 109.138L1125.09 108.186C1127.72 111.592 1130.43 113.07 1132.62 113.328C1134.79 113.583 1136.51 112.658 1137.38 111.086C1137.59 110.71 1138.07 110.575 1138.44 110.784C1141.93 112.724 1144.87 112.213 1146.88 110.631C1148.94 109.013 1150.11 106.201 1149.83 103.389C1149.81 103.158 1149.89 102.93 1150.05 102.765C1150.22 102.601 1150.45 102.517 1150.68 102.538C1154.17 102.851 1157.66 100.934 1159.03 97.3874C1160.34 93.9818 1159.76 88.8452 1154.87 82.4509C1145.02 93.985 1134.64 100.856 1124.75 104.629L1124.19 103.176C1134.02 99.4251 1144.42 92.508 1154.29 80.7212C1154.44 80.5429 1154.66 80.4408 1154.89 80.443Z" fill="white"/>
<path fill-rule="evenodd" clip-rule="evenodd" d="M1112.23 142.647C1110.98 140.722 1110.65 138.49 1110.72 137.005L1112.27 137.079C1112.21 138.316 1112.5 140.206 1113.53 141.799C1114.54 143.352 1116.29 144.676 1119.31 144.82C1119.57 144.832 1119.81 144.977 1119.94 145.204C1120.07 145.43 1120.08 145.709 1119.97 145.944C1118.82 148.228 1119.03 149.979 1119.66 151.247C1120.32 152.559 1121.47 153.439 1122.32 153.835L1121.66 155.245C1120.57 154.733 1119.12 153.631 1118.27 151.942C1117.52 150.433 1117.29 148.518 1118.13 146.269C1115.24 145.854 1113.37 144.399 1112.23 142.647Z" fill="white"/>
<path fill-rule="evenodd" clip-rule="evenodd" d="M1121.41 150.075C1119.78 148.454 1118.87 146.415 1118.52 145.007L1120.02 144.63C1120.32 145.815 1121.12 147.586 1122.51 148.972C1123.88 150.335 1125.83 151.328 1128.52 151.044L1128.68 152.591C1125.46 152.93 1123.07 151.719 1121.41 150.075Z" fill="white"/>
<path fill-rule="evenodd" clip-rule="evenodd" d="M1160.08 49.9053C1161.49 50.1109 1162.76 50.8684 1163.62 52.0111C1164.48 53.1538 1164.85 54.5881 1164.66 55.9984C1164.46 57.4088 1163.72 58.6796 1162.58 59.5315C1161.35 60.4569 1159.83 60.8906 1158.35 60.7369C1156.87 60.5833 1155.56 59.8551 1154.7 58.7124C1153.84 57.5697 1153.51 56.1062 1153.77 54.6438C1154.04 53.1814 1154.88 51.8399 1156.11 50.9145C1157.24 50.0626 1158.67 49.6996 1160.08 49.9053ZM1169.06 68.1485C1165.36 70.9248 1160.8 72.2257 1156.36 71.7649C1151.93 71.304 1147.99 69.1192 1145.41 65.6912C1144.42 64.3668 1143.66 62.8988 1143.15 61.3428C1140.08 62.8765 1136.66 63.531 1133.32 63.1835C1128.88 62.7226 1124.95 60.5378 1122.37 57.1098C1119.79 53.6817 1118.79 49.2912 1119.58 44.904C1120.38 40.5168 1122.9 36.4924 1126.59 33.7161C1129.99 31.1606 1134.28 30.0715 1138.5 30.6885C1142.73 31.3055 1146.55 33.578 1149.13 37.0061C1150.09 38.2833 1150.84 39.6821 1151.39 41.1533C1154.45 39.429 1158.02 38.7547 1161.55 39.2699C1165.77 39.8869 1169.6 42.1594 1172.17 45.5875C1174.75 49.0155 1175.87 53.3183 1175.28 57.5494C1174.7 61.7804 1172.46 65.593 1169.06 68.1485ZM1133.07 42.3331C1131.83 43.2585 1130.99 44.6 1130.73 46.0624C1130.47 47.5248 1130.8 48.9883 1131.66 50.131C1132.52 51.2737 1133.83 52.0019 1135.31 52.1555C1136.79 52.3091 1138.31 51.8755 1139.54 50.9501C1140.67 50.0982 1141.42 48.8274 1141.61 47.417C1141.81 46.0067 1141.44 44.5724 1140.58 43.4297C1139.72 42.287 1138.45 41.5295 1137.04 41.3239C1135.63 41.1182 1134.2 41.4812 1133.07 42.3331Z" fill="#FF9D55"/>
<path d="M1209.45 276.889C1211.27 278.448 1210.72 281.39 1208.46 282.185L1097.22 321.313C1094.96 322.108 1092.69 320.159 1093.13 317.805L1114.87 201.907C1115.31 199.553 1118.13 198.56 1119.95 200.119L1209.45 276.889Z" fill="#FF903F"/>
<path fill-rule="evenodd" clip-rule="evenodd" d="M1225.42 282.099L1121.75 193.187L1096.58 327.415L1225.42 282.099ZM1222.36 281.525L1122.79 196.121L1098.61 325.054L1222.36 281.525Z" fill="white"/>
<path fill-rule="evenodd" clip-rule="evenodd" d="M1165.08 278.236C1163.9 276.966 1163.37 275.353 1163.23 274.241L1164.47 274.089C1164.58 275.003 1165.03 276.353 1165.99 277.391C1166.93 278.4 1168.37 279.151 1170.6 278.875C1170.81 278.85 1171.02 278.931 1171.15 279.092C1171.29 279.253 1171.34 279.471 1171.27 279.673C1170.72 281.492 1171.1 282.746 1171.72 283.591C1172.36 284.468 1173.32 284.967 1173.99 285.15L1173.66 286.35C1172.78 286.11 1171.56 285.476 1170.72 284.328C1169.97 283.309 1169.55 281.93 1169.87 280.175C1167.71 280.222 1166.14 279.385 1165.08 278.236Z" fill="white"/>
<path fill-rule="evenodd" clip-rule="evenodd" d="M1172.81 282.56C1171.39 281.566 1170.45 280.17 1170.01 279.17L1171.15 278.668C1171.52 279.5 1172.32 280.701 1173.52 281.542C1174.7 282.368 1176.25 282.85 1178.19 282.303L1178.53 283.5C1176.18 284.163 1174.25 283.57 1172.81 282.56Z" fill="white"/>
<path d="M1123.89 249.174C1124.43 250.481 1123.81 251.976 1122.5 252.515C1121.19 253.053 1119.7 252.43 1119.16 251.124C1118.62 249.817 1119.24 248.321 1120.55 247.783C1121.86 247.245 1123.35 247.867 1123.89 249.174Z" fill="black"/>
<path d="M1141.88 242.761C1142.41 244.068 1141.79 245.563 1140.49 246.102C1139.18 246.64 1137.68 246.017 1137.14 244.711C1136.61 243.404 1137.23 241.908 1138.54 241.37C1139.84 240.831 1141.34 241.454 1141.88 242.761Z" fill="black"/>
<path fill-rule="evenodd" clip-rule="evenodd" d="M1116.98 258.689C1117.18 258.076 1117.83 257.739 1118.45 257.936L1135.93 263.567L1148.94 247.477C1149.35 246.976 1150.08 246.898 1150.58 247.303C1151.08 247.708 1151.16 248.443 1150.75 248.944L1137.25 265.656L1135.98 266.033L1117.73 260.157C1117.12 259.96 1116.78 259.302 1116.98 258.689Z" fill="black"/>
<path fill-rule="evenodd" clip-rule="evenodd" d="M1181.74 258.674C1181.85 258.822 1181.89 259.013 1181.85 259.194C1180.65 264.249 1178.25 266.885 1175.65 267.666C1173.31 268.369 1170.97 267.507 1169.57 265.802C1168.18 266.827 1166.39 267.228 1164.77 266.825C1163.03 266.39 1161.56 265.039 1161.03 262.724C1159.77 262.707 1158.59 262.025 1157.85 260.798C1157 259.391 1156.75 257.319 1157.41 254.736L1158.62 255.047C1158.01 257.418 1158.29 259.12 1158.92 260.155C1159.53 261.177 1160.5 261.597 1161.44 261.451C1161.78 261.399 1162.1 261.633 1162.15 261.972C1162.49 264.181 1163.72 265.28 1165.07 265.617C1166.47 265.966 1168.11 265.527 1169.25 264.447C1169.38 264.319 1169.57 264.259 1169.75 264.281C1169.93 264.304 1170.1 264.407 1170.2 264.563C1171.25 266.203 1173.28 267.08 1175.29 266.474C1177.2 265.902 1179.27 263.944 1180.45 259.638C1171.8 259.197 1165.05 256.902 1159.86 253.743L1160.51 252.68C1165.66 255.814 1172.44 258.095 1181.26 258.429C1181.45 258.436 1181.62 258.526 1181.74 258.674Z" fill="white"/>
<path d="M1190.29 275.882C1189.43 275.924 1188.69 275.263 1188.71 274.404C1188.84 269.391 1190.75 264.567 1194.14 260.825C1197.88 256.697 1203.1 254.222 1208.67 253.947C1214.23 253.671 1219.67 255.616 1223.8 259.353C1227.54 262.742 1229.93 267.353 1230.54 272.329C1230.65 273.181 1229.98 273.913 1229.12 273.955L1221.31 274.343C1220.45 274.385 1219.74 273.72 1219.56 272.878C1219.13 270.802 1218.05 268.899 1216.46 267.458C1214.48 265.666 1211.87 264.734 1209.21 264.866C1206.54 264.999 1204.04 266.184 1202.25 268.163C1200.8 269.755 1199.92 271.755 1199.7 273.864C1199.61 274.718 1198.96 275.452 1198.1 275.494L1190.29 275.882Z" fill="white"/>
<path d="M1006.73 167.855C1007.41 166.278 1009.25 165.548 1010.8 166.29C1023.04 172.154 1033.65 180.969 1041.67 191.961C1050.3 203.793 1055.61 217.717 1057.05 232.291C1058.49 246.864 1056 261.557 1049.85 274.847C1043.7 288.137 1034.11 299.541 1022.07 307.876C1010.03 316.211 995.974 321.175 981.37 322.253C966.765 323.331 952.138 320.484 939.004 314.007C925.869 307.53 914.706 297.658 906.671 285.415C899.205 274.04 894.691 261.003 893.514 247.48C893.365 245.768 894.694 244.308 896.409 244.224L973.392 240.449C974.575 240.391 975.623 239.666 976.094 238.579L1006.73 167.855Z" fill="#489BFA"/>
<path fill-rule="evenodd" clip-rule="evenodd" d="M970.239 234.541L888.216 238.563C888.242 239.081 888.272 239.598 888.307 240.115C889.265 254.191 893.833 267.792 901.584 279.601C909.62 291.844 920.783 301.716 933.917 308.193C947.051 314.67 961.679 317.517 976.283 316.439C990.888 315.361 1004.94 310.397 1016.98 302.062C1029.02 293.727 1038.61 282.323 1044.76 269.033C1050.92 255.743 1053.4 241.05 1051.96 226.477C1050.52 211.903 1045.22 197.979 1036.59 186.148C1028.26 174.735 1017.14 165.67 1004.3 159.818C1003.83 159.603 1003.36 159.392 1002.88 159.186L970.239 234.541ZM1003.68 161.246L971.666 235.159C971.43 235.703 970.906 236.065 970.315 236.094L889.861 240.039C890.805 253.838 895.286 267.171 902.885 278.748C910.768 290.759 921.72 300.443 934.605 306.798C947.491 313.152 961.841 315.945 976.169 314.888C990.497 313.83 1004.28 308.961 1016.09 300.783C1027.91 292.606 1037.32 281.418 1043.35 268.38C1049.39 255.342 1051.83 240.927 1050.41 226.629C1049 212.332 1043.8 198.672 1035.33 187.064C1027.17 175.876 1016.27 166.987 1003.68 161.246Z" fill="white"/>
<path d="M1009.26 228.67C1010.12 229.902 1009.82 231.599 1008.59 232.461C1007.35 233.322 1005.66 233.022 1004.79 231.791C1003.93 230.559 1004.23 228.862 1005.46 228C1006.7 227.138 1008.39 227.438 1009.26 228.67Z" fill="black"/>
<path d="M1025.62 218.18C1026.49 219.411 1026.19 221.108 1024.95 221.97C1023.72 222.832 1022.03 222.532 1021.16 221.301C1020.3 220.069 1020.6 218.372 1021.83 217.51C1023.07 216.648 1024.76 216.948 1025.62 218.18Z" fill="black"/>
<path fill-rule="evenodd" clip-rule="evenodd" d="M1008.69 244.966C1008.42 246.009 1008.54 246.707 1008.83 247.161C1009.13 247.616 1009.72 248.005 1010.79 248.175C1011.85 248.345 1013.26 248.269 1014.94 247.908C1018.3 247.186 1022.51 245.381 1026.73 242.629C1030.96 239.876 1034.31 236.756 1036.33 233.974C1037.34 232.58 1037.97 231.322 1038.25 230.28C1038.52 229.238 1038.41 228.54 1038.11 228.085C1037.81 227.631 1037.22 227.241 1036.16 227.071C1035.09 226.901 1033.69 226.977 1032 227.338C1028.64 228.06 1024.43 229.865 1020.21 232.618C1015.99 235.37 1012.63 238.49 1010.62 241.272C1009.61 242.666 1008.97 243.924 1008.69 244.966ZM1008.73 239.902C1010.95 236.836 1014.54 233.53 1018.94 230.663C1023.34 227.796 1027.81 225.853 1031.51 225.057C1033.36 224.661 1035.08 224.536 1036.53 224.767C1037.98 224.999 1039.28 225.614 1040.06 226.811C1040.84 228.009 1040.88 229.454 1040.51 230.873C1040.13 232.292 1039.32 233.814 1038.21 235.344C1035.99 238.41 1032.41 241.716 1028.01 244.583C1023.61 247.45 1019.13 249.393 1015.43 250.189C1013.58 250.586 1011.87 250.711 1010.42 250.479C1008.97 250.247 1007.66 249.632 1006.88 248.435C1006.1 247.237 1006.06 245.792 1006.44 244.373C1006.81 242.954 1007.62 241.432 1008.73 239.902Z" fill="black"/>
<path d="M953.84 255.678C954.709 257.909 952.837 260.245 950.47 259.882L914.402 254.356C912.035 253.994 910.948 251.205 912.446 249.336L935.265 220.863C936.763 218.994 939.721 219.448 940.591 221.679L953.84 255.678Z" fill="black"/>
<path fill-rule="evenodd" clip-rule="evenodd" d="M965.654 245.475C965.422 245.477 965.202 245.583 965.056 245.764C959.794 252.292 958.849 257.904 960.387 261.9C961.804 265.583 965.261 267.684 968.843 267.708C968.836 270.514 970.086 273.245 972.211 274.918C974.467 276.695 977.627 277.216 981.115 275.529C982.331 277.163 984.346 278.021 986.649 277.75C989.216 277.448 992.076 275.764 994.7 272.372L993.469 271.42C991.014 274.595 988.496 275.967 986.467 276.205C984.458 276.441 982.869 275.586 982.063 274.136C981.854 273.76 981.38 273.625 981.005 273.834C977.762 275.638 975.033 275.161 973.173 273.696C971.267 272.195 970.179 269.585 970.435 266.973C970.458 266.742 970.377 266.514 970.214 266.349C970.05 266.185 969.823 266.102 969.592 266.122C966.348 266.413 963.106 264.633 961.839 261.342C960.626 258.191 961.15 253.427 965.685 247.483C974.882 258.239 984.572 264.651 993.807 268.175L994.362 266.722C985.184 263.22 975.48 256.761 966.258 245.753C966.109 245.575 965.887 245.473 965.654 245.475Z" fill="white"/>
<path fill-rule="evenodd" clip-rule="evenodd" d="M984.638 301.543C986.698 300.896 988.274 299.478 989.111 298.359L987.865 297.427C987.177 298.347 985.854 299.531 984.171 300.059C982.536 300.574 980.505 300.491 978.261 298.812C978.05 298.655 977.774 298.614 977.527 298.705C977.28 298.795 977.096 299.004 977.037 299.261C976.505 301.571 975.324 302.696 974.129 303.227C972.89 303.778 971.547 303.727 970.709 303.51L970.319 305.016C971.422 305.301 973.136 305.37 974.761 304.648C976.201 304.008 977.507 302.774 978.246 300.675C980.564 302.067 982.776 302.129 984.638 301.543Z" fill="white"/>
<path fill-rule="evenodd" clip-rule="evenodd" d="M973.588 301.441C975.739 301.242 977.62 300.312 978.717 299.502L977.793 298.251C976.881 298.924 975.263 299.724 973.444 299.892C971.658 300.058 969.679 299.619 967.921 297.827L966.811 298.917C968.943 301.088 971.404 301.643 973.588 301.441Z" fill="white"/>
<path d="M620.871 336.207L622.765 262.746L685.437 301.117L620.871 336.207Z" fill="url(#paint3_linear_8_1214)" fill-opacity="0.2"/>
<path d="M1290.35 51.9755L1328.84 9.5065L1346.37 64.073L1290.35 51.9755Z" fill="url(#paint4_linear_8_1214)" fill-opacity="0.2"/>
<path d="M377.98 57.652L344.485 46.4109L370.967 23.0237L377.98 57.652Z" fill="url(#paint5_linear_8_1214)" fill-opacity="0.2"/>
<circle cx="1314" cy="307" r="18" fill="#7DEBD1"/>
<rect x="692.987" y="282.028" width="166.138" height="166.138" transform="rotate(26.2759 692.987 282.028)" stroke="#1D8669" stroke-opacity="0.25" stroke-width="38"/>
<rect x="1262.92" y="71.5461" width="30.2426" height="30.2426" transform="rotate(-16.285 1262.92 71.5461)" stroke="#1D8669" stroke-opacity="0.3" stroke-width="7"/>
<defs>
<filter id="filter0_d_8_1214" x="1034.29" y="21.959" width="159.215" height="159.216" filterUnits="userSpaceOnUse" color-interpolation-filters="sRGB">
<feFlood flood-opacity="0" result="BackgroundImageFix"/>
<feColorMatrix in="SourceAlpha" type="matrix" values="0 0 0 0 0 0 0 0 0 0 0 0 0 0 0 0 0 0 127 0" result="hardAlpha"/>
<feOffset dx="3" dy="4"/>
<feGaussianBlur stdDeviation="2"/>
<feComposite in2="hardAlpha" operator="out"/>
<feColorMatrix type="matrix" values="0 0 0 0 0 0 0 0 0 0 0 0 0 0 0 0 0 0 0.25 0"/>
<feBlend mode="normal" in2="BackgroundImageFix" result="effect1_dropShadow_8_1214"/>
<feBlend mode="normal" in="SourceGraphic" in2="effect1_dropShadow_8_1214" result="shape"/>
</filter>
<linearGradient id="paint0_linear_8_1214" x1="288" y1="376.5" x2="386.5" y2="74.5" gradientUnits="userSpaceOnUse">
<stop stop-color="white" stop-opacity="0"/>
<stop offset="0.638583" stop-color="white"/>
</linearGradient>
<linearGradient id="paint1_linear_8_1214" x1="1441.51" y1="553.246" x2="1578.5" y2="133.262" gradientUnits="userSpaceOnUse">
<stop stop-color="white" stop-opacity="0"/>
<stop offset="0.638583" stop-color="white"/>
</linearGradient>
<linearGradient id="paint2_linear_8_1214" x1="1187" y1="109.515" x2="1187" y2="260" gradientUnits="userSpaceOnUse">
<stop stop-color="white"/>
<stop offset="1" stop-color="white" stop-opacity="0"/>
</linearGradient>
<linearGradient id="paint3_linear_8_1214" x1="620.871" y1="336.207" x2="665.178" y2="263.84" gradientUnits="userSpaceOnUse">
<stop offset="0.203125" stop-color="#1D8669" stop-opacity="0.4"/>
<stop offset="0.734375" stop-color="#1D8669"/>
</linearGradient>
<linearGradient id="paint4_linear_8_1214" x1="1290.35" y1="51.9755" x2="1353.35" y2="31.7278" gradientUnits="userSpaceOnUse">
<stop offset="0.203125" stop-color="#1D8669" stop-opacity="0.4"/>
<stop offset="0.734375" stop-color="#1D8669"/>
</linearGradient>
<linearGradient id="paint5_linear_8_1214" x1="377.98" y1="57.652" x2="350.975" y2="27.0725" gradientUnits="userSpaceOnUse">
<stop offset="0.203125" stop-color="#1D8669" stop-opacity="0.3"/>
<stop offset="0.734375" stop-color="#1D8669"/>
</linearGradient>
</defs>
</svg>
