<svg width="8" height="28" viewBox="0 0 8 28" fill="none" xmlns="http://www.w3.org/2000/svg">
<path d="M0.269531 24.0889C0.269531 25.9419 1.94246 27.458 3.98714 27.458C6.03182 27.458 7.70475 25.9419 7.70475 24.0889C7.70475 22.2359 6.03182 20.7198 3.98714 20.7198C1.94245 20.7198 0.269531 22.2359 0.269531 24.0889ZM0.26953 3.87443C0.26953 5.72743 1.94245 7.24351 3.98714 7.24351C6.03182 7.24351 7.70475 5.72743 7.70475 3.87443C7.70475 2.02143 6.03182 0.505348 3.98714 0.505348C1.94245 0.505348 0.26953 2.02143 0.26953 3.87443ZM0.269531 13.9817C0.269531 15.8347 1.94245 17.3508 3.98714 17.3508C6.03182 17.3508 7.70475 15.8347 7.70475 13.9817C7.70475 12.1287 6.03182 10.6126 3.98714 10.6126C1.94245 10.6126 0.269531 12.1287 0.269531 13.9817Z" fill="#DEDEDE"/>
</svg>
