<svg width="95" height="91" viewBox="0 0 95 91" fill="none" xmlns="http://www.w3.org/2000/svg">
<ellipse cx="44.3594" cy="25.7662" rx="4.74242" ry="2.82048" transform="rotate(9.13194 44.3594 25.7662)" fill="black"/>
<rect x="41.8414" y="26.5227" width="4.74242" height="3.16161" transform="rotate(8.46208 41.8414 26.5227)" fill="black"/>
<path d="M13.9151 39.3582L69.4123 47.6148L66.0327 70.3307C64.9902 77.3378 58.4648 82.173 51.4577 81.1306L21.3354 76.6491C14.3283 75.6067 9.49308 69.0812 10.5355 62.0742L13.9151 39.3582Z" fill="#4484FF"/>
<path d="M11.4075 59.5229C10.3395 59.364 9.31504 58.9839 8.39268 58.4043C7.47031 57.8247 6.66811 57.057 6.03185 56.145C5.39559 55.233 4.93775 54.1946 4.68447 53.089C4.43118 51.9834 4.38741 50.8323 4.55566 49.7014C4.7239 48.5706 5.10087 47.4821 5.66503 46.4981C6.22919 45.5141 6.9695 44.6539 7.84369 43.9666C8.71788 43.2793 9.70883 42.7784 10.76 42.4924C11.8111 42.2065 12.9018 42.1411 13.9699 42.3L13.4207 45.991C12.8105 45.9002 12.1872 45.9376 11.5867 46.101C10.9861 46.2644 10.4198 46.5506 9.92035 46.9433C9.42085 47.336 8.99786 47.8275 8.6755 48.3897C8.35315 48.9519 8.13776 49.5739 8.04163 50.22C7.9455 50.8662 7.97051 51.5239 8.11523 52.1556C8.25995 52.7874 8.52155 53.3807 8.8851 53.9018C9.24864 54.4229 9.70701 54.8616 10.234 55.1927C10.7611 55.5239 11.3464 55.741 11.9567 55.8318L11.4075 59.5229Z" fill="#4484FF"/>
<path d="M68.5116 50.4152C69.5796 50.5741 70.6041 50.9542 71.5265 51.5338C72.4488 52.1134 73.251 52.8811 73.8873 53.7931C74.5235 54.7051 74.9814 55.7435 75.2347 56.8491C75.4879 57.9547 75.5317 59.1058 75.3635 60.2367C75.1952 61.3676 74.8183 62.4561 74.2541 63.44C73.6899 64.424 72.9496 65.2842 72.0754 65.9715C71.2012 66.6588 70.2103 67.1597 69.1592 67.4457C68.108 67.7316 67.0173 67.797 65.9493 67.6382L66.4984 63.9471C67.1087 64.0379 67.7319 64.0005 68.3325 63.8372C68.9331 63.6738 69.4993 63.3875 69.9988 62.9948C70.4983 62.6021 70.9213 62.1106 71.2436 61.5484C71.566 60.9862 71.7814 60.3642 71.8775 59.7181C71.9736 59.0719 71.9486 58.4142 71.8039 57.7825C71.6592 57.1508 71.3976 56.5574 71.034 56.0363C70.6705 55.5152 70.2121 55.0765 69.6851 54.7454C69.1581 54.4142 68.5727 54.1971 67.9625 54.1063L68.5116 50.4152Z" fill="#4484FF"/>
<path d="M78.5687 33.2091C78.6739 33.8072 78.0226 34.2487 77.506 33.9293L61.7119 24.1637C56.1448 20.7216 55.9766 12.6843 61.3949 9.01224C66.8131 5.34022 74.2161 8.47447 75.3504 14.9208L78.5687 33.2091Z" stroke="black" stroke-width="1.40684"/>
<path d="M77.7065 34.1105C76.1263 24.7824 70.6068 6.84317 61.1709 9.71133" stroke="black" stroke-width="1.40684"/>
<path d="M78.6636 33.4623C70.585 28.5382 55.9678 16.7646 62.1281 9.06313" stroke="black" stroke-width="1.40684"/>
<path d="M76.5621 31.3937L61.4856 9.1474" stroke="black" stroke-width="1.40684"/>
<path d="M94.4346 51.6315C94.7441 52.0603 94.6381 52.6601 94.2003 52.9568L90.0588 55.7635C89.621 56.0602 89.0246 55.9365 88.741 55.4901L75.795 35.1131C75.523 34.685 75.6406 34.1183 76.0605 33.8337L79.0182 31.8293C79.438 31.5447 80.008 31.6455 80.3048 32.0567L94.4346 51.6315Z" fill="#FF9F46"/>
<rect x="32.8248" y="28.1621" width="22.1313" height="7.90404" rx="3.95202" transform="rotate(8.46208 32.8248 28.1621)" fill="#D9D9D9"/>
<path d="M69.4247 47.9053L13.8865 39.6426C14.9006 32.8264 21.2483 28.1229 28.0645 29.137L58.919 33.7273C65.7352 34.7414 70.4388 41.0891 69.4247 47.9053Z" fill="#2967DF"/>
</svg>
