<svg width="71" height="31" viewBox="0 0 71 31" fill="none" xmlns="http://www.w3.org/2000/svg">
<path fill-rule="evenodd" clip-rule="evenodd" d="M9.93985 16.6022C9.0611 16.6022 8.21835 16.9401 7.597 17.5416C6.97564 18.1431 6.62656 18.9589 6.62656 19.8096H0C0 17.2577 1.04722 14.8102 2.91131 13.0057C4.7754 11.2012 7.30364 10.1875 9.93985 10.1875C12.576 10.1875 15.1043 11.2012 16.9684 13.0057C18.8325 14.8102 19.8797 17.2577 19.8797 19.8096H13.2531C13.2531 18.9589 12.9041 18.1431 12.2827 17.5416C11.6613 16.9401 10.8186 16.6022 9.93985 16.6022Z" fill="#FFE766"/>
<path fill-rule="evenodd" clip-rule="evenodd" d="M33.5128 16.6022C32.6591 16.6022 31.8405 16.9401 31.2369 17.5416C30.6333 18.1431 30.2942 18.9589 30.2942 19.8096H23.8569C23.8569 17.2577 24.8742 14.8102 26.6851 13.0057C28.4959 11.2012 30.9519 10.1875 33.5128 10.1875C36.0737 10.1875 38.5297 11.2012 40.3405 13.0057C42.1513 14.8102 43.1686 17.2577 43.1686 19.8096H36.7314C36.7314 18.9589 36.3923 18.1431 35.7887 17.5416C35.1851 16.9401 34.3664 16.6022 33.5128 16.6022Z" fill="white"/>
<path fill-rule="evenodd" clip-rule="evenodd" d="M26.6851 27.0166C24.8742 25.1059 23.8569 22.5145 23.8569 19.8125H30.2942C30.2942 20.7132 30.6333 21.577 31.2369 22.2139C31.8405 22.8507 32.6591 23.2085 33.5128 23.2085C34.3664 23.2085 35.1851 22.8507 35.7887 22.2139C36.3923 21.577 36.7314 20.7132 36.7314 19.8125H43.1686C43.1686 22.5145 42.1513 25.1059 40.3405 27.0166C38.5297 28.9272 36.0737 30.0006 33.5128 30.0006C30.9519 30.0006 28.4959 28.9272 26.6851 27.0166Z" fill="white"/>
<path fill-rule="evenodd" clip-rule="evenodd" d="M13.0613 30.0022V22.0781H19.8772V30.0022H13.0613Z" fill="white"/>
<path fill-rule="evenodd" clip-rule="evenodd" d="M0 30.0022V22.0781H6.8159V30.0022H0Z" fill="white"/>
<path fill-rule="evenodd" clip-rule="evenodd" d="M56.7822 10.189C56.8158 10.188 56.8493 10.1875 56.8829 10.1875H58.5053V16.288H56.9415C56.0419 16.3245 55.1923 16.6899 54.5744 17.307C53.9469 17.9338 53.6096 18.769 53.6367 19.6294L47.1499 19.8096C47.072 17.3336 48.0427 14.9298 49.8487 13.126C51.6547 11.3222 54.1484 10.2659 56.7822 10.189Z" fill="#FFE766"/>
<path fill-rule="evenodd" clip-rule="evenodd" d="M47.1455 30.0022V22.0781H53.9614V30.0022H47.1455Z" fill="white"/>
<path fill-rule="evenodd" clip-rule="evenodd" d="M63.613 29.9977V10.1875H70.4289V29.9977H63.613Z" fill="white"/>
<path d="M66.7402 7.92406C69.0929 7.92406 71.0001 6.1502 71.0001 3.96203C71.0001 1.77386 69.0929 0 66.7402 0C64.3875 0 62.4802 1.77386 62.4802 3.96203C62.4802 6.1502 64.3875 7.92406 66.7402 7.92406Z" fill="#FFE766"/>
</svg>
