<svg width="70" height="31" viewBox="0 0 70 31" fill="none" xmlns="http://www.w3.org/2000/svg">
<path fill-rule="evenodd" clip-rule="evenodd" d="M30.9268 17.8595C31.5304 17.2733 32.3491 16.944 33.2027 16.944C34.0564 16.944 34.875 17.2733 35.4786 17.8595C36.0822 18.4458 36.4213 19.2408 36.4213 20.0699H42.8586C42.8586 17.5828 41.8413 15.1975 40.0305 13.4388C38.2196 11.6801 35.7636 10.6921 33.2027 10.6921C30.6418 10.6921 28.1858 11.6801 26.375 13.4388C24.5642 15.1975 23.5469 17.5828 23.5469 20.0699H29.9841C29.9841 19.2408 30.3232 18.4458 30.9268 17.8595ZM23.5469 20.0727C23.5469 22.7062 24.5642 25.2318 26.375 27.0939C28.1858 28.956 30.6418 30.0021 33.2027 30.0021C35.7636 30.0021 38.2196 28.956 40.0305 27.0939C41.8413 25.2318 42.8586 22.7062 42.8586 20.0727H36.4213C36.4213 20.9506 36.0822 21.7924 35.4786 22.4131C34.875 23.0338 34.0564 23.3825 33.2027 23.3825C32.3491 23.3825 31.5304 23.0338 30.9268 22.4131C30.3232 21.7924 29.9841 20.9506 29.9841 20.0727H23.5469Z" fill="white"/>
<path fill-rule="evenodd" clip-rule="evenodd" d="M9.93985 16.6022C9.0611 16.6022 8.21835 16.9401 7.597 17.5416C6.97564 18.1431 6.62656 18.9589 6.62656 19.8096H0C0 17.2577 1.04722 14.8102 2.91131 13.0057C4.7754 11.2012 7.30364 10.1875 9.93985 10.1875C12.576 10.1875 15.1043 11.2012 16.9684 13.0057C18.8325 14.8102 19.8797 17.2577 19.8797 19.8096H13.2531C13.2531 18.9589 12.9041 18.1431 12.2827 17.5416C11.6613 16.9401 10.8186 16.6022 9.93985 16.6022Z" fill="#FFE766"/>
<path fill-rule="evenodd" clip-rule="evenodd" d="M13.0625 30.0022V22.0781H19.8784V30.0022H13.0625Z" fill="white"/>
<path fill-rule="evenodd" clip-rule="evenodd" d="M0 30.0022V22.0781H6.8159V30.0022H0Z" fill="white"/>
<path fill-rule="evenodd" clip-rule="evenodd" d="M56.164 10.189C56.1976 10.188 56.2312 10.1875 56.2648 10.1875H57.8872V16.288H56.3234C55.4238 16.3245 54.5742 16.6899 53.9563 17.307C53.3287 17.9338 52.9915 18.769 53.0185 19.6294L46.5317 19.8096C46.4539 17.3336 47.4245 14.9298 49.2305 13.126C51.0365 11.3222 53.5302 10.2659 56.164 10.189Z" fill="#FFE766"/>
<path fill-rule="evenodd" clip-rule="evenodd" d="M46.5273 30.0022V22.0781H53.3432V30.0022H46.5273Z" fill="white"/>
<path fill-rule="evenodd" clip-rule="evenodd" d="M61.7456 29.9977V10.1875H68.5615V29.9977H61.7456Z" fill="white"/>
<path d="M65.1558 8C67.3649 8 69.1558 6.20914 69.1558 4C69.1558 1.79086 67.3649 0 65.1558 0C62.9466 0 61.1558 1.79086 61.1558 4C61.1558 6.20914 62.9466 8 65.1558 8Z" fill="#FFE766"/>
</svg>
