<svg width="56" height="23" viewBox="0 0 56 23" fill="none" xmlns="http://www.w3.org/2000/svg">
<path fill-rule="evenodd" clip-rule="evenodd" d="M24.1268 13.6914C24.5895 13.242 25.2171 12.9895 25.8715 12.9895C26.5259 12.9895 27.1535 13.242 27.6163 13.6914C28.079 14.1408 28.3389 14.7503 28.3389 15.3859H33.2738C33.2738 13.4792 32.4939 11.6506 31.1057 10.3024C29.7175 8.95419 27.8347 8.19678 25.8715 8.19678C23.9083 8.19678 22.0255 8.95419 20.6373 10.3024C19.2491 11.6506 18.4692 13.4792 18.4692 15.3859H23.4041C23.4041 14.7503 23.6641 14.1408 24.1268 13.6914ZM18.4692 15.3881C18.4692 17.4069 19.2491 19.343 20.6373 20.7705C22.0255 22.1981 23.9083 23 25.8715 23C27.8347 23 29.7175 22.1981 31.1057 20.7705C32.4939 19.343 33.2738 17.4069 33.2738 15.3881H28.3389C28.3389 16.061 28.079 16.7064 27.6163 17.1822C27.1535 17.6581 26.5259 17.9254 25.8715 17.9254C25.2171 17.9254 24.5895 17.6581 24.1268 17.1822C23.6641 16.7064 23.4041 16.061 23.4041 15.3881H18.4692Z" fill="#A9A9A9"/>
<path fill-rule="evenodd" clip-rule="evenodd" d="M8.03796 12.7274C7.36431 12.7274 6.71825 12.9865 6.24191 13.4476C5.76557 13.9087 5.49796 14.5341 5.49796 15.1862H0.417969C0.417969 13.2299 1.22078 11.3536 2.64981 9.9703C4.07884 8.58696 6.01702 7.80981 8.03796 7.80981C10.0589 7.80981 11.9971 8.58696 13.4261 9.9703C14.8551 11.3536 15.658 13.2299 15.658 15.1862H10.578C10.578 14.5341 10.3104 13.9087 9.83402 13.4476C9.35768 12.9865 8.71162 12.7274 8.03796 12.7274Z" fill="#A9A9A9"/>
<path fill-rule="evenodd" clip-rule="evenodd" d="M10.4318 23V16.9253H15.6569V23H10.4318Z" fill="#A9A9A9"/>
<path fill-rule="evenodd" clip-rule="evenodd" d="M0.417969 23V16.9253H5.64311V23H0.417969Z" fill="#A9A9A9"/>
<path fill-rule="evenodd" clip-rule="evenodd" d="M43.4739 7.81094C43.4996 7.81019 43.5254 7.80981 43.5511 7.80981H44.7949V12.4865H43.5961C42.9064 12.5145 42.2551 12.7946 41.7814 13.2677C41.3003 13.7482 41.0418 14.3885 41.0625 15.0481L36.0896 15.1862C36.03 13.2881 36.7741 11.4453 38.1586 10.0625C39.5431 8.67967 41.4548 7.86989 43.4739 7.81094Z" fill="#A9A9A9"/>
<path fill-rule="evenodd" clip-rule="evenodd" d="M36.0863 23V16.9253H41.3114V23H36.0863Z" fill="#A9A9A9"/>
<path fill-rule="evenodd" clip-rule="evenodd" d="M47.7528 22.9965V7.80981H52.9779V22.9965H47.7528Z" fill="#A9A9A9"/>
<path d="M50.3671 6.13289C52.0607 6.13289 53.4335 4.75999 53.4335 3.06644C53.4335 1.37289 52.0607 0 50.3671 0C48.6736 0 47.3007 1.37289 47.3007 3.06644C47.3007 4.75999 48.6736 6.13289 50.3671 6.13289Z" fill="#A9A9A9"/>
</svg>
