<svg width="67" height="40" viewBox="0 0 67 40" fill="none" xmlns="http://www.w3.org/2000/svg">
<ellipse cx="33.1746" cy="20" rx="33.1746" ry="20" fill="#1DB981"/>
<path fill-rule="evenodd" clip-rule="evenodd" d="M19.665 19.2695C19.2178 19.2695 18.789 19.442 18.4729 19.7492C18.1567 20.0563 17.9791 20.4728 17.9791 20.9072H14.6074C14.6074 19.6042 15.1403 18.3545 16.0887 17.4331C17.0372 16.5118 18.3236 15.9941 19.665 15.9941C21.0063 15.9941 22.2927 16.5118 23.2412 17.4331C24.1897 18.3545 24.7225 19.6042 24.7225 20.9072H21.3508C21.3508 20.4728 21.1732 20.0563 20.857 19.7492C20.5409 19.442 20.1121 19.2695 19.665 19.2695Z" fill="#FFE766"/>
<path fill-rule="evenodd" clip-rule="evenodd" d="M31.6572 19.2695C31.2228 19.2695 30.8063 19.442 30.4992 19.7492C30.192 20.0563 30.0195 20.4728 30.0195 20.9072H26.7441C26.7441 19.6042 27.2618 18.3545 28.1831 17.4331C29.1045 16.5118 30.3542 15.9941 31.6572 15.9941C32.9602 15.9941 34.2098 16.5118 35.1312 17.4331C36.0526 18.3545 36.5702 19.6042 36.5702 20.9072H33.2949C33.2949 20.4728 33.1223 20.0563 32.8152 19.7492C32.5081 19.442 32.0915 19.2695 31.6572 19.2695Z" fill="white"/>
<path fill-rule="evenodd" clip-rule="evenodd" d="M28.1831 24.5876C27.2618 23.612 26.7441 22.2888 26.7441 20.9092H30.0195C30.0195 21.3691 30.192 21.8101 30.4992 22.1353C30.8063 22.4605 31.2228 22.6432 31.6572 22.6432C32.0915 22.6432 32.5081 22.4605 32.8152 22.1353C33.1223 21.8101 33.2949 21.3691 33.2949 20.9092H36.5702C36.5702 22.2888 36.0526 23.612 35.1312 24.5876C34.2098 25.5632 32.9602 26.1112 31.6572 26.1112C30.3542 26.1112 29.1045 25.5632 28.1831 24.5876Z" fill="white"/>
<path fill-rule="evenodd" clip-rule="evenodd" d="M21.2539 26.1124V22.0664H24.7219V26.1124H21.2539Z" fill="white"/>
<path fill-rule="evenodd" clip-rule="evenodd" d="M14.6074 26.1124V22.0664H18.0754V26.1124H14.6074Z" fill="white"/>
<path fill-rule="evenodd" clip-rule="evenodd" d="M43.5009 15.9949C43.518 15.9944 43.5351 15.9941 43.5522 15.9941H44.3777V19.109H43.582C43.1243 19.1277 42.692 19.3143 42.3776 19.6294C42.0583 19.9494 41.8867 20.3759 41.9005 20.8152L38.5999 20.9072C38.5603 19.6429 39.0541 18.4156 39.9731 17.4945C40.892 16.5735 42.1608 16.0342 43.5009 15.9949Z" fill="#FFE766"/>
<path fill-rule="evenodd" clip-rule="evenodd" d="M38.5977 26.1124V22.0664H42.0657V26.1124H38.5977Z" fill="white"/>
<path fill-rule="evenodd" clip-rule="evenodd" d="M46.9766 26.1092V15.9941H50.4446V26.1092H46.9766Z" fill="white"/>
<path d="M48.564 14.839C49.7611 14.839 50.7315 13.9333 50.7315 12.816C50.7315 11.6987 49.7611 10.793 48.564 10.793C47.3669 10.793 46.3965 11.6987 46.3965 12.816C46.3965 13.9333 47.3669 14.839 48.564 14.839Z" fill="#FFE766"/>
</svg>
