<svg width="71" height="31" viewBox="0 0 71 31" fill="none" xmlns="http://www.w3.org/2000/svg">
<path fill-rule="evenodd" clip-rule="evenodd" d="M9.90508 16.6022C9.0294 16.6022 8.1896 16.9401 7.57042 17.5416C6.95124 18.1431 6.60338 18.9589 6.60338 19.8096H0C0 17.2577 1.04356 14.8102 2.90112 13.0057C4.75869 11.2012 7.2781 10.1875 9.90508 10.1875C12.5321 10.1875 15.0515 11.2012 16.909 13.0057C18.7666 14.8102 19.8102 17.2577 19.8102 19.8096H13.2068C13.2068 18.9589 12.8589 18.1431 12.2397 17.5416C11.6206 16.9401 10.7807 16.6022 9.90508 16.6022Z" fill="#FFE766"/>
<path fill-rule="evenodd" clip-rule="evenodd" d="M33.3936 16.6022C32.5429 16.6022 31.7271 16.9401 31.1256 17.5416C30.5241 18.1431 30.1862 18.9589 30.1862 19.8096H23.7715C23.7715 17.2577 24.7852 14.8102 26.5897 13.0057C28.3942 11.2012 30.8416 10.1875 33.3936 10.1875C35.9455 10.1875 38.3929 11.2012 40.1974 13.0057C42.0019 14.8102 43.0156 17.2577 43.0156 19.8096H36.6009C36.6009 18.9589 36.263 18.1431 35.6615 17.5416C35.06 16.9401 34.2442 16.6022 33.3936 16.6022Z" fill="white"/>
<path fill-rule="evenodd" clip-rule="evenodd" d="M26.5897 27.0166C24.7852 25.1059 23.7715 22.5145 23.7715 19.8125H30.1862C30.1862 20.7132 30.5241 21.577 31.1256 22.2139C31.7271 22.8507 32.5429 23.2085 33.3936 23.2085C34.2442 23.2085 35.06 22.8507 35.6615 22.2139C36.263 21.577 36.6009 20.7132 36.6009 19.8125H43.0156C43.0156 22.5145 42.0019 25.1059 40.1974 27.0166C38.3929 28.9272 35.9455 30.0006 33.3936 30.0006C30.8416 30.0006 28.3942 28.9272 26.5897 27.0166Z" fill="white"/>
<path fill-rule="evenodd" clip-rule="evenodd" d="M13.0176 30.0022V22.0781H19.8096V30.0022H13.0176Z" fill="white"/>
<path fill-rule="evenodd" clip-rule="evenodd" d="M0 30.0022V22.0781H6.79205V30.0022H0Z" fill="white"/>
<path fill-rule="evenodd" clip-rule="evenodd" d="M56.5834 10.189C56.6169 10.188 56.6504 10.1875 56.6838 10.1875H58.3006V16.288H56.7422C55.8458 16.3245 54.9991 16.6899 54.3834 17.307C53.7581 17.9338 53.422 18.769 53.4489 19.6294L46.9848 19.8096C46.9072 17.3336 47.8745 14.9298 49.6742 13.126C51.4739 11.3222 53.9588 10.2659 56.5834 10.189Z" fill="#FFE766"/>
<path fill-rule="evenodd" clip-rule="evenodd" d="M46.9805 30.0022V22.0781H53.7725V30.0022H46.9805Z" fill="white"/>
<path fill-rule="evenodd" clip-rule="evenodd" d="M63.3926 29.9977V10.1875H70.1846V29.9977H63.3926Z" fill="white"/>
<path d="M66.5068 7.92406C68.8512 7.92406 70.7518 6.1502 70.7518 3.96203C70.7518 1.77386 68.8512 0 66.5068 0C64.1623 0 62.2617 1.77386 62.2617 3.96203C62.2617 6.1502 64.1623 7.92406 66.5068 7.92406Z" fill="#FFE766"/>
</svg>
