<svg width="54" height="23" viewBox="0 0 54 23" fill="none" xmlns="http://www.w3.org/2000/svg">
<path fill-rule="evenodd" clip-rule="evenodd" d="M7.55988 12.6271C6.89154 12.6271 6.25058 12.8841 5.778 13.3416C5.30542 13.799 5.03992 14.4195 5.03992 15.0665H0C0 13.1256 0.796477 11.2642 2.21423 9.89174C3.63199 8.5193 5.55488 7.74829 7.55988 7.74829C9.56488 7.74829 11.4878 8.5193 12.9055 9.89174C14.3233 11.2642 15.1198 13.1256 15.1198 15.0665H10.0798C10.0798 14.4195 9.81435 13.799 9.34177 13.3416C8.86919 12.8841 8.22823 12.6271 7.55988 12.6271Z" fill="#A9A9A9"/>
<path fill-rule="evenodd" clip-rule="evenodd" d="M25.4885 12.6271C24.8393 12.6271 24.2166 12.8841 23.7576 13.3416C23.2985 13.799 23.0406 14.4195 23.0406 15.0665H18.1447C18.1447 13.1256 18.9184 11.2642 20.2956 9.89174C21.6729 8.5193 23.5408 7.74829 25.4885 7.74829C27.4363 7.74829 29.3042 8.5193 30.6815 9.89174C32.0587 11.2642 32.8324 13.1256 32.8324 15.0665H27.9365C27.9365 14.4195 27.6786 13.799 27.2195 13.3416C26.7604 12.8841 26.1378 12.6271 25.4885 12.6271Z" fill="#A9A9A9"/>
<path fill-rule="evenodd" clip-rule="evenodd" d="M20.2956 20.5478C18.9184 19.0946 18.1447 17.1237 18.1447 15.0686H23.0406C23.0406 15.7536 23.2985 16.4106 23.7576 16.895C24.2166 17.3794 24.8393 17.6515 25.4885 17.6515C26.1378 17.6515 26.7604 17.3794 27.2195 16.895C27.6786 16.4106 27.9365 15.7536 27.9365 15.0686H32.8324C32.8324 17.1237 32.0587 19.0946 30.6815 20.5478C29.3042 22.0009 27.4363 22.8173 25.4885 22.8173C23.5408 22.8173 21.6729 22.0009 20.2956 20.5478Z" fill="#A9A9A9"/>
<path fill-rule="evenodd" clip-rule="evenodd" d="M9.93396 22.8186V16.7919H15.1179V22.8186H9.93396Z" fill="#A9A9A9"/>
<path fill-rule="evenodd" clip-rule="evenodd" d="M0 22.8186V16.7919H5.18392V22.8186H0Z" fill="#A9A9A9"/>
<path fill-rule="evenodd" clip-rule="evenodd" d="M43.1864 7.74941C43.2119 7.74866 43.2374 7.74829 43.263 7.74829H44.4969V12.3881H43.3076C42.6233 12.4159 41.9772 12.6938 41.5072 13.1631C41.0299 13.6398 40.7734 14.2751 40.794 14.9294L35.8604 15.0665C35.8012 13.1834 36.5394 11.3551 37.913 9.98319C39.2866 8.61129 41.1832 7.80789 43.1864 7.74941Z" fill="#A9A9A9"/>
<path fill-rule="evenodd" clip-rule="evenodd" d="M35.8571 22.8186V16.7919H41.041V22.8186H35.8571Z" fill="#A9A9A9"/>
<path fill-rule="evenodd" clip-rule="evenodd" d="M48.3818 22.8152V7.74829H53.5658V22.8152H48.3818Z" fill="#A9A9A9"/>
<path d="M50.7602 6.02675C52.5495 6.02675 54.0001 4.67762 54.0001 3.01338C54.0001 1.34913 52.5495 0 50.7602 0C48.9708 0 47.5202 1.34913 47.5202 3.01338C47.5202 4.67762 48.9708 6.02675 50.7602 6.02675Z" fill="#A9A9A9"/>
</svg>
