<svg width="368" height="344" viewBox="0 0 368 344" fill="none" xmlns="http://www.w3.org/2000/svg">
<path d="M321.913 112.916C311.861 153.435 270.865 178.134 230.346 168.082C189.827 158.03 165.128 117.034 175.18 76.5147C185.232 35.9956 226.228 11.2971 266.747 21.3491C307.266 31.401 331.965 72.3969 321.913 112.916Z" fill="#FFE244"/>
<path fill-rule="evenodd" clip-rule="evenodd" d="M201.678 92.8379C203.589 94.3043 205.77 95.38 208.097 96.0034C210.424 96.6269 212.851 96.786 215.239 96.4715C217.627 96.1571 219.93 95.3754 222.016 94.1709C224.102 92.9665 225.931 91.363 227.397 89.4519C228.864 87.5408 229.939 85.3596 230.563 83.0328C230.674 82.6179 230.428 82.1915 230.013 82.0803L228.759 81.7443C228.344 81.6332 227.918 81.8794 227.807 82.2942C227.28 84.2591 226.372 86.101 225.134 87.7147C223.895 89.3285 222.351 90.6826 220.59 91.6997C218.828 92.7168 216.883 93.3769 214.867 93.6424C212.85 93.9079 210.801 93.7736 208.836 93.2471C206.871 92.7206 205.029 91.8123 203.415 90.574C201.801 89.3357 200.447 87.7917 199.43 86.0301C198.413 84.2684 197.753 82.3238 197.488 80.307C197.222 78.2903 197.356 76.241 197.883 74.2762C197.936 74.077 197.908 73.8647 197.805 73.6861C197.702 73.5074 197.532 73.3771 197.333 73.3237L196.079 72.9877C195.664 72.8766 195.238 73.1228 195.126 73.5376C194.503 75.8644 194.344 78.2912 194.658 80.6795C194.973 83.0678 195.755 85.3707 196.959 87.4568C198.163 89.543 199.767 91.3715 201.678 92.8379Z" fill="black"/>
<path d="M207.431 71.6128C207.069 73.0718 205.593 73.9612 204.134 73.5993C202.675 73.2373 201.785 71.7611 202.147 70.302C202.509 68.843 203.986 67.9536 205.445 68.3155C206.904 68.6775 207.793 70.1537 207.431 71.6128Z" fill="black"/>
<path d="M226.097 77.0561C225.735 78.5152 224.259 79.4046 222.8 79.0426C221.341 78.6807 220.451 77.2044 220.813 75.7454C221.175 74.2863 222.652 73.3969 224.111 73.7589C225.57 74.1209 226.459 75.5971 226.097 77.0561Z" fill="black"/>
<g filter="url(#filter0_d_8_1244)">
<path fill-rule="evenodd" clip-rule="evenodd" d="M223.076 163.424C262.761 173.269 302.913 149.078 312.759 109.393C322.604 69.7077 298.413 29.5554 258.728 19.7103C219.043 9.86518 178.89 34.0555 169.045 73.7408C159.2 113.426 183.39 153.578 223.076 163.424ZM222.701 164.933C263.22 174.985 304.216 150.287 314.268 109.768C324.32 69.2485 299.622 28.2526 259.103 18.2007C218.584 8.14871 177.588 32.8472 167.536 73.3663C157.484 113.885 182.182 154.881 222.701 164.933Z" fill="white"/>
</g>
<path fill-rule="evenodd" clip-rule="evenodd" d="M284.894 74.443C285.127 74.4452 285.346 74.5514 285.493 74.7325C291.117 81.7091 292.117 87.6943 290.481 91.946C288.965 95.8828 285.259 98.1218 281.428 98.1266C281.452 101.132 280.119 104.063 277.845 105.853C275.44 107.748 272.065 108.302 268.333 106.482C267.047 108.237 264.898 109.162 262.435 108.873C259.707 108.552 256.657 106.761 253.856 103.138L255.086 102.186C257.72 105.592 260.427 107.07 262.616 107.328C264.787 107.583 266.509 106.658 267.384 105.086C267.593 104.71 268.066 104.575 268.442 104.784C271.93 106.724 274.874 106.213 276.883 104.631C278.938 103.013 280.109 100.201 279.833 97.3887C279.81 97.1582 279.892 96.9296 280.055 96.7652C280.218 96.6007 280.446 96.5175 280.677 96.5381C284.17 96.8514 287.664 94.9341 289.029 91.3874C290.34 87.9818 289.762 82.8452 284.865 76.4509C275.015 87.985 264.637 94.8563 254.748 98.6292L254.194 97.176C264.025 93.4251 274.416 86.508 284.291 74.7212C284.44 74.5429 284.662 74.4408 284.894 74.443Z" fill="white"/>
<path fill-rule="evenodd" clip-rule="evenodd" d="M242.231 136.647C240.979 134.722 240.645 132.49 240.716 131.005L242.27 131.079C242.211 132.316 242.499 134.206 243.535 135.799C244.544 137.352 246.294 138.676 249.307 138.82C249.569 138.832 249.808 138.977 249.941 139.204C250.074 139.43 250.083 139.709 249.965 139.944C248.824 142.228 249.032 143.979 249.664 145.247C250.319 146.559 251.472 147.439 252.321 147.835L251.663 149.245C250.567 148.733 249.116 147.631 248.273 145.942C247.52 144.433 247.285 142.518 248.128 140.269C245.244 139.854 243.37 138.399 242.231 136.647Z" fill="white"/>
<path fill-rule="evenodd" clip-rule="evenodd" d="M251.415 144.075C249.783 142.454 248.867 140.415 248.516 139.007L250.025 138.63C250.321 139.815 251.116 141.586 252.511 142.972C253.883 144.335 255.831 145.328 258.521 145.044L258.684 146.591C255.464 146.93 253.069 145.719 251.415 144.075Z" fill="white"/>
<path fill-rule="evenodd" clip-rule="evenodd" d="M290.08 43.9053C291.489 44.1109 292.763 44.8684 293.622 46.0111C294.48 47.1538 294.853 48.5881 294.659 49.9984C294.464 51.4088 293.718 52.6796 292.584 53.5315C291.352 54.4569 289.83 54.8906 288.352 54.7369C286.874 54.5833 285.561 53.8551 284.703 52.7124C283.844 51.5697 283.51 50.1062 283.774 48.6438C284.038 47.1814 284.878 45.8399 286.11 44.9145C287.243 44.0626 288.672 43.6996 290.08 43.9053ZM299.058 62.1485C295.363 64.9248 290.796 66.2257 286.362 65.7649C281.928 65.304 277.99 63.1192 275.414 59.6912C274.419 58.3668 273.659 56.8988 273.146 55.3428C270.082 56.8765 266.662 57.531 263.318 57.1835C258.884 56.7226 254.946 54.5378 252.37 51.1098C249.795 47.6817 248.792 43.2912 249.584 38.904C250.376 34.5168 252.896 30.4924 256.591 27.7161C259.993 25.1606 264.278 24.0715 268.504 24.6885C272.73 25.3055 276.552 27.578 279.127 31.0061C280.087 32.2833 280.844 33.6821 281.387 35.1533C284.449 33.429 288.019 32.7547 291.548 33.2699C295.774 33.8869 299.595 36.1594 302.171 39.5875C304.747 43.0155 305.866 47.3183 305.282 51.5494C304.698 55.7804 302.46 59.593 299.058 62.1485ZM263.066 36.3331C261.834 37.2585 260.994 38.6 260.73 40.0624C260.466 41.5248 260.8 42.9883 261.659 44.131C262.517 45.2737 263.83 46.0019 265.308 46.1555C266.786 46.3091 268.308 45.8755 269.54 44.9501C270.674 44.0982 271.42 42.8274 271.615 41.417C271.809 40.0067 271.436 38.5724 270.578 37.4297C269.719 36.287 268.445 35.5295 267.037 35.3239C265.628 35.1182 264.199 35.4812 263.066 36.3331Z" fill="#FF9D55"/>
<path d="M339.453 270.889C341.271 272.448 340.719 275.39 338.46 276.185L227.223 315.313C224.964 316.108 222.691 314.159 223.133 311.805L244.866 195.907C245.307 193.553 248.131 192.56 249.948 194.119L339.453 270.889Z" fill="#FF903F"/>
<path fill-rule="evenodd" clip-rule="evenodd" d="M355.415 276.099L251.755 187.187L226.585 321.415L355.415 276.099ZM352.358 275.525L252.787 190.121L228.61 319.054L352.358 275.525Z" fill="white"/>
<path fill-rule="evenodd" clip-rule="evenodd" d="M295.079 272.236C293.903 270.966 293.37 269.353 293.233 268.241L294.468 268.089C294.581 269.003 295.031 270.353 295.992 271.391C296.926 272.4 298.373 273.151 300.603 272.875C300.811 272.85 301.019 272.931 301.155 273.092C301.29 273.253 301.335 273.471 301.274 273.673C300.725 275.492 301.099 276.746 301.72 277.591C302.363 278.468 303.318 278.967 303.988 279.15L303.661 280.35C302.78 280.11 301.56 279.476 300.717 278.328C299.969 277.309 299.552 275.93 299.873 274.175C297.705 274.222 296.142 273.385 295.079 272.236Z" fill="white"/>
<path fill-rule="evenodd" clip-rule="evenodd" d="M302.808 276.56C301.39 275.566 300.451 274.17 300.01 273.17L301.149 272.668C301.516 273.5 302.323 274.701 303.522 275.542C304.7 276.368 306.252 276.85 308.189 276.303L308.527 277.5C306.18 278.163 304.246 277.57 302.808 276.56Z" fill="white"/>
<path d="M253.892 243.174C254.431 244.481 253.808 245.976 252.501 246.515C251.194 247.053 249.699 246.43 249.16 245.124C248.622 243.817 249.245 242.321 250.551 241.783C251.858 241.245 253.354 241.867 253.892 243.174Z" fill="black"/>
<path d="M271.877 236.761C272.415 238.068 271.792 239.563 270.486 240.102C269.179 240.64 267.683 240.017 267.145 238.711C266.606 237.404 267.229 235.908 268.536 235.37C269.842 234.831 271.338 235.454 271.877 236.761Z" fill="black"/>
<path fill-rule="evenodd" clip-rule="evenodd" d="M246.978 252.689C247.175 252.076 247.832 251.739 248.446 251.936L265.935 257.567L278.94 241.477C279.345 240.976 280.08 240.898 280.581 241.303C281.082 241.708 281.16 242.443 280.755 242.944L267.246 259.656L265.981 260.033L247.731 254.157C247.117 253.96 246.78 253.302 246.978 252.689Z" fill="black"/>
<path fill-rule="evenodd" clip-rule="evenodd" d="M311.736 252.674C311.848 252.822 311.889 253.013 311.846 253.194C310.648 258.249 308.247 260.885 305.652 261.666C303.313 262.369 300.974 261.507 299.565 259.802C298.183 260.827 296.39 261.228 294.771 260.825C293.025 260.39 291.56 259.039 291.031 256.724C289.767 256.707 288.591 256.025 287.852 254.798C287.004 253.391 286.747 251.319 287.415 248.736L288.62 249.047C288.007 251.418 288.293 253.12 288.917 254.155C289.534 255.177 290.495 255.597 291.445 255.451C291.784 255.399 292.102 255.633 292.154 255.972C292.492 258.181 293.717 259.28 295.072 259.617C296.473 259.966 298.106 259.527 299.248 258.447C299.382 258.319 299.567 258.259 299.751 258.281C299.935 258.304 300.099 258.407 300.199 258.563C301.25 260.203 303.278 261.08 305.294 260.474C307.197 259.902 309.265 257.944 310.448 253.638C301.799 253.197 295.05 250.902 289.86 247.743L290.507 246.68C295.656 249.814 302.442 252.095 311.264 252.429C311.45 252.436 311.623 252.526 311.736 252.674Z" fill="white"/>
<path d="M320.288 269.882C319.43 269.924 318.694 269.263 318.715 268.404C318.838 263.391 320.753 258.567 324.141 254.825C327.879 250.697 333.104 248.222 338.666 247.947C344.228 247.671 349.672 249.616 353.8 253.353C357.543 256.742 359.926 261.353 360.544 266.329C360.65 267.181 359.983 267.913 359.125 267.955L351.312 268.343C350.454 268.385 349.736 267.72 349.562 266.878C349.132 264.802 348.054 262.899 346.462 261.458C344.483 259.666 341.874 258.734 339.208 258.866C336.542 258.999 334.038 260.184 332.246 262.163C330.805 263.755 329.92 265.755 329.697 267.864C329.607 268.718 328.959 269.452 328.101 269.494L320.288 269.882Z" fill="white"/>
<path d="M136.731 161.855C137.414 160.278 139.249 159.548 140.798 160.29C153.041 166.154 163.654 174.969 171.672 185.961C180.302 197.793 185.611 211.717 187.049 226.291C188.487 240.864 186.002 255.557 179.851 268.847C173.7 282.137 164.107 293.541 152.066 301.876C140.025 310.211 125.974 315.175 111.37 316.253C96.765 317.331 82.1377 314.484 69.0035 308.007C55.8694 301.53 44.7062 291.658 36.6706 279.415C29.2048 268.04 24.6913 255.003 23.5136 241.48C23.3645 239.768 24.6935 238.308 26.4095 238.224L103.392 234.449C104.575 234.391 105.623 233.666 106.094 232.579L136.731 161.855Z" fill="#489BFA"/>
<path fill-rule="evenodd" clip-rule="evenodd" d="M100.239 228.541L18.2161 232.563C18.2415 233.081 18.2718 233.598 18.307 234.115C19.2646 248.191 23.8335 261.792 31.5843 273.601C39.6198 285.844 50.783 295.716 63.9172 302.193C77.0514 308.67 91.6786 311.517 106.283 310.439C120.888 309.361 134.939 304.397 146.98 296.062C159.021 287.727 168.614 276.323 174.765 263.033C180.915 249.743 183.401 235.05 181.963 220.477C180.525 205.903 175.216 191.979 166.586 180.148C158.262 168.735 147.14 159.67 134.303 153.818C133.831 153.603 133.358 153.392 132.882 153.186L100.239 228.541ZM133.685 155.246L101.666 229.159C101.43 229.703 100.906 230.065 100.315 230.094L19.8608 234.039C20.8046 247.838 25.286 261.171 32.8846 272.748C40.768 284.759 51.7197 294.443 64.6051 300.798C77.4905 307.152 91.8408 309.945 106.169 308.888C120.497 307.83 134.282 302.961 146.094 294.783C157.907 286.606 167.318 275.418 173.353 262.38C179.387 249.342 181.826 234.927 180.415 220.629C179.004 206.332 173.796 192.672 165.329 181.064C157.169 169.876 146.267 160.987 133.685 155.246Z" fill="white"/>
<path d="M139.255 222.67C140.117 223.902 139.817 225.599 138.586 226.461C137.354 227.322 135.657 227.022 134.795 225.791C133.933 224.559 134.233 222.862 135.465 222C136.696 221.138 138.393 221.438 139.255 222.67Z" fill="black"/>
<path d="M155.624 212.18C156.486 213.411 156.186 215.108 154.955 215.97C153.723 216.832 152.026 216.532 151.164 215.301C150.302 214.069 150.602 212.372 151.834 211.51C153.065 210.648 154.763 210.948 155.624 212.18Z" fill="black"/>
<path fill-rule="evenodd" clip-rule="evenodd" d="M138.694 238.966C138.42 240.009 138.538 240.707 138.834 241.161C139.13 241.616 139.721 242.005 140.785 242.175C141.849 242.345 143.258 242.269 144.942 241.908C148.301 241.186 152.509 239.381 156.733 236.629C160.957 233.876 164.308 230.756 166.325 227.974C167.336 226.58 167.974 225.322 168.249 224.28C168.523 223.238 168.405 222.54 168.109 222.085C167.813 221.631 167.222 221.241 166.158 221.071C165.093 220.901 163.685 220.977 162.001 221.338C158.642 222.06 154.434 223.865 150.21 226.618C145.986 229.37 142.635 232.49 140.618 235.272C139.607 236.666 138.968 237.924 138.694 238.966ZM138.729 233.902C140.952 230.836 144.536 227.53 148.936 224.663C153.336 221.796 157.808 219.853 161.511 219.057C163.359 218.661 165.077 218.536 166.526 218.767C167.975 218.999 169.284 219.614 170.064 220.811C170.844 222.009 170.878 223.454 170.505 224.873C170.132 226.292 169.323 227.814 168.214 229.344C165.99 232.41 162.407 235.716 158.007 238.583C153.607 241.45 149.135 243.393 145.432 244.189C143.584 244.586 141.866 244.711 140.417 244.479C138.968 244.247 137.659 243.632 136.879 242.435C136.099 241.237 136.065 239.792 136.438 238.373C136.811 236.954 137.62 235.432 138.729 233.902Z" fill="black"/>
<path d="M83.8397 249.678C84.7092 251.909 82.8372 254.245 80.4701 253.882L44.4021 248.356C42.035 247.994 40.9482 245.205 42.4457 243.336L65.265 214.863C66.7626 212.994 69.7214 213.448 70.5909 215.679L83.8397 249.678Z" fill="black"/>
<path fill-rule="evenodd" clip-rule="evenodd" d="M95.6545 239.475C95.4219 239.477 95.2024 239.583 95.0564 239.764C89.7938 246.292 88.8491 251.904 90.3872 255.9C91.8045 259.583 95.2615 261.684 98.8429 261.708C98.8358 264.514 100.086 267.245 102.211 268.918C104.467 270.695 107.627 271.216 111.115 269.529C112.331 271.163 114.346 272.021 116.649 271.75C119.216 271.448 122.076 269.764 124.7 266.372L123.469 265.42C121.014 268.595 118.496 269.967 116.467 270.205C114.458 270.441 112.869 269.586 112.063 268.136C111.854 267.76 111.38 267.625 111.005 267.834C107.762 269.638 105.033 269.161 103.173 267.696C101.267 266.195 100.179 263.585 100.435 260.973C100.458 260.742 100.377 260.514 100.214 260.349C100.05 260.185 99.8226 260.102 99.5919 260.122C96.348 260.413 93.1057 258.633 91.8388 255.342C90.6261 252.191 91.1497 247.427 95.6846 241.483C104.882 252.239 114.572 258.651 123.807 262.175L124.362 260.722C115.184 257.22 105.48 250.761 96.2579 239.753C96.1085 239.575 95.8871 239.473 95.6545 239.475Z" fill="white"/>
<path fill-rule="evenodd" clip-rule="evenodd" d="M114.638 295.543C116.698 294.896 118.274 293.478 119.111 292.359L117.865 291.427C117.177 292.347 115.854 293.531 114.171 294.059C112.536 294.574 110.505 294.491 108.261 292.812C108.05 292.655 107.774 292.614 107.527 292.705C107.28 292.795 107.096 293.004 107.037 293.261C106.505 295.571 105.324 296.696 104.129 297.227C102.89 297.778 101.547 297.727 100.709 297.51L100.319 299.016C101.422 299.301 103.136 299.37 104.761 298.648C106.201 298.008 107.507 296.774 108.246 294.675C110.564 296.067 112.776 296.129 114.638 295.543Z" fill="white"/>
<path fill-rule="evenodd" clip-rule="evenodd" d="M103.588 295.441C105.739 295.242 107.62 294.312 108.717 293.502L107.793 292.251C106.881 292.924 105.263 293.724 103.444 293.892C101.658 294.058 99.6793 293.619 97.9206 291.827L96.8107 292.917C98.9425 295.088 101.404 295.643 103.588 295.441Z" fill="white"/>
<defs>
<filter id="filter0_d_8_1244" x="164.295" y="15.959" width="159.215" height="159.216" filterUnits="userSpaceOnUse" color-interpolation-filters="sRGB">
<feFlood flood-opacity="0" result="BackgroundImageFix"/>
<feColorMatrix in="SourceAlpha" type="matrix" values="0 0 0 0 0 0 0 0 0 0 0 0 0 0 0 0 0 0 127 0" result="hardAlpha"/>
<feOffset dx="3" dy="4"/>
<feGaussianBlur stdDeviation="2"/>
<feComposite in2="hardAlpha" operator="out"/>
<feColorMatrix type="matrix" values="0 0 0 0 0 0 0 0 0 0 0 0 0 0 0 0 0 0 0.25 0"/>
<feBlend mode="normal" in2="BackgroundImageFix" result="effect1_dropShadow_8_1244"/>
<feBlend mode="normal" in="SourceGraphic" in2="effect1_dropShadow_8_1244" result="shape"/>
</filter>
</defs>
</svg>
