<svg width="45" height="20" viewBox="0 0 45 20" fill="none" xmlns="http://www.w3.org/2000/svg">
<path d="M0 4C0 1.79086 1.79086 0 4 0H41C43.2091 0 45 1.79086 45 4V16C45 18.2091 43.2091 20 41 20H4C1.79086 20 0 18.2091 0 16V4Z" fill="#1DB981"/>
<path d="M14.375 4.49609H13.3086V8.70312H11.9609V4.70703H10.918V14.457H11.9609V9.61719H13.3086V14.9961H14.375V4.49609ZM5.87891 12.3242H6.55859C7.68945 12.3301 8.89062 12.2539 10.332 11.9961L10.2148 11.0234C9.01953 11.2578 7.95898 11.334 6.99219 11.3457V5.73828H5.87891V12.3242ZM23.1875 5.38672H19.1328V10.1445H19.8242C21.3887 10.1387 22.4551 10.0859 23.7383 9.85156L23.6328 8.9375C22.5195 9.16602 21.5469 9.22461 20.2344 9.23047V6.28906H23.1875V5.38672ZM19.9883 14.082L20.457 14.9492C22.0566 14.6738 23.4395 13.8711 24.0898 12.7578C24.7285 13.8711 26.1055 14.6738 27.7109 14.9492L28.1797 14.082C26.1992 13.7949 24.6406 12.623 24.6406 11.3164V10.9297H23.5273V11.3164C23.5215 12.623 21.9629 13.7949 19.9883 14.082ZM24.2539 10.5078H25.2969V8.08203H26.5859V11.4219H27.6406V4.49609H26.5859V7.16797H25.2969V4.68359H24.2539V10.5078ZM37.4492 4.94141H30.2656V5.83203H36.3477C36.3477 6.48828 36.3242 7.29102 36.1074 8.35156H29.0586V9.24219H38.668V8.35156H37.2266C37.4551 7.20898 37.4551 6.32422 37.4492 5.63281V4.94141ZM30.1836 11.0703H36.3594V12.0781H30.1953V14.8906H37.7305V14H31.3086V12.9336H37.4609V10.1797H30.1836V11.0703Z" fill="white"/>
</svg>
