<svg width="66" height="66" viewBox="0 0 66 66" fill="none" xmlns="http://www.w3.org/2000/svg">
<g filter="url(#filter0_d_1080_17806)">
<circle cx="33" cy="32" r="28" fill="white"/>
<circle cx="33" cy="32" r="27.5" stroke="#787878"/>
</g>
<mask id="path-3-inside-1_1080_17806" fill="white">
<path fill-rule="evenodd" clip-rule="evenodd" d="M23.8385 22.4336C23.3323 22.4336 22.9219 22.844 22.9219 23.3503V35.0838V37.1003V40.8301C22.9219 41.4834 23.7118 41.8106 24.1738 41.3486L27.5054 38.0169H42.1719C42.6781 38.0169 43.0885 37.6065 43.0885 37.1003V23.3503C43.0885 22.844 42.6781 22.4336 42.1719 22.4336H23.8385Z"/>
</mask>
<path fill-rule="evenodd" clip-rule="evenodd" d="M23.8385 22.4336C23.3323 22.4336 22.9219 22.844 22.9219 23.3503V35.0838V37.1003V40.8301C22.9219 41.4834 23.7118 41.8106 24.1738 41.3486L27.5054 38.0169H42.1719C42.6781 38.0169 43.0885 37.6065 43.0885 37.1003V23.3503C43.0885 22.844 42.6781 22.4336 42.1719 22.4336H23.8385Z" fill="white"/>
<path d="M24.1738 41.3486L25.3405 42.5153L25.3405 42.5153L24.1738 41.3486ZM27.5054 38.0169V36.3669C27.0678 36.3669 26.6482 36.5408 26.3387 36.8502L27.5054 38.0169ZM24.5719 23.3503C24.5719 23.7553 24.2436 24.0836 23.8385 24.0836V20.7836C22.421 20.7836 21.2719 21.9327 21.2719 23.3503H24.5719ZM24.5719 35.0838V23.3503H21.2719V35.0838H24.5719ZM24.5719 37.1003V35.0838H21.2719V37.1003H24.5719ZM24.5719 40.8301V37.1003H21.2719V40.8301H24.5719ZM23.007 40.1819C23.5845 39.6044 24.5719 40.0134 24.5719 40.8301H21.2719C21.2719 42.9534 23.8391 44.0168 25.3405 42.5153L23.007 40.1819ZM26.3387 36.8502L23.007 40.1819L25.3405 42.5153L28.6722 39.1837L26.3387 36.8502ZM42.1719 36.3669H27.5054V39.6669H42.1719V36.3669ZM41.4385 37.1003C41.4385 36.6953 41.7669 36.3669 42.1719 36.3669V39.6669C43.5894 39.6669 44.7385 38.5178 44.7385 37.1003H41.4385ZM41.4385 23.3503V37.1003H44.7385V23.3503H41.4385ZM42.1719 24.0836C41.7669 24.0836 41.4385 23.7553 41.4385 23.3503H44.7385C44.7385 21.9327 43.5894 20.7836 42.1719 20.7836V24.0836ZM23.8385 24.0836H42.1719V20.7836H23.8385V24.0836Z" fill="#787878" mask="url(#path-3-inside-1_1080_17806)"/>
<path d="M28.4219 27.9336L37.5885 27.9336" stroke="#787878" stroke-width="1.65" stroke-linecap="round"/>
<path d="M28.4219 32.5176L37.5885 32.5176" stroke="#787878" stroke-width="1.65" stroke-linecap="round"/>
<defs>
<filter id="filter0_d_1080_17806" x="0" y="0" width="66" height="66" filterUnits="userSpaceOnUse" color-interpolation-filters="sRGB">
<feFlood flood-opacity="0" result="BackgroundImageFix"/>
<feColorMatrix in="SourceAlpha" type="matrix" values="0 0 0 0 0 0 0 0 0 0 0 0 0 0 0 0 0 0 127 0" result="hardAlpha"/>
<feMorphology radius="1" operator="dilate" in="SourceAlpha" result="effect1_dropShadow_1080_17806"/>
<feOffset dy="1"/>
<feGaussianBlur stdDeviation="2"/>
<feComposite in2="hardAlpha" operator="out"/>
<feColorMatrix type="matrix" values="0 0 0 0 0 0 0 0 0 0 0 0 0 0 0 0 0 0 0.08 0"/>
<feBlend mode="normal" in2="BackgroundImageFix" result="effect1_dropShadow_1080_17806"/>
<feBlend mode="normal" in="SourceGraphic" in2="effect1_dropShadow_1080_17806" result="shape"/>
</filter>
</defs>
</svg>
