<svg width="24" height="24" viewBox="0 0 24 24" fill="none" xmlns="http://www.w3.org/2000/svg">
<mask id="path-1-inside-1_1080_18490" fill="white">
<path fill-rule="evenodd" clip-rule="evenodd" d="M2.83854 2.43359C2.33228 2.43359 1.92188 2.844 1.92188 3.35026V15.0838V17.1003V20.8301C1.92188 21.4834 2.71178 21.8106 3.17375 21.3486L6.50544 18.0169H21.1719C21.6781 18.0169 22.0885 17.6065 22.0885 17.1003V3.35026C22.0885 2.844 21.6781 2.43359 21.1719 2.43359H2.83854Z"/>
</mask>
<path fill-rule="evenodd" clip-rule="evenodd" d="M2.83854 2.43359C2.33228 2.43359 1.92188 2.844 1.92188 3.35026V15.0838V17.1003V20.8301C1.92188 21.4834 2.71178 21.8106 3.17375 21.3486L6.50544 18.0169H21.1719C21.6781 18.0169 22.0885 17.6065 22.0885 17.1003V3.35026C22.0885 2.844 21.6781 2.43359 21.1719 2.43359H2.83854Z" fill="white"/>
<path d="M3.17375 21.3486L4.34048 22.5153L4.34048 22.5153L3.17375 21.3486ZM6.50544 18.0169V16.3669C6.06784 16.3669 5.64815 16.5408 5.33872 16.8502L6.50544 18.0169ZM3.57187 3.35026C3.57187 3.75527 3.24355 4.08359 2.83854 4.08359V0.783594C1.42101 0.783594 0.271875 1.93273 0.271875 3.35026H3.57187ZM3.57187 15.0838V3.35026H0.271875V15.0838H3.57187ZM3.57187 17.1003V15.0838H0.271875V17.1003H3.57187ZM3.57187 20.8301V17.1003H0.271875V20.8301H3.57187ZM2.00703 20.1819C2.58449 19.6044 3.57187 20.0134 3.57187 20.8301H0.271875C0.271875 22.9534 2.83906 24.0168 4.34048 22.5153L2.00703 20.1819ZM5.33872 16.8502L2.00703 20.1819L4.34048 22.5153L7.67217 19.1837L5.33872 16.8502ZM21.1719 16.3669H6.50544V19.6669H21.1719V16.3669ZM20.4385 17.1003C20.4385 16.6953 20.7669 16.3669 21.1719 16.3669V19.6669C22.5894 19.6669 23.7385 18.5178 23.7385 17.1003H20.4385ZM20.4385 3.35026V17.1003H23.7385V3.35026H20.4385ZM21.1719 4.08359C20.7669 4.08359 20.4385 3.75526 20.4385 3.35026H23.7385C23.7385 1.93273 22.5894 0.783594 21.1719 0.783594V4.08359ZM2.83854 4.08359H21.1719V0.783594H2.83854V4.08359Z" fill="#787878" mask="url(#path-1-inside-1_1080_18490)"/>
<path d="M7.42188 7.93359L16.5885 7.93359" stroke="#787878" stroke-width="1.65" stroke-linecap="round"/>
<path d="M7.42188 12.5176L16.5885 12.5176" stroke="#787878" stroke-width="1.65" stroke-linecap="round"/>
</svg>
