<svg width="66" height="66" viewBox="0 0 66 66" fill="none" xmlns="http://www.w3.org/2000/svg">
<g filter="url(#filter0_d_1080_18911)">
<circle cx="33" cy="32" r="28" fill="white"/>
<circle cx="33" cy="32" r="27.5" stroke="#D9D9D9"/>
</g>
<path d="M22.1953 35.5938H24.8438V42.9648H26.1328V35.5938H28.7695V34.4805H22.1953V35.5938ZM37.0898 38.7227C37.0898 36.0098 35.4609 34.3633 33.2695 34.3633C31.0605 34.3633 29.4375 36.0098 29.4375 38.7227C29.4375 41.4297 31.0605 43.082 33.2695 43.082C35.4609 43.082 37.0898 41.4355 37.0898 38.7227ZM30.7148 38.7227C30.7207 36.6602 31.8047 35.541 33.2695 35.5469C34.7227 35.541 35.8066 36.6602 35.8125 38.7227C35.8066 40.7852 34.7227 41.9043 33.2695 41.8984C31.8047 41.9043 30.7207 40.7852 30.7148 38.7227ZM38.543 42.9648H39.832V39.9883H41.5664C43.5352 39.9883 44.5078 38.7988 44.5078 37.2344C44.5078 35.6641 43.541 34.4805 41.5664 34.4805H38.543V42.9648ZM39.832 38.8867V35.582H41.4375C42.6855 35.5879 43.207 36.2734 43.207 37.2344C43.207 38.1895 42.6855 38.8926 41.4375 38.8867H39.832Z" fill="#636363"/>
<path d="M33 19L27 29L39 29L33 19Z" fill="#636363" stroke="#636363" stroke-width="1.5" stroke-linecap="round" stroke-linejoin="round"/>
<defs>
<filter id="filter0_d_1080_18911" x="0" y="0" width="66" height="66" filterUnits="userSpaceOnUse" color-interpolation-filters="sRGB">
<feFlood flood-opacity="0" result="BackgroundImageFix"/>
<feColorMatrix in="SourceAlpha" type="matrix" values="0 0 0 0 0 0 0 0 0 0 0 0 0 0 0 0 0 0 127 0" result="hardAlpha"/>
<feMorphology radius="1" operator="dilate" in="SourceAlpha" result="effect1_dropShadow_1080_18911"/>
<feOffset dy="1"/>
<feGaussianBlur stdDeviation="2"/>
<feComposite in2="hardAlpha" operator="out"/>
<feColorMatrix type="matrix" values="0 0 0 0 0 0 0 0 0 0 0 0 0 0 0 0 0 0 0.08 0"/>
<feBlend mode="normal" in2="BackgroundImageFix" result="effect1_dropShadow_1080_18911"/>
<feBlend mode="normal" in="SourceGraphic" in2="effect1_dropShadow_1080_18911" result="shape"/>
</filter>
</defs>
</svg>
