<svg width="85" height="85" viewBox="0 0 85 85" fill="none" xmlns="http://www.w3.org/2000/svg">
<rect width="10.3202" height="2.43942" transform="matrix(-0.269658 -0.962956 0.969422 -0.245401 9.62614 39.1628)" fill="#D6D6D6"/>
<path d="M34.5151 50L52.3952 52.4L34.5151 54.8L52.3952 57.2L34.5151 59.6L52.3952 62" stroke="#D9D9D9" stroke-width="3.01045"/>
<rect width="47.3827" height="14.4729" rx="7.23645" transform="matrix(0.371942 -0.928256 0.940223 0.340561 44.1479 43.9833)" fill="#1D8669"/>
<rect x="15.5831" y="23.9999" width="59.9509" height="18" rx="8.99998" fill="#1DB981"/>
<rect x="0.85844" y="36" width="84.1416" height="18" rx="8.99998" fill="#FFE766"/>
<rect x="2.96199" y="61.9999" width="79.9345" height="11" rx="5.49999" fill="#FFE766"/>
<ellipse cx="7.16906" cy="24.5" rx="6.31062" ry="5.49999" fill="#FF9F46"/>
<ellipse cx="9.38169" cy="76.0799" rx="9.38169" ry="8.91989" fill="black"/>
<ellipse cx="31.4567" cy="76.0802" rx="9.38169" ry="8.91989" fill="black"/>
<ellipse cx="53.5299" cy="76.0802" rx="9.38169" ry="8.91989" fill="black"/>
<ellipse cx="75.6049" cy="76.0802" rx="9.38169" ry="8.91989" fill="black"/>
<ellipse cx="9.38233" cy="76.0796" rx="4.96678" ry="4.72229" fill="#D9D9D9"/>
<ellipse cx="31.4553" cy="76.0796" rx="4.96678" ry="4.72229" fill="#D9D9D9"/>
<ellipse cx="53.5303" cy="76.0796" rx="4.96678" ry="4.72229" fill="#D9D9D9"/>
<ellipse cx="75.6053" cy="76.0796" rx="4.96678" ry="4.72229" fill="#D9D9D9"/>
<ellipse cx="9.38201" cy="76.0797" rx="1.65559" ry="1.5741" fill="white"/>
<ellipse cx="31.4572" cy="76.0797" rx="1.65559" ry="1.5741" fill="white"/>
<ellipse cx="53.5322" cy="76.0797" rx="1.65559" ry="1.5741" fill="white"/>
<ellipse cx="75.6052" cy="76.0797" rx="1.65559" ry="1.5741" fill="white"/>
<ellipse cx="17.1046" cy="44.5981" rx="3.86305" ry="3.67289" fill="#FF9F46"/>
<ellipse cx="30.3503" cy="44.5982" rx="3.86305" ry="3.67289" fill="#FF9F46"/>
<ellipse cx="43.5932" cy="44.5982" rx="3.86305" ry="3.67289" fill="#FF9F46"/>
<path d="M60.702 44.5982C60.702 46.6267 58.9725 48.2711 56.839 48.2711C54.7055 48.2711 52.9759 46.6267 52.9759 44.5982C52.9759 42.5697 54.7055 40.9253 56.839 40.9253C58.9725 40.9253 60.702 42.5697 60.702 44.5982Z" fill="#FF9F46"/>
<ellipse cx="70.0833" cy="44.5982" rx="3.86305" ry="3.67289" fill="#FF9F46"/>
</svg>
